<?xml version="1.0" standalone="no"?>
<!DOCTYPE svg PUBLIC "-//W3C//DTD SVG 1.1//EN" "http://www.w3.org/Graphics/SVG/1.1/DTD/svg11.dtd" >
<svg>
<metadata>
Created by FontForge 20090622 at Sun Jun 28 11:53:27 2015
 By deploy user
Copyright 2015 Adobe Systems Incorporated. All rights reserved.
</metadata>
<defs>
<font id="Centuma-Light" horiz-adv-x="1140" >
  <font-face 
    font-family="Centuma"
    font-weight="300"
    font-stretch="normal"
    units-per-em="2048"
    panose-1="2 0 0 0 0 0 0 0 0 0"
    ascent="1536"
    descent="-512"
    x-height="1082"
    cap-height="1456"
    bbox="-971 -496 2348 2127"
    underline-thickness="100"
    underline-position="-100"
    unicode-range="U+0009-U+FEFF"
  />
<missing-glyph horiz-adv-x="498" 
 />
    <glyph glyph-name="fi" unicode="fi" horiz-adv-x="1100" 
d="M348 0h-120v984h-180v98h180v138q0 171 95 266t264 95q132 0 276 -59l-20 -103q-130 53 -248 53q-122 0 -184.5 -64.5t-62.5 -187.5v-138h253v-98h-253v-984zM928 1082v-1082h-120v1082h120z" />
    <glyph glyph-name=".notdef" horiz-adv-x="498" 
 />
    <glyph glyph-name=".null" horiz-adv-x="0" 
 />
    <glyph glyph-name="nonmarkingreturn" horiz-adv-x="682" 
 />
    <glyph glyph-name="uni0002" horiz-adv-x="0" 
 />
    <glyph glyph-name="uni0002" horiz-adv-x="0" 
 />
    <glyph glyph-name="uni0009" unicode="&#x9;" horiz-adv-x="0" 
 />
    <glyph glyph-name="CR" unicode="&#xd;" horiz-adv-x="498" 
 />
    <glyph glyph-name="space" unicode=" " horiz-adv-x="498" 
 />
    <glyph glyph-name="exclam" unicode="!" horiz-adv-x="462" 
d="M288 1456v-978h-119v978h119zM300 167v-167h-142v167h142z" />
    <glyph glyph-name="quotedbl" unicode="&#x22;" horiz-adv-x="666" 
d="M287 1456v-216l-73 -261h-72l25 255v222h120zM526 1456v-216l-73 -261h-72l26 258v219h119z" />
    <glyph glyph-name="numbersign" unicode="#" horiz-adv-x="1270" 
d="M658 0l77 410h-313l-77 -410h-100l77 410h-255v93h272l83 441h-279v96h297l79 416h100l-79 -416h314l79 416h100l-79 -416h229v-96h-247l-83 -441h255v-93h-273l-77 -410h-100zM522 944l-83 -441h314l83 441h-314z" />
    <glyph glyph-name="dollar" unicode="$" horiz-adv-x="1154" 
d="M1095 362q0 -70 -25 -130t-68 -102.5t-101 -73.5t-122 -47.5t-133 -21.5v-195h-102v194q-310 10 -446 103l25 114q108 -59 220 -88t254 -29q70 0 135 16t120 47.5t88 86t33 124.5q0 42 -12 78t-29.5 63t-49.5 51.5t-60 40.5t-74.5 34t-78.5 28.5t-86 26.5q-85 24 -145 45
t-127.5 57t-108.5 77t-68 102.5t-27 137.5q0 87 37 158t99.5 117.5t140 73.5t163.5 32v195h102v-195q115 -7 195.5 -38.5t174.5 -90.5l-32 -106l-54 33.5t-62.5 33.5t-82.5 35t-90 21.5t-109 10.5q-70 0 -134 -17t-115.5 -50t-82.5 -87.5t-31 -123.5q0 -40 9 -73t23.5 -57
t39.5 -45t48.5 -35t60.5 -29t66.5 -25l74 -25t75.5 -27q53 -16 94.5 -30t92.5 -36t89.5 -45.5t77 -56.5t63 -69.5t40 -84.5t15.5 -103z" />
    <glyph glyph-name="percent" unicode="%" horiz-adv-x="1514" 
d="M110 1099v77q0 127 78 214q80 87 207 87t205 -87q79 -86 79 -214v-77q0 -126 -78 -213q-78 -86 -204 -86q-128 0 -208 86q-79 86 -79 213zM206 1176v-77q0 -89 49 -150q50 -62 142 -62q89 0 137 62q49 61 49 150v77q0 89 -49 151q-50 63 -139 63q-91 0 -140 -63
q-49 -62 -49 -151zM842 279v78q0 126 78 213q80 87 207 87t206 -87q79 -86 79 -213v-78q0 -128 -79 -214q-78 -86 -204 -86q-128 0 -208 86q-79 86 -79 214zM939 357v-78q0 -90 49 -151q50 -62 141 -62q89 0 137 62q49 61 49 151v78q0 91 -49 152t-139 61q-89 0 -139 -62
q-49 -61 -49 -151zM1137 1259l-711 -1138l-74 48l711 1138z" />
    <glyph glyph-name="ampersand" unicode="&#x26;" horiz-adv-x="1260" 
d="M913 799l246 10v-110h-128v-610v-1q-68 -51 -177 -80t-208 -29q-106 0 -199.5 25t-169 74.5t-120 131t-44.5 186.5q0 132 67.5 223.5t193.5 131.5q-105 38 -169.5 128t-64.5 199q0 98 39.5 175.5t107.5 125.5t155.5 73t187.5 25q101 0 199.5 -29t158.5 -83l-45 -95
q-52 58 -138.5 81.5t-174.5 23.5q-157 0 -263.5 -76.5t-106.5 -216.5q0 -135 99 -211.5t259 -71.5v-102q-188 0 -287 -76.5t-99 -228.5q0 -80 34.5 -141.5t93.5 -97.5t131 -54t155 -18q148 0 267 60v658z" />
    <glyph glyph-name="quotesingle" unicode="'" horiz-adv-x="423" 
d="M287 1456v-195l-73 -275h-72l25 266v204h120z" />
    <glyph glyph-name="parenleft" unicode="(" horiz-adv-x="640" 
d="M140 573v15q0 364 139 651q140 289 310 386l6 -1l26 -73q-145 -103 -253 -366t-108 -594v-20q0 -331 108 -594q109 -264 253 -370l-26 -70h-6q-174 101 -311 382q-138 282 -138 654z" />
    <glyph glyph-name="parenright" unicode=")" horiz-adv-x="652" 
d="M498 588v-15q0 -372 -138 -654t-310 -382h-6l-26 70q144 102 252 367q109 264 109 597v20q0 329 -111 595q-109 266 -250 369l26 70h6q169 -97 309 -386q139 -287 139 -651z" />
    <glyph glyph-name="asterisk" unicode="*" horiz-adv-x="869" 
d="M189 469l172 237l-272 76l32 101l272 -92l-8 291l104 -1l-4 -294l264 97l33 -101l-273 -84l172 -230l-85 -62l-163 241l-159 -239z" />
    <glyph glyph-name="plus" unicode="+" horiz-adv-x="1156" 
d="M630 1206v-466h443v-112h-443v-482h-121v482h-434v112h434v466h121z" />
    <glyph glyph-name="comma" unicode="," horiz-adv-x="392" 
d="M271 188v-170l-106 -276h-82l69 279v167h119z" />
    <glyph glyph-name="hyphen" unicode="-" horiz-adv-x="860" 
d="M720 671v-101h-590v101h590z" />
    <glyph glyph-name="period" unicode="." horiz-adv-x="489" 
d="M304 164v-164h-137v164h137z" />
    <glyph glyph-name="slash" unicode="/" horiz-adv-x="813" 
d="M746 1456l-607 -1581h-109l608 1581h108z" />
    <glyph glyph-name="zero" unicode="0" horiz-adv-x="1135" 
d="M1020 942v-428q0 -250 -121 -392q-120 -143 -330 -143t-332 143q-122 145 -122 392v428q0 248 121 391q122 144 331 144t331 -144q122 -145 122 -391zM900 496v465q0 191 -87 302q-85 112 -246 112q-160 0 -247 -112q-86 -113 -86 -302v-465q0 -189 87 -303
q89 -113 248 -113t245 113t86 303z" />
    <glyph glyph-name="one" unicode="1" horiz-adv-x="754" 
d="M558 1469v-1469h-120v1353l-345 -42v96z" />
    <glyph glyph-name="two" unicode="2" horiz-adv-x="1135" 
d="M306 101h733v-101h-886v92l479 559l59 79l56.5 76.5t43.5 65.5t37.5 71t20 67.5t9.5 78.5q0 135 -72.5 210.5t-210.5 75.5q-90 0 -182.5 -28.5t-158.5 -80.5l-58 86q77 61 183 93t216 32q184 0 293.5 -104t109.5 -285q0 -55 -15 -107t-46.5 -106t-60.5 -95l-79 -106.5
t-79 -107.5l-394 -459z" />
    <glyph glyph-name="three" unicode="3" horiz-adv-x="1135" 
d="M758 750q126 -40 193.5 -131.5t67.5 -223.5q0 -105 -37.5 -186t-104.5 -130.5t-154.5 -74.5t-192.5 -25q-104 0 -229.5 29t-191.5 80l51 94q75 -54 176 -78t194 -24q169 0 269.5 76.5t100.5 234.5q0 152 -90.5 228.5t-260.5 76.5h-134v102h134q143 -5 233 71.5t90 211.5
q0 144 -86 219t-237 75q-91 0 -183.5 -23.5t-143.5 -81.5l-45 94q60 54 164.5 83.5t207.5 29.5q203 0 323 -101.5t120 -298.5q0 -109 -64.5 -198.5t-169.5 -128.5z" />
    <glyph glyph-name="four" unicode="4" horiz-adv-x="1002" 
d="M742 469l15 301h104v-770h-119v368h-669v68l657 1020h129l-644 -987h527z" />
    <glyph glyph-name="five" unicode="5" horiz-adv-x="1135" 
d="M609 929q129 2 226 -60.5t146 -168t49 -236.5q0 -219 -127.5 -352t-350.5 -133q-136 0 -249.5 26t-176.5 74l56 96q154 -95 370 -95q166 0 262 99.5t96 282.5q0 157 -81.5 256t-232.5 99q-194 0 -313 -110l-93 69l70 680h708l-6 -111h-599l-54 -524q115 102 300 108z" />
    <glyph glyph-name="six" unicode="6" horiz-adv-x="1135" 
d="M626 1477q79 0 161 -17q80 -16 208 -69l-34 -104q-124 57 -188 72q-60 16 -147 16q-152 0 -253 -122q-99 -121 -99 -317v-180q60 64 155 114q95 51 210 51q193 0 301 -126t108 -341q0 -213 -122 -344t-319 -131q-196 0 -324 149t-128 403v394q0 243 135 397
q137 155 336 155zM606 823q-118 0 -206 -64q-89 -65 -126 -100v-137q0 -201 94 -322q95 -120 239 -120q149 0 234 106q87 106 87 268q0 178 -82 273.5t-240 95.5z" />
    <glyph glyph-name="seven" unicode="7" horiz-adv-x="1135" 
d="M1038 1456v-102q-244 -286 -369 -573q-123 -287 -123 -637v-144h-120v144q0 345 128 642q129 294 360 568h-823v102h947z" />
    <glyph glyph-name="eight" unicode="8" horiz-adv-x="1135" 
d="M777 741q114 -41 187.5 -134.5t73.5 -212.5q0 -189 -129.5 -302t-328.5 -113q-97 0 -181.5 25.5t-151 75.5t-105.5 130.5t-41 183.5q2 2 -0.5 15.5t2.5 41l11 59.5t25 69.5t44 72t69 67.5t100 55q-94 44 -152 128t-58 188q0 127 58 215.5t154.5 130t222.5 41.5
q119 0 212 -42.5t150 -132.5t57 -216q0 -50 -18 -99.5t-42 -86t-57.5 -71.5t-56 -53.5t-45.5 -34.5zM260 1091q0 -58 23.5 -104t58.5 -75.5t88.5 -53.5t101 -39t107.5 -31q28 -7 42 -11q54 36 94 81.5t58.5 85t29 73.5t11.5 54l2 20q-2 128 -85 206t-214 78
q-65 0 -120.5 -16.5t-100.5 -49.5t-70.5 -89t-25.5 -129zM580 80q140 0 238.5 85.5t98.5 227.5q0 39 -9 73t-23 60.5t-39 50.5t-48 41t-58.5 34t-63 27.5t-70 22.5t-70 19t-71.5 17q-11 3 -17 4q-32 -15 -56.5 -29t-59.5 -44t-57.5 -65t-39 -90t-16.5 -121
q0 -144 102 -225.5t259 -87.5z" />
    <glyph glyph-name="nine" unicode="9" horiz-adv-x="1135" 
d="M518 80q161 0 255 106q95 107 95 296v212q-53 -89 -141 -137t-196 -48q-198 0 -318 131q-119 133 -119 343q0 213 125 353q124 141 313 141q206 0 333 -135q127 -134 127 -384v-474q0 -237 -132 -371q-131 -134 -342 -134q-78 0 -152 16q-79 17 -231 79l19 103
q129 -59 203 -78q75 -19 161 -19zM531 610q128 0 214 64q88 65 123 158v139q0 194 -90 299t-241 105q-141 0 -230 -113t-89 -279q0 -160 83 -267q84 -106 230 -106z" />
    <glyph glyph-name="colon" unicode=":" horiz-adv-x="434" 
d="M304 164v-164h-137v164h137zM304 1040v-164h-137v164h137z" />
    <glyph glyph-name="semicolon" unicode=";" horiz-adv-x="438" 
d="M305 1040v-164h-137v164h137zM322 188v-170l-106 -276h-82l69 279v167h119z" />
    <glyph glyph-name="less" unicode="&#x3c;" horiz-adv-x="1047" 
d="M904 850l-614 -272l-108 -28v-6l108 -28l614 -268v-126l-827 379v97l827 378v-126z" />
    <glyph glyph-name="equal" unicode="=" horiz-adv-x="1147" 
d="M983 939v-106h-834v106h834zM983 528v-106h-834v106h834z" />
    <glyph glyph-name="greater" unicode="&#x3e;" horiz-adv-x="1061" 
d="M756 573l-632 271v123l845 -378v-97l-845 -379v124l632 274l108 27v6z" />
    <glyph glyph-name="question" unicode="?" horiz-adv-x="930" 
d="M512 0v154h-139v-154h139zM458 1476q170 0 276 -99.5t106 -273.5q0 -68 -19 -130t-57 -120t-78.5 -105t-100.5 -104q-62 -51 -76 -98q-13 -46 -13 -142h-119q2 132 22 182q20 49 114 137q52 53 79.5 84.5t62 81.5t50 102t15.5 111q0 128 -68 197.5t-194 69.5
q-66 0 -144 -25.5t-113 -68.5l-83 81q51 56 150 88t190 32z" />
    <glyph glyph-name="at" unicode="@" horiz-adv-x="1870" 
d="M1751 513q-11 -216 -117 -375t-313 -159q-78 0 -130.5 51t-69.5 142q-107 -193 -311 -193q-131 0 -199 120q-68 122 -49 317q23 254 141 407q118 154 286 154q94 0 151 -27q57 -26 126 -81l-2 -2h3l-50 -574q-11 -132 30 -180t95 -48q142 0 224 124q84 126 94 324
q18 389 -150 604q-168 216 -530 216q-323 0 -533 -236q-211 -236 -227 -619q-19 -378 163 -612q183 -234 520 -234q90 0 178 22q91 23 152 57l31 -75q-66 -42 -167 -65q-103 -24 -198 -24q-380 0 -588 250q-209 249 -189 681q18 423 252 683q235 259 610 259q390 0 587 -242
q196 -241 180 -665zM672 416q-16 -154 26 -247q42 -92 138 -92q86 0 156 43q71 44 123 157q0 11 1 16l47 544q-68 49 -158 49q-136 0 -223 -120.5t-110 -349.5z" />
    <glyph glyph-name="A" unicode="A" horiz-adv-x="1256" 
d="M1093 0l-145 406h-639l-147 -406h-124l535 1456h113l531 -1456h-124zM627 1285l-280 -772h562l-276 772h-6z" />
    <glyph glyph-name="B" unicode="B" horiz-adv-x="1263" 
d="M713 0h-527v1456h425q227 0 354 -96q127 -94 127 -287q0 -108 -62 -191q-61 -81 -165 -116q138 -16 225 -120q88 -103 88 -241q0 -195 -127 -300q-126 -105 -338 -105zM709 702h-403v-601h407q162 0 253 79q92 80 92 223q0 131 -91 212q-90 82 -242 87h-16zM306 1354
v-551h350q152 3 234 73t82 201q0 137 -91.5 207t-269.5 70h-305z" />
    <glyph glyph-name="C" unicode="C" horiz-adv-x="1274" 
d="M1122 220l62 -76q-122 -165 -474 -165q-142 0 -253 47t-181.5 131.5t-107 199t-36.5 252.5v237q0 135 37.5 249t108 199.5t181.5 134t251 48.5q144 0 249 -26t196 -86l-71 -92q-142 102 -374 102q-120 0 -209.5 -40.5t-142 -114t-79 -166t-28.5 -206.5v-239
q0 -154 49.5 -271t154.5 -187.5t255 -70.5q140 0 236.5 28.5t175.5 111.5z" />
    <glyph glyph-name="D" unicode="D" horiz-adv-x="1378" 
d="M630 0h-444v1456h444q298 0 457 -168t159 -467v-187q0 -279 -154 -457q-153 -177 -462 -177zM630 1354h-324v-1253h324q249 0 372 151q124 151 124 382v190q0 228 -124 379q-123 151 -372 151z" />
    <glyph glyph-name="E" unicode="E" horiz-adv-x="1129" 
d="M959 807v-102h-653v-604h755v-101h-875v1456h870v-102h-750v-547h653z" />
    <glyph glyph-name="F" unicode="F" horiz-adv-x="1128" 
d="M975 785v-103h-669v-682h-120v1456h891v-102h-771v-569h669z" />
    <glyph glyph-name="G" unicode="G" horiz-adv-x="1410" 
d="M711 708h511v-512q-78 -109 -210 -163t-294 -54q-168 0 -301.5 83t-204 225t-65.5 313v267q-6 137 38 252t126.5 193t197.5 121.5t249 43.5q122 0 229.5 -32t175.5 -93l-45 -97q-124 120 -360 120q-147 0 -261.5 -62t-176 -178t-53.5 -266v-269q-4 -140 49.5 -257.5
t159 -190t242.5 -72.5q270 0 385 153v374h-392v101z" />
    <glyph glyph-name="H" unicode="H" horiz-adv-x="1439" 
d="M1253 1456v-1456h-120v670h-827v-670h-120v1456h120v-684h827v684h120z" />
    <glyph glyph-name="I" unicode="I" horiz-adv-x="554" 
d="M337 1456v-1456h-120v1456h120z" />
    <glyph glyph-name="J" unicode="J" horiz-adv-x="1122" 
d="M820 1456h120v-1034q0 -199 -112 -321t-313 -122q-109 0 -221.5 31.5t-170.5 97.5l63 93q54 -61 143 -91t186 -30q142 0 223.5 90.5t81.5 251.5v1034z" />
    <glyph glyph-name="K" unicode="K" horiz-adv-x="1261" 
d="M1086 0l-623 691l-157 11v-702h-120v1456h120v-673l156 9l572 664h136v-8l-602 -697l662 -742v-9h-144z" />
    <glyph glyph-name="L" unicode="L" horiz-adv-x="1128" 
d="M306 1456v-1355h752v-101h-872v1456h120z" />
    <glyph glyph-name="M" unicode="M" horiz-adv-x="1766" 
d="M346 1456l540 -1014h6l542 1014h146v-1456h-120v1251l-6 1l-522 -952h-86l-534 960l-6 -1v-1259h-120v1456h160z" />
    <glyph glyph-name="N" unicode="N" horiz-adv-x="1445" 
d="M1259 1456v-1456h-120l-827 1246l-6 -1v-1245h-120v1456h120l827 -1243l6 1v1242h120z" />
    <glyph glyph-name="O" unicode="O" horiz-adv-x="1378" 
d="M1254 846v-237q0 -327 -147 -479q-147 -151 -422 -151q-277 0 -419 151t-142 479v237q0 310 144 470.5t416 160.5q275 0 422.5 -161t147.5 -470zM1135 609v239q0 277 -120 400q-118 124 -331 124q-209 0 -324 -124q-116 -124 -116 -400v-239q0 -290 116 -409
q117 -117 325 -117q213 0 331 117q119 119 119 409z" />
    <glyph glyph-name="P" unicode="P" horiz-adv-x="1263" 
d="M688 605h-382v-605h-120v1456h502q230 0 354 -117q126 -117 126 -308q0 -195 -126 -310q-125 -116 -354 -116zM306 1354v-647h382q180 0 270 91q90 92 90 231q0 141 -90 232q-90 93 -270 93h-382z" />
    <glyph glyph-name="Q" unicode="Q" horiz-adv-x="1393" 
d="M1254 846v-237q0 -268 -141 -440l232 -227l-83 -80l-235 225q-141 -108 -342 -108q-256 0 -409 174q-152 175 -152 456v237q0 280 152 456q151 175 408 175q261 0 415 -175q155 -176 155 -456zM1135 609v239q0 236 -120 380q-119 144 -331 144q-208 0 -324 -144
q-116 -145 -116 -380v-239q0 -237 116 -382q117 -144 325 -144q212 0 331 143q119 145 119 383z" />
    <glyph glyph-name="R" unicode="R" horiz-adv-x="1300" 
d="M892 636l291 -597v-39h-118l-292 610q-47 -5 -89 -5h-382v-605h-120v1456h502q230 0 353 -117q127 -117 127 -308q0 -195 -127 -310q-62 -57 -145 -85zM302 707h382q180 0 270 91q90 92 90 231q0 141 -90 232q-90 93 -270 93h-382v-647z" />
    <glyph glyph-name="S" unicode="S" horiz-adv-x="1236" 
d="M656 781q53 -16 94.5 -30t92.5 -36.5t89.5 -45.5t77 -56t63 -70t40 -85t15.5 -102q0 -94 -43.5 -168t-115.5 -118.5t-159 -67.5t-180 -23q-157 0 -291 26.5t-207 76.5l25 115q213 -117 473 -117q56 0 108.5 9.5t101.5 31t86 53t59 78t22 102.5q0 42 -12 78t-29.5 62.5
t-50 51t-60 40.5t-74.5 34.5t-79 29t-86 26.5q-59 16 -104 30.5t-97 36t-89.5 44.5t-74.5 54.5t-60 67.5t-37 83.5t-14 102.5q0 74 27.5 137t74 107.5t108.5 76t131 46.5t142 15q140 0 232.5 -32.5t197.5 -98.5l-33 -106q-43 28 -70.5 43.5t-82 41t-116 38t-128.5 12.5
q-95 0 -175.5 -29t-134 -93.5t-53.5 -155.5q0 -40 9 -73t23 -57t39.5 -45t49 -35t60.5 -29t66 -25l73.5 -25t75.5 -27z" />
    <glyph glyph-name="T" unicode="T" horiz-adv-x="1224" 
d="M1176 1456v-102h-496v-1354h-119v1354h-513v102h1128z" />
    <glyph glyph-name="U" unicode="U" horiz-adv-x="1374" 
d="M1090 1456h119v-967q0 -240 -147 -375t-378 -135q-228 0 -373 135q-144 136 -144 375v967h120v-967q0 -188 111 -299q113 -110 286 -110q177 0 292 110q114 110 114 299v967z" />
    <glyph glyph-name="V" unicode="V" horiz-adv-x="1256" 
d="M159 1456l437 -1201l29 -102h6l29 102l438 1201h129l-542 -1456h-114l-542 1456h130z" />
    <glyph glyph-name="W" unicode="W" horiz-adv-x="1813" 
d="M180 1456l260 -1038l45 -235h6l355 1010h121l354 -1011h6l48 236l257 1038h130l-373 -1456h-114l-363 1033h-10l-365 -1033h-114l-373 1456h130z" />
    <glyph glyph-name="X" unicode="X" horiz-adv-x="1256" 
d="M219 1456l409 -622l411 622h145l-484 -718l500 -738h-143l-427 642l-426 -642h-145l500 738l-485 718h145z" />
    <glyph glyph-name="Y" unicode="Y" horiz-adv-x="1256" 
d="M177 1456l448 -809l451 809h139l-531 -924v-532h-119v537l-527 919h139z" />
    <glyph glyph-name="Z" unicode="Z" horiz-adv-x="1224" 
d="M1099 1369l-861 -1268h893v-101h-1036v92l858 1262h-831v102h977v-87z" />
    <glyph glyph-name="bracketleft" unicode="[" horiz-adv-x="491" 
d="M493 1664v-102h-210v-1772h210v-102h-330v1976h330z" />
    <glyph glyph-name="backslash" unicode="\" horiz-adv-x="807" 
d="M656 -125l-608 1581h117l608 -1581h-117z" />
    <glyph glyph-name="bracketright" unicode="]" horiz-adv-x="491" 
d="M0 1562v102h331v-1976h-331v102h211v1772h-211z" />
    <glyph glyph-name="asciicircum" unicode="^" horiz-adv-x="852" 
d="M386 1213l-193 -484h-116l299 727h90l298 -727h-116l-196 484l-30 106h-6z" />
    <glyph glyph-name="underscore" unicode="_" horiz-adv-x="884" 
d="M882 0v-101h-881v101h881z" />
    <glyph glyph-name="grave" unicode="`" horiz-adv-x="585" 
d="M249 1518l202 -266h-117l-241 261l2 5h154z" />
    <glyph glyph-name="a" unicode="a" horiz-adv-x="1101" 
d="M940 218l1 -218h-95q-5 45 -11.5 87t-9.5 75q-58 -74 -169 -128.5t-224 -54.5q-154 0 -244 81.5t-90 231.5q0 69 26.5 125.5t70.5 94.5t103 63t124 35t133 8q79 -3 145.5 -18.5t93.5 -29.5l27 -14v196q0 116 -73.5 181.5t-207.5 65.5q-163 0 -353 -77l-25 101
q183 78 384 78q180 0 286 -90q108 -93 108 -261v-532zM821 250v213q-12 7 -35 17.5t-92.5 28t-139.5 17.5q-59 0 -116.5 -14t-107.5 -41.5t-81 -75t-31 -107.5q0 -96 63 -150t164 -54q100 0 202.5 48.5t173.5 117.5z" />
    <glyph glyph-name="b" unicode="b" 
d="M1030 532v-21q0 -242 -110 -388q-110 -144 -303 -144q-131 0 -211 50q-82 53 -139 111l-15 -140h-94v1560h120v-640q59 80 138 131q80 51 199 51q195 0 305 -156q110 -155 110 -414zM909 511v21q0 206 -80 336q-79 130 -237 130q-106 0 -186 -63q-77 -59 -128 -154v-533
q56 -62 124 -112q74 -53 192 -53q156 0 236 116q79 115 79 312z" />
    <glyph glyph-name="c" unicode="c" horiz-adv-x="1054" 
d="M893 167l44 -87q-110 -101 -338 -101q-241 0 -371.5 150t-130.5 391v42q0 243 135.5 391.5t365.5 148.5q222 0 338 -105l-52 -89q-106 92 -286 92q-96 2 -170.5 -33t-119.5 -96.5t-67.5 -139.5t-23.5 -169v-42q-1 -119 44.5 -218.5t134 -160.5t203.5 -61q74 0 157 20.5
t137 66.5z" />
    <glyph glyph-name="d" unicode="d" 
d="M111 511v21q0 260 109 414q110 156 306 156q124 0 197 -52q72 -50 136 -140v650h120v-1560h-98l-14 146q-129 -167 -343 -167q-194 0 -304 144q-109 145 -109 388zM231 532v-21q0 -197 78 -312q80 -116 237 -116q116 0 193 51q78 54 120 110v546q-59 92 -131 150
q-70 58 -180 58q-159 0 -238 -130q-79 -128 -79 -336z" />
    <glyph glyph-name="e" unicode="e" horiz-adv-x="1054" 
d="M569 -21q-211 0 -341 148q-131 149 -131 382v55q0 234 132 386q134 152 329 152q198 0 304 -127q108 -126 108 -340v-93h-753v-33q0 -185 93 -307q95 -122 259 -122q210 0 372 77l36 -96q-62 -38 -176 -60q-111 -22 -232 -22zM558 1000q-138 0 -227 -99
q-89 -100 -104 -251l3 -6h620v25q0 145 -76 237q-75 94 -216 94z" />
    <glyph glyph-name="f" unicode="f" horiz-adv-x="658" 
d="M360 0h-120v984h-179v98h179v158q0 162 82 251.5t229 89.5q60 0 136 -19l-16 -99q-52 13 -108 13q-98 0 -150.5 -62t-52.5 -174v-158h245v-98h-245v-984z" />
    <glyph glyph-name="g" unicode="g" horiz-adv-x="1148" 
d="M885 694q0 149 -86 225.5t-253 76.5q-164 0 -240 -70t-87 -231q0 -283 329 -283q337 0 337 282zM1053 1073v-100h-170q55 -33 88 -113t33 -166q0 -188 -117 -282.5t-340 -94.5q-145 0 -199 -20t-54 -81q0 -58 59.5 -85t222.5 -27q104 0 177.5 -5.5t137.5 -21t102.5 -42
t60 -69t21.5 -102.5q0 -74 -38.5 -128t-108 -84t-153 -44t-185.5 -14q-265 0 -381.5 56.5t-116.5 212.5q0 84 56.5 140.5t142.5 56.5q-109 38 -109 156q0 27 4.5 47t17 42t39.5 38t69 25q-212 79 -212 326q0 402 445 402q125 0 205 -23h303zM578 0q-213 0 -292 -30t-79 -107
q0 -62 32.5 -97.5t115.5 -53.5t231 -18q371 0 371 165q0 85 -78 113t-301 28z" />
    <glyph glyph-name="h" unicode="h" 
d="M278 1560v-631q56 67 144 119q90 54 210 54q354 0 354 -435v-667h-120v669q0 176 -70 252q-69 77 -191 77q-111 0 -200 -62q-92 -64 -127 -113v-823h-120v1560h120z" />
    <glyph glyph-name="i" unicode="i" horiz-adv-x="465" 
d="M292 1082v-1082h-119v1082h119zM292 1560v-168h-119v168h119z" />
    <glyph glyph-name="j" unicode="j" horiz-adv-x="484" 
d="M180 1082h119v-1171q0 -166 -79.5 -257t-222.5 -91q-50 0 -112 19l13 101q45 -15 93 -15q90 0 139.5 62t49.5 181v1171zM293 1560v-164h-119v164h119z" />
    <glyph glyph-name="k" unicode="k" horiz-adv-x="1006" 
d="M846 0l-441 527l-126 9v-536h-120v1560h120v-940l114 10l415 452h135v-13l-437 -483l472 -571v-15h-132z" />
    <glyph glyph-name="l" unicode="l" horiz-adv-x="465" 
d="M292 1560v-1560h-119v1560h119z" />
    <glyph glyph-name="m" unicode="m" horiz-adv-x="1815" 
d="M154 1082h106l11 -178q109 198 344 198q255 0 326 -241q50 115 141 178t217 63q176 0 269 -117t93 -354v-631h-120v633q0 199 -71 282t-196 83q-137 0 -212 -84q-76 -83 -95 -215q0 -7 0.5 -22t0.5 -28v-649h-121v633q0 196 -72 280q-70 85 -196 85q-240 0 -305 -235
v-763h-120v1082z" />
    <glyph glyph-name="n" unicode="n" 
d="M158 1082h106l11 -147q52 57 141 112q88 55 209 55q360 0 360 -443v-659h-120v658q0 187 -70 263q-69 77 -197 77q-172 0 -320 -158v-840h-120v1082z" />
    <glyph glyph-name="o" unicode="o" 
d="M91 524v33q0 268 131 407q130 138 347 138t348 -137t131 -408v-33q0 -268 -131 -407q-131 -138 -346 -138q-219 0 -349 144q-131 145 -131 401zM211 557v-33q0 -213 95 -329q94 -115 265 -115q168 0 262 115q96 116 96 329v33q0 211 -96 327t-264 116q-169 0 -263 -118
q-95 -118 -95 -325z" />
    <glyph glyph-name="p" unicode="p" 
d="M1029 532v-21q0 -242 -110 -388q-109 -144 -303 -144q-225 0 -338 165v-560h-120v1498h92l22 -169q113 189 342 189q196 0 305 -156q110 -155 110 -414zM909 511v21q0 206 -82 336t-240 130q-221 0 -309 -205v-524q90 -189 311 -189q157 0 238 118q82 118 82 313z" />
    <glyph glyph-name="q" unicode="q" 
d="M111 511v21q0 260 109 414q110 156 306 156q111 0 194 -50q80 -48 140 -117l18 147h96v-1498h-120v549q-121 -154 -330 -154q-194 0 -304 144q-109 145 -109 388zM231 532v-21q0 -195 78 -314q79 -117 237 -117q110 0 187 53q73 50 121 106v582q-40 67 -116 124
q-73 55 -190 55q-158 0 -238 -131q-79 -130 -79 -337z" />
    <glyph glyph-name="r" unicode="r" horiz-adv-x="699" 
d="M667 1091l-15 -112q-146 37 -237 -25q-87 -60 -137 -109v-845h-120v1082h96l24 -125q41 46 119 96q77 49 195 49q38 0 75 -11z" />
    <glyph glyph-name="s" unicode="s" horiz-adv-x="1043" 
d="M541 602q195 -43 290 -119t95 -200q0 -76 -34 -136t-91.5 -95.5t-127.5 -54t-147 -18.5q-115 0 -233 32.5t-178 73.5l31 102q86 -49 188 -78t192 -29q70 0 131.5 19.5t105 65.5t43.5 112q0 42 -16 75.5t-40.5 56t-64.5 41t-77 29.5t-89 23q-68 14 -116 27.5t-102 38
t-86.5 54.5t-54 77t-21.5 107q0 94 57 163.5t142 101t183 31.5q121 0 215.5 -34.5t142.5 -78.5l-30 -106q-48 46 -133 81.5t-195 35.5q-109 0 -185.5 -48t-76.5 -142q0 -42 15.5 -74t36.5 -51t64 -36t74.5 -25.5t91.5 -21.5z" />
    <glyph glyph-name="t" unicode="t" horiz-adv-x="644" 
d="M162 1320l121 39v-277h238v-98h-238v-705q0 -195 141 -195q40 0 91 11l18 -89q-54 -27 -130 -27q-241 0 -241 300v1041z" />
    <glyph glyph-name="u" unicode="u" 
d="M883 0l-17 139q-52 -49 -141 -106q-85 -54 -206 -54q-175 0 -270 118.5t-95 357.5v627h120v-629q0 -199 67 -284q68 -86 192 -86q135 0 215 60q83 63 114 104v835h120v-1082h-99z" />
    <glyph glyph-name="v" unicode="v" horiz-adv-x="1002" 
d="M168 1082l298 -811l35 -127h6l38 127l294 811h124l-411 -1082h-96l-412 1082h124z" />
    <glyph glyph-name="w" unicode="w" horiz-adv-x="1550" 
d="M193 1082l198 -731l42 -198h6l271 762h122l270 -768h6l47 204l193 731h128l-315 -1082h-110l-280 776h-6l-275 -776h-111l-314 1082h128z" />
    <glyph glyph-name="x" unicode="x" horiz-adv-x="1002" 
d="M207 1082l291 -442l293 442h142l-367 -531l382 -551h-140l-308 461l-308 -461h-142l383 551l-367 531h141z" />
    <glyph glyph-name="y" unicode="y" horiz-adv-x="1002" 
d="M168 1082l297 -789l38 -129h6l327 918h134l-470 -1255q-43 -112 -109 -187q-68 -77 -196 -77q-18 0 -51 5q-31 5 -44 9l14 100q27 -3 38 -4q27 -3 39 -3q78 0 125 56q48 57 80 142l57 146l-418 1068h133z" />
    <glyph glyph-name="z" unicode="z" horiz-adv-x="1002" 
d="M893 993l-655 -892h703v-101h-851v88l652 891h-632v103h783v-89z" />
    <glyph glyph-name="braceleft" unicode="{" horiz-adv-x="676" 
d="M666 -324l-29 -80q-183 56 -261 174q-77 119 -77 288v226q0 125 -57.5 192t-173.5 67v104q116 0 173.5 66t57.5 191v228q0 171 77 290q78 119 261 175l26 -79q-244 -79 -244 -386v-228q0 -113 -46.5 -193t-137.5 -116q91 -38 137.5 -119t46.5 -192v-226q0 -301 247 -382z
" />
    <glyph glyph-name="bar" unicode="|" horiz-adv-x="452" 
d="M284 1456v-1726h-120v1726h120z" />
    <glyph glyph-name="braceright" unicode="}" horiz-adv-x="676" 
d="M38 -404l-29 80q247 82 247 382v226q0 115 48 195t145 115q-193 69 -193 310v228q0 307 -244 386l26 79q183 -56 260 -175q78 -118 78 -290v-228q0 -257 231 -257v-104q-117 0 -174 -67t-57 -192v-226q0 -170 -78 -288q-76 -118 -260 -174z" />
    <glyph glyph-name="asciitilde" unicode="~" horiz-adv-x="1402" 
d="M1159 755l98 -15q0 -129 -81 -223t-202 -94q-86 0 -161 35q-72 36 -160 115q-126 107 -229 107q-80 0 -132 -61q-52 -59 -52 -160l-97 15q0 131 79 222t202 91q87 0 160 -37q79 -40 163 -113q119 -108 227 -108q77 0 131 64q54 65 54 162z" />
    <glyph glyph-name="nbspace" unicode="&#xa0;" horiz-adv-x="498" 
 />
    <glyph glyph-name="exclamdown" unicode="&#xa1;" horiz-adv-x="452" 
d="M276 604v-978h-120v978h120zM287 1082v-184h-142v184h142z" />
    <glyph glyph-name="cent" unicode="&#xa2;" horiz-adv-x="1115" 
d="M951 76q-95 -86 -280 -99v-222h-120v223q-212 20 -326 166.5t-114 371.5v42q0 226 118 371.5t322 165.5v223h120v-222q182 -15 279 -103l-52 -89q-107 92 -286 92q-96 2 -171 -33t-119.5 -96.5t-67.5 -139.5t-24 -169v-42q-2 -183 104.5 -311.5t278.5 -128.5
q73 0 156.5 20.5t137.5 66.5z" />
    <glyph glyph-name="sterling" unicode="&#xa3;" horiz-adv-x="1170" 
d="M303 101h769v-101h-941v101h10q131 45 140 365l-7 176h-207v102h203l-11 296q-5 192 100.5 314.5t289.5 122.5q96 0 179.5 -28t129.5 -79l-30 -123q-40 57 -117 92.5t-162 35.5q-134 0 -203.5 -94.5t-66.5 -240.5l11 -296h450v-102h-447l7 -176q0 -226 -97 -365z" />
    <glyph glyph-name="currency" unicode="&#xa4;" horiz-adv-x="1481" 
d="M1289 -27l-158 160q-165 -153 -391 -153t-391 152l-155 -158l-85 86l159 161q-124 167 -124 387q0 227 133 398l-168 171l85 87l167 -170q164 140 379 140q211 0 379 -142l170 173l86 -88l-171 -175q130 -171 130 -394q0 -214 -122 -384l163 -164zM257 608
q0 -214 141 -366q142 -151 342 -151q198 0 339 151q142 151 142 366q0 214 -142 363q-141 151 -339 151q-200 0 -342 -151q-141 -150 -141 -363z" />
    <glyph glyph-name="yen" unicode="&#xa5;" horiz-adv-x="1223" 
d="M184 1456l423 -723l424 723h139l-455 -751h371v-87h-421v-206h421v-86h-421v-326h-119v326h-416v86h416v206h-416v87h370l-455 751h139z" />
    <glyph glyph-name="brokenbar" unicode="&#xa6;" horiz-adv-x="444" 
d="M279 -270h-120v771h120v-771zM279 1456v-758h-120v758h120z" />
    <glyph glyph-name="section" unicode="&#xa7;" horiz-adv-x="1239" 
d="M877 158q96 -51 142 -122t46 -176q0 -92 -39 -162.5t-106 -111.5t-149 -61.5t-175 -20.5q-121 0 -248 36t-211 111l87 78q75 -63 177.5 -93t194.5 -30q67 0 127.5 14.5t110.5 43.5t80 79t30 115q0 53 -18.5 94t-45.5 67t-76 49t-91 36.5t-109 32.5q-19 5 -29 8
q-64 16 -107.5 29t-98 33t-90 40.5t-73 51t-59 65.5t-35.5 82.5t-14 103.5q0 98 58.5 169t164.5 105q-91 49 -134.5 120t-43.5 175q0 73 26 133t71 101t105.5 69t128 41t140.5 13q119 0 235 -36t193 -106l-87 -84q-56 56 -155 90t-186 34q-71 0 -131.5 -14t-111 -42.5
t-79.5 -78.5t-29 -117q0 -130 96 -195q59 -39 214 -82q9 -3 29 -8q22 -7 34 -10q58 -15 94.5 -25.5t86.5 -27t81.5 -32.5t69 -39t60 -49t43 -59t29.5 -74.5t9 -90.5q0 -98 -60.5 -168.5t-171.5 -103.5zM745 213q114 13 179 71t65 143q0 53 -16.5 92t-41 63t-67 44.5
t-80.5 32.5l-96.5 31.5t-101.5 37.5q-82 19 -142 42q-110 -14 -168 -72t-58 -146q0 -132 103 -198q62 -40 223 -83q9 -3 29 -8q31 -9 47 -13z" />
    <glyph glyph-name="dieresis" unicode="&#xa8;" horiz-adv-x="959" 
d="M805 1456v-157h-173v157h173zM336 1456v-157h-174v157h174z" />
    <glyph glyph-name="copyright" unicode="&#xa9;" horiz-adv-x="1637" 
d="M192 729q0 -278 182 -472q183 -192 443 -192q257 0 440 192q184 193 184 472q0 277 -183 468q-183 192 -441 192q-260 0 -443 -192q-182 -191 -182 -468zM107 729q0 315 207 531t503 216q295 0 502 -216t207 -531q0 -316 -208 -533q-207 -217 -501 -217q-296 0 -503 217
q-207 218 -207 533zM816 374q58 0 123.5 16t107.5 52l35 -68q-72 -68 -220 -79q-24 -2 -45.5 -2t-35.5 1l-14 2q-112 10 -191.5 68.5t-117.5 149.5t-38 207v33q0 178 93 293t254 131q24 2 48 2t35 -1l12 -1q143 -11 219 -81l-41 -71q-82 73 -225 73q-76 1 -135 -26t-94 -76
t-53 -110t-19 -133v-33q-1 -145 82.5 -246t219.5 -101z" />
    <glyph glyph-name="ordfeminine" unicode="&#xaa;" horiz-adv-x="874" 
d="M723 858l1 -152h-67q-3 34 -7.5 64t-6.5 49q-40 -52 -118 -90t-156 -38q-108 0 -170.5 57t-62.5 162q0 79 48.5 133t118.5 76t152 19q55 -3 101.5 -14t65.5 -20l18 -10v137q0 81 -51 126.5t-145 45.5q-114 0 -246 -54l-18 70q131 55 268 55q125 0 200 -63q75 -64 75 -182
v-371zM640 881v148q-9 5 -24.5 12.5t-64.5 19.5t-97 12q-41 0 -81 -10t-75 -29t-56.5 -52t-21.5 -75q0 -67 44 -104.5t114 -37.5t141.5 33.5t120.5 82.5z" />
    <glyph glyph-name="guillemotleft" unicode="&#xab;" horiz-adv-x="933" 
d="M497 909l-276 -389l276 -388h-105l-295 379v19l295 379h105zM832 909l-276 -389l276 -388h-105l-295 379v19l295 379h105z" />
    <glyph glyph-name="logicalnot" unicode="&#xac;" horiz-adv-x="1117" 
d="M936 776v-390h-120v284h-692v106h812z" />
    <glyph glyph-name="uni00AD" unicode="&#xad;" horiz-adv-x="860" 
d="M720 671v-101h-590v101h590z" />
    <glyph glyph-name="registered" unicode="&#xae;" horiz-adv-x="1642" 
d="M102 729q0 315 207 531t503 216q295 0 502 -216q208 -215 208 -531t-208 -533q-207 -217 -502 -217q-296 0 -503 217q-207 218 -207 533zM187 729q0 -279 183 -472q183 -192 442 -192q258 0 441 192q183 193 183 472q0 277 -183 468q-183 192 -441 192q-259 0 -442 -192
q-183 -191 -183 -468zM924 677l172 -329v-44h-88l-178 356h-188v-356h-99v850h258q148 0 226.5 -63t78.5 -185q0 -75 -47.5 -140.5t-134.5 -88.5zM822 749q77 0 131.5 41.5t54.5 113.5q0 86 -47 123.5t-160 37.5h-159v-316h180z" />
    <glyph glyph-name="macron" unicode="&#xaf;" horiz-adv-x="874" 
d="M776 1456v-97h-670v97h670z" />
    <glyph glyph-name="macron" unicode="&#x2c9;" horiz-adv-x="874" 
d="M776 1456v-97h-670v97h670z" />
    <glyph glyph-name="degree" unicode="&#xb0;" horiz-adv-x="774" 
d="M143 1227q0 103 72 176q72 74 173 74q99 0 170 -74q72 -73 72 -176t-71 -176q-71 -71 -171 -71q-101 0 -173 72t-72 175zM233 1227q0 -68 44 -112q46 -44 111 -44q64 0 108 44t44 112q0 67 -44 113q-43 46 -108 46q-66 0 -111 -46q-44 -47 -44 -113z" />
    <glyph glyph-name="plusminus" unicode="&#xb1;" horiz-adv-x="1086" 
d="M609 1267v-438h392v-101h-392v-439h-110v439h-414v101h414v438h110zM968 144v-102h-835v102h835z" />
    <glyph glyph-name="twosuperior" unicode="&#xb2;" horiz-adv-x="802" 
d="M237 720h404v-56h-488v51l264 307l37.5 50.5t37 51.5t24 41t20.5 50t5 48q0 75 -40 116.5t-116 41.5q-50 0 -100.5 -16t-86.5 -44l-32 47q87 69 219 69q101 0 161.5 -57t60.5 -157q0 -37 -15.5 -76.5t-31.5 -64t-53.5 -74.5l-53.5 -72l-217 -253z" />
    <glyph glyph-name="threesuperior" unicode="&#xb3;" horiz-adv-x="824" 
d="M534 1079q70 -23 107 -73t37 -123q0 -113 -74 -170t-194 -57q-57 0 -126 16t-105 43l27 52q79 -56 204 -56q93 0 148 41.5t55 128.5q0 84 -49.5 126t-143.5 42h-73v55h73q79 -2 128.5 40t49.5 116q0 79 -47.5 120t-130.5 41q-128 0 -179 -57l-24 51q33 30 89.5 46
t113.5 16q112 0 177.5 -55.5t65.5 -163.5q0 -60 -35.5 -109t-93.5 -70z" />
    <glyph glyph-name="acute" unicode="&#xb4;" horiz-adv-x="576" 
d="M122 1252l206 266h147l3 -6l-249 -260h-107z" />
    <glyph glyph-name="mu" unicode="&#xb5;" 
d="M162 1082h119v-633q0 -206 71 -288q70 -81 192 -81q258 0 315 230v772h120v-1082h-103l-11 155q-100 -176 -313 -176q-185 0 -271 126v-521h-119v1498z" />
    <glyph glyph-name="paragraph" unicode="&#xb6;" horiz-adv-x="973" 
d="M800 0h-120v520h-106q-232 0 -363 129q-129 131 -129 339q0 206 129 337q131 131 363 131h226v-1456z" />
    <glyph glyph-name="periodcentered" unicode="&#xb7;" horiz-adv-x="503" 
d="M321 804v-180h-155v180h155z" />
    <glyph glyph-name="cedilla" unicode="&#xb8;" horiz-adv-x="498" 
d="M153 0h93l-12 -64q176 -20 176 -171q0 -92 -80 -146t-225 -54l-7 78q90 0 151 31q62 30 62 89q0 57 -42 80q-40 22 -145 30z" />
    <glyph glyph-name="onesuperior" unicode="&#xb9;" horiz-adv-x="511" 
d="M345 1477v-812h-109v703l-148 -7v93z" />
    <glyph glyph-name="ordmasculine" unicode="&#xba;" horiz-adv-x="922" 
d="M135 1025v117q0 148 87 241q88 94 236 94t236 -94q88 -92 88 -241v-117q0 -150 -88 -242q-87 -92 -234 -92q-148 0 -237 92q-88 92 -88 242zM243 1142v-117q0 -110 56 -174.5t161 -64.5q102 0 158 66q56 68 56 173v117q0 103 -56 171q-55 67 -160 67t-160 -67t-55 -171z
" />
    <glyph glyph-name="guillemotright" unicode="&#xbb;" horiz-adv-x="928" 
d="M235 339l26 212l-26 215h123l25 -34h4l93 -128l40 -53l-1 -1l1 -1l-23 -30l-110 -151h-8l-21 -28zM581 339l26 212l-26 215h123l25 -34h4l93 -128l40 -53l-1 -1l1 -1l-23 -30l-110 -151h-8l-21 -28z" />
    <glyph glyph-name="questiondown" unicode="&#xbf;" horiz-adv-x="958" 
d="M436 928v155h139v-155h-139zM490 -393q-170 0 -276 99.5t-106 273.5q0 68 19 130t57 120t78.5 105t100.5 104q62 51 76 98q13 46 13 142h119q-2 -132 -22 -182q-20 -49 -114 -137q-52 -53 -79.5 -84.5t-62 -81.5t-50 -102t-15.5 -111q0 -128 68 -197.5t194 -69.5
q66 0 144 25.5t113 68.5l83 -81q-51 -56 -150 -88t-190 -32z" />
    <glyph glyph-name="Agrave" unicode="&#xc0;" horiz-adv-x="1256" 
d="M1093 0l-145 406h-639l-147 -406h-124l535 1456h113l531 -1456h-124zM627 1285l-280 -772h562l-276 772h-6zM496 1869l202 -266h-117l-241 261l2 5h154z" />
    <glyph glyph-name="Aacute" unicode="&#xc1;" horiz-adv-x="1256" 
d="M1093 0l-145 406h-639l-147 -406h-124l535 1456h113l531 -1456h-124zM627 1285l-280 -772h562l-276 772h-6zM559 1597l206 266h147l3 -6l-249 -260h-107z" />
    <glyph glyph-name="Acircumflex" unicode="&#xc2;" horiz-adv-x="1256" 
d="M1093 0l-145 406h-639l-147 -406h-124l535 1456h113l531 -1456h-124zM627 1285l-280 -772h562l-276 772h-6zM677 1843l230 -224v-18h-112l-167 168l-166 -168h-110v21l227 221h98z" />
    <glyph glyph-name="Atilde" unicode="&#xc3;" horiz-adv-x="1256" 
d="M1093 0l-145 406h-639l-147 -406h-124l535 1456h113l531 -1456h-124zM627 1285l-280 -772h562l-276 772h-6zM868 1842l80 -20q0 -88 -55 -146t-137 -58q-75 0 -151 55t-131 55q-48 0 -79.5 -35t-31.5 -89l-80 18q0 86 54 144q54 59 137 59q65 0 147 -55t135 -55
q46 0 79 36.5t33 90.5z" />
    <glyph glyph-name="Adieresis" unicode="&#xc4;" horiz-adv-x="1256" 
d="M1093 0l-145 406h-639l-147 -406h-124l535 1456h113l531 -1456h-124zM627 1285l-280 -772h562l-276 772h-6zM954 1798v-157h-173v157h173zM485 1798v-157h-174v157h174z" />
    <glyph glyph-name="Aring" unicode="&#xc5;" horiz-adv-x="1256" 
d="M1093 0l-145 406h-639l-147 -406h-124l535 1456h113l531 -1456h-124zM627 1285l-280 -772h562l-276 772h-6zM472 1730q0 63 45 108q46 45 109 45q62 0 106 -45q45 -44 45 -108q0 -65 -44 -107q-43 -42 -107 -42t-109 42t-45 107zM549 1730q0 -33 22.5 -55t54.5 -22
q31 0 53 22t22 55t-22 56t-53 23q-32 0 -54.5 -22.5t-22.5 -56.5z" />
    <glyph glyph-name="AE" unicode="&#xc6;" horiz-adv-x="1900" 
d="M1839 101v-101h-817l-17 389h-597l-229 -389h-146l881 1456h864v-102h-694l23 -545h589v-102h-585l26 -606h702zM945 1298l-470 -796h526l-35 839l-6 1z" />
    <glyph glyph-name="Ccedilla" unicode="&#xc7;" horiz-adv-x="1313" 
d="M1122 220l62 -76q-122 -165 -474 -165q-142 0 -253 47t-181.5 131.5t-107 199t-36.5 252.5v237q0 135 37.5 249t108 199.5t181.5 134t251 48.5q144 0 249 -26t196 -86l-71 -92q-142 102 -374 102q-120 0 -209.5 -40.5t-142 -114t-79 -166t-28.5 -206.5v-239
q0 -154 49.5 -271t154.5 -187.5t255 -70.5q140 0 236.5 28.5t175.5 111.5zM714 -9h-93l-29 -127q105 -8 145 -30q42 -22 42 -80q0 -59 -62 -89q-61 -31 -151 -31l7 -78q145 0 225 54t80 146q0 151 -176 171z" />
    <glyph glyph-name="Egrave" unicode="&#xc8;" horiz-adv-x="1129" 
d="M959 807v-102h-653v-604h755v-101h-875v1456h870v-102h-750v-547h653zM487 1869l202 -266h-117l-241 261l2 5h154z" />
    <glyph glyph-name="Eacute" unicode="&#xc9;" horiz-adv-x="1129" 
d="M959 807v-102h-653v-604h755v-101h-875v1456h870v-102h-750v-547h653zM550 1597l206 266h147l3 -6l-249 -260h-107z" />
    <glyph glyph-name="Ecircumflex" unicode="&#xca;" horiz-adv-x="1129" 
d="M959 807v-102h-653v-604h755v-101h-875v1456h870v-102h-750v-547h653zM668 1843l230 -224v-18h-112l-167 168l-166 -168h-110v21l227 221h98z" />
    <glyph glyph-name="Edieresis" unicode="&#xcb;" horiz-adv-x="1129" 
d="M959 807v-102h-653v-604h755v-101h-875v1456h870v-102h-750v-547h653zM945 1798v-157h-173v157h173zM476 1798v-157h-174v157h174z" />
    <glyph glyph-name="Igrave" unicode="&#xcc;" horiz-adv-x="554" 
d="M337 1456v-1456h-120v1456h120zM146 1869l202 -266h-117l-241 261l2 5h154z" />
    <glyph glyph-name="Iacute" unicode="&#xcd;" horiz-adv-x="554" 
d="M337 1456v-1456h-120v1456h120zM208 1597l206 266h147l3 -6l-249 -260h-107z" />
    <glyph glyph-name="Icircumflex" unicode="&#xce;" horiz-adv-x="554" 
d="M337 1456v-1456h-120v1456h120zM327 1843l230 -224v-18h-112l-167 168l-166 -168h-110v21l227 221h98z" />
    <glyph glyph-name="Idieresis" unicode="&#xcf;" horiz-adv-x="554" 
d="M337 1456v-1456h-120v1456h120zM604 1798v-157h-173v157h173zM135 1798v-157h-174v157h174z" />
    <glyph glyph-name="Eth" unicode="&#xd0;" horiz-adv-x="1378" 
d="M630 0h-444v689h-153v102h153v665h444q267 0 441 -178q175 -178 175 -457v-187q0 -279 -175 -457q-174 -177 -441 -177zM645 791v-102h-339v-588h324q217 0 356 151q140 152 140 382v190q0 228 -141 379q-139 151 -355 151h-324v-563h339z" />
    <glyph glyph-name="Ntilde" unicode="&#xd1;" horiz-adv-x="1445" 
d="M1259 1456v-1456h-120l-827 1246l-6 -1v-1245h-120v1456h120l827 -1243l6 1v1242h120zM962 1842l80 -20q0 -88 -55 -146t-137 -58q-75 0 -151 55t-131 55q-48 0 -79.5 -35t-31.5 -89l-80 18q0 86 54 144q54 59 137 59q65 0 147 -55t135 -55q46 0 79 36.5t33 90.5z" />
    <glyph glyph-name="Ograve" unicode="&#xd2;" horiz-adv-x="1378" 
d="M1254 846v-237q0 -327 -147 -479q-147 -151 -422 -151q-277 0 -419 151t-142 479v237q0 310 144 470.5t416 160.5q275 0 422.5 -161t147.5 -470zM1135 609v239q0 277 -120 400q-118 124 -331 124q-209 0 -324 -124q-116 -124 -116 -400v-239q0 -290 116 -409
q117 -117 325 -117q213 0 331 117q119 119 119 409zM554 1890l202 -266h-117l-241 261l2 5h154z" />
    <glyph glyph-name="Oacute" unicode="&#xd3;" horiz-adv-x="1378" 
d="M1254 846v-237q0 -327 -147 -479q-147 -151 -422 -151q-277 0 -419 151t-142 479v237q0 310 144 470.5t416 160.5q275 0 422.5 -161t147.5 -470zM1135 609v239q0 277 -120 400q-118 124 -331 124q-209 0 -324 -124q-116 -124 -116 -400v-239q0 -290 116 -409
q117 -117 325 -117q213 0 331 117q119 119 119 409zM617 1618l206 266h147l3 -6l-249 -260h-107z" />
    <glyph glyph-name="Ocircumflex" unicode="&#xd4;" horiz-adv-x="1378" 
d="M1254 846v-237q0 -327 -147 -479q-147 -151 -422 -151q-277 0 -419 151t-142 479v237q0 310 144 470.5t416 160.5q275 0 422.5 -161t147.5 -470zM1135 609v239q0 277 -120 400q-118 124 -331 124q-209 0 -324 -124q-116 -124 -116 -400v-239q0 -290 116 -409
q117 -117 325 -117q213 0 331 117q119 119 119 409zM735 1864l230 -224v-18h-112l-167 168l-166 -168h-110v21l227 221h98z" />
    <glyph glyph-name="Otilde" unicode="&#xd5;" horiz-adv-x="1378" 
d="M1254 846v-237q0 -327 -147 -479q-147 -151 -422 -151q-277 0 -419 151t-142 479v237q0 310 144 470.5t416 160.5q275 0 422.5 -161t147.5 -470zM1135 609v239q0 277 -120 400q-118 124 -331 124q-209 0 -324 -124q-116 -124 -116 -400v-239q0 -290 116 -409
q117 -117 325 -117q213 0 331 117q119 119 119 409zM926 1863l80 -20q0 -88 -55 -146t-137 -58q-75 0 -151 55t-131 55q-48 0 -79.5 -35t-31.5 -89l-80 18q0 85 54 144t137 59q65 0 147 -55t135 -55q46 0 79 36.5t33 90.5z" />
    <glyph glyph-name="Odieresis" unicode="&#xd6;" horiz-adv-x="1378" 
d="M1254 846v-237q0 -327 -147 -479q-147 -151 -422 -151q-277 0 -419 151t-142 479v237q0 310 144 470.5t416 160.5q275 0 422.5 -161t147.5 -470zM1135 609v239q0 277 -120 400q-118 124 -331 124q-209 0 -324 -124q-116 -124 -116 -400v-239q0 -290 116 -409
q117 -117 325 -117q213 0 331 117q119 119 119 409zM1012 1819v-157h-173v157h173zM543 1819v-157h-174v157h174z" />
    <glyph glyph-name="multiply" unicode="&#xd7;" horiz-adv-x="1072" 
d="M172 239l-79 79l358 365l-343 350l79 80l342 -350l343 350l79 -80l-343 -350l358 -365l-79 -79l-358 364z" />
    <glyph glyph-name="Oslash" unicode="&#xd8;" horiz-adv-x="1379" 
d="M1254 846v-237q0 -281 -155 -456q-155 -174 -414 -174q-91 0 -197 30q-107 32 -196 122q-168 169 -168 478v237q0 280 152 456q151 175 408 175q122 0 235 -42q114 -41 199 -144q87 -104 111 -209q25 -104 25 -236zM244 848v-239q0 -117 29 -213.5t80 -154.5l6 -1
l633 1014q-120 118 -308 118q-208 0 -324 -144q-116 -145 -116 -380zM1135 609v239q0 94 -21 178t-55 140h-6l-627 -1002q104 -81 259 -81q212 0 331 143q119 145 119 383z" />
    <glyph glyph-name="Ugrave" unicode="&#xd9;" horiz-adv-x="1374" 
d="M1090 1456h119v-967q0 -240 -147 -375t-378 -135q-228 0 -373 135q-144 136 -144 375v967h120v-967q0 -188 111 -299q113 -110 286 -110q177 0 292 110q114 110 114 299v967zM565 1869l202 -266h-117l-241 261l2 5h154z" />
    <glyph glyph-name="Uacute" unicode="&#xda;" horiz-adv-x="1374" 
d="M1090 1456h119v-967q0 -240 -147 -375t-378 -135q-228 0 -373 135q-144 136 -144 375v967h120v-967q0 -188 111 -299q113 -110 286 -110q177 0 292 110q114 110 114 299v967zM628 1597l206 266h147l3 -6l-249 -260h-107z" />
    <glyph glyph-name="Ucircumflex" unicode="&#xdb;" horiz-adv-x="1374" 
d="M1090 1456h119v-967q0 -240 -147 -375t-378 -135q-228 0 -373 135q-144 136 -144 375v967h120v-967q0 -188 111 -299q113 -110 286 -110q177 0 292 110q114 110 114 299v967zM746 1843l230 -224v-18h-112l-167 168l-166 -168h-110v21l227 221h98z" />
    <glyph glyph-name="Udieresis" unicode="&#xdc;" horiz-adv-x="1374" 
d="M1090 1456h119v-967q0 -240 -147 -375t-378 -135q-228 0 -373 135q-144 136 -144 375v967h120v-967q0 -188 111 -299q113 -110 286 -110q177 0 292 110q114 110 114 299v967zM1023 1798v-157h-173v157h173zM554 1798v-157h-174v157h174z" />
    <glyph glyph-name="Yacute" unicode="&#xdd;" horiz-adv-x="1256" 
d="M177 1456l448 -809l451 809h139l-531 -924v-532h-119v537l-527 919h139zM556 1590l206 266h147l3 -6l-249 -260h-107z" />
    <glyph glyph-name="Thorn" unicode="&#xde;" horiz-adv-x="1214" 
d="M183 1456h120v-304h324q220 0 345 -116q124 -115 124 -298q0 -185 -124 -300q-124 -114 -345 -114h-324v-324h-120v1456zM627 1051h-324v-626h324q172 0 261 92q88 91 88 219q0 131 -88 222q-88 93 -261 93z" />
    <glyph glyph-name="germandbls" unicode="&#xdf;" horiz-adv-x="1200" 
d="M271 1082v-1082h-120v1082q0 204 102 317q104 113 274 113q140 0 232 -80t92 -222q0 -109 -62 -216q-61 -106 -61 -184q0 -86 184 -228t184 -287q0 -152 -110 -235q-109 -81 -266 -81q-83 0 -177 23q-90 24 -129 57l34 101q38 -30 114 -56q74 -24 144 -24q125 0 197 60
q73 60 73 155q0 99 -184 240q-184 142 -184 277q0 93 63 201q63 109 63 191q0 92 -60 149q-59 58 -137 58q-120 0 -194 -86q-72 -85 -72 -243z" />
    <glyph glyph-name="agrave" unicode="&#xe0;" horiz-adv-x="1101" 
d="M940 218l1 -218h-95q-5 45 -11.5 87t-9.5 75q-58 -74 -169 -128.5t-224 -54.5q-154 0 -244 81.5t-90 231.5q0 69 26.5 125.5t70.5 94.5t103 63t124 35t133 8q79 -3 145.5 -18.5t93.5 -29.5l27 -14v196q0 116 -73.5 181.5t-207.5 65.5q-163 0 -353 -77l-25 101
q183 78 384 78q180 0 286 -90q108 -93 108 -261v-532zM821 250v213q-12 7 -35 17.5t-92.5 28t-139.5 17.5q-59 0 -116.5 -14t-107.5 -41.5t-81 -75t-31 -107.5q0 -96 63 -150t164 -54q100 0 202.5 48.5t173.5 117.5zM411 1548l202 -266h-117l-241 261l2 5h154z" />
    <glyph glyph-name="aacute" unicode="&#xe1;" horiz-adv-x="1101" 
d="M940 218l1 -218h-95q-5 45 -11.5 87t-9.5 75q-58 -74 -169 -128.5t-224 -54.5q-154 0 -244 81.5t-90 231.5q0 69 26.5 125.5t70.5 94.5t103 63t124 35t133 8q79 -3 145.5 -18.5t93.5 -29.5l27 -14v196q0 116 -73.5 181.5t-207.5 65.5q-163 0 -353 -77l-25 101
q183 78 384 78q180 0 286 -90q108 -93 108 -261v-532zM821 250v213q-12 7 -35 17.5t-92.5 28t-139.5 17.5q-59 0 -116.5 -14t-107.5 -41.5t-81 -75t-31 -107.5q0 -96 63 -150t164 -54q100 0 202.5 48.5t173.5 117.5zM474 1276l206 266h147l3 -6l-249 -260h-107z" />
    <glyph glyph-name="acircumflex" unicode="&#xe2;" horiz-adv-x="1101" 
d="M940 218l1 -218h-95q-5 45 -11.5 87t-9.5 75q-58 -74 -169 -128.5t-224 -54.5q-154 0 -244 81.5t-90 231.5q0 69 26.5 125.5t70.5 94.5t103 63t124 35t133 8q79 -3 145.5 -18.5t93.5 -29.5l27 -14v196q0 116 -73.5 181.5t-207.5 65.5q-163 0 -353 -77l-25 101
q183 78 384 78q180 0 286 -90q108 -93 108 -261v-532zM821 250v213q-12 7 -35 17.5t-92.5 28t-139.5 17.5q-59 0 -116.5 -14t-107.5 -41.5t-81 -75t-31 -107.5q0 -96 63 -150t164 -54q100 0 202.5 48.5t173.5 117.5zM592 1522l230 -224v-18h-112l-167 168l-166 -168h-110v21
l227 221h98z" />
    <glyph glyph-name="atilde" unicode="&#xe3;" horiz-adv-x="1101" 
d="M940 218l1 -218h-95q-5 45 -11.5 87t-9.5 75q-58 -74 -169 -128.5t-224 -54.5q-154 0 -244 81.5t-90 231.5q0 69 26.5 125.5t70.5 94.5t103 63t124 35t133 8q79 -3 145.5 -18.5t93.5 -29.5l27 -14v196q0 116 -73.5 181.5t-207.5 65.5q-163 0 -353 -77l-25 101
q183 78 384 78q180 0 286 -90q108 -93 108 -261v-532zM821 250v213q-12 7 -35 17.5t-92.5 28t-139.5 17.5q-59 0 -116.5 -14t-107.5 -41.5t-81 -75t-31 -107.5q0 -96 63 -150t164 -54q100 0 202.5 48.5t173.5 117.5zM783 1521l80 -20q0 -88 -55 -146t-137 -58q-75 0 -151 55
t-131 55q-48 0 -79.5 -35t-31.5 -89l-80 18q0 85 54 144t137 59q65 0 147 -55t135 -55q46 0 79 36.5t33 90.5z" />
    <glyph glyph-name="adieresis" unicode="&#xe4;" horiz-adv-x="1101" 
d="M940 218l1 -218h-95q-5 45 -11.5 87t-9.5 75q-58 -74 -169 -128.5t-224 -54.5q-154 0 -244 81.5t-90 231.5q0 69 26.5 125.5t70.5 94.5t103 63t124 35t133 8q79 -3 145.5 -18.5t93.5 -29.5l27 -14v196q0 116 -73.5 181.5t-207.5 65.5q-163 0 -353 -77l-25 101
q183 78 384 78q180 0 286 -90q108 -93 108 -261v-532zM821 250v213q-12 7 -35 17.5t-92.5 28t-139.5 17.5q-59 0 -116.5 -14t-107.5 -41.5t-81 -75t-31 -107.5q0 -96 63 -150t164 -54q100 0 202.5 48.5t173.5 117.5zM869 1477v-157h-173v157h173zM400 1477v-157h-174v157
h174z" />
    <glyph glyph-name="aring" unicode="&#xe5;" horiz-adv-x="1101" 
d="M940 218l1 -218h-95q-5 45 -11.5 87t-9.5 75q-58 -74 -169 -128.5t-224 -54.5q-154 0 -244 81.5t-90 231.5q0 69 26.5 125.5t70.5 94.5t103 63t124 35t133 8q79 -3 145.5 -18.5t93.5 -29.5l27 -14v196q0 116 -73.5 181.5t-207.5 65.5q-163 0 -353 -77l-25 101
q183 78 384 78q180 0 286 -90q108 -93 108 -261v-532zM821 250v213q-12 7 -35 17.5t-92.5 28t-139.5 17.5q-59 0 -116.5 -14t-107.5 -41.5t-81 -75t-31 -107.5q0 -96 63 -150t164 -54q100 0 202.5 48.5t173.5 117.5zM387 1409q0 63 45 108q46 45 109 45t106 -45
q45 -43 45 -108t-44 -107t-107 -42q-64 0 -109 42t-45 107zM464 1409q0 -33 22.5 -55t54.5 -22q31 0 53 22t22 55t-22 56t-53 23q-32 0 -54.5 -22.5t-22.5 -56.5z" />
    <glyph glyph-name="ae" unicode="&#xe6;" horiz-adv-x="1796" 
d="M1676 538h-754v-30q0 -92 21 -168t63.5 -135.5t113 -92.5t163.5 -33q182 0 324 120l47 -87q-78 -70 -166.5 -101.5t-204.5 -31.5q-137 0 -240 55t-164 158q-64 -104 -177.5 -158.5t-251.5 -54.5q-161 0 -258 80t-97 233q0 149 114 233t325 84h262v110q0 134 -63 207
t-182 73q-81 0 -170.5 -23.5t-151.5 -76.5l-57 90q82 57 182 85t197 28q122 0 209.5 -54.5t126.5 -157.5q61 100 157 156t209 56q202 0 314 -128t109 -337v-99zM1253 999q-141 0 -224 -102.5t-99 -255.5l2 -6h625v32q1 148 -78.5 240t-225.5 92zM796 248v264h-260
q-83 2 -153.5 -19.5t-119 -74t-48.5 -129.5q0 -98 65.5 -154.5t186.5 -56.5q89 0 189 50t140 120z" />
    <glyph glyph-name="ccedilla" unicode="&#xe7;" horiz-adv-x="1054" 
d="M893 167l44 -87q-110 -101 -338 -101q-241 0 -371.5 150t-130.5 391v42q0 243 135.5 391.5t365.5 148.5q222 0 338 -105l-52 -89q-106 92 -286 92q-96 2 -170.5 -33t-119.5 -96.5t-67.5 -139.5t-23.5 -169v-42q-1 -119 44.5 -218.5t134 -160.5t203.5 -61q74 0 157 20.5
t137 66.5zM583 -9h-93l-29 -127q105 -8 145 -30q42 -22 42 -80q0 -59 -62 -89q-61 -31 -151 -31l7 -78q145 0 225 54t80 146q0 151 -176 171z" />
    <glyph glyph-name="egrave" unicode="&#xe8;" horiz-adv-x="1054" 
d="M569 -21q-211 0 -341 148q-131 149 -131 382v55q0 234 132 386q134 152 329 152q198 0 304 -127q108 -126 108 -340v-93h-753v-33q0 -185 93 -307q95 -122 259 -122q210 0 372 77l36 -96q-62 -38 -176 -60q-111 -22 -232 -22zM558 1000q-138 0 -227 -99
q-89 -100 -104 -251l3 -6h620v25q0 145 -76 237q-75 94 -216 94zM416 1548l202 -266h-117l-241 261l2 5h154z" />
    <glyph glyph-name="eacute" unicode="&#xe9;" horiz-adv-x="1054" 
d="M569 -21q-211 0 -341 148q-131 149 -131 382v55q0 234 132 386q134 152 329 152q198 0 304 -127q108 -126 108 -340v-93h-753v-33q0 -185 93 -307q95 -122 259 -122q210 0 372 77l36 -96q-62 -38 -176 -60q-111 -22 -232 -22zM558 1000q-138 0 -227 -99
q-89 -100 -104 -251l3 -6h620v25q0 145 -76 237q-75 94 -216 94zM479 1276l206 266h147l3 -6l-249 -260h-107z" />
    <glyph glyph-name="ecircumflex" unicode="&#xea;" horiz-adv-x="1054" 
d="M569 -21q-211 0 -341 148q-131 149 -131 382v55q0 234 132 386q134 152 329 152q198 0 304 -127q108 -126 108 -340v-93h-753v-33q0 -185 93 -307q95 -122 259 -122q210 0 372 77l36 -96q-62 -38 -176 -60q-111 -22 -232 -22zM558 1000q-138 0 -227 -99
q-89 -100 -104 -251l3 -6h620v25q0 145 -76 237q-75 94 -216 94zM597 1522l230 -224v-18h-112l-167 168l-166 -168h-110v21l227 221h98z" />
    <glyph glyph-name="edieresis" unicode="&#xeb;" horiz-adv-x="1054" 
d="M569 -21q-211 0 -341 148q-131 149 -131 382v55q0 234 132 386q134 152 329 152q198 0 304 -127q108 -126 108 -340v-93h-753v-33q0 -185 93 -307q95 -122 259 -122q210 0 372 77l36 -96q-62 -38 -176 -60q-111 -22 -232 -22zM558 1000q-138 0 -227 -99
q-89 -100 -104 -251l3 -6h620v25q0 145 -76 237q-75 94 -216 94zM874 1477v-157h-173v157h173zM405 1477v-157h-174v157h174z" />
    <glyph glyph-name="igrave" unicode="&#xec;" horiz-adv-x="456" 
d="M288 1082v-1082h-120v1082h120zM97 1526l202 -266h-117l-241 261l2 5h154z" />
    <glyph glyph-name="iacute" unicode="&#xed;" horiz-adv-x="456" 
d="M288 1082v-1082h-120v1082h120zM159 1254l206 266h147l3 -6l-249 -260h-107z" />
    <glyph glyph-name="icircumflex" unicode="&#xee;" horiz-adv-x="456" 
d="M288 1082v-1082h-120v1082h120zM278 1500l230 -224v-18h-112l-167 168l-166 -168h-110v21l227 221h98z" />
    <glyph glyph-name="idieresis" unicode="&#xef;" horiz-adv-x="456" 
d="M288 1082v-1082h-120v1082h120zM555 1456v-157h-173v157h173zM86 1456v-157h-174v157h174z" />
    <glyph glyph-name="eth" unicode="&#xf0;" horiz-adv-x="1191" 
d="M1069 1437l-220 -126q206 -208 206 -556v-220q0 -244 -137 -401q-137 -155 -344 -155q-208 0 -342 137q-133 136 -133 339q0 236 127 372q127 138 340 138q114 0 209 -45t151 -120l5 5q-10 282 -189 445l-327 -187l-50 74l302 173q-87 57 -213 103l39 104
q166 -55 285 -144l240 138zM578 82q158 0 257 127q100 127 100 326v139q-39 76 -135 132q-94 55 -234 55q-167 0 -257 -115q-90 -116 -90 -291q0 -149 97 -261t262 -112z" />
    <glyph glyph-name="ntilde" unicode="&#xf1;" 
d="M158 1082h106l11 -147q52 57 141 112q88 55 209 55q360 0 360 -443v-659h-120v658q0 187 -70 263q-69 77 -197 77q-172 0 -320 -158v-840h-120v1082zM818 1520l80 -20q0 -88 -55 -146t-137 -58q-75 0 -151 55t-131 55q-48 0 -79.5 -35t-31.5 -89l-80 18q0 86 54 144
q54 59 137 59q65 0 147 -55t135 -55q46 0 79 36.5t33 90.5z" />
    <glyph glyph-name="ograve" unicode="&#xf2;" 
d="M91 524v33q0 268 131 407q130 138 347 138t348 -137t131 -408v-33q0 -268 -131 -407q-131 -138 -346 -138q-219 0 -349 144q-131 145 -131 401zM211 557v-33q0 -213 95 -329q94 -115 265 -115q168 0 262 115q96 116 96 329v33q0 211 -96 327t-264 116q-169 0 -263 -118
q-95 -118 -95 -325zM450 1547l202 -266h-117l-241 261l2 5h154z" />
    <glyph glyph-name="oacute" unicode="&#xf3;" 
d="M91 524v33q0 268 131 407q130 138 347 138t348 -137t131 -408v-33q0 -268 -131 -407q-131 -138 -346 -138q-219 0 -349 144q-131 145 -131 401zM211 557v-33q0 -213 95 -329q94 -115 265 -115q168 0 262 115q96 116 96 329v33q0 211 -96 327t-264 116q-169 0 -263 -118
q-95 -118 -95 -325zM513 1275l206 266h147l3 -6l-249 -260h-107z" />
    <glyph glyph-name="ocircumflex" unicode="&#xf4;" 
d="M91 524v33q0 268 131 407q130 138 347 138t348 -137t131 -408v-33q0 -268 -131 -407q-131 -138 -346 -138q-219 0 -349 144q-131 145 -131 401zM211 557v-33q0 -213 95 -329q94 -115 265 -115q168 0 262 115q96 116 96 329v33q0 211 -96 327t-264 116q-169 0 -263 -118
q-95 -118 -95 -325zM631 1521l230 -224v-18h-112l-167 168l-166 -168h-110v21l227 221h98z" />
    <glyph glyph-name="otilde" unicode="&#xf5;" 
d="M91 524v33q0 268 131 407q130 138 347 138t348 -137t131 -408v-33q0 -268 -131 -407q-131 -138 -346 -138q-219 0 -349 144q-131 145 -131 401zM211 557v-33q0 -213 95 -329q94 -115 265 -115q168 0 262 115q96 116 96 329v33q0 211 -96 327t-264 116q-169 0 -263 -118
q-95 -118 -95 -325zM822 1520l80 -20q0 -88 -55 -146t-137 -58q-75 0 -151 55t-131 55q-48 0 -79.5 -35t-31.5 -89l-80 18q0 86 54 144q54 59 137 59q65 0 147 -55t135 -55q46 0 79 36.5t33 90.5z" />
    <glyph glyph-name="odieresis" unicode="&#xf6;" 
d="M91 524v33q0 268 131 407q130 138 347 138t348 -137t131 -408v-33q0 -268 -131 -407q-131 -138 -346 -138q-219 0 -349 144q-131 145 -131 401zM211 557v-33q0 -213 95 -329q94 -115 265 -115q168 0 262 115q96 116 96 329v33q0 211 -96 327t-264 116q-169 0 -263 -118
q-95 -118 -95 -325zM908 1476v-157h-173v157h173zM439 1476v-157h-174v157h174z" />
    <glyph glyph-name="divide" unicode="&#xf7;" horiz-adv-x="1164" 
d="M1070 760v-116h-998v116h998zM648 1170v-160h-142v160h142zM648 372v-160h-142v160h142z" />
    <glyph glyph-name="oslash" unicode="&#xf8;" horiz-adv-x="1141" 
d="M913 965q131 -137 131 -408v-33q0 -268 -131 -407q-131 -138 -346 -138q-219 0 -349 144q-131 145 -131 401v33q0 269 131 406q130 139 347 139t348 -137zM207 557v-33q0 -137 39 -233l604 565q-7 10 -21 28q-96 116 -264 116q-169 0 -263 -118q-95 -118 -95 -325z
M925 524v33q0 113 -26 192l-595 -557q94 -112 263 -112q168 0 262 115q96 116 96 329z" />
    <glyph glyph-name="ugrave" unicode="&#xf9;" 
d="M883 0l-17 139q-52 -49 -141 -106q-85 -54 -206 -54q-175 0 -270 118.5t-95 357.5v627h120v-629q0 -199 67 -284q68 -86 192 -86q135 0 215 60q83 63 114 104v835h120v-1082h-99zM448 1526l202 -266h-117l-241 261l2 5h154z" />
    <glyph glyph-name="uacute" unicode="&#xfa;" 
d="M883 0l-17 139q-52 -49 -141 -106q-85 -54 -206 -54q-175 0 -270 118.5t-95 357.5v627h120v-629q0 -199 67 -284q68 -86 192 -86q135 0 215 60q83 63 114 104v835h120v-1082h-99zM511 1254l206 266h147l3 -6l-249 -260h-107z" />
    <glyph glyph-name="ucircumflex" unicode="&#xfb;" 
d="M883 0l-17 139q-52 -49 -141 -106q-85 -54 -206 -54q-175 0 -270 118.5t-95 357.5v627h120v-629q0 -199 67 -284q68 -86 192 -86q135 0 215 60q83 63 114 104v835h120v-1082h-99zM629 1500l230 -224v-18h-112l-167 168l-166 -168h-110v21l227 221h98z" />
    <glyph glyph-name="udieresis" unicode="&#xfc;" 
d="M883 0l-17 139q-52 -49 -141 -106q-85 -54 -206 -54q-175 0 -270 118.5t-95 357.5v627h120v-629q0 -199 67 -284q68 -86 192 -86q135 0 215 60q83 63 114 104v835h120v-1082h-99zM906 1456v-157h-173v157h173zM437 1456v-157h-174v157h174z" />
    <glyph glyph-name="yacute" unicode="&#xfd;" horiz-adv-x="1002" 
d="M168 1082l297 -789l38 -129h6l327 918h134l-470 -1255q-43 -112 -109 -187q-68 -77 -196 -77q-18 0 -51 5q-31 5 -44 9l14 100q27 -3 38 -4q27 -3 39 -3q78 0 125 56q48 57 80 142l57 146l-418 1068h133zM445 1254l206 266h147l3 -6l-249 -260h-107z" />
    <glyph glyph-name="thorn" unicode="&#xfe;" horiz-adv-x="1151" 
d="M1039 532v-21q0 -242 -110 -388q-109 -144 -303 -144q-225 0 -338 165v-560h-120v416h-1v1560h119v-641q113 183 338 183q195 0 305 -156q110 -155 110 -414zM919 511v21q0 206 -82 336t-240 130q-221 0 -309 -205v-524q90 -189 311 -189q157 0 238 118q82 118 82 313z
" />
    <glyph glyph-name="ydieresis" unicode="&#xff;" horiz-adv-x="1002" 
d="M168 1082l297 -789l38 -129h6l327 918h134l-470 -1255q-43 -112 -109 -187q-68 -77 -196 -77q-18 0 -51 5q-31 5 -44 9l14 100q27 -3 38 -4q27 -3 39 -3q78 0 125 56q48 57 80 142l57 146l-418 1068h133zM840 1456v-157h-173v157h173zM371 1456v-157h-174v157h174z" />
    <glyph glyph-name="Amacron" unicode="&#x100;" horiz-adv-x="1256" 
d="M1093 0l-145 406h-639l-147 -406h-124l535 1456h113l531 -1456h-124zM627 1285l-280 -772h562l-276 772h-6zM961 1786v-97h-670v97h670z" />
    <glyph glyph-name="amacron" unicode="&#x101;" horiz-adv-x="1101" 
d="M940 218l1 -218h-95q-5 45 -11.5 87t-9.5 75q-58 -74 -169 -128.5t-224 -54.5q-154 0 -244 81.5t-90 231.5q0 69 26.5 125.5t70.5 94.5t103 63t124 35t133 8q79 -3 145.5 -18.5t93.5 -29.5l27 -14v196q0 116 -73.5 181.5t-207.5 65.5q-163 0 -353 -77l-25 101
q183 78 384 78q180 0 286 -90q108 -93 108 -261v-532zM821 250v213q-12 7 -35 17.5t-92.5 28t-139.5 17.5q-59 0 -116.5 -14t-107.5 -41.5t-81 -75t-31 -107.5q0 -96 63 -150t164 -54q100 0 202.5 48.5t173.5 117.5zM876 1465v-97h-670v97h670z" />
    <glyph glyph-name="Abreve" unicode="&#x102;" horiz-adv-x="1256" 
d="M1093 0l-145 406h-639l-147 -406h-124l535 1456h113l531 -1456h-124zM627 1285l-280 -772h562l-276 772h-6zM815 1854h94l2 -6q4 -111 -73 -182q-76 -70 -210 -70t-211 70q-77 71 -72 182l2 6h94q0 -80 46.5 -125.5t140.5 -45.5q91 0 139 46.5t48 124.5z" />
    <glyph glyph-name="abreve" unicode="&#x103;" horiz-adv-x="1101" 
d="M940 218l1 -218h-95q-5 45 -11.5 87t-9.5 75q-58 -74 -169 -128.5t-224 -54.5q-154 0 -244 81.5t-90 231.5q0 69 26.5 125.5t70.5 94.5t103 63t124 35t133 8q79 -3 145.5 -18.5t93.5 -29.5l27 -14v196q0 116 -73.5 181.5t-207.5 65.5q-163 0 -353 -77l-25 101
q183 78 384 78q180 0 286 -90q108 -93 108 -261v-532zM821 250v213q-12 7 -35 17.5t-92.5 28t-139.5 17.5q-59 0 -116.5 -14t-107.5 -41.5t-81 -75t-31 -107.5q0 -96 63 -150t164 -54q100 0 202.5 48.5t173.5 117.5zM730 1533h94l2 -6q4 -111 -73 -182q-76 -70 -210 -70
t-211 70q-77 71 -72 182l2 6h94q0 -80 46.5 -125.5t140.5 -45.5q91 0 139 46.5t48 124.5z" />
    <glyph glyph-name="Aogonek" unicode="&#x104;" horiz-adv-x="1256" 
d="M1093 0l-145 406h-639l-147 -406h-124l535 1456h113l531 -1456h-124zM627 1285l-280 -772h562l-276 772h-6zM1140 37l61 -37q-78 -65 -113 -112t-35 -100q0 -32 19 -58q20 -27 70 -27q51 0 105 32l24 -83q-70 -44 -152 -44q-77 0 -125.5 45t-48.5 124q0 71 51 139
t144 121z" />
    <glyph glyph-name="aogonek" unicode="&#x105;" horiz-adv-x="1101" 
d="M821 250v213q-12 7 -35 17.5t-92.5 28t-139.5 17.5q-59 0 -116.5 -14t-107.5 -41.5t-81 -75t-31 -107.5q0 -96 63 -150t164 -54q100 0 202.5 48.5t173.5 117.5zM997 -265l25 -83q-72 -44 -153 -44q-77 0 -125.5 45t-48.5 124q0 128 150 231q-5 40 -11.5 80.5t-9.5 73.5
q-58 -74 -169 -128.5t-224 -54.5q-154 0 -244 81.5t-90 231.5q0 69 26.5 125.5t70.5 94.5t103 63t124 35t133 8q80 -3 146.5 -18.5t93.5 -29.5l26 -14v196q0 116 -73.5 181.5t-207.5 65.5q-163 0 -352 -77l-26 101q184 78 384 78q180 0 286 -90q108 -92 108 -261v-532
l1 -211v-7q-74 -62 -105.5 -109.5t-31.5 -102.5q0 -30 19 -58q20 -27 70 -27q51 0 105 32z" />
    <glyph glyph-name="Cacute" unicode="&#x106;" horiz-adv-x="1313" 
d="M1122 220l62 -76q-122 -165 -474 -165q-142 0 -253 47t-181.5 131.5t-107 199t-36.5 252.5v237q0 135 37.5 249t108 199.5t181.5 134t251 48.5q144 0 249 -26t196 -86l-71 -92q-142 102 -374 102q-120 0 -209.5 -40.5t-142 -114t-79 -166t-28.5 -206.5v-239
q0 -154 49.5 -271t154.5 -187.5t255 -70.5q140 0 236.5 28.5t175.5 111.5zM609 1618l206 266h147l3 -6l-249 -260h-107z" />
    <glyph glyph-name="cacute" unicode="&#x107;" horiz-adv-x="1054" 
d="M893 167l44 -87q-110 -101 -338 -101q-241 0 -371.5 150t-130.5 391v42q0 243 135.5 391.5t365.5 148.5q222 0 338 -105l-52 -89q-106 92 -286 92q-96 2 -170.5 -33t-119.5 -96.5t-67.5 -139.5t-23.5 -169v-42q-1 -119 44.5 -218.5t134 -160.5t203.5 -61q74 0 157 20.5
t137 66.5zM478 1275l206 266h147l3 -6l-249 -260h-107z" />
    <glyph glyph-name="Ccircumflex" unicode="&#x108;" horiz-adv-x="1313" 
d="M1122 220l62 -76q-122 -165 -474 -165q-142 0 -253 47t-181.5 131.5t-107 199t-36.5 252.5v237q0 135 37.5 249t108 199.5t181.5 134t251 48.5q144 0 249 -26t196 -86l-71 -92q-142 102 -374 102q-120 0 -209.5 -40.5t-142 -114t-79 -166t-28.5 -206.5v-239
q0 -154 49.5 -271t154.5 -187.5t255 -70.5q140 0 236.5 28.5t175.5 111.5zM727 1864l230 -224v-18h-112l-167 168l-166 -168h-110v21l227 221h98z" />
    <glyph glyph-name="ccircumflex" unicode="&#x109;" horiz-adv-x="1054" 
d="M893 167l44 -87q-110 -101 -338 -101q-241 0 -371.5 150t-130.5 391v42q0 243 135.5 391.5t365.5 148.5q222 0 338 -105l-52 -89q-106 92 -286 92q-96 2 -170.5 -33t-119.5 -96.5t-67.5 -139.5t-23.5 -169v-42q-1 -119 44.5 -218.5t134 -160.5t203.5 -61q74 0 157 20.5
t137 66.5zM596 1521l230 -224v-18h-112l-167 168l-166 -168h-110v21l227 221h98z" />
    <glyph glyph-name="uni010A" unicode="&#x10a;" horiz-adv-x="1313" 
d="M1122 220l62 -76q-122 -165 -474 -165q-142 0 -253 47t-181.5 131.5t-107 199t-36.5 252.5v237q0 135 37.5 249t108 199.5t181.5 134t251 48.5q144 0 249 -26t196 -86l-71 -92q-142 102 -374 102q-120 0 -209.5 -40.5t-142 -114t-79 -166t-28.5 -206.5v-239
q0 -154 49.5 -271t154.5 -187.5t255 -70.5q140 0 236.5 28.5t175.5 111.5zM752 1826v-168h-151v168h151z" />
    <glyph glyph-name="uni010B" unicode="&#x10b;" horiz-adv-x="1054" 
d="M893 167l44 -87q-110 -101 -338 -101q-241 0 -371.5 150t-130.5 391v42q0 243 135.5 391.5t365.5 148.5q222 0 338 -105l-52 -89q-106 92 -286 92q-96 2 -170.5 -33t-119.5 -96.5t-67.5 -139.5t-23.5 -169v-42q-1 -119 44.5 -218.5t134 -160.5t203.5 -61q74 0 157 20.5
t137 66.5zM621 1483v-168h-151v168h151z" />
    <glyph glyph-name="Ccaron" unicode="&#x10c;" horiz-adv-x="1313" 
d="M1122 220l62 -76q-122 -165 -474 -165q-142 0 -253 47t-181.5 131.5t-107 199t-36.5 252.5v237q0 135 37.5 249t108 199.5t181.5 134t251 48.5q144 0 249 -26t196 -86l-71 -92q-142 102 -374 102q-120 0 -209.5 -40.5t-142 -114t-79 -166t-28.5 -206.5v-239
q0 -154 49.5 -271t154.5 -187.5t255 -70.5q140 0 236.5 28.5t175.5 111.5zM510 1866l167 -169l166 169h115v-17l-233 -225h-97l-232 225v17h114z" />
    <glyph glyph-name="ccaron" unicode="&#x10d;" horiz-adv-x="1054" 
d="M893 167l44 -87q-110 -101 -338 -101q-241 0 -371.5 150t-130.5 391v42q0 243 135.5 391.5t365.5 148.5q222 0 338 -105l-52 -89q-106 92 -286 92q-96 2 -170.5 -33t-119.5 -96.5t-67.5 -139.5t-23.5 -169v-42q-1 -119 44.5 -218.5t134 -160.5t203.5 -61q74 0 157 20.5
t137 66.5zM379 1523l167 -169l166 169h115v-17l-233 -225h-97l-232 225v17h114z" />
    <glyph glyph-name="Dcaron" unicode="&#x10e;" horiz-adv-x="1378" 
d="M630 0h-444v1456h444q298 0 457 -168t159 -467v-187q0 -279 -154 -457q-153 -177 -462 -177zM630 1354h-324v-1253h324q249 0 372 151q124 151 124 382v190q0 228 -124 379q-123 151 -372 151zM445 1845l167 -169l166 169h115v-17l-233 -225h-97l-232 225v17h114z" />
    <glyph glyph-name="dcaron" unicode="&#x10f;" 
d="M111 511v21q0 260 109 414q110 156 306 156q124 0 197 -52q72 -50 136 -140v650h120v-1560h-98l-14 146q-129 -167 -343 -167q-194 0 -304 144q-109 145 -109 388zM231 532v-21q0 -197 78 -312q80 -116 237 -116q116 0 193 51q78 54 120 110v546q-59 92 -131 150
q-70 58 -180 58q-159 0 -238 -130q-79 -128 -79 -336zM1260 1559v-122l-83 -209h-71l52 211v120h102z" />
    <glyph glyph-name="Dcroat" unicode="&#x110;" horiz-adv-x="1378" 
d="M630 0h-444v689h-153v102h153v665h444q267 0 441 -178q175 -178 175 -457v-187q0 -279 -175 -457q-174 -177 -441 -177zM645 791v-102h-339v-588h324q217 0 356 151q140 152 140 382v190q0 228 -141 379q-139 151 -355 151h-324v-563h339z" />
    <glyph glyph-name="dcroat" unicode="&#x111;" 
d="M1156 1359v-102h-177v-1257h-98l-17 157q-113 -178 -340 -178q-194 0 -304 144q-109 145 -109 388v21q0 260 109 414q110 156 306 156q219 0 333 -180v335h-315v102h315v201h120v-201h177zM231 532v-21q0 -197 78 -312q80 -116 237 -116q222 0 313 194v513
q-40 91 -116 150q-74 58 -195 58q-159 0 -238 -130q-79 -128 -79 -336z" />
    <glyph glyph-name="Emacron" unicode="&#x112;" horiz-adv-x="1129" 
d="M959 807v-102h-653v-604h755v-101h-875v1456h870v-102h-750v-547h653zM952 1786v-97h-670v97h670z" />
    <glyph glyph-name="emacron" unicode="&#x113;" horiz-adv-x="1054" 
d="M569 -21q-211 0 -341 148q-131 149 -131 382v55q0 234 132 386q134 152 329 152q198 0 304 -127q108 -126 108 -340v-93h-753v-33q0 -185 93 -307q95 -122 259 -122q210 0 372 77l36 -96q-62 -38 -176 -60q-111 -22 -232 -22zM558 1000q-138 0 -227 -99
q-89 -100 -104 -251l3 -6h620v25q0 145 -76 237q-75 94 -216 94zM881 1465v-97h-670v97h670z" />
    <glyph glyph-name="Ebreve" unicode="&#x114;" horiz-adv-x="1129" 
d="M959 807v-102h-653v-604h755v-101h-875v1456h870v-102h-750v-547h653zM806 1854h94l2 -6q4 -111 -73 -182q-76 -70 -210 -70t-211 70q-77 71 -72 182l2 6h94q0 -80 46.5 -125.5t140.5 -45.5q91 0 139 46.5t48 124.5z" />
    <glyph glyph-name="ebreve" unicode="&#x115;" horiz-adv-x="1054" 
d="M569 -21q-211 0 -341 148q-131 149 -131 382v55q0 234 132 386q134 152 329 152q198 0 304 -127q108 -126 108 -340v-93h-753v-33q0 -185 93 -307q95 -122 259 -122q210 0 372 77l36 -96q-62 -38 -176 -60q-111 -22 -232 -22zM558 1000q-138 0 -227 -99
q-89 -100 -104 -251l3 -6h620v25q0 145 -76 237q-75 94 -216 94zM735 1533h94l2 -6q4 -111 -73 -182q-76 -70 -210 -70t-211 70q-77 71 -72 182l2 6h94q0 -80 46.5 -125.5t140.5 -45.5q91 0 139 46.5t48 124.5z" />
    <glyph glyph-name="Edotaccent" unicode="&#x116;" horiz-adv-x="1129" 
d="M959 807v-102h-653v-604h755v-101h-875v1456h870v-102h-750v-547h653zM693 1805v-168h-151v168h151z" />
    <glyph glyph-name="edotaccent" unicode="&#x117;" horiz-adv-x="1054" 
d="M569 -21q-211 0 -341 148q-131 149 -131 382v55q0 234 132 386q134 152 329 152q198 0 304 -127q108 -126 108 -340v-93h-753v-33q0 -185 93 -307q95 -122 259 -122q210 0 372 77l36 -96q-62 -38 -176 -60q-111 -22 -232 -22zM558 1000q-138 0 -227 -99
q-89 -100 -104 -251l3 -6h620v25q0 145 -76 237q-75 94 -216 94zM622 1484v-168h-151v168h151z" />
    <glyph glyph-name="Eogonek" unicode="&#x118;" horiz-adv-x="1129" 
d="M959 807v-102h-653v-604h755v-101h-875v1456h870v-102h-750v-547h653zM596 37l61 -37q-78 -65 -113 -112t-35 -100q0 -32 19 -58q20 -27 70 -27q51 0 105 32l24 -83q-70 -44 -152 -44q-77 0 -125.5 45t-48.5 124q0 71 51 139t144 121z" />
    <glyph glyph-name="eogonek" unicode="&#x119;" horiz-adv-x="1054" 
d="M569 -21q-211 0 -341 148q-131 149 -131 382v55q0 234 132 386q134 152 329 152q198 0 304 -127q108 -126 108 -340v-93h-753v-33q0 -185 93 -307q95 -122 259 -122q210 0 372 77l36 -96q-62 -38 -176 -60q-111 -22 -232 -22zM558 1000q-138 0 -227 -99
q-89 -100 -104 -251l3 -6h620v25q0 145 -76 237q-75 94 -216 94zM784 96l61 -37q-78 -65 -113 -112t-35 -100q0 -32 19 -58q20 -27 70 -27q51 0 105 32l24 -83q-70 -44 -152 -44q-77 0 -125.5 45t-48.5 124q0 71 51 139t144 121z" />
    <glyph glyph-name="Ecaron" unicode="&#x11a;" horiz-adv-x="1129" 
d="M959 807v-102h-653v-604h755v-101h-875v1456h870v-102h-750v-547h653zM451 1845l167 -169l166 169h115v-17l-233 -225h-97l-232 225v17h114z" />
    <glyph glyph-name="ecaron" unicode="&#x11b;" horiz-adv-x="1054" 
d="M569 -21q-211 0 -341 148q-131 149 -131 382v55q0 234 132 386q134 152 329 152q198 0 304 -127q108 -126 108 -340v-93h-753v-33q0 -185 93 -307q95 -122 259 -122q210 0 372 77l36 -96q-62 -38 -176 -60q-111 -22 -232 -22zM558 1000q-138 0 -227 -99
q-89 -100 -104 -251l3 -6h620v25q0 145 -76 237q-75 94 -216 94zM380 1524l167 -169l166 169h115v-17l-233 -225h-97l-232 225v17h114z" />
    <glyph glyph-name="Gcircumflex" unicode="&#x11c;" horiz-adv-x="1410" 
d="M711 708h511v-512q-78 -109 -210 -163t-294 -54q-168 0 -301.5 83t-204 225t-65.5 313v267q-6 137 38 252t126.5 193t197.5 121.5t249 43.5q122 0 229.5 -32t175.5 -93l-45 -97q-124 120 -360 120q-147 0 -261.5 -62t-176 -178t-53.5 -266v-269q-4 -140 49.5 -257.5
t159 -190t242.5 -72.5q270 0 385 153v374h-392v101zM718 1864l230 -224v-18h-112l-167 168l-166 -168h-110v21l227 221h98z" />
    <glyph glyph-name="gcircumflex" unicode="&#x11d;" 
d="M885 694q0 149 -86 225.5t-253 76.5q-164 0 -240 -70t-87 -231q0 -283 329 -283q337 0 337 282zM1053 1073v-100h-170q55 -33 88 -113t33 -166q0 -188 -117 -282.5t-340 -94.5q-145 0 -199 -20t-54 -81q0 -58 59.5 -85t222.5 -27q104 0 177.5 -5.5t137.5 -21t102.5 -42
t60 -69t21.5 -102.5q0 -74 -38.5 -128t-108 -84t-153 -44t-185.5 -14q-265 0 -381.5 56.5t-116.5 212.5q0 84 56.5 140.5t142.5 56.5q-109 38 -109 156q0 27 4.5 47t17 42t39.5 38t69 25q-212 79 -212 326q0 402 445 402q125 0 205 -23h303zM578 0q-213 0 -292 -30t-79 -107
q0 -62 32.5 -97.5t115.5 -53.5t231 -18q371 0 371 165q0 85 -78 113t-301 28zM616 1521l230 -224v-18h-112l-167 168l-166 -168h-110v21l227 221h98z" />
    <glyph glyph-name="Gbreve" unicode="&#x11e;" horiz-adv-x="1410" 
d="M711 708h511v-512q-78 -109 -210 -163t-294 -54q-168 0 -301.5 83t-204 225t-65.5 313v267q-6 137 38 252t126.5 193t197.5 121.5t249 43.5q122 0 229.5 -32t175.5 -93l-45 -97q-124 120 -360 120q-147 0 -261.5 -62t-176 -178t-53.5 -266v-269q-4 -140 49.5 -257.5
t159 -190t242.5 -72.5q270 0 385 153v374h-392v101zM856 1875h94l2 -6q4 -111 -73 -182q-76 -70 -210 -70t-211 70q-77 71 -72 182l2 6h94q0 -80 46.5 -125.5t140.5 -45.5q91 0 139 46.5t48 124.5z" />
    <glyph glyph-name="gbreve" unicode="&#x11f;" 
d="M885 694q0 149 -86 225.5t-253 76.5q-164 0 -240 -70t-87 -231q0 -283 329 -283q337 0 337 282zM1053 1073v-100h-170q55 -33 88 -113t33 -166q0 -188 -117 -282.5t-340 -94.5q-145 0 -199 -20t-54 -81q0 -58 59.5 -85t222.5 -27q104 0 177.5 -5.5t137.5 -21t102.5 -42
t60 -69t21.5 -102.5q0 -74 -38.5 -128t-108 -84t-153 -44t-185.5 -14q-265 0 -381.5 56.5t-116.5 212.5q0 84 56.5 140.5t142.5 56.5q-109 38 -109 156q0 27 4.5 47t17 42t39.5 38t69 25q-212 79 -212 326q0 402 445 402q125 0 205 -23h303zM578 0q-213 0 -292 -30t-79 -107
q0 -62 32.5 -97.5t115.5 -53.5t231 -18q371 0 371 165q0 85 -78 113t-301 28zM754 1532h94l2 -6q4 -111 -73 -182q-76 -70 -210 -70t-211 70q-77 71 -72 182l2 6h94q0 -80 46.5 -125.5t140.5 -45.5q91 0 139 46.5t48 124.5z" />
    <glyph glyph-name="uni0120" unicode="&#x120;" horiz-adv-x="1410" 
d="M711 708h511v-512q-78 -109 -210 -163t-294 -54q-168 0 -301.5 83t-204 225t-65.5 313v267q-6 137 38 252t126.5 193t197.5 121.5t249 43.5q122 0 229.5 -32t175.5 -93l-45 -97q-124 120 -360 120q-147 0 -261.5 -62t-176 -178t-53.5 -266v-269q-4 -140 49.5 -257.5
t159 -190t242.5 -72.5q270 0 385 153v374h-392v101zM743 1826v-168h-151v168h151z" />
    <glyph glyph-name="uni0121" unicode="&#x121;" 
d="M885 694q0 149 -86 225.5t-253 76.5q-164 0 -240 -70t-87 -231q0 -283 329 -283q337 0 337 282zM1053 1073v-100h-170q55 -33 88 -113t33 -166q0 -188 -117 -282.5t-340 -94.5q-145 0 -199 -20t-54 -81q0 -58 59.5 -85t222.5 -27q104 0 177.5 -5.5t137.5 -21t102.5 -42
t60 -69t21.5 -102.5q0 -74 -38.5 -128t-108 -84t-153 -44t-185.5 -14q-265 0 -381.5 56.5t-116.5 212.5q0 84 56.5 140.5t142.5 56.5q-109 38 -109 156q0 27 4.5 47t17 42t39.5 38t69 25q-212 79 -212 326q0 402 445 402q125 0 205 -23h303zM578 0q-213 0 -292 -30t-79 -107
q0 -62 32.5 -97.5t115.5 -53.5t231 -18q371 0 371 165q0 85 -78 113t-301 28zM641 1483v-168h-151v168h151z" />
    <glyph glyph-name="Gcommaaccent" unicode="&#x122;" horiz-adv-x="1410" 
d="M711 708h511v-512q-78 -109 -210 -163t-294 -54q-168 0 -301.5 83t-204 225t-65.5 313v267q-6 137 38 252t126.5 193t197.5 121.5t249 43.5q122 0 229.5 -32t175.5 -93l-45 -97q-124 120 -360 120q-147 0 -261.5 -62t-176 -178t-53.5 -266v-269q-4 -140 49.5 -257.5
t159 -190t242.5 -72.5q270 0 385 153v374h-392v101zM750 -259v122h-102v-120l-52 -211h71z" />
    <glyph glyph-name="gcommaaccent" unicode="&#x123;" 
d="M885 694q0 149 -86 225.5t-253 76.5q-164 0 -240 -70t-87 -231q0 -283 329 -283q337 0 337 282zM1053 1073v-100h-170q55 -33 88 -113t33 -166q0 -188 -117 -282.5t-340 -94.5q-145 0 -199 -20t-54 -81q0 -58 59.5 -85t222.5 -27q104 0 177.5 -5.5t137.5 -21t102.5 -42
t60 -69t21.5 -102.5q0 -74 -38.5 -128t-108 -84t-153 -44t-185.5 -14q-265 0 -381.5 56.5t-116.5 212.5q0 84 56.5 140.5t142.5 56.5q-109 38 -109 156q0 27 4.5 47t17 42t39.5 38t69 25q-212 79 -212 326q0 402 445 402q125 0 205 -23h303zM578 0q-213 0 -292 -30t-79 -107
q0 -62 32.5 -97.5t115.5 -53.5t231 -18q371 0 371 165q0 85 -78 113t-301 28zM504 1264v137l87 216h72l-40 -218v-135h-119z" />
    <glyph glyph-name="Hcircumflex" unicode="&#x124;" horiz-adv-x="1439" 
d="M1253 1456v-1456h-120v670h-827v-670h-120v1456h120v-684h827v684h120zM763 1843l230 -224v-18h-112l-167 168l-166 -168h-110v21l227 221h98z" />
    <glyph glyph-name="hcircumflex" unicode="&#x125;" 
d="M278 1560v-631q56 67 144 119q90 54 210 54q354 0 354 -435v-667h-120v669q0 176 -70 252q-69 77 -191 77q-111 0 -200 -62q-92 -64 -127 -113v-823h-120v1560h120zM538 1842l230 -224v-18h-112l-167 168l-166 -168h-110v21l227 221h98z" />
    <glyph glyph-name="Hbar" unicode="&#x126;" horiz-adv-x="1412" 
d="M1261 1456v-333h123v-97h-123v-1026h-120v670h-827v-670h-120v1026h-169v97h169v333h120v-333h827v333h120zM314 1026v-254h827v254h-827z" />
    <glyph glyph-name="hbar" unicode="&#x127;" 
d="M634 1359v-102h-356v-359q56 98 146 151t208 53q354 0 354 -435v-667h-120v669q0 176 -70 252q-69 77 -191 77t-204.5 -60t-122.5 -166v-772h-120v1257h-136v102h136v201h120v-201h356z" />
    <glyph glyph-name="Itilde" unicode="&#x128;" horiz-adv-x="554" 
d="M337 1456v-1456h-120v1456h120zM518 1842l80 -20q0 -88 -55 -146t-137 -58q-75 0 -151 55t-131 55q-48 0 -79.5 -35t-31.5 -89l-80 18q0 86 54 144q54 59 137 59q65 0 147 -55t135 -55q46 0 79 36.5t33 90.5z" />
    <glyph glyph-name="itilde" unicode="&#x129;" horiz-adv-x="456" 
d="M288 1082v-1082h-120v1082h120zM469 1500l80 -20q0 -88 -55 -146t-137 -58q-75 0 -151 55t-131 55q-48 0 -79.5 -35t-31.5 -89l-80 18q0 86 54 144q54 59 137 59q65 0 147 -55t135 -55q46 0 79 36.5t33 90.5z" />
    <glyph glyph-name="Imacron" unicode="&#x12a;" horiz-adv-x="554" 
d="M337 1456v-1456h-120v1456h120zM611 1786v-97h-670v97h670z" />
    <glyph glyph-name="imacron" unicode="&#x12b;" horiz-adv-x="456" 
d="M288 1082v-1082h-120v1082h120zM562 1444v-97h-670v97h670z" />
    <glyph glyph-name="Ibreve" unicode="&#x12c;" horiz-adv-x="554" 
d="M337 1456v-1456h-120v1456h120zM465 1854h94l2 -6q4 -111 -73 -182q-76 -70 -210 -70t-211 70q-77 71 -72 182l2 6h94q0 -80 46.5 -125.5t140.5 -45.5q91 0 139 46.5t48 124.5z" />
    <glyph glyph-name="ibreve" unicode="&#x12d;" horiz-adv-x="456" 
d="M288 1082v-1082h-120v1082h120zM416 1511h94l2 -6q4 -111 -73 -182q-76 -70 -210 -70t-211 70q-77 71 -72 182l2 6h94q0 -80 46.5 -125.5t140.5 -45.5q91 0 139 46.5t48 124.5z" />
    <glyph glyph-name="Iogonek" unicode="&#x12e;" horiz-adv-x="554" 
d="M337 1456v-1456h-120v1456h120zM261 37l61 -37q-78 -65 -113 -112t-35 -100q0 -32 19 -58q19 -27 70 -27t105 32l24 -83q-70 -44 -152 -44q-77 0 -125.5 45t-48.5 124q0 71 51 139t144 121z" />
    <glyph glyph-name="iogonek" unicode="&#x12f;" horiz-adv-x="465" 
d="M292 1082v-1082h-119v1082h119zM292 1560v-168h-119v168h119zM216 37l61 -37q-78 -65 -113 -112t-35 -100q0 -32 19 -58q20 -27 70 -27q51 0 105 32l24 -83q-70 -44 -152 -44q-77 0 -125.5 45t-48.5 124q0 71 51 139t144 121z" />
    <glyph glyph-name="Idotaccent" unicode="&#x130;" horiz-adv-x="554" 
d="M337 1456v-1456h-120v1456h120zM351 1805v-168h-151v168h151z" />
    <glyph glyph-name="dotlessi" unicode="&#x131;" horiz-adv-x="456" 
d="M288 1082v-1082h-120v1082h120z" />
    <glyph glyph-name="IJ" unicode="&#x132;" horiz-adv-x="1676" 
d="M337 1456v-1456h-120v1456h120zM1374 1456h120v-1034q0 -199 -112 -321t-313 -122q-109 0 -221.5 31.5t-170.5 97.5l63 93q54 -61 143 -91t186 -30q142 0 223.5 90.5t81.5 251.5v1034z" />
    <glyph glyph-name="ij" unicode="&#x133;" horiz-adv-x="949" 
d="M292 1082v-1082h-119v1082h119zM292 1560v-168h-119v168h119zM645 1082h119v-1171q0 -166 -79.5 -257t-222.5 -91q-50 0 -112 19l13 101q45 -15 93 -15q90 0 139.5 62t49.5 181v1171zM758 1560v-164h-119v164h119z" />
    <glyph glyph-name="Jcircumflex" unicode="&#x134;" horiz-adv-x="1122" 
d="M820 1456h120v-1034q0 -199 -112 -321t-313 -122q-109 0 -221.5 31.5t-170.5 97.5l63 93q54 -61 143 -91t186 -30q142 0 223.5 90.5t81.5 251.5v1034zM925 1821l230 -224v-18h-112l-167 168l-166 -168h-110v21l227 221h98z" />
    <glyph glyph-name="jcircumflex" unicode="&#x135;" horiz-adv-x="468" 
d="M179 1082h119v-1171q0 -166 -79.5 -257t-222.5 -91q-49 0 -112 19l13 99q48 -16 99 -16q87 0 135 65t48 181v1171zM287 1481l230 -224v-18h-112l-167 168l-166 -168h-110v21l227 221h98z" />
    <glyph glyph-name="Kcommaaccent" unicode="&#x136;" horiz-adv-x="1261" 
d="M1086 0l-623 691l-157 11v-702h-120v1456h120v-673l156 9l572 664h136v-8l-602 -697l662 -742v-9h-144zM672 -125v-122l-83 -209h-71l52 211v120h102z" />
    <glyph glyph-name="kcommaaccent" unicode="&#x137;" horiz-adv-x="1006" 
d="M846 0l-441 527l-126 9v-536h-120v1560h120v-940l114 10l415 452h135v-13l-437 -483l472 -571v-15h-132zM584 -123v-122l-83 -209h-71l52 211v120h102z" />
    <glyph glyph-name="kgreenlandic" unicode="&#x138;" horiz-adv-x="1111" 
d="M904 0l-484 496l-137 17v-513h-121v1082h121v-499l134 19l443 480h139l2 -5l-476 -520l526 -551l-3 -6h-144z" />
    <glyph glyph-name="Lacute" unicode="&#x139;" horiz-adv-x="1128" 
d="M306 1456v-1355h752v-101h-872v1456h120zM178 1534l206 266h147l3 -6l-249 -260h-107z" />
    <glyph glyph-name="lacute" unicode="&#x13a;" horiz-adv-x="465" 
d="M292 1560v-1560h-119v1560h119zM165 1609l206 266h147l3 -6l-249 -260h-107z" />
    <glyph glyph-name="Lcommaaccent" unicode="&#x13b;" horiz-adv-x="1128" 
d="M306 1456v-1355h752v-101h-872v1456h120zM670 -123v-122l-83 -209h-71l52 211v120h102z" />
    <glyph glyph-name="lcommaaccent" unicode="&#x13c;" horiz-adv-x="465" 
d="M292 1560v-1560h-119v1560h119zM283 -123v-122l-83 -209h-71l52 211v120h102z" />
    <glyph glyph-name="Lcaron" unicode="&#x13d;" horiz-adv-x="1128" 
d="M306 1456v-1355h752v-101h-872v1456h120zM721 1456v-122l-83 -209h-71l52 211v120h102z" />
    <glyph glyph-name="lcaron" unicode="&#x13e;" horiz-adv-x="465" 
d="M292 1560v-1560h-119v1560h119zM583 1559v-122l-83 -209h-71l52 211v120h102z" />
    <glyph glyph-name="Ldot" unicode="&#x13f;" horiz-adv-x="1128" 
d="M306 1456v-1355h752v-101h-872v1456h120zM754 855v-168h-151v168h151z" />
    <glyph glyph-name="ldot" unicode="&#x140;" horiz-adv-x="465" 
d="M292 1560v-1560h-119v1560h119zM522 868v-168h-151v168h151z" />
    <glyph glyph-name="Lslash" unicode="&#x141;" horiz-adv-x="1068" 
d="M299 1456v-641l313 100v-109l-313 -100v-605h752v-101h-872v668l-156 -49v109l156 49v679h120z" />
    <glyph glyph-name="lslash" unicode="&#x142;" horiz-adv-x="529" 
d="M312 1560v-706l193 76v-109l-193 -76v-745h-119v699l-167 -65v109l167 65v752h119z" />
    <glyph glyph-name="Nacute" unicode="&#x143;" horiz-adv-x="1445" 
d="M1259 1456v-1456h-120l-827 1246l-6 -1v-1245h-120v1456h120l827 -1243l6 1v1242h120zM653 1597l206 266h147l3 -6l-249 -260h-107z" />
    <glyph glyph-name="nacute" unicode="&#x144;" 
d="M158 1082h106l11 -147q52 57 141 112q88 55 209 55q360 0 360 -443v-659h-120v658q0 187 -70 263q-69 77 -197 77q-172 0 -320 -158v-840h-120v1082zM509 1275l206 266h147l3 -6l-249 -260h-107z" />
    <glyph glyph-name="Ncommaaccent" unicode="&#x145;" horiz-adv-x="1445" 
d="M1259 1456v-1456h-120l-827 1246l-6 -1v-1245h-120v1456h120l827 -1243l6 1v1242h120zM770 -123v-122l-83 -209h-71l52 211v120h102z" />
    <glyph glyph-name="ncommaaccent" unicode="&#x146;" 
d="M158 1082h106l11 -147q52 57 141 112q88 55 209 55q360 0 360 -443v-659h-120v658q0 187 -70 263q-69 77 -197 77q-172 0 -320 -158v-840h-120v1082zM626 -123v-122l-83 -209h-71l52 211v120h102z" />
    <glyph glyph-name="Ncaron" unicode="&#x147;" horiz-adv-x="1445" 
d="M1259 1456v-1456h-120l-827 1246l-6 -1v-1245h-120v1456h120l827 -1243l6 1v1242h120zM554 1845l167 -169l166 169h115v-17l-233 -225h-97l-232 225v17h114z" />
    <glyph glyph-name="ncaron" unicode="&#x148;" 
d="M158 1082h106l11 -147q52 57 141 112q88 55 209 55q360 0 360 -443v-659h-120v658q0 187 -70 263q-69 77 -197 77q-172 0 -320 -158v-840h-120v1082zM410 1523l167 -169l166 169h115v-17l-233 -225h-97l-232 225v17h114z" />
    <glyph glyph-name="napostrophe" unicode="&#x149;" 
d="M158 1082h106l11 -147q52 57 141 112q88 55 209 55q360 0 360 -443v-659h-120v658q0 187 -70 263q-69 77 -197 77q-172 0 -320 -158v-840h-120v1082zM137 1557v-122l-83 -209h-71l52 211v120h102z" />
    <glyph glyph-name="Eng" unicode="&#x14a;" horiz-adv-x="1434" 
d="M1136 1456h119v-1545q0 -166 -80 -257t-224 -91q-50 0 -112 19l14 99q40 -16 98 -16q87 0 136 65t49 181v89l-828 1245l-6 -1v-1244h-120v1456h120l828 -1246l6 1v1245z" />
    <glyph glyph-name="eng" unicode="&#x14b;" 
d="M158 1082h106l11 -183q53 98 141 150.5t205 52.5q360 0 360 -443v-748q0 -166 -80 -257t-224 -91q-56 0 -124 19l14 103q24 -7 50 -10q38 -5 60 -5q88 0 136 62.5t48 178.5v747q0 187 -70 263q-69 77 -197 77q-236 0 -316 -221v-777h-120v1082z" />
    <glyph glyph-name="Omacron" unicode="&#x14c;" horiz-adv-x="1378" 
d="M1254 846v-237q0 -327 -147 -479q-147 -151 -422 -151q-277 0 -419 151t-142 479v237q0 310 144 470.5t416 160.5q275 0 422.5 -161t147.5 -470zM1135 609v239q0 277 -120 400q-118 124 -331 124q-209 0 -324 -124q-116 -124 -116 -400v-239q0 -290 116 -409
q117 -117 325 -117q213 0 331 117q119 119 119 409zM1019 1807v-97h-670v97h670z" />
    <glyph glyph-name="omacron" unicode="&#x14d;" 
d="M91 524v33q0 268 131 407q130 138 347 138t348 -137t131 -408v-33q0 -268 -131 -407q-131 -138 -346 -138q-219 0 -349 144q-131 145 -131 401zM211 557v-33q0 -213 95 -329q94 -115 265 -115q168 0 262 115q96 116 96 329v33q0 211 -96 327t-264 116q-169 0 -263 -118
q-95 -118 -95 -325zM915 1464v-97h-670v97h670z" />
    <glyph glyph-name="Obreve" unicode="&#x14e;" horiz-adv-x="1378" 
d="M1254 846v-237q0 -327 -147 -479q-147 -151 -422 -151q-277 0 -419 151t-142 479v237q0 310 144 470.5t416 160.5q275 0 422.5 -161t147.5 -470zM1135 609v239q0 277 -120 400q-118 124 -331 124q-209 0 -324 -124q-116 -124 -116 -400v-239q0 -290 116 -409
q117 -117 325 -117q213 0 331 117q119 119 119 409zM873 1875h94l2 -6q4 -111 -73 -182q-76 -70 -210 -70t-211 70q-77 71 -72 182l2 6h94q0 -80 46.5 -125.5t140.5 -45.5q91 0 139 46.5t48 124.5z" />
    <glyph glyph-name="obreve" unicode="&#x14f;" 
d="M91 524v33q0 268 131 407q130 138 347 138t348 -137t131 -408v-33q0 -268 -131 -407q-131 -138 -346 -138q-219 0 -349 144q-131 145 -131 401zM211 557v-33q0 -213 95 -329q94 -115 265 -115q168 0 262 115q96 116 96 329v33q0 211 -96 327t-264 116q-169 0 -263 -118
q-95 -118 -95 -325zM769 1532h94l2 -6q4 -111 -73 -182q-76 -70 -210 -70t-211 70q-77 71 -72 182l2 6h94q0 -80 46.5 -125.5t140.5 -45.5q91 0 139 46.5t48 124.5z" />
    <glyph glyph-name="Ohungarumlaut" unicode="&#x150;" horiz-adv-x="1378" 
d="M1254 846v-237q0 -327 -147 -479q-147 -151 -422 -151q-277 0 -419 151t-142 479v237q0 310 144 470.5t416 160.5q275 0 422.5 -161t147.5 -470zM1135 609v239q0 277 -120 400q-118 124 -331 124q-209 0 -324 -124q-116 -124 -116 -400v-239q0 -290 116 -409
q117 -117 325 -117q213 0 331 117q119 119 119 409zM729 1628l264 260h145l2 -6l-296 -260h-113zM484 1627l214 261h133l3 -6l-245 -260h-102z" />
    <glyph glyph-name="ohungarumlaut" unicode="&#x151;" 
d="M91 524v33q0 268 131 407q130 138 347 138t348 -137t131 -408v-33q0 -268 -131 -407q-131 -138 -346 -138q-219 0 -349 144q-131 145 -131 401zM211 557v-33q0 -213 95 -329q94 -115 265 -115q168 0 262 115q96 116 96 329v33q0 211 -96 327t-264 116q-169 0 -263 -118
q-95 -118 -95 -325zM625 1285l264 260h145l2 -6l-296 -260h-113zM380 1284l214 261h133l3 -6l-245 -260h-102z" />
    <glyph glyph-name="OE" unicode="&#x152;" horiz-adv-x="1913" 
d="M1796 101v-101h-839q-97 -10 -168 -15q-71 -6 -143 -6q-239 0 -389 166q-149 167 -149 431v304q0 264 148 430q149 167 388 167q117 0 313 -21h834v-102h-750v-547h653v-102h-653v-604h755zM646 81q156 0 275 17v1259q-137 18 -277 18q-191 0 -304 -132
q-112 -131 -112 -361v-306q0 -228 113 -362q114 -133 305 -133z" />
    <glyph glyph-name="oe" unicode="&#x153;" horiz-adv-x="1890" 
d="M1349 -21q-125 0 -225 55t-163 157q-63 -102 -163.5 -157t-226.5 -55q-218 0 -349 152q-131 154 -131 393v33q0 238 131 392q130 153 347 153q127 0 228.5 -56.5t165.5 -159.5q63 102 161 159t214 57q198 0 304 -127q108 -126 108 -340v-93h-702v-18q0 -99 -25 -191
q37 -118 122 -185.5t204 -67.5q97 0 180.5 32t139.5 88l51 -82q-132 -139 -371 -139zM211 557v-33q0 -188 95 -316t265 -128q118 0 203 67.5t125 186.5q-22 81 -22 175v55q0 98 23 178q-41 118 -125 187q-86 71 -206 71q-169 0 -263 -129q-95 -130 -95 -314zM1023 745
q16 -64 20 -101h587v25q0 145 -76 237q-75 94 -216 94q-112 0 -195 -68.5t-120 -186.5z" />
    <glyph glyph-name="Racute" unicode="&#x154;" horiz-adv-x="1336" 
d="M892 636l291 -597v-39h-118l-292 610q-47 -5 -89 -5h-382v-605h-120v1456h502q230 0 353 -117q127 -117 127 -308q0 -195 -127 -310q-62 -57 -145 -85zM302 707h382q180 0 270 91q90 92 90 231q0 141 -90 232q-90 93 -270 93h-382v-647zM539 1597l206 266h147l3 -6
l-249 -260h-107z" />
    <glyph glyph-name="racute" unicode="&#x155;" horiz-adv-x="699" 
d="M667 1091l-15 -112q-146 37 -237 -25q-87 -60 -137 -109v-845h-120v1082h96l24 -125q41 46 119 96q77 49 195 49q38 0 75 -11zM344 1275l206 266h147l3 -6l-249 -260h-107z" />
    <glyph glyph-name="Rcommaaccent" unicode="&#x156;" horiz-adv-x="1336" 
d="M892 636l291 -597v-39h-118l-292 610q-47 -5 -89 -5h-382v-605h-120v1456h502q230 0 353 -117q127 -117 127 -308q0 -195 -127 -310q-62 -57 -145 -85zM302 707h382q180 0 270 91q90 92 90 231q0 141 -90 232q-90 93 -270 93h-382v-647zM656 -245v122h-102v-120l-52 -211
h71z" />
    <glyph glyph-name="rcommaaccent" unicode="&#x157;" horiz-adv-x="699" 
d="M667 1091l-15 -112q-146 37 -237 -25q-87 -60 -137 -109v-845h-120v1082h96l24 -125q41 46 119 96q77 49 195 49q38 0 75 -11zM274 -119v-122l-83 -209h-71l52 211v120h102z" />
    <glyph glyph-name="Rcaron" unicode="&#x158;" horiz-adv-x="1336" 
d="M892 636l291 -597v-39h-118l-292 610q-47 -5 -89 -5h-382v-605h-120v1456h502q230 0 353 -117q127 -117 127 -308q0 -195 -127 -310q-62 -57 -145 -85zM302 707h382q180 0 270 91q90 92 90 231q0 141 -90 232q-90 93 -270 93h-382v-647zM440 1845l167 -169l166 169h115
v-17l-233 -225h-97l-232 225v17h114z" />
    <glyph glyph-name="rcaron" unicode="&#x159;" horiz-adv-x="699" 
d="M667 1091l-15 -112q-146 37 -237 -25q-87 -60 -137 -109v-845h-120v1082h96l24 -125q41 46 119 96q77 49 195 49q38 0 75 -11zM246 1523l167 -169l166 169h115v-17l-233 -225h-97l-232 225v17h114z" />
    <glyph glyph-name="Sacute" unicode="&#x15a;" horiz-adv-x="1236" 
d="M656 781q53 -16 94.5 -30t92.5 -36.5t89.5 -45.5t77 -56t63 -70t40 -85t15.5 -102q0 -94 -43.5 -168t-115.5 -118.5t-159 -67.5t-180 -23q-157 0 -291 26.5t-207 76.5l25 115q213 -117 473 -117q56 0 108.5 9.5t101.5 31t86 53t59 78t22 102.5q0 42 -12 78t-29.5 62.5
t-50 51t-60 40.5t-74.5 34.5t-79 29t-86 26.5q-59 16 -104 30.5t-97 36t-89.5 44.5t-74.5 54.5t-60 67.5t-37 83.5t-14 102.5q0 74 27.5 137t74 107.5t108.5 76t131 46.5t142 15q140 0 232.5 -32.5t197.5 -98.5l-33 -106q-43 28 -70.5 43.5t-82 41t-116 38t-128.5 12.5
q-95 0 -175.5 -29t-134 -93.5t-53.5 -155.5q0 -40 9 -73t23 -57t39.5 -45t49 -35t60.5 -29t66 -25l73.5 -25t75.5 -27zM552 1618l206 266h147l3 -6l-249 -260h-107z" />
    <glyph glyph-name="sacute" unicode="&#x15b;" horiz-adv-x="1043" 
d="M541 602q195 -43 290 -119t95 -200q0 -76 -34 -136t-91.5 -95.5t-127.5 -54t-147 -18.5q-115 0 -233 32.5t-178 73.5l31 102q86 -49 188 -78t192 -29q70 0 131.5 19.5t105 65.5t43.5 112q0 42 -16 75.5t-40.5 56t-64.5 41t-77 29.5t-89 23q-68 14 -116 27.5t-102 38
t-86.5 54.5t-54 77t-21.5 107q0 94 57 163.5t142 101t183 31.5q121 0 215.5 -34.5t142.5 -78.5l-30 -106q-48 46 -133 81.5t-195 35.5q-109 0 -185.5 -48t-76.5 -142q0 -42 15.5 -74t36.5 -51t64 -36t74.5 -25.5t91.5 -21.5zM451 1275l206 266h147l3 -6l-249 -260h-107z" />
    <glyph glyph-name="Scircumflex" unicode="&#x15c;" horiz-adv-x="1236" 
d="M656 781q53 -16 94.5 -30t92.5 -36.5t89.5 -45.5t77 -56t63 -70t40 -85t15.5 -102q0 -94 -43.5 -168t-115.5 -118.5t-159 -67.5t-180 -23q-157 0 -291 26.5t-207 76.5l25 115q213 -117 473 -117q56 0 108.5 9.5t101.5 31t86 53t59 78t22 102.5q0 42 -12 78t-29.5 62.5
t-50 51t-60 40.5t-74.5 34.5t-79 29t-86 26.5q-59 16 -104 30.5t-97 36t-89.5 44.5t-74.5 54.5t-60 67.5t-37 83.5t-14 102.5q0 74 27.5 137t74 107.5t108.5 76t131 46.5t142 15q140 0 232.5 -32.5t197.5 -98.5l-33 -106q-43 28 -70.5 43.5t-82 41t-116 38t-128.5 12.5
q-95 0 -175.5 -29t-134 -93.5t-53.5 -155.5q0 -40 9 -73t23 -57t39.5 -45t49 -35t60.5 -29t66 -25l73.5 -25t75.5 -27zM670 1864l230 -224v-18h-112l-167 168l-166 -168h-110v21l227 221h98z" />
    <glyph glyph-name="scircumflex" unicode="&#x15d;" horiz-adv-x="1043" 
d="M541 602q195 -43 290 -119t95 -200q0 -76 -34 -136t-91.5 -95.5t-127.5 -54t-147 -18.5q-115 0 -233 32.5t-178 73.5l31 102q86 -49 188 -78t192 -29q70 0 131.5 19.5t105 65.5t43.5 112q0 42 -16 75.5t-40.5 56t-64.5 41t-77 29.5t-89 23q-68 14 -116 27.5t-102 38
t-86.5 54.5t-54 77t-21.5 107q0 94 57 163.5t142 101t183 31.5q121 0 215.5 -34.5t142.5 -78.5l-30 -106q-48 46 -133 81.5t-195 35.5q-109 0 -185.5 -48t-76.5 -142q0 -42 15.5 -74t36.5 -51t64 -36t74.5 -25.5t91.5 -21.5zM569 1521l230 -224v-18h-112l-167 168l-166 -168
h-110v21l227 221h98z" />
    <glyph glyph-name="Scedilla" unicode="&#x15e;" horiz-adv-x="1236" 
d="M1128 356q0 -91 -40.5 -163.5t-109 -117t-151 -69t-172.5 -27.5l-10 -53q176 -18 176 -171q0 -92 -80 -145.5t-225 -53.5l-7 78q93 0 151 31q62 30 62 88q0 59 -42 80q-39 22 -145 31l26 116q-298 12 -429 101l25 116q212 -118 473 -118q70 0 135 16t120.5 48t88.5 86.5
t33 123.5q0 42 -12 78t-29.5 63t-49.5 51.5t-60 40.5t-75 34t-79 28.5t-86 26.5q-59 16 -104 30.5t-97 36t-89.5 44.5t-74.5 54.5t-60 67.5t-37 83.5t-14 102.5q0 74 27.5 137.5t74 108t108.5 76t131 46.5t142 15q97 0 179.5 -20t131.5 -44t119 -67l-33 -107
q-41 27 -70 43.5t-83 41.5t-115.5 38t-128.5 13q-96 0 -176 -29t-133.5 -94t-53.5 -156q0 -45 10 -81t33 -63t47 -46t64.5 -37t72 -29.5t84 -29t85.5 -30.5q76 -22 133 -43.5t124.5 -58t111.5 -79t73.5 -105.5t29.5 -138z" />
    <glyph glyph-name="scedilla" unicode="&#x15f;" horiz-adv-x="1043" 
d="M926 284q0 -73 -31 -131t-84.5 -94t-118.5 -56t-138 -23l-10 -50q176 -18 176 -171q0 -92 -80 -145.5t-225 -53.5l-7 77q91 0 151 32q62 30 62 88q0 59 -42 80q-39 22 -145 31l26 114q-102 9 -198.5 38.5t-146.5 64.5l31 102q86 -48 188 -77t192 -29q70 0 131.5 19.5
t105 65.5t43.5 111q0 42 -16 76t-40.5 56t-64.5 40.5t-77 29.5t-89 23q-68 14 -116 27.5t-101.5 38t-86.5 55t-54.5 77.5t-21.5 106q0 94 57 163.5t142 101.5t183 32q121 0 215.5 -35t142.5 -79l-30 -106q-47 46 -132.5 82t-195.5 36q-109 0 -185.5 -48.5t-76.5 -142.5
q0 -42 15.5 -73.5t36.5 -51t64 -36.5t74.5 -25.5t91.5 -21.5q195 -43 290 -119t95 -199z" />
    <glyph glyph-name="Scaron" unicode="&#x160;" horiz-adv-x="1236" 
d="M656 781q53 -16 94.5 -30t92.5 -36.5t89.5 -45.5t77 -56t63 -70t40 -85t15.5 -102q0 -94 -43.5 -168t-115.5 -118.5t-159 -67.5t-180 -23q-157 0 -291 26.5t-207 76.5l25 115q213 -117 473 -117q56 0 108.5 9.5t101.5 31t86 53t59 78t22 102.5q0 42 -12 78t-29.5 62.5
t-50 51t-60 40.5t-74.5 34.5t-79 29t-86 26.5q-59 16 -104 30.5t-97 36t-89.5 44.5t-74.5 54.5t-60 67.5t-37 83.5t-14 102.5q0 74 27.5 137t74 107.5t108.5 76t131 46.5t142 15q140 0 232.5 -32.5t197.5 -98.5l-33 -106q-43 28 -70.5 43.5t-82 41t-116 38t-128.5 12.5
q-95 0 -175.5 -29t-134 -93.5t-53.5 -155.5q0 -40 9 -73t23 -57t39.5 -45t49 -35t60.5 -29t66 -25l73.5 -25t75.5 -27zM453 1866l167 -169l166 169h115v-17l-233 -225h-97l-232 225v17h114z" />
    <glyph glyph-name="scaron" unicode="&#x161;" horiz-adv-x="1043" 
d="M541 602q195 -43 290 -119t95 -200q0 -76 -34 -136t-91.5 -95.5t-127.5 -54t-147 -18.5q-115 0 -233 32.5t-178 73.5l31 102q86 -49 188 -78t192 -29q70 0 131.5 19.5t105 65.5t43.5 112q0 42 -16 75.5t-40.5 56t-64.5 41t-77 29.5t-89 23q-68 14 -116 27.5t-102 38
t-86.5 54.5t-54 77t-21.5 107q0 94 57 163.5t142 101t183 31.5q121 0 215.5 -34.5t142.5 -78.5l-30 -106q-48 46 -133 81.5t-195 35.5q-109 0 -185.5 -48t-76.5 -142q0 -42 15.5 -74t36.5 -51t64 -36t74.5 -25.5t91.5 -21.5zM352 1523l167 -169l166 169h115v-17l-233 -225
h-97l-232 225v17h114z" />
    <glyph glyph-name="Tcommaaccent" unicode="&#x162;" horiz-adv-x="1224" 
d="M1176 1456v-102h-496v-1354h-119v1354h-513v102h1128zM669 -123v-122l-83 -209h-71l52 211v120h102z" />
    <glyph glyph-name="tcommaaccent" unicode="&#x163;" horiz-adv-x="659" 
d="M162 1320l121 39v-277h238v-98h-238v-705q0 -195 141 -195q40 0 91 11l18 -89q-54 -27 -130 -27q-241 0 -241 300v1041zM506 -133v-122l-83 -209h-71l52 211v120h102z" />
    <glyph glyph-name="Tcaron" unicode="&#x164;" horiz-adv-x="1224" 
d="M1176 1456v-102h-496v-1354h-119v1354h-513v102h1128zM452 1840l167 -169l166 169h115v-17l-233 -225h-97l-232 225v17h114z" />
    <glyph glyph-name="tcaron" unicode="&#x165;" horiz-adv-x="659" 
d="M162 1320l121 39v-277h238v-98h-238v-705q0 -195 141 -195q40 0 91 11l18 -89q-54 -27 -130 -27q-241 0 -241 300v1041zM646 1562v-122l-83 -209h-71l52 211v120h102z" />
    <glyph glyph-name="Tbar" unicode="&#x166;" horiz-adv-x="1224" 
d="M916 936v-102h-236v-834h-119v834h-257v102h257v418h-513v102h1128v-102h-496v-418h236z" />
    <glyph glyph-name="tbar" unicode="&#x167;" horiz-adv-x="659" 
d="M224 1359h121v-277h238v-98h-238v-265h286v-102h-286v-338q0 -195 141 -195q40 0 91 11l18 -89q-54 -27 -130 -27q-241 0 -241 300v338h-205v102h205v265h-187v98h187v277z" />
    <glyph glyph-name="Utilde" unicode="&#x168;" horiz-adv-x="1374" 
d="M1090 1456h119v-967q0 -240 -147 -375t-378 -135q-228 0 -373 135q-144 136 -144 375v967h120v-967q0 -188 111 -299q113 -110 286 -110q177 0 292 110q114 110 114 299v967zM937 1842l80 -20q0 -88 -55 -146t-137 -58q-75 0 -151 55t-131 55q-48 0 -79.5 -35t-31.5 -89
l-80 18q0 86 54 144q54 59 137 59q65 0 147 -55t135 -55q46 0 79 36.5t33 90.5z" />
    <glyph glyph-name="utilde" unicode="&#x169;" 
d="M883 0l-17 139q-52 -49 -141 -106q-85 -54 -206 -54q-175 0 -270 118.5t-95 357.5v627h120v-629q0 -199 67 -284q68 -86 192 -86q135 0 215 60q83 63 114 104v835h120v-1082h-99zM820 1500l80 -20q0 -88 -55 -146t-137 -58q-75 0 -151 55t-131 55q-48 0 -79.5 -35
t-31.5 -89l-80 18q0 86 54 144q54 59 137 59q65 0 147 -55t135 -55q46 0 79 36.5t33 90.5z" />
    <glyph glyph-name="Umacron" unicode="&#x16a;" horiz-adv-x="1374" 
d="M1090 1456h119v-967q0 -240 -147 -375t-378 -135q-228 0 -373 135q-144 136 -144 375v967h120v-967q0 -188 111 -299q113 -110 286 -110q177 0 292 110q114 110 114 299v967zM1030 1786v-97h-670v97h670z" />
    <glyph glyph-name="umacron" unicode="&#x16b;" 
d="M883 0l-17 139q-52 -49 -141 -106q-85 -54 -206 -54q-175 0 -270 118.5t-95 357.5v627h120v-629q0 -199 67 -284q68 -86 192 -86q135 0 215 60q83 63 114 104v835h120v-1082h-99zM913 1444v-97h-670v97h670z" />
    <glyph glyph-name="Ubreve" unicode="&#x16c;" horiz-adv-x="1374" 
d="M1090 1456h119v-967q0 -240 -147 -375t-378 -135q-228 0 -373 135q-144 136 -144 375v967h120v-967q0 -188 111 -299q113 -110 286 -110q177 0 292 110q114 110 114 299v967zM884 1854h94l2 -6q4 -111 -73 -182q-76 -70 -210 -70t-211 70q-77 71 -72 182l2 6h94
q0 -80 46.5 -125.5t140.5 -45.5q91 0 139 46.5t48 124.5z" />
    <glyph glyph-name="ubreve" unicode="&#x16d;" 
d="M883 0l-17 139q-52 -49 -141 -106q-85 -54 -206 -54q-175 0 -270 118.5t-95 357.5v627h120v-629q0 -199 67 -284q68 -86 192 -86q135 0 215 60q83 63 114 104v835h120v-1082h-99zM767 1511h94l2 -6q4 -111 -73 -182q-76 -70 -210 -70t-211 70q-77 71 -72 182l2 6h94
q0 -80 46.5 -125.5t140.5 -45.5q91 0 139 46.5t48 124.5z" />
    <glyph glyph-name="Uring" unicode="&#x16e;" horiz-adv-x="1374" 
d="M1090 1456h119v-967q0 -240 -147 -375t-378 -135q-228 0 -373 135q-144 136 -144 375v967h120v-967q0 -188 111 -299q113 -110 286 -110q177 0 292 110q114 110 114 299v967zM541 1730q0 63 45 108q46 45 109 45t106 -45q45 -44 45 -108q0 -65 -44 -107t-107 -42
q-64 0 -109 42t-45 107zM618 1730q0 -33 22.5 -55t54.5 -22q31 0 53 22t22 55t-22 56t-53 23q-32 0 -54.5 -22.5t-22.5 -56.5z" />
    <glyph glyph-name="uring" unicode="&#x16f;" 
d="M883 0l-17 139q-52 -49 -141 -106q-85 -54 -206 -54q-175 0 -270 118.5t-95 357.5v627h120v-629q0 -199 67 -284q68 -86 192 -86q135 0 215 60q83 63 114 104v835h120v-1082h-99zM424 1387q0 63 45 108q47 45 109 45t106 -45q45 -43 45 -108t-44 -107q-43 -42 -107 -42
t-109 42t-45 107zM501 1387q0 -33 22.5 -55t54.5 -22q31 0 53 22t22 55t-22 56t-53 23q-32 0 -54.5 -22.5t-22.5 -56.5z" />
    <glyph glyph-name="Uhungarumlaut" unicode="&#x170;" horiz-adv-x="1374" 
d="M1090 1456h119v-967q0 -240 -147 -375t-378 -135q-228 0 -373 135q-144 136 -144 375v967h120v-967q0 -188 111 -299q113 -110 286 -110q177 0 292 110q114 110 114 299v967zM740 1607l264 260h145l2 -6l-296 -260h-113zM495 1606l214 261h133l3 -6l-245 -260h-102z" />
    <glyph glyph-name="uhungarumlaut" unicode="&#x171;" 
d="M883 0l-17 139q-52 -49 -141 -106q-85 -54 -206 -54q-175 0 -270 118.5t-95 357.5v627h120v-629q0 -199 67 -284q68 -86 192 -86q135 0 215 60q83 63 114 104v835h120v-1082h-99zM623 1264l264 260h145l2 -6l-296 -260h-113zM378 1263l214 261h133l3 -6l-245 -260h-102z
" />
    <glyph glyph-name="Uogonek" unicode="&#x172;" horiz-adv-x="1374" 
d="M1090 1456h119v-967q0 -240 -147 -375t-378 -135q-228 0 -373 135q-144 136 -144 375v967h120v-967q0 -188 111 -299q113 -110 286 -110q177 0 292 110q114 110 114 299v967zM719 37l61 -37q-78 -65 -113 -112t-35 -100q0 -32 19 -58q19 -27 70 -27t105 32l24 -83
q-70 -44 -152 -44q-77 0 -125.5 45t-48.5 124q0 71 51 139t144 121z" />
    <glyph glyph-name="uogonek" unicode="&#x173;" 
d="M883 0l-17 139q-52 -49 -141 -106q-85 -54 -206 -54q-175 0 -270 118.5t-95 357.5v627h120v-629q0 -199 67 -284q68 -86 192 -86q135 0 215 60q83 63 114 104v835h120v-1082h-99zM905 37l61 -37q-78 -65 -113 -112t-35 -100q0 -32 19 -58q19 -27 70 -27t105 32l24 -83
q-70 -44 -152 -44q-77 0 -125.5 45t-48.5 124q0 71 51 139t144 121z" />
    <glyph glyph-name="Wcircumflex" unicode="&#x174;" horiz-adv-x="1813" 
d="M180 1456l260 -1038l45 -235h6l355 1010h121l354 -1011h6l48 236l257 1038h130l-373 -1456h-114l-363 1033h-10l-365 -1033h-114l-373 1456h130zM954 1843l230 -224v-18h-112l-167 168l-166 -168h-110v21l227 221h98z" />
    <glyph glyph-name="wcircumflex" unicode="&#x175;" horiz-adv-x="1550" 
d="M193 1082l198 -731l42 -198h6l271 762h122l270 -768h6l47 204l193 731h128l-315 -1082h-110l-280 776h-6l-275 -776h-111l-314 1082h128zM822 1500l230 -224v-18h-112l-167 168l-166 -168h-110v21l227 221h98z" />
    <glyph glyph-name="Ycircumflex" unicode="&#x176;" horiz-adv-x="1256" 
d="M177 1456l448 -809l451 809h139l-531 -924v-532h-119v537l-527 919h139zM674 1836l230 -224v-18h-112l-167 168l-166 -168h-110v21l227 221h98z" />
    <glyph glyph-name="ycircumflex" unicode="&#x177;" horiz-adv-x="1002" 
d="M168 1082l297 -789l38 -129h6l327 918h134l-470 -1255q-43 -112 -109 -187q-68 -77 -196 -77q-18 0 -51 5q-31 5 -44 9l14 100q27 -3 38 -4q27 -3 39 -3q78 0 125 56q48 57 80 142l57 146l-418 1068h133zM563 1500l230 -224v-18h-112l-167 168l-166 -168h-110v21l227 221
h98z" />
    <glyph glyph-name="Ydieresis" unicode="&#x178;" horiz-adv-x="1256" 
d="M177 1456l448 -809l451 809h139l-531 -924v-532h-119v537l-527 919h139zM951 1791v-157h-173v157h173zM482 1791v-157h-174v157h174z" />
    <glyph glyph-name="Zacute" unicode="&#x179;" horiz-adv-x="1224" 
d="M1099 1369l-861 -1268h893v-101h-1036v92l858 1262h-831v102h977v-87zM540 1597l206 266h147l3 -6l-249 -260h-107z" />
    <glyph glyph-name="zacute" unicode="&#x17a;" horiz-adv-x="1002" 
d="M893 993l-655 -892h703v-101h-851v88l652 891h-632v103h783v-89zM455 1254l206 266h147l3 -6l-249 -260h-107z" />
    <glyph glyph-name="Zdotaccent" unicode="&#x17b;" horiz-adv-x="1224" 
d="M1099 1369l-861 -1268h893v-101h-1036v92l858 1262h-831v102h977v-87zM683 1805v-168h-151v168h151z" />
    <glyph glyph-name="zdotaccent" unicode="&#x17c;" horiz-adv-x="1002" 
d="M893 993l-655 -892h703v-101h-851v88l652 891h-632v103h783v-89zM598 1462v-168h-151v168h151z" />
    <glyph glyph-name="Zcaron" unicode="&#x17d;" horiz-adv-x="1224" 
d="M1099 1369l-861 -1268h893v-101h-1036v92l858 1262h-831v102h977v-87zM441 1845l167 -169l166 169h115v-17l-233 -225h-97l-232 225v17h114z" />
    <glyph glyph-name="zcaron" unicode="&#x17e;" horiz-adv-x="1002" 
d="M893 993l-655 -892h703v-101h-851v88l652 891h-632v103h783v-89zM356 1502l167 -169l166 169h115v-17l-233 -225h-97l-232 225v17h114z" />
    <glyph glyph-name="longs" unicode="&#x17f;" horiz-adv-x="465" 
d="M286 0h-119v1240q0 162 81.5 251.5t228.5 89.5q62 0 136 -19l-16 -96q-54 13 -105 13q-98 0 -152 -63.5t-54 -175.5v-1240z" />
    <glyph glyph-name="florin" unicode="&#x192;" horiz-adv-x="670" 
d="M600 1082v-98h-244v-1073q0 -166 -80 -257t-224 -91q-51 0 -111 19l14 99q46 -16 97 -16q87 0 135.5 64.5t48.5 181.5v1073h-180v98h180v158q0 162 81.5 251.5t228.5 89.5q62 0 136 -19l-15 -99q-54 13 -109 13q-98 0 -150 -62t-52 -174v-158h244z" />
    <glyph glyph-name="Ohorn" unicode="&#x1a0;" horiz-adv-x="1429" 
d="M1249 846v-237q0 -281 -155 -456q-154 -174 -414 -174q-256 0 -409 174q-152 175 -152 456v237q0 280 152 456q151 175 408 175q136 0 247.5 -51.5t187.5 -147.5q145 3 221.5 93t76.5 255h113l3 -5q2 -191 -89.5 -305.5t-262.5 -135.5q73 -149 73 -334zM1130 609v239
q0 236 -120 380q-118 144 -331 144q-209 0 -324 -144q-116 -145 -116 -380v-239q0 -237 116 -382q117 -144 325 -144q212 0 331 143q119 145 119 383z" />
    <glyph glyph-name="ohorn" unicode="&#x1a1;" horiz-adv-x="1146" 
d="M91 524v33q0 238 131 392q130 153 347 153q207 0 340 -144q111 9 168.5 82t57.5 200h111q0 -151 -72.5 -244t-207.5 -116q82 -141 82 -323v-33q0 -239 -131 -393q-131 -152 -346 -152q-218 0 -349 152q-131 154 -131 393zM211 557v-33q0 -188 95 -316t265 -128
q167 0 262 128q96 127 96 316v33q0 185 -96 314t-264 129q-169 0 -263 -129q-95 -130 -95 -314z" />
    <glyph glyph-name="Uhorn" unicode="&#x1af;" horiz-adv-x="1395" 
d="M1090 1456h119v-193l6 -2q131 11 200.5 100.5t69.5 245.5h113l2 -5q3 -197 -100 -312q-101 -114 -291 -131v-670q0 -240 -147 -375t-378 -135q-228 0 -373 135q-144 136 -144 375v967h120v-967q0 -188 111 -299q113 -110 286 -110q177 0 292 110q114 110 114 299v967z
" />
    <glyph glyph-name="uhorn" unicode="&#x1b0;" horiz-adv-x="1159" 
d="M1217 1250h104l2 -5q3 -174 -83.5 -270.5t-257.5 -108.5v-866h-106l-10 176q-107 -197 -347 -197q-175 0 -270 118.5t-95 357.5v627h120v-629q0 -199 67 -284q68 -86 192 -86q258 0 329 226v773h120v-121l6 -2q229 13 229 291z" />
    <glyph glyph-name="uni01F0" unicode="&#x1f0;" horiz-adv-x="468" 
d="M179 1082h119v-1171q0 -166 -79.5 -257t-222.5 -91q-49 0 -112 19l13 99q48 -16 99 -16q87 0 135 65t48 181v1171zM70 1483l167 -169l166 169h115v-17l-233 -225h-97l-232 225v17h114z" />
    <glyph glyph-name="Aringacute" unicode="&#x1fa;" horiz-adv-x="1256" 
d="M1093 0l-145 406h-639l-147 -406h-124l535 1456h113l531 -1456h-124zM627 1285l-280 -772h562l-276 772h-6zM594 1879l160 204h129l3 -6l-197 -198h-95zM474 1673q0 65 45 109q47 45 110 45t107 -45q45 -44 45 -109q0 -63 -45 -107q-43 -43 -107 -43t-110 43
q-45 44 -45 107zM542 1673q0 -36 25.5 -61t61.5 -25q35 0 60 24.5t25 61.5q0 38 -25 64t-60 26q-36 0 -61.5 -26t-25.5 -64z" />
    <glyph glyph-name="aringacute" unicode="&#x1fb;" horiz-adv-x="1101" 
d="M940 218l1 -218h-95q-5 45 -11.5 87t-9.5 75q-58 -74 -169 -128.5t-224 -54.5q-154 0 -244 81.5t-90 231.5q0 69 26.5 125.5t70.5 94.5t103 63t124 35t133 8q79 -3 145.5 -18.5t93.5 -29.5l27 -14v196q0 116 -73.5 181.5t-207.5 65.5q-163 0 -353 -77l-25 101
q183 78 384 78q180 0 286 -90q108 -93 108 -261v-532zM821 250v213q-12 7 -35 17.5t-92.5 28t-139.5 17.5q-59 0 -116.5 -14t-107.5 -41.5t-81 -75t-31 -107.5q0 -96 63 -150t164 -54q100 0 202.5 48.5t173.5 117.5zM509 1558l160 204h129l3 -6l-197 -198h-95zM389 1352
q0 66 45 109q46 45 110 45t107 -45q45 -43 45 -109q0 -64 -45 -107q-43 -43 -107 -43t-110 43q-45 43 -45 107zM457 1352q0 -36 25.5 -61t61.5 -25t60.5 25t24.5 61q0 38 -25 64t-60 26q-36 0 -61.5 -26t-25.5 -64z" />
    <glyph glyph-name="AEacute" unicode="&#x1fc;" horiz-adv-x="1900" 
d="M1839 101v-101h-817l-17 389h-597l-229 -389h-146l881 1456h864v-102h-694l23 -545h589v-102h-585l26 -606h702zM945 1298l-470 -796h526l-35 839l-6 1zM902 1597l206 266h147l3 -6l-249 -260h-107z" />
    <glyph glyph-name="aeacute" unicode="&#x1fd;" horiz-adv-x="1796" 
d="M1676 538h-754v-30q0 -92 21 -168t63.5 -135.5t113 -92.5t163.5 -33q182 0 324 120l47 -87q-78 -70 -166.5 -101.5t-204.5 -31.5q-137 0 -240 55t-164 158q-64 -104 -177.5 -158.5t-251.5 -54.5q-161 0 -258 80t-97 233q0 149 114 233t325 84h262v110q0 134 -63 207
t-182 73q-81 0 -170.5 -23.5t-151.5 -76.5l-57 90q82 57 182 85t197 28q122 0 209.5 -54.5t126.5 -157.5q61 100 157 156t209 56q202 0 314 -128t109 -337v-99zM1253 999q-141 0 -224 -102.5t-99 -255.5l2 -6h625v32q1 148 -78.5 240t-225.5 92zM796 248v264h-260
q-83 2 -153.5 -19.5t-119 -74t-48.5 -129.5q0 -98 65.5 -154.5t186.5 -56.5q89 0 189 50t140 120zM820 1276l206 266h147l3 -6l-249 -260h-107z" />
    <glyph glyph-name="Oslashacute" unicode="&#x1fe;" horiz-adv-x="1379" 
d="M1254 846v-237q0 -281 -155 -456q-155 -174 -414 -174q-91 0 -197 30q-107 32 -196 122q-168 169 -168 478v237q0 280 152 456q151 175 408 175q122 0 235 -42q114 -41 199 -144q87 -104 111 -209q25 -104 25 -236zM244 848v-239q0 -117 29 -213.5t80 -154.5l6 -1
l633 1014q-120 118 -308 118q-208 0 -324 -144q-116 -145 -116 -380zM1135 609v239q0 94 -21 178t-55 140h-6l-627 -1002q104 -81 259 -81q212 0 331 143q119 145 119 383zM637 1659l206 266h147l3 -6l-249 -260h-107z" />
    <glyph glyph-name="oslashacute" unicode="&#x1ff;" horiz-adv-x="1141" 
d="M913 965q131 -137 131 -408v-33q0 -268 -131 -407q-131 -138 -346 -138q-219 0 -349 144q-131 145 -131 401v33q0 269 131 406q130 139 347 139t348 -137zM207 557v-33q0 -137 39 -233l604 565q-7 10 -21 28q-96 116 -264 116q-169 0 -263 -118q-95 -118 -95 -325z
M925 524v33q0 113 -26 192l-595 -557q94 -112 263 -112q168 0 262 115q96 116 96 329zM454 1274l206 266h147l3 -6l-249 -260h-107z" />
    <glyph glyph-name="Scommaaccent" unicode="&#x218;" horiz-adv-x="1236" 
d="M656 781q53 -16 94.5 -30t92.5 -36.5t89.5 -45.5t77 -56t63 -70t40 -85t15.5 -102q0 -94 -43.5 -168t-115.5 -118.5t-159 -67.5t-180 -23q-157 0 -291 26.5t-207 76.5l25 115q213 -117 473 -117q56 0 108.5 9.5t101.5 31t86 53t59 78t22 102.5q0 42 -12 78t-29.5 62.5
t-50 51t-60 40.5t-74.5 34.5t-79 29t-86 26.5q-59 16 -104 30.5t-97 36t-89.5 44.5t-74.5 54.5t-60 67.5t-37 83.5t-14 102.5q0 74 27.5 137t74 107.5t108.5 76t131 46.5t142 15q140 0 232.5 -32.5t197.5 -98.5l-33 -106q-43 28 -70.5 43.5t-82 41t-116 38t-128.5 12.5
q-95 0 -175.5 -29t-134 -93.5t-53.5 -155.5q0 -40 9 -73t23 -57t39.5 -45t49 -35t60.5 -29t66 -25l73.5 -25t75.5 -27zM669 -265v122h-102v-120l-52 -211h71z" />
    <glyph glyph-name="scommaaccent" unicode="&#x219;" horiz-adv-x="1043" 
d="M541 602q195 -43 290 -119t95 -200q0 -76 -34 -136t-91.5 -95.5t-127.5 -54t-147 -18.5q-115 0 -233 32.5t-178 73.5l31 102q86 -49 188 -78t192 -29q70 0 131.5 19.5t105 65.5t43.5 112q0 42 -16 75.5t-40.5 56t-64.5 41t-77 29.5t-89 23q-68 14 -116 27.5t-102 38
t-86.5 54.5t-54 77t-21.5 107q0 94 57 163.5t142 101t183 31.5q121 0 215.5 -34.5t142.5 -78.5l-30 -106q-48 46 -133 81.5t-195 35.5q-109 0 -185.5 -48t-76.5 -142q0 -42 15.5 -74t36.5 -51t64 -36t74.5 -25.5t91.5 -21.5zM568 -262v122h-102v-120l-52 -211h71z" />
    <glyph glyph-name="uni0237" unicode="&#x237;" horiz-adv-x="468" 
d="M179 1082h119v-1171q0 -166 -79.5 -257t-222.5 -91q-49 0 -112 19l13 99q48 -16 99 -16q87 0 135 65t48 181v1171z" />
    <glyph glyph-name="uni02BC" unicode="&#x2bc;" horiz-adv-x="469" 
d="M302 1456v-179l-73 -307h-72l26 304v182h119z" />
    <glyph glyph-name="circumflex" unicode="&#x2c6;" horiz-adv-x="880" 
d="M485 1494l230 -224v-18h-112l-167 168l-166 -168h-110v21l227 221h98z" />
    <glyph glyph-name="caron" unicode="&#x2c7;" horiz-adv-x="836" 
d="M250 1494l167 -169l166 169h115v-17l-233 -225h-97l-232 225v17h114z" />
    <glyph glyph-name="breve" unicode="&#x2d8;" horiz-adv-x="865" 
d="M614 1456h94l2 -6q4 -111 -73 -182q-76 -70 -210 -70t-211 70q-77 71 -72 182l2 6h94q0 -80 46.5 -125.5t140.5 -45.5q91 0 139 46.5t48 124.5z" />
    <glyph glyph-name="dotaccent" unicode="&#x2d9;" horiz-adv-x="487" 
d="M308 1456v-168h-151v168h151z" />
    <glyph glyph-name="ring" unicode="&#x2da;" horiz-adv-x="676" 
d="M186 1324q0 63 45 108q46 45 109 45q62 0 106 -45q45 -44 45 -108q0 -65 -44 -107t-107 -42q-64 0 -109 42t-45 107zM263 1324q0 -33 22.5 -55t54.5 -22q31 0 53 22t22 55t-22 56t-53 23q-32 0 -54.5 -22.5t-22.5 -56.5z" />
    <glyph glyph-name="ogonek" unicode="&#x2db;" horiz-adv-x="512" 
d="M286 37l61 -37q-78 -65 -113 -112t-35 -100q0 -32 19 -58q20 -27 70 -27q51 0 105 32l24 -83q-70 -44 -152 -44q-77 0 -125.5 45t-48.5 124q0 71 51 139t144 121z" />
    <glyph glyph-name="tilde" unicode="&#x2dc;" horiz-adv-x="892" 
d="M687 1501l80 -20q0 -88 -55 -146t-137 -58q-75 0 -151 55t-131 55q-48 0 -79.5 -35t-31.5 -89l-80 18q0 85 54 144t137 59q65 0 147 -55t135 -55q46 0 79 36.5t33 90.5z" />
    <glyph glyph-name="hungarumlaut" unicode="&#x2dd;" horiz-adv-x="773" 
d="M379 1258l264 260h145l2 -6l-296 -260h-113zM134 1257l214 261h133l3 -6l-245 -260h-102z" />
    <glyph glyph-name="uni02F3" unicode="&#x2f3;" horiz-adv-x="655" 
d="M184 -226q0 57 43 96q44 38 103 38q57 0 100 -38q42 -39 42 -96q0 -54 -42 -92q-41 -38 -100 -38q-60 0 -104 38q-42 38 -42 92zM256 -226q0 -25 22 -43.5t52 -18.5t50.5 18t20.5 44q0 29 -20.5 47t-50.5 18q-31 0 -52.5 -18t-21.5 -47z" />
    <glyph glyph-name="gravecomb" unicode="&#x300;" horiz-adv-x="0" 
d="M-677 1615l140 -351h-81l-168 345l1 6h108z" />
    <glyph glyph-name="acutecomb" unicode="&#x301;" horiz-adv-x="0" 
d="M-645 1264l141 352h100l2 -8l-170 -344h-73z" />
    <glyph glyph-name="tildecomb" unicode="&#x303;" horiz-adv-x="0" 
d="M-332 1501l80 -20q0 -88 -55 -146t-137 -58q-75 0 -151 55t-131 55q-48 0 -79.5 -35t-31.5 -89l-80 18q0 85 54 144t137 59q65 0 147 -55t135 -55q46 0 79 36.5t33 90.5z" />
    <glyph glyph-name="hook" unicode="&#x309;" horiz-adv-x="0" 
d="M-535 1234h-90v125q91 6 129 27.5t38 66.5q0 50 -58 72q-60 23 -143 23l7 77q135 0 214.5 -47t79.5 -126q0 -71 -47 -110t-129 -46z" />
    <glyph glyph-name="uni030F" unicode="&#x30f;" horiz-adv-x="0" 
d="M-824 1518l264 -260l-2 -6h-113l-296 260l2 6h145zM-529 1518l214 -261l-3 -5h-102l-245 260l3 6h133z" />
    <glyph glyph-name="dotbelow" unicode="&#x323;" horiz-adv-x="0" 
d="M-512 -147v-168h-151v168h151z" />
    <glyph glyph-name="tonos" unicode="&#x384;" horiz-adv-x="519" 
d="M218 1305l32 224h153l-129 -224h-56z" />
    <glyph glyph-name="dieresistonos" unicode="&#x385;" horiz-adv-x="981" 
d="M815 1456v-152h-159v152h159zM323 1456v-152h-160v152h160zM444 1472l36 219h174l-122 -219h-88z" />
    <glyph glyph-name="Alphatonos" unicode="&#x386;" horiz-adv-x="1256" 
d="M1093 0l-145 406h-639l-147 -406h-124l535 1456h113l531 -1456h-124zM627 1285l-280 -772h562l-276 772h-6zM226 1305l32 224h153l-129 -224h-56z" />
    <glyph glyph-name="anoteleia" unicode="&#x387;" horiz-adv-x="503" 
d="M321 804v-180h-155v180h155z" />
    <glyph glyph-name="Epsilontonos" unicode="&#x388;" horiz-adv-x="1129" 
d="M959 807v-102h-653v-604h755v-101h-875v1456h870v-102h-750v-547h653zM-74 1307l32 224h153l-129 -224h-56z" />
    <glyph glyph-name="Etatonos" unicode="&#x389;" horiz-adv-x="1439" 
d="M1253 1456v-1456h-120v670h-827v-670h-120v1456h120v-684h827v684h120zM-26 1307l32 224h153l-129 -224h-56z" />
    <glyph glyph-name="Iotatonos" unicode="&#x38a;" horiz-adv-x="554" 
d="M337 1456v-1456h-120v1456h120zM-23 1304l32 224h153l-129 -224h-56z" />
    <glyph glyph-name="Omicrontonos" unicode="&#x38c;" horiz-adv-x="1378" 
d="M1254 846v-237q0 -327 -147 -479q-147 -151 -422 -151q-277 0 -419 151t-142 479v237q0 310 144 470.5t416 160.5q275 0 422.5 -161t147.5 -470zM1135 609v239q0 277 -120 400q-118 124 -331 124q-209 0 -324 -124q-116 -124 -116 -400v-239q0 -290 116 -409
q117 -117 325 -117q213 0 331 117q119 119 119 409zM115 1305l32 224h153l-129 -224h-56z" />
    <glyph glyph-name="Upsilontonos" unicode="&#x38e;" horiz-adv-x="1256" 
d="M177 1456l448 -809l451 809h139l-531 -924v-532h-119v537l-527 919h139zM-161 1305l32 224h153l-129 -224h-56z" />
    <glyph glyph-name="Omegatonos" unicode="&#x38f;" horiz-adv-x="1341" 
d="M749 0v116q145 50 237 200q94 151 94 411v119q0 238 -114 384q-112 145 -304 145q-193 0 -305 -145t-112 -384v-119q0 -260 95 -412q96 -151 243 -199v-116h-463v101h312q-138 87 -222 250t-84 376v117q0 283 148 458t388 175q239 0 388 -176q150 -175 150 -457v-117
q0 -213 -85 -376q-84 -163 -219 -250h316v-101h-463zM93 1305l32 224h153l-129 -224h-56z" />
    <glyph glyph-name="iotadieresistonos" unicode="&#x390;" horiz-adv-x="614" 
d="M182 1081h120v-807q0 -102 36.5 -146.5t108.5 -44.5q48 0 100 17l25 -89q-60 -32 -147 -32q-124 0 -183.5 71.5t-59.5 228.5v802zM571 1383v-152h-159v152h159zM79 1383v-152h-160v152h160zM200 1399l36 219h174l-122 -219h-88z" />
    <glyph glyph-name="Alpha" unicode="&#x391;" horiz-adv-x="1256" 
d="M1093 0l-145 406h-639l-147 -406h-124l535 1456h113l531 -1456h-124zM627 1285l-280 -772h562l-276 772h-6z" />
    <glyph glyph-name="Beta" unicode="&#x392;" horiz-adv-x="1263" 
d="M713 0h-527v1456h425q227 0 354 -96q127 -94 127 -287q0 -108 -62 -191q-61 -81 -165 -116q138 -16 225 -120q88 -103 88 -241q0 -195 -127 -300q-126 -105 -338 -105zM709 702h-403v-601h407q162 0 253 79q92 80 92 223q0 131 -91 212q-90 82 -242 87h-16zM306 1354
v-551h350q152 3 234 73t82 201q0 137 -91.5 207t-269.5 70h-305z" />
    <glyph glyph-name="Gamma" unicode="&#x393;" horiz-adv-x="1122" 
d="M1055 1456v-102h-756v-1354h-120v1456h876z" />
    <glyph glyph-name="Delta" unicode="&#x394;" horiz-adv-x="1427" 
d="M661 1456h113l598 -1456h-1327zM714 1308l-503 -1207h995l-486 1207h-6z" />
    <glyph glyph-name="Delta" unicode="&#x2206;" horiz-adv-x="1427" 
d="M661 1456h113l598 -1456h-1327zM714 1308l-503 -1207h995l-486 1207h-6z" />
    <glyph glyph-name="Epsilon" unicode="&#x395;" horiz-adv-x="1129" 
d="M959 807v-102h-653v-604h755v-101h-875v1456h870v-102h-750v-547h653z" />
    <glyph glyph-name="Zeta" unicode="&#x396;" horiz-adv-x="1224" 
d="M1099 1369l-861 -1268h893v-101h-1036v92l858 1262h-831v102h977v-87z" />
    <glyph glyph-name="Eta" unicode="&#x397;" horiz-adv-x="1439" 
d="M1253 1456v-1456h-120v670h-827v-670h-120v1456h120v-684h827v684h120z" />
    <glyph glyph-name="Theta" unicode="&#x398;" horiz-adv-x="1379" 
d="M966 777v-101h-554v101h554zM1254 846v-237q0 -281 -155 -456q-155 -174 -414 -174q-256 0 -409 174q-152 175 -152 456v237q0 280 152 456q151 175 408 175q261 0 415 -175q155 -176 155 -456zM1135 609v239q0 236 -120 380q-119 144 -331 144q-208 0 -324 -144
q-116 -145 -116 -380v-239q0 -237 116 -382q117 -144 325 -144q212 0 331 143q119 145 119 383z" />
    <glyph glyph-name="Iota" unicode="&#x399;" horiz-adv-x="554" 
d="M337 1456v-1456h-120v1456h120z" />
    <glyph glyph-name="Kappa" unicode="&#x39a;" horiz-adv-x="1261" 
d="M1086 0l-623 691l-157 11v-702h-120v1456h120v-673l156 9l572 664h136v-8l-602 -697l662 -742v-9h-144z" />
    <glyph glyph-name="Lambda" unicode="&#x39b;" horiz-adv-x="1327" 
d="M1127 0l-465 1283h-6l-462 -1283h-125l534 1456h114l534 -1456h-124z" />
    <glyph glyph-name="Mu" unicode="&#x39c;" horiz-adv-x="1766" 
d="M346 1456l540 -1014h6l542 1014h146v-1456h-120v1251l-6 1l-522 -952h-86l-534 960l-6 -1v-1259h-120v1456h160z" />
    <glyph glyph-name="Nu" unicode="&#x39d;" horiz-adv-x="1445" 
d="M1259 1456v-1456h-120l-827 1246l-6 -1v-1245h-120v1456h120l827 -1243l6 1v1242h120z" />
    <glyph glyph-name="Xi" unicode="&#x39e;" horiz-adv-x="1145" 
d="M117 0v101h919v-101h-919zM213 682v102h718v-102h-718zM128 1354v102h882v-102h-882z" />
    <glyph glyph-name="Omicron" unicode="&#x39f;" horiz-adv-x="1378" 
d="M1254 846v-237q0 -327 -147 -479q-147 -151 -422 -151q-277 0 -419 151t-142 479v237q0 310 144 470.5t416 160.5q275 0 422.5 -161t147.5 -470zM1135 609v239q0 277 -120 400q-118 124 -331 124q-209 0 -324 -124q-116 -124 -116 -400v-239q0 -290 116 -409
q117 -117 325 -117q213 0 331 117q119 119 119 409z" />
    <glyph glyph-name="Pi" unicode="&#x3a0;" horiz-adv-x="1438" 
d="M1253 1456v-1456h-120v1354h-828v-1354h-120v1456h1068z" />
    <glyph glyph-name="Rho" unicode="&#x3a1;" horiz-adv-x="1263" 
d="M688 605h-382v-605h-120v1456h502q230 0 354 -117q126 -117 126 -308q0 -195 -126 -310q-125 -116 -354 -116zM306 1354v-647h382q180 0 270 91q90 92 90 231q0 141 -90 232q-90 93 -270 93h-382z" />
    <glyph glyph-name="Sigma" unicode="&#x3a3;" horiz-adv-x="1145" 
d="M703 779v-36l-490 -641h857v-102h-1007v93l516 666l-516 604v93h952v-102h-788l-2 -5z" />
    <glyph glyph-name="Tau" unicode="&#x3a4;" horiz-adv-x="1224" 
d="M1176 1456v-102h-496v-1354h-119v1354h-513v102h1128z" />
    <glyph glyph-name="Upsilon" unicode="&#x3a5;" horiz-adv-x="1256" 
d="M177 1456l448 -809l451 809h139l-531 -924v-532h-119v537l-527 919h139z" />
    <glyph glyph-name="Phi" unicode="&#x3a6;" horiz-adv-x="1433" 
d="M777 1456v-229q243 -6 398 -149q154 -142 154 -357q0 -217 -154 -361q-155 -145 -398 -149v-211h-120v211q-245 4 -399 148q-152 143 -152 360q0 215 153 358q153 144 398 150v229h120zM1210 721q0 176 -116 287q-115 111 -311 112l-6 -3v-797l6 -3q197 2 311 113
q116 113 116 291zM225 719q0 -179 114 -290q113 -110 312 -112l6 3v797l-6 3q-197 -2 -312 -114q-114 -111 -114 -287z" />
    <glyph glyph-name="Chi" unicode="&#x3a7;" horiz-adv-x="1256" 
d="M219 1456l409 -622l411 622h145l-484 -718l500 -738h-143l-427 642l-426 -642h-145l500 738l-485 718h145z" />
    <glyph glyph-name="Psi" unicode="&#x3a8;" horiz-adv-x="1422" 
d="M762 1456v-997l6 -2q180 9 290 127q111 118 111 312v560h120v-560q0 -246 -146 -390q-146 -145 -381 -158v-348h-121v349q-233 15 -375 159q-142 143 -142 388v560h120v-560q0 -192 108 -311q109 -118 283 -128l6 2v997h121z" />
    <glyph glyph-name="Omega" unicode="&#x3a9;" horiz-adv-x="1341" 
d="M749 0v116q145 50 237 200q94 151 94 411v119q0 238 -114 384q-112 145 -304 145q-193 0 -305 -145t-112 -384v-119q0 -260 95 -412q96 -151 243 -199v-116h-463v101h312q-138 87 -222 250t-84 376v117q0 283 148 458t388 175q239 0 388 -176q150 -175 150 -457v-117
q0 -213 -85 -376q-84 -163 -219 -250h316v-101h-463z" />
    <glyph glyph-name="Omega" unicode="&#x2126;" horiz-adv-x="1341" 
d="M749 0v116q145 50 237 200q94 151 94 411v119q0 238 -114 384q-112 145 -304 145q-193 0 -305 -145t-112 -384v-119q0 -260 95 -412q96 -151 243 -199v-116h-463v101h312q-138 87 -222 250t-84 376v117q0 283 148 458t388 175q239 0 388 -176q150 -175 150 -457v-117
q0 -213 -85 -376q-84 -163 -219 -250h316v-101h-463z" />
    <glyph glyph-name="Iotadieresis" unicode="&#x3aa;" horiz-adv-x="554" 
d="M337 1456v-1456h-120v1456h120zM604 1798v-157h-173v157h173zM135 1798v-157h-174v157h174z" />
    <glyph glyph-name="Upsilondieresis" unicode="&#x3ab;" horiz-adv-x="1256" 
d="M177 1456l448 -809l451 809h139l-531 -924v-532h-119v537l-527 919h139zM951 1791v-157h-173v157h173zM482 1791v-157h-174v157h174z" />
    <glyph glyph-name="alphatonos" unicode="&#x3ac;" horiz-adv-x="1153" 
d="M901 1081h72v-827q0 -90 25.5 -128.5t76.5 -38.5q21 0 58 8l17 -93q-42 -23 -97 -23q-81 0 -127.5 39.5t-62.5 124.5q-117 -164 -339 -164q-194 0 -304 144q-109 145 -109 388v21q0 260 109 414q110 156 306 156q222 0 339 -179zM231 532v-21q0 -195 78 -314
q79 -117 237 -117q112 0 186 52q75 53 122 110v599q-38 46 -116 104q-73 55 -190 55q-158 0 -238 -131q-79 -130 -79 -337zM590 1266l32 224h153l-129 -224h-56z" />
    <glyph glyph-name="epsilontonos" unicode="&#x3ad;" horiz-adv-x="1113" 
d="M374 554q-81 30 -134.5 97t-53.5 147q0 145 95.5 221.5t248.5 76.5q76 0 154.5 -22t122.5 -62l-33 -89q-38 43 -107 60.5t-137 17.5q-216 0 -216 -200q0 -100 57.5 -149.5t158.5 -49.5h100v-102h-100q-110 0 -173.5 -52t-63.5 -162q0 -112 63 -158.5t188 -46.5
q68 0 144 18t132 58l38 -97q-49 -38 -142.5 -59.5t-171.5 -21.5q-106 0 -189 31.5t-136 103.5t-53 175q0 97 56 165.5t152 99.5zM516 1265l32 224h153l-129 -224h-56z" />
    <glyph glyph-name="etatonos" unicode="&#x3ae;" 
d="M158 1082h106l11 -183q53 98 141 150.5t205 52.5q180 0 270 -107t90 -336v-1074h-120v1073q0 187 -70 264q-69 78 -197 78q-120 0 -199 -58.5t-117 -164.5v-777h-120v1082zM543 1266l32 224h153l-129 -224h-56z" />
    <glyph glyph-name="iotatonos" unicode="&#x3af;" horiz-adv-x="614" 
d="M182 1081h120v-807q0 -102 36.5 -146.5t108.5 -44.5q48 0 100 17l25 -89q-60 -32 -147 -32q-124 0 -183.5 71.5t-59.5 228.5v802zM211 1245l32 224h153l-129 -224h-56z" />
    <glyph glyph-name="upsilondieresistonos" unicode="&#x3b0;" 
d="M155 1082h120v-604q0 -204 81 -302q81 -96 220 -96q166 0 241 129t75 320q-4 265 -117 553h130q47 -117 77 -253q29 -130 29 -298q0 -248 -105 -400q-104 -152 -325 -152q-206 0 -316 125t-110 376v602zM895 1383v-152h-159v152h159zM403 1383v-152h-160v152h160z
M524 1399l36 219h174l-122 -219h-88z" />
    <glyph glyph-name="alpha" unicode="&#x3b1;" horiz-adv-x="1153" 
d="M901 1081h72v-827q0 -90 25.5 -128.5t76.5 -38.5q21 0 58 8l17 -93q-42 -23 -97 -23q-81 0 -127.5 39.5t-62.5 124.5q-117 -164 -339 -164q-194 0 -304 144q-109 145 -109 388v21q0 260 109 414q110 156 306 156q222 0 339 -179zM231 532v-21q0 -195 78 -314
q79 -117 237 -117q112 0 186 52q75 53 122 110v599q-38 46 -116 104q-73 55 -190 55q-158 0 -238 -131q-79 -130 -79 -337z" />
    <glyph glyph-name="beta" unicode="&#x3b2;" horiz-adv-x="1213" 
d="M594 1477q184 0 296 -108q113 -107 113 -276q0 -101 -52.5 -183.5t-146.5 -127.5q137 -39 211.5 -139t74.5 -239q0 -201 -124 -313t-326 -112q-95 0 -189 32q-94 34 -154 97v-507h-120v1462q0 174 122 294q123 120 295 120zM496 823h94q148 0 221 70.5t73 204.5
q0 112 -76 194q-75 83 -214 83q-126 0 -212 -89q-85 -88 -85 -223v-825q44 -72 134 -116q90 -42 200 -42q161 0 250 86t89 234q0 141 -88 230q-87 91 -243 91h-143v102z" />
    <glyph glyph-name="gamma" unicode="&#x3b3;" horiz-adv-x="1002" 
d="M545 271l294 811h124l-399 -1051v-447h-120v447l-400 1051h124l298 -811l36 -127h6z" />
    <glyph glyph-name="delta" unicode="&#x3b4;" 
d="M194 1456h749v-100h-568l-2 -6l467 -328q96 -68 151 -194q57 -124 57 -271v-33q0 -239 -131 -393q-131 -152 -346 -152q-218 0 -349 152q-131 154 -131 393v33q0 225 119 376q120 150 319 165q7 0 18 -0.5t12 -0.5l2 6l-367 268v85zM569 1000q-169 0 -263 -129
q-95 -130 -95 -314v-33q0 -188 95 -316t265 -128q167 0 262 128q96 127 96 316v33q0 185 -96 314t-264 129z" />
    <glyph glyph-name="epsilon" unicode="&#x3b5;" horiz-adv-x="1051" 
d="M374 554q-81 30 -134.5 97t-53.5 147q0 145 95.5 221.5t248.5 76.5q76 0 154.5 -22t122.5 -62l-33 -89q-38 43 -107 60.5t-137 17.5q-216 0 -216 -200q0 -100 57.5 -149.5t158.5 -49.5h100v-102h-100q-110 0 -173.5 -52t-63.5 -162q0 -112 63 -158.5t188 -46.5
q68 0 144 18t132 58l38 -97q-49 -38 -142.5 -59.5t-171.5 -21.5q-106 0 -189 31.5t-136 103.5t-53 175q0 97 56 165.5t152 99.5z" />
    <glyph glyph-name="zeta" unicode="&#x3b6;" horiz-adv-x="1020" 
d="M73 1456h852v-73l-396 -509q-126 -157 -178 -272q-52 -116 -52 -239q0 -117 72 -190q72 -72 213 -72h70q130 0 198.5 -55t68.5 -158q-2 -99 -75 -175q-74 -79 -165 -113l-45 87q64 27 116 77q54 52 54 120q0 116 -160 116h-80q-189 0 -288 103q-98 104 -98 257
q0 258 257 572l339 417l-3 5h-700v102z" />
    <glyph glyph-name="eta" unicode="&#x3b7;" 
d="M158 1082h106l11 -183q53 98 141 150.5t205 52.5q180 0 270 -107t90 -336v-1074h-120v1073q0 187 -70 264q-69 78 -197 78q-120 0 -199 -58.5t-117 -164.5v-777h-120v1082z" />
    <glyph glyph-name="theta" unicode="&#x3b8;" horiz-adv-x="1174" 
d="M1026 942v-428q0 -250 -121 -392q-120 -143 -330 -143t-332 143q-122 145 -122 392v428q0 248 121 391q122 144 331 144q210 0 331 -144q122 -145 122 -391zM240 961v-186h666v186q0 191 -87 302q-85 112 -246 112q-160 0 -247 -112q-86 -113 -86 -302zM906 496v177h-666
v-177q0 -189 87 -303q89 -113 248 -113t245 113t86 303z" />
    <glyph glyph-name="iota" unicode="&#x3b9;" horiz-adv-x="614" 
d="M182 1081h120v-807q0 -102 36.5 -146.5t108.5 -44.5q48 0 100 17l25 -89q-60 -32 -147 -32q-124 0 -183.5 71.5t-59.5 228.5v802z" />
    <glyph glyph-name="kappa" unicode="&#x3ba;" horiz-adv-x="1111" 
d="M904 0l-484 496l-137 17v-513h-121v1082h121v-499l134 19l443 480h139l2 -5l-476 -520l526 -551l-3 -6h-144z" />
    <glyph glyph-name="lambda" unicode="&#x3bb;" 
d="M484 784l-297 -784h-133l413 1053l-61 161q-34 102 -77 152t-109 50q-26 0 -68 -6l-5 95q49 13 90 13q119 0 181 -77q63 -77 101 -187l361 -965q65 -194 158 -194q30 0 58 6l4 -101q-33 -11 -69 -11q-102 0 -162 70q-59 71 -104 193l-241 647h-6z" />
    <glyph glyph-name="uni03BC" unicode="&#x3bc;" 
d="M162 1082h119v-633q0 -206 71 -288q70 -81 192 -81q258 0 315 230v772h120v-1082h-103l-11 155q-100 -176 -313 -176q-185 0 -271 126v-521h-119v1498z" />
    <glyph glyph-name="nu" unicode="&#x3bd;" horiz-adv-x="1002" 
d="M168 1082l298 -811l35 -127h6l38 127l294 811h124l-411 -1082h-96l-412 1082h124z" />
    <glyph glyph-name="xi" unicode="&#x3be;" horiz-adv-x="1046" 
d="M99 1456h810v-102h-253q-163 -5 -248.5 -73.5t-85.5 -181.5q0 -230 355 -230h131v-103h-131q-201 0 -320 -89q-118 -88 -118 -264q0 -146 112 -234q113 -87 303 -87h51q145 0 217 -53t72 -171q-1 -99 -65 -168.5t-175 -108.5l-45 88q171 50 171 185q0 69 -40.5 98.5
t-130.5 29.5h-55q-232 0 -384 113q-151 114 -151 312q0 152 85.5 255.5t242.5 145.5q-116 37 -181 110.5t-65 166.5q0 173 149 259h-251v102z" />
    <glyph glyph-name="omicron" unicode="&#x3bf;" 
d="M91 524v33q0 268 131 407q130 138 347 138t348 -137t131 -408v-33q0 -268 -131 -407q-131 -138 -346 -138q-219 0 -349 144q-131 145 -131 401zM211 557v-33q0 -213 95 -329q94 -115 265 -115q168 0 262 115q96 116 96 329v33q0 211 -96 327t-264 116q-169 0 -263 -118
q-95 -118 -95 -325z" />
    <glyph glyph-name="pi" unicode="&#x3c0;" horiz-adv-x="1186" 
d="M1114 1082v-103h-211v-705q0 -102 36.5 -146.5t108.5 -44.5q48 0 100 17l25 -89q-60 -32 -147 -32q-124 0 -183.5 71.5t-59.5 228.5v700h-422v-979h-120v979h-160v103h1033z" />
    <glyph glyph-name="rho" unicode="&#x3c1;" 
d="M1027 532v-21q0 -243 -109 -388q-109 -144 -302 -144q-222 0 -338 155v-550h-120v1015h1l-1 9q0 233 122 364q123 130 312 130q207 0 321 -155q114 -154 114 -415zM907 511v21q0 207 -79 337q-80 131 -236 131q-158 0 -236 -122t-78 -282v-327q90 -189 311 -189
q157 0 237 117q81 118 81 314z" />
    <glyph glyph-name="sigma1" unicode="&#x3c2;" horiz-adv-x="1095" 
d="M573 1102q176 0 290 -102q114 -101 110 -279l-2 -6h-107q0 131 -81 208q-82 77 -210 77q-166 0 -254 -127t-88 -311v-42q0 -177 98 -295q97 -116 287 -136q153 -18 222.5 -69t69.5 -154q-2 -96 -76 -169t-165 -108l-45 87q64 24 117 73q54 48 54 112q0 59 -44 88.5
t-146 39.5q-237 24 -365 164q-127 139 -127 367v42q0 234 124 386q124 154 338 154z" />
    <glyph glyph-name="sigma" unicode="&#x3c3;" 
d="M1131 1082v-103h-313q110 -70 170 -183.5t60 -256.5v-33q0 -226 -132 -377q-130 -150 -345 -150q-218 0 -349 152q-131 154 -131 393v33q0 230 130 376q130 147 347 149h563zM211 557v-33q0 -188 95 -316t265 -128q167 0 262 128q96 127 96 316v33q0 176 -96 299
t-264 123h-1q-169 -2 -263 -124t-94 -298z" />
    <glyph glyph-name="tau" unicode="&#x3c4;" horiz-adv-x="1047" 
d="M969 1082v-102h-393v-980h-120v980h-379v102h892z" />
    <glyph glyph-name="upsilon" unicode="&#x3c5;" 
d="M155 1082h120v-604q0 -204 81 -302q81 -96 220 -96q166 0 241 129t75 320q-4 265 -117 553h130q47 -117 77 -253q29 -130 29 -298q0 -248 -105 -400q-104 -152 -325 -152q-206 0 -316 125t-110 376v602z" />
    <glyph glyph-name="phi" unicode="&#x3c6;" horiz-adv-x="1404" 
d="M636 1082h120q229 0 384 -158q154 -157 154 -399q0 -220 -137 -374t-401 -170v-459h-120v459q-268 18 -396 173q-127 155 -127 400q0 165 37 285q36 117 103 243h130q-150 -279 -150 -529q0 -188 94 -319q95 -130 303 -144l6 2v990zM1175 524q-2 186 -117 319
q-115 134 -296 130l-6 -2v-881l6 -2q202 10 307 138q106 127 106 298z" />
    <glyph glyph-name="chi" unicode="&#x3c7;" 
d="M158 1093q110 0 171 -72q60 -69 112 -182l144 -333h6l301 576h125l-371 -715l215 -494q47 -101 79 -150q30 -44 79 -44q18 0 58 6l4 -100q-36 -12 -70 -12q-91 0 -147 60q-55 61 -116 204l-170 388h-6l-332 -639h-128l405 777l-190 434q-47 104 -83 148q-36 46 -103 46
q-38 0 -68 -6l-5 96q48 12 90 12z" />
    <glyph glyph-name="psi" unicode="&#x3c8;" horiz-adv-x="1400" 
d="M632 1081h119v-990l6 -2q218 12 315 151q99 140 99 338q-4 240 -140 504h131q59 -116 93 -232q35 -117 35 -271q0 -258 -131 -421q-131 -162 -408 -177v-424h-119v425q-244 18 -377 168q-134 151 -134 443v489h120v-491q0 -243 103 -367q104 -124 282 -134l6 2v989z" />
    <glyph glyph-name="omega" unicode="&#x3c9;" horiz-adv-x="1758" 
d="M278 1082h130q-153 -288 -157 -553q0 -193 71 -321t216 -128q128 0 204 96q76 97 76 302v292h121v-292q0 -200 73.5 -299t206.5 -99q144 0 215 128q72 128 72 321q-4 262 -157 553h130q66 -121 106 -253q40 -126 40 -298q0 -243 -102 -398q-100 -154 -298 -154
q-130 0 -219 65t-128 194q-82 -259 -346 -259q-199 0 -299 154q-101 155 -101 398q0 171 39 299q38 127 107 252z" />
    <glyph glyph-name="iotadieresis" unicode="&#x3ca;" horiz-adv-x="614" 
d="M182 1081h120v-807q0 -102 36.5 -146.5t108.5 -44.5q48 0 100 17l25 -89q-60 -32 -147 -32q-124 0 -183.5 71.5t-59.5 228.5v802zM572 1456v-157h-173v157h173zM103 1456v-157h-174v157h174z" />
    <glyph glyph-name="upsilondieresis" unicode="&#x3cb;" 
d="M155 1082h120v-604q0 -204 81 -302q81 -96 220 -96q166 0 241 129t75 320q-4 265 -117 553h130q47 -117 77 -253q29 -130 29 -298q0 -248 -105 -400q-104 -152 -325 -152q-206 0 -316 125t-110 376v602zM896 1456v-157h-173v157h173zM427 1456v-157h-174v157h174z" />
    <glyph glyph-name="omicrontonos" unicode="&#x3cc;" 
d="M91 524v33q0 268 131 407q130 138 347 138t348 -137t131 -408v-33q0 -268 -131 -407q-131 -138 -346 -138q-219 0 -349 144q-131 145 -131 401zM211 557v-33q0 -213 95 -329q94 -115 265 -115q168 0 262 115q96 116 96 329v33q0 211 -96 327t-264 116q-169 0 -263 -118
q-95 -118 -95 -325zM547 1266l32 224h153l-129 -224h-56z" />
    <glyph glyph-name="upsilontonos" unicode="&#x3cd;" 
d="M155 1082h120v-604q0 -204 81 -302q81 -96 220 -96q166 0 241 129t75 320q-4 265 -117 553h130q47 -117 77 -253q29 -130 29 -298q0 -248 -105 -400q-104 -152 -325 -152q-206 0 -316 125t-110 376v602zM535 1245l32 224h153l-129 -224h-56z" />
    <glyph glyph-name="omegatonos" unicode="&#x3ce;" horiz-adv-x="1758" 
d="M278 1082h130q-153 -288 -157 -553q0 -193 71 -321t216 -128q128 0 204 96q76 97 76 302v292h121v-292q0 -200 73.5 -299t206.5 -99q144 0 215 128q72 128 72 321q-4 262 -157 553h130q66 -121 106 -253q40 -126 40 -298q0 -243 -102 -398q-100 -154 -298 -154
q-130 0 -219 65t-128 194q-82 -259 -346 -259q-199 0 -299 154q-101 155 -101 398q0 171 39 299q38 127 107 252zM835 1245l32 224h153l-129 -224h-56z" />
    <glyph glyph-name="uni03D1" unicode="&#x3d1;" horiz-adv-x="1259" 
d="M541 1036v62q0 172 85 275q86 104 221 104q141 0 224 -101q82 -100 82 -278v-549q0 -267 -142 -418q-143 -152 -378 -152q-225 0 -363 158q-137 158 -137 412v703l120 2v-705q0 -211 102 -339q102 -127 278 -127q190 0 295 121q106 121 106 345v36q-220 7 -358 133
q-135 126 -135 318zM1034 697v401q0 135 -47.5 204.5t-139.5 69.5q-88 0 -137 -70t-49 -204v-64q0 -144 98 -239q99 -96 270 -100z" />
    <glyph glyph-name="uni03D2" unicode="&#x3d2;" horiz-adv-x="1098" 
d="M591 813l189 426q51 124 112 176t147 52q59 0 106 -26l-23 -94q-28 15 -64 15q-47 0 -88 -29q-38 -28 -76 -114l-281 -620v-599h-120v601l-284 618q-39 85 -78 114q-40 29 -86 29q-35 0 -63 -15l-23 94q47 26 105 26q86 0 147 -53t112 -175l190 -426l36 -112h6z" />
    <glyph glyph-name="uni03D6" unicode="&#x3d6;" horiz-adv-x="1610" 
d="M1573 1082v-103h-166q88 -206 88 -448q0 -243 -92 -398q-91 -154 -270 -154q-249 0 -327 253q-79 -253 -325 -253q-180 0 -271 154t-91 398q0 242 88 448h-151v103h1517zM1376 529q-4 215 -101 450h-937q-100 -235 -100 -450q0 -192 62 -321q62 -128 187 -128
q123 0 191 99t68 299v269h121v-269q0 -200 68.5 -299t192.5 -99q123 0 185 128q63 128 63 321z" />
    <glyph glyph-name="uni0400" unicode="&#x400;" horiz-adv-x="1129" 
d="M959 807v-102h-653v-604h755v-101h-875v1456h870v-102h-750v-547h653zM487 1869l202 -266h-117l-241 261l2 5h154z" />
    <glyph glyph-name="uni0401" unicode="&#x401;" horiz-adv-x="1129" 
d="M959 807v-102h-653v-604h755v-101h-875v1456h870v-102h-750v-547h653zM945 1798v-157h-173v157h173zM476 1798v-157h-174v157h174z" />
    <glyph glyph-name="uni0402" unicode="&#x402;" horiz-adv-x="1548" 
d="M1196 1456v-102h-496v-495h189q236 0 380 -117q145 -115 145 -343q0 -133 -91 -266q-89 -132 -283 -167l-32 91q153 35 218 128q66 93 68 214q2 175 -110 264q-113 90 -295 90h-189v-753h-119v1354h-513v102h1128z" />
    <glyph glyph-name="uni0403" unicode="&#x403;" horiz-adv-x="1122" 
d="M1055 1456v-102h-756v-1354h-120v1456h876zM541 1597l206 266h147l3 -6l-249 -260h-107z" />
    <glyph glyph-name="uni0404" unicode="&#x404;" horiz-adv-x="1353" 
d="M1094 456h112l2 -6q4 -214 -140 -342q-145 -128 -378 -128q-244 0 -392 175q-149 176 -149 455v237q0 278 149 454q148 177 392 177q236 0 379 -125t139 -344l-2 -6h-112q0 177 -108 274q-106 99 -296 99q-192 0 -307 -148t-115 -379v-61h565v-101h-565v-77
q0 -234 115 -382q115 -147 307 -147q191 0 297.5 97t106.5 278z" />
    <glyph glyph-name="uni0405" unicode="&#x405;" horiz-adv-x="1236" 
d="M656 781q53 -16 94.5 -30t92.5 -36.5t89.5 -45.5t77 -56t63 -70t40 -85t15.5 -102q0 -94 -43.5 -168t-115.5 -118.5t-159 -67.5t-180 -23q-157 0 -291 26.5t-207 76.5l25 115q213 -117 473 -117q56 0 108.5 9.5t101.5 31t86 53t59 78t22 102.5q0 42 -12 78t-29.5 62.5
t-50 51t-60 40.5t-74.5 34.5t-79 29t-86 26.5q-59 16 -104 30.5t-97 36t-89.5 44.5t-74.5 54.5t-60 67.5t-37 83.5t-14 102.5q0 74 27.5 137t74 107.5t108.5 76t131 46.5t142 15q140 0 232.5 -32.5t197.5 -98.5l-33 -106q-43 28 -70.5 43.5t-82 41t-116 38t-128.5 12.5
q-95 0 -175.5 -29t-134 -93.5t-53.5 -155.5q0 -40 9 -73t23 -57t39.5 -45t49 -35t60.5 -29t66 -25l73.5 -25t75.5 -27z" />
    <glyph glyph-name="uni0406" unicode="&#x406;" horiz-adv-x="554" 
d="M337 1456v-1456h-120v1456h120z" />
    <glyph glyph-name="uni0407" unicode="&#x407;" horiz-adv-x="554" 
d="M337 1456v-1456h-120v1456h120zM604 1798v-157h-173v157h173zM135 1798v-157h-174v157h174z" />
    <glyph glyph-name="uni0408" unicode="&#x408;" horiz-adv-x="1122" 
d="M820 1456h120v-1034q0 -199 -112 -321t-313 -122q-109 0 -221.5 31.5t-170.5 97.5l63 93q54 -61 143 -91t186 -30q142 0 223.5 90.5t81.5 251.5v1034z" />
    <glyph glyph-name="uni0409" unicode="&#x409;" horiz-adv-x="2205" 
d="M452 1456h798v-610h365q229 0 354 -117q126 -117 126 -306t-126 -306t-354 -117h-485v1354h-562l-19 -557q-16 -436 -113 -617q-96 -180 -343 -180h-41v101h37q176 0 249 148q75 151 91 548zM1615 745h-365v-644h365q180 0 270 93q91 92 91 231q0 134 -91 226
q-91 94 -270 94z" />
    <glyph glyph-name="uni040A" unicode="&#x40a;" horiz-adv-x="2205" 
d="M302 1456v-671h828v671h120v-632h365q230 0 355 -113t125 -297t-126 -300q-126 -114 -354 -114h-485v684h-828v-684h-120v1456h120zM1615 722h-365v-616h365q181 0 270 88q91 88 91 222q0 129 -91 217q-91 89 -270 89z" />
    <glyph glyph-name="uni040B" unicode="&#x40b;" horiz-adv-x="1635" 
d="M1212 1456v-102h-496v-415h278q242 0 363 -114.5t121 -359.5v-465h-119v465q0 196 -88.5 284t-276.5 88h-278v-837h-119v1354h-513v102h1128z" />
    <glyph glyph-name="uni040C" unicode="&#x40c;" horiz-adv-x="1261" 
d="M1086 0l-623 691l-157 11v-702h-120v1456h120v-673l156 9l572 664h136v-8l-602 -697l662 -742v-9h-144zM534 1509l206 266h147l3 -6l-249 -260h-107z" />
    <glyph glyph-name="uni040D" unicode="&#x40d;" horiz-adv-x="1444" 
d="M313 212l828 1244h119v-1456h-119v1245l-6 1l-828 -1246h-120v1456h120v-1243zM599 1869l202 -266h-117l-241 261l2 5h154z" />
    <glyph glyph-name="uni040E" unicode="&#x40e;" horiz-adv-x="1324" 
d="M191 1456l402 -796l64 -147h6l440 943h141l-583 -1208q-57 -118 -139 -194q-81 -75 -227 -75q-60 0 -119 13q-64 14 -90 32l19 95q32 -16 85 -28q55 -11 97 -11q89 0 150.5 50t108.5 145l53 107l-546 1074h138zM833 1854h94l2 -6q4 -111 -73 -182q-76 -70 -210 -70
t-211 70q-77 71 -72 182l2 6h94q0 -80 46.5 -125.5t140.5 -45.5q91 0 139 46.5t48 124.5z" />
    <glyph glyph-name="uni040F" unicode="&#x40f;" horiz-adv-x="1433" 
d="M182 0v1456h120v-1355h828v1355h120v-1456h-469v-353h-119v353h-480z" />
    <glyph glyph-name="uni0410" unicode="&#x410;" horiz-adv-x="1256" 
d="M1093 0l-145 406h-639l-147 -406h-124l535 1456h113l531 -1456h-124zM627 1285l-280 -772h562l-276 772h-6z" />
    <glyph glyph-name="uni0411" unicode="&#x411;" horiz-adv-x="1285" 
d="M1055 1456v-102h-756v-512h364q230 0 355 -116q126 -116 126 -303q0 -189 -127 -306q-126 -117 -354 -117h-484v1456h876zM663 740h-364v-639h364q180 0 270 93t90 231q0 133 -90 224t-270 91z" />
    <glyph glyph-name="uni0412" unicode="&#x412;" horiz-adv-x="1263" 
d="M713 0h-527v1456h425q227 0 354 -96q127 -94 127 -287q0 -108 -62 -191q-61 -81 -165 -116q138 -16 225 -120q88 -103 88 -241q0 -195 -127 -300q-126 -105 -338 -105zM709 702h-403v-601h407q162 0 253 79q92 80 92 223q0 131 -91 212q-90 82 -242 87h-16zM306 1354
v-551h350q152 3 234 73t82 201q0 137 -91.5 207t-269.5 70h-305z" />
    <glyph glyph-name="uni0413" unicode="&#x413;" horiz-adv-x="1122" 
d="M1055 1456v-102h-756v-1354h-120v1456h876z" />
    <glyph glyph-name="uni0414" unicode="&#x414;" horiz-adv-x="1494" 
d="M1272 1456v-1355h156v-454h-120v353h-1135v-353h-119v454h66q139 0 225 213.5t111 617.5l38 524h778zM606 1354l-29 -422q-37 -625 -230 -831h805v1253h-546z" />
    <glyph glyph-name="uni0415" unicode="&#x415;" horiz-adv-x="1129" 
d="M959 807v-102h-653v-604h755v-101h-875v1456h870v-102h-750v-547h653z" />
    <glyph glyph-name="uni0416" unicode="&#x416;" horiz-adv-x="1648" 
d="M1469 0l-504 695h-80v-695h-119v695h-86l-501 -695h-152l546 752l-508 704h144l464 -659h93v659h119v-659h89l465 659h143l-508 -703l546 -753h-151z" />
    <glyph glyph-name="uni0417" unicode="&#x417;" horiz-adv-x="1250" 
d="M843 750q126 -40 193.5 -131.5t67.5 -223.5q0 -105 -37.5 -186t-104.5 -130.5t-154.5 -74.5t-192.5 -25q-104 0 -229.5 29t-191.5 80l51 94q75 -54 176 -78t194 -24q169 0 269.5 76.5t100.5 234.5q0 152 -90.5 228.5t-260.5 76.5h-134v102h134q143 -5 233 71.5t90 211.5
q0 144 -86 219t-237 75q-91 0 -183.5 -23.5t-143.5 -81.5l-45 94q60 54 164.5 83.5t207.5 29.5q203 0 323 -101.5t120 -298.5q0 -109 -64.5 -198.5t-169.5 -128.5z" />
    <glyph glyph-name="uni0418" unicode="&#x418;" horiz-adv-x="1444" 
d="M313 212l828 1244h119v-1456h-119v1245l-6 1l-828 -1246h-120v1456h120v-1243z" />
    <glyph glyph-name="uni0419" unicode="&#x419;" horiz-adv-x="1444" 
d="M313 212l828 1244h119v-1456h-119v1245l-6 1l-828 -1246h-120v1456h120v-1243zM918 1854h94l2 -6q4 -111 -73 -182q-76 -70 -210 -70t-211 70q-77 71 -72 182l2 6h94q0 -80 46.5 -125.5t140.5 -45.5q91 0 139 46.5t48 124.5z" />
    <glyph glyph-name="uni041A" unicode="&#x41a;" horiz-adv-x="1261" 
d="M1086 0l-623 691l-157 11v-702h-120v1456h120v-673l156 9l572 664h136v-8l-602 -697l662 -742v-9h-144z" />
    <glyph glyph-name="uni041B" unicode="&#x41b;" horiz-adv-x="1433" 
d="M388 1456h862v-1456h-120v1354h-626l-19 -557q-13 -433 -100 -617q-85 -180 -303 -180h-41v101h37q150 0 211 148q62 147 76 548z" />
    <glyph glyph-name="uni041C" unicode="&#x41c;" horiz-adv-x="1766" 
d="M346 1456l540 -1014h6l542 1014h146v-1456h-120v1251l-6 1l-522 -952h-86l-534 960l-6 -1v-1259h-120v1456h160z" />
    <glyph glyph-name="uni041D" unicode="&#x41d;" horiz-adv-x="1439" 
d="M1253 1456v-1456h-120v670h-827v-670h-120v1456h120v-684h827v684h120z" />
    <glyph glyph-name="uni041E" unicode="&#x41e;" horiz-adv-x="1378" 
d="M1254 846v-237q0 -327 -147 -479q-147 -151 -422 -151q-277 0 -419 151t-142 479v237q0 310 144 470.5t416 160.5q275 0 422.5 -161t147.5 -470zM1135 609v239q0 277 -120 400q-118 124 -331 124q-209 0 -324 -124q-116 -124 -116 -400v-239q0 -290 116 -409
q117 -117 325 -117q213 0 331 117q119 119 119 409z" />
    <glyph glyph-name="uni041F" unicode="&#x41f;" horiz-adv-x="1438" 
d="M1253 1456v-1456h-120v1354h-828v-1354h-120v1456h1068z" />
    <glyph glyph-name="uni0420" unicode="&#x420;" horiz-adv-x="1263" 
d="M688 605h-382v-605h-120v1456h502q230 0 354 -117q126 -117 126 -308q0 -195 -126 -310q-125 -116 -354 -116zM306 1354v-647h382q180 0 270 91q90 92 90 231q0 141 -90 232q-90 93 -270 93h-382z" />
    <glyph glyph-name="uni0421" unicode="&#x421;" horiz-adv-x="1313" 
d="M1122 220l62 -76q-122 -165 -474 -165q-142 0 -253 47t-181.5 131.5t-107 199t-36.5 252.5v237q0 135 37.5 249t108 199.5t181.5 134t251 48.5q144 0 249 -26t196 -86l-71 -92q-142 102 -374 102q-120 0 -209.5 -40.5t-142 -114t-79 -166t-28.5 -206.5v-239
q0 -154 49.5 -271t154.5 -187.5t255 -70.5q140 0 236.5 28.5t175.5 111.5z" />
    <glyph glyph-name="uni0422" unicode="&#x422;" horiz-adv-x="1224" 
d="M1176 1456v-102h-496v-1354h-119v1354h-513v102h1128z" />
    <glyph glyph-name="uni0423" unicode="&#x423;" horiz-adv-x="1324" 
d="M191 1456l402 -796l64 -147h6l440 943h141l-583 -1208q-57 -118 -139 -194q-81 -75 -227 -75q-60 0 -119 13q-64 14 -90 32l19 95q32 -16 85 -28q55 -11 97 -11q89 0 150.5 50t108.5 145l53 107l-546 1074h138z" />
    <glyph glyph-name="uni0424" unicode="&#x424;" horiz-adv-x="1433" 
d="M777 1456v-229q243 -6 398 -149q154 -142 154 -357q0 -217 -154 -361q-155 -145 -398 -149v-211h-120v211q-245 4 -399 148q-152 143 -152 360q0 215 153 358q153 144 398 150v229h120zM1210 721q0 176 -116 287q-115 111 -311 112l-6 -3v-797l6 -3q197 2 311 113
q116 113 116 291zM225 719q0 -179 114 -290q113 -110 312 -112l6 3v797l-6 3q-197 -2 -312 -114q-114 -111 -114 -287z" />
    <glyph glyph-name="uni0425" unicode="&#x425;" horiz-adv-x="1256" 
d="M219 1456l409 -622l411 622h145l-484 -718l500 -738h-143l-427 642l-426 -642h-145l500 738l-485 718h145z" />
    <glyph glyph-name="uni0426" unicode="&#x426;" horiz-adv-x="1475" 
d="M179 0v1456h120v-1354h828v1354h120v-1335h115v-476h-120v355h-1063z" />
    <glyph glyph-name="uni0427" unicode="&#x427;" horiz-adv-x="1358" 
d="M1055 1456h120v-1456h-120v664q-201 -58 -399 -58q-244 0 -363.5 107t-119.5 340v403h120v-403q0 -186 89 -266q88 -79 274 -79q201 0 399 58v690z" />
    <glyph glyph-name="uni0428" unicode="&#x428;" horiz-adv-x="2057" 
d="M177 1456h120v-1355h668v1355h120v-1355h667v1355h119v-1456h-1694v1456z" />
    <glyph glyph-name="uni0429" unicode="&#x429;" horiz-adv-x="2088" 
d="M177 1456h120v-1355h668v1355h120v-1355h667v1355h119v-1337h108v-474h-120v355h-1682v1456z" />
    <glyph glyph-name="uni042A" unicode="&#x42a;" horiz-adv-x="1527" 
d="M-16 1354v102h478v-614h364q230 0 355 -116q126 -116 126 -303q0 -189 -127 -306q-126 -117 -354 -117h-484v1354h-358zM826 740h-364v-639h364q180 0 270 93t90 231q0 133 -90 224t-270 91z" />
    <glyph glyph-name="uni042B" unicode="&#x42b;" horiz-adv-x="1694" 
d="M299 1456v-614h364q230 0 355 -116q126 -116 126 -303q0 -189 -127 -306q-126 -117 -354 -117h-484v1456h120zM663 740h-364v-639h364q180 0 270 93t90 231q0 133 -90 224t-270 91zM1535 1456v-1456h-120v1456h120z" />
    <glyph glyph-name="uni042C" unicode="&#x42c;" horiz-adv-x="1254" 
d="M299 1456v-614h364q230 0 355 -116q126 -116 126 -303q0 -189 -127 -306q-126 -117 -354 -117h-484v1456h120zM663 740h-364v-639h364q180 0 270 93t90 231q0 133 -90 224t-270 91z" />
    <glyph glyph-name="uni042D" unicode="&#x42d;" horiz-adv-x="1352" 
d="M280 1001h-112l-2 6q-5 213 139 342t379 129q242 0 391 -177q150 -175 150 -454v-237q0 -280 -150 -455q-148 -175 -391 -175q-239 0 -381 124q-141 124 -137 344l2 6h112q0 -177 107 -275t297 -98t306 147q116 148 116 380v97h-579v102h579v40q0 232 -116 381
q-115 148 -306 148t-297 -97q-107 -96 -107 -278z" />
    <glyph glyph-name="uni042E" unicode="&#x42e;" horiz-adv-x="1864" 
d="M1734 846v-237q0 -281 -155 -456q-155 -174 -414 -174q-256 0 -409 174q-152 175 -152 456v55h-267v-664h-120v1456h120v-691h267v81q0 280 152 456q151 175 408 175q261 0 415 -175q155 -176 155 -456zM1615 609v239q0 236 -120 380q-119 144 -331 144q-208 0 -324 -144
q-116 -145 -116 -380v-239q0 -237 116 -382q117 -144 325 -144q212 0 331 143q119 145 119 383z" />
    <glyph glyph-name="uni042F" unicode="&#x42f;" horiz-adv-x="1205" 
d="M521 635l-320 -635h-130l347 671q-144 45 -219 138.5t-75 228.5q0 198 131 308t362 110h444v-1456h-120v635h-420zM941 738v616h-324q-181 0 -277 -82.5t-96 -231.5q0 -135 89 -219q91 -83 250 -83h358z" />
    <glyph glyph-name="uni0430" unicode="&#x430;" horiz-adv-x="1101" 
d="M940 218l1 -218h-95q-5 45 -11.5 87t-9.5 75q-58 -74 -169 -128.5t-224 -54.5q-154 0 -244 81.5t-90 231.5q0 69 26.5 125.5t70.5 94.5t103 63t124 35t133 8q79 -3 145.5 -18.5t93.5 -29.5l27 -14v196q0 116 -73.5 181.5t-207.5 65.5q-163 0 -353 -77l-25 101
q183 78 384 78q180 0 286 -90q108 -93 108 -261v-532zM821 250v213q-12 7 -35 17.5t-92.5 28t-139.5 17.5q-59 0 -116.5 -14t-107.5 -41.5t-81 -75t-31 -107.5q0 -96 63 -150t164 -54q100 0 202.5 48.5t173.5 117.5z" />
    <glyph glyph-name="uni0431" unicode="&#x431;" horiz-adv-x="1127" 
d="M592 1102q209 0 335 -153q127 -152 127 -392v-33q0 -239 -131 -393q-131 -152 -347 -152q-217 0 -348 152q-131 154 -131 393v330q0 545 537 568q150 5 224 35.5t74 95.5h92l2 -6q6 -122 -88 -175.5t-293 -56.5q-212 -5 -328 -109t-102 -305l4 -5q53 92 152 148
q100 58 221 58zM574 1000q-169 0 -263 -129q-94 -128 -94 -314v-33q0 -188 95 -316t264 -128q168 0 263 128t95 316v33q0 185 -96 314q-94 129 -264 129z" />
    <glyph glyph-name="uni0432" unicode="&#x432;" 
d="M630 0h-466v1082h397q204 0 315 -73.5t111 -215.5q0 -84 -50 -146.5t-142 -90.5q105 -19 170 -92q65 -71 65 -164q0 -148 -108 -224q-106 -76 -292 -76zM630 498h-346v-398h346q135 0 208 52t73 150q0 91 -75 143.5t-206 52.5zM284 980v-382h288q145 0 220.5 48.5
t75.5 143.5q0 190 -307 190h-277z" />
    <glyph glyph-name="uni0433" unicode="&#x433;" horiz-adv-x="858" 
d="M826 1082v-103h-548v-979h-120v1082h668z" />
    <glyph glyph-name="uni0434" unicode="&#x434;" horiz-adv-x="1200" 
d="M61 101h93q155 0 184 590l23 391h649v-981h102v-453h-120v352h-817v-352h-114v453zM474 970l-16 -279q-25 -443 -122 -590h554v869h-416z" />
    <glyph glyph-name="uni0435" unicode="&#x435;" horiz-adv-x="1054" 
d="M569 -21q-211 0 -341 148q-131 149 -131 382v55q0 234 132 386q134 152 329 152q198 0 304 -127q108 -126 108 -340v-93h-753v-33q0 -185 93 -307q95 -122 259 -122q210 0 372 77l36 -96q-62 -38 -176 -60q-111 -22 -232 -22zM558 1000q-138 0 -227 -99
q-89 -100 -104 -251l3 -6h620v25q0 145 -76 237q-75 94 -216 94z" />
    <glyph glyph-name="uni0436" unicode="&#x436;" horiz-adv-x="1492" 
d="M1304 0l-409 500h-91v-500h-120v500h-89l-409 -500h-145l-3 5l456 555l-410 522h145l364 -475h91v475h120v-475h93l364 475h147l-412 -522l457 -555l-3 -5h-146z" />
    <glyph glyph-name="uni0437" unicode="&#x437;" horiz-adv-x="1113" 
d="M705 554q96 -31 152 -99.5t56 -165.5q0 -103 -53 -175t-136 -103.5t-189 -31.5q-78 0 -171.5 21.5t-142.5 59.5l38 97q56 -40 132 -58t144 -18q125 0 188 46.5t63 158.5q0 110 -63.5 162t-173.5 52h-100v102h100q101 0 158.5 49.5t57.5 149.5q0 200 -216 200
q-68 0 -137 -17.5t-107 -60.5l-33 89q44 40 122.5 62t154.5 22q153 0 248.5 -76.5t95.5 -221.5q0 -80 -53.5 -147t-134.5 -97z" />
    <glyph glyph-name="uni0438" unicode="&#x438;" 
d="M284 199l578 883h120v-1082h-120v883l-6 2l-578 -885h-120v1082h120v-882z" />
    <glyph glyph-name="uni0439" unicode="&#x439;" 
d="M284 199l578 883h120v-1082h-120v883l-6 2l-578 -885h-120v1082h120v-882zM754 1511h94l2 -6q4 -111 -73 -182q-76 -70 -210 -70t-211 70q-77 71 -72 182l2 6h94q0 -80 46.5 -125.5t140.5 -45.5q91 0 139 46.5t48 124.5z" />
    <glyph glyph-name="uni043A" unicode="&#x43a;" horiz-adv-x="1080" 
d="M887 0l-467 496l-137 18v-514h-121v1082h121v-493l134 13l427 480h144l2 -5l-466 -520l515 -551l-3 -6h-149z" />
    <glyph glyph-name="uni043B" unicode="&#x43b;" horiz-adv-x="1127" 
d="M284 1082h698v-1082h-120v979h-459v-375q0 -319 -74 -462q-73 -142 -250 -142h-44l2 107l38 1q109 0 159 110q50 112 50 386v478z" />
    <glyph glyph-name="uni043C" unicode="&#x43c;" horiz-adv-x="1500" 
d="M325 1082l427 -666h6l426 666h148v-1082h-120v907l-6 1l-410 -632h-85l-417 629l-6 -1v-904h-120v1082h157z" />
    <glyph glyph-name="uni043D" unicode="&#x43d;" 
d="M981 1082v-1082h-120v496h-583v-496h-120v1082h120v-485h583v485h120z" />
    <glyph glyph-name="uni043E" unicode="&#x43e;" 
d="M91 524v33q0 268 131 407q130 138 347 138t348 -137t131 -408v-33q0 -268 -131 -407q-131 -138 -346 -138q-219 0 -349 144q-131 145 -131 401zM211 557v-33q0 -213 95 -329q94 -115 265 -115q168 0 262 115q96 116 96 329v33q0 211 -96 327t-264 116q-169 0 -263 -118
q-95 -118 -95 -325z" />
    <glyph glyph-name="uni043F" unicode="&#x43f;" 
d="M982 1082v-1082h-120v979h-584v-979h-120v1082h824z" />
    <glyph glyph-name="uni0440" unicode="&#x440;" 
d="M1029 532v-21q0 -242 -110 -388q-109 -144 -303 -144q-225 0 -338 165v-560h-120v1498h92l22 -169q113 189 342 189q196 0 305 -156q110 -155 110 -414zM909 511v21q0 206 -82 336t-240 130q-221 0 -309 -205v-524q90 -189 311 -189q157 0 238 118q82 118 82 313z" />
    <glyph glyph-name="uni0441" unicode="&#x441;" horiz-adv-x="1054" 
d="M893 167l44 -87q-110 -101 -338 -101q-241 0 -371.5 150t-130.5 391v42q0 243 135.5 391.5t365.5 148.5q222 0 338 -105l-52 -89q-106 92 -286 92q-96 2 -170.5 -33t-119.5 -96.5t-67.5 -139.5t-23.5 -169v-42q-1 -119 44.5 -218.5t134 -160.5t203.5 -61q74 0 157 20.5
t137 66.5z" />
    <glyph glyph-name="uni0442" unicode="&#x442;" horiz-adv-x="1037" 
d="M965 1082v-102h-394v-980h-120v980h-379v102h893z" />
    <glyph glyph-name="uni0443" unicode="&#x443;" horiz-adv-x="1002" 
d="M168 1082l297 -789l38 -129h6l327 918h134l-470 -1255q-43 -112 -109 -187q-68 -77 -196 -77q-18 0 -51 5q-31 5 -44 9l14 100q27 -3 38 -4q27 -3 39 -3q78 0 125 56q48 57 80 142l57 146l-418 1068h133z" />
    <glyph glyph-name="uni0444" unicode="&#x444;" horiz-adv-x="1835" 
d="M111 511v21q0 260 109 414q110 156 306 156q211 0 328 -162v620h120v-626q117 168 335 168q196 0 305 -156q110 -155 110 -414v-21q0 -242 -110 -388q-110 -144 -303 -144q-221 0 -337 155v-550h-120v547q-117 -152 -330 -152q-194 0 -304 144q-109 145 -109 388z
M1605 511v21q0 206 -83 337t-240 131q-220 0 -308 -205v-528q90 -187 310 -187q157 0 239 118t82 313zM231 532v-21q0 -195 78 -314q79 -117 237 -117q213 0 308 186v535q-92 199 -306 199q-158 0 -238 -131q-79 -130 -79 -337z" />
    <glyph glyph-name="uni0445" unicode="&#x445;" horiz-adv-x="1002" 
d="M207 1082l291 -442l293 442h142l-367 -531l382 -551h-140l-308 461l-308 -461h-142l383 551l-367 531h141z" />
    <glyph glyph-name="uni0446" unicode="&#x446;" horiz-adv-x="1164" 
d="M158 0v1082h120v-981h584v981h120v-981h90v-452h-119v351h-795z" />
    <glyph glyph-name="uni0447" unicode="&#x447;" horiz-adv-x="1126" 
d="M967 1082v-1082h-120v455q-151 -54 -282 -54q-210 0 -312 93q-102 94 -102 314v274h120v-274q0 -170 69 -237q70 -67 225 -67q145 2 282 52v526h120z" />
    <glyph glyph-name="uni0448" unicode="&#x448;" horiz-adv-x="1617" 
d="M158 1082h120v-981h482v981h120v-981h476v981h120v-1082h-1318v1082z" />
    <glyph glyph-name="uni0449" unicode="&#x449;" horiz-adv-x="1656" 
d="M1556 -116v-9h-56v9h56zM158 1082h120v-981h482v981h120v-981h476v981h120v-1082h-1318v1082z" />
    <glyph glyph-name="uni044A" unicode="&#x44a;" horiz-adv-x="1296" 
d="M35 980v102h451v-433h309q187 0 291 -90q105 -90 105 -233q0 -144 -105 -235q-103 -91 -291 -91h-429v980h-331zM795 547h-309v-446h309q139 0 207 63q69 65 69 160q0 92 -69 157q-69 66 -207 66z" />
    <glyph glyph-name="uni044B" unicode="&#x44b;" horiz-adv-x="1546" 
d="M308 1082v-433h309q187 0 291 -90q105 -90 105 -233q0 -144 -105 -235q-103 -91 -291 -91h-429v1082h120zM617 547h-309v-446h309q139 0 207 63q69 65 69 160q0 92 -69 157q-69 66 -207 66zM1370 1082v-1082h-120v1082h120z" />
    <glyph glyph-name="uni044C" unicode="&#x44c;" horiz-adv-x="1095" 
d="M288 1082v-433h309q187 0 291 -90q105 -90 105 -233q0 -144 -105 -235q-103 -91 -291 -91h-429v1082h120zM597 547h-309v-446h309q139 0 207 63q69 65 69 160q0 92 -69 157q-69 66 -207 66z" />
    <glyph glyph-name="uni044D" unicode="&#x44d;" horiz-adv-x="1095" 
d="M517 1000q-115 0 -203 -68q-87 -68 -87 -188h-108l-2 6q-5 150 116 250q121 102 284 102q213 0 337 -153q125 -154 125 -387v-42q0 -234 -125 -388q-124 -153 -336 -153q-174 0 -290 104q-115 105 -111 277l2 6h108q0 -132 83 -209q85 -77 208 -77q161 0 246 118
q87 119 90 293l-3 5h-482v101h482l2 5q-4 169 -92 284q-85 114 -244 114z" />
    <glyph glyph-name="uni044E" unicode="&#x44e;" horiz-adv-x="1664" 
d="M288 1082v-493h310q9 227 139 369q131 144 338 144q217 0 348 -153q131 -154 131 -392v-33q0 -239 -131 -393q-131 -152 -346 -152q-209 0 -339 141q-129 140 -140 368h-310v-488h-120v1082h120zM717 557v-33q0 -188 95 -316t265 -128q167 0 262 128q96 128 96 316v33
q0 185 -96 314t-264 129q-169 0 -263 -129q-95 -130 -95 -314z" />
    <glyph glyph-name="uni044F" unicode="&#x44f;" horiz-adv-x="1129" 
d="M537 1082h426v-1082h-120v436h-336l-264 -436h-132l272 451q-111 29 -172.5 110.5t-61.5 197.5q0 142 102 232q103 91 286 91zM269 757q0 -91 59 -156q58 -63 177 -63h338v442h-306q-133 0 -201 -65q-67 -64 -67 -158z" />
    <glyph glyph-name="uni0450" unicode="&#x450;" horiz-adv-x="1054" 
d="M569 -21q-211 0 -341 148q-131 149 -131 382v55q0 234 132 386q134 152 329 152q198 0 304 -127q108 -126 108 -340v-93h-753v-33q0 -185 93 -307q95 -122 259 -122q210 0 372 77l36 -96q-62 -38 -176 -60q-111 -22 -232 -22zM558 1000q-138 0 -227 -99
q-89 -100 -104 -251l3 -6h620v25q0 145 -76 237q-75 94 -216 94zM416 1548l202 -266h-117l-241 261l2 5h154z" />
    <glyph glyph-name="uni0451" unicode="&#x451;" horiz-adv-x="1054" 
d="M569 -21q-211 0 -341 148q-131 149 -131 382v55q0 234 132 386q134 152 329 152q198 0 304 -127q108 -126 108 -340v-93h-753v-33q0 -185 93 -307q95 -122 259 -122q210 0 372 77l36 -96q-62 -38 -176 -60q-111 -22 -232 -22zM558 1000q-138 0 -227 -99
q-89 -100 -104 -251l3 -6h620v25q0 145 -76 237q-75 94 -216 94zM874 1477v-157h-173v157h173zM405 1477v-157h-174v157h174z" />
    <glyph glyph-name="uni0452" unicode="&#x452;" horiz-adv-x="1141" 
d="M539 1335v-81h-261v-356q56 98 146 151t208 53q354 0 354 -435v-756q0 -167 -79.5 -257.5t-224.5 -90.5q-58 0 -123 19l14 98q21 -6 49 -10q38 -5 60 -5q87 0 135.5 64.5t48.5 181.5v758q0 176 -70 252q-69 77 -191 77t-204.5 -60t-122.5 -166v-772h-120v1254h-209v81
h209v225h120v-225h261z" />
    <glyph glyph-name="uni0453" unicode="&#x453;" horiz-adv-x="858" 
d="M826 1082v-103h-548v-979h-120v1082h668zM353 1254l206 266h147l3 -6l-249 -260h-107z" />
    <glyph glyph-name="uni0454" unicode="&#x454;" horiz-adv-x="1095" 
d="M554 80q114 0 203 68t89 189h107l2 -6q4 -150 -118 -251t-283 -101q-215 0 -337 152q-120 152 -120 389v42q0 236 120 388t336 152q175 0 290 -105q116 -106 112 -276l-2 -6h-107q0 131 -85 207q-85 78 -208 78q-164 0 -246 -115q-83 -116 -86 -288l3 -5h497v-101h-497
l-3 -5q3 -175 86 -291q82 -115 247 -115z" />
    <glyph glyph-name="uni0455" unicode="&#x455;" horiz-adv-x="1043" 
d="M541 602q195 -43 290 -119t95 -200q0 -76 -34 -136t-91.5 -95.5t-127.5 -54t-147 -18.5q-115 0 -233 32.5t-178 73.5l31 102q86 -49 188 -78t192 -29q70 0 131.5 19.5t105 65.5t43.5 112q0 42 -16 75.5t-40.5 56t-64.5 41t-77 29.5t-89 23q-68 14 -116 27.5t-102 38
t-86.5 54.5t-54 77t-21.5 107q0 94 57 163.5t142 101t183 31.5q121 0 215.5 -34.5t142.5 -78.5l-30 -106q-48 46 -133 81.5t-195 35.5q-109 0 -185.5 -48t-76.5 -142q0 -42 15.5 -74t36.5 -51t64 -36t74.5 -25.5t91.5 -21.5z" />
    <glyph glyph-name="uni0456" unicode="&#x456;" horiz-adv-x="465" 
d="M292 1082v-1082h-119v1082h119zM292 1560v-168h-119v168h119z" />
    <glyph glyph-name="uni0457" unicode="&#x457;" horiz-adv-x="456" 
d="M288 1082v-1082h-120v1082h120zM555 1456v-157h-173v157h173zM86 1456v-157h-174v157h174z" />
    <glyph glyph-name="uni0458" unicode="&#x458;" horiz-adv-x="484" 
d="M180 1082h119v-1171q0 -166 -79.5 -257t-222.5 -91q-50 0 -112 19l13 101q45 -15 93 -15q90 0 139.5 62t49.5 181v1171zM293 1560v-164h-119v164h119z" />
    <glyph glyph-name="uni0459" unicode="&#x459;" horiz-adv-x="1772" 
d="M301 1082h681v-433h310q186 0 290 -90q105 -90 105 -233q0 -144 -105 -235q-103 -91 -290 -91h-430v979h-442v-375q0 -319 -76 -461q-75 -143 -253 -143h-43l2 103h37q111 0 162 113q52 111 52 388v478zM1292 548h-310v-448h310q138 0 206 66q69 66 69 162q0 92 -69 156
q-67 64 -206 64z" />
    <glyph glyph-name="uni045A" unicode="&#x45a;" horiz-adv-x="1772" 
d="M278 1082v-430h583v430h120v-433h310q187 0 291 -90q105 -90 105 -233q0 -144 -105 -235q-103 -91 -291 -91h-430v551h-583v-551h-120v1082h120zM1291 548h-310v-448h310q139 0 207 66q69 66 69 162q0 92 -69 156q-67 64 -207 64z" />
    <glyph glyph-name="uni045B" unicode="&#x45b;" horiz-adv-x="1141" 
d="M610 1351v-102h-332v-351q56 98 146 151t208 53q354 0 354 -435v-667h-120v669q0 176 -70 252q-69 77 -191 77t-204.5 -60t-122.5 -166v-772h-120v1249h-160v102h160v209h120v-209h332z" />
    <glyph glyph-name="uni045C" unicode="&#x45c;" horiz-adv-x="1080" 
d="M887 0l-467 496l-137 18v-514h-121v1082h121v-493l134 13l427 480h144l2 -5l-466 -520l515 -551l-3 -6h-149zM470 1253l206 266h147l3 -6l-249 -260h-107z" />
    <glyph glyph-name="uni045D" unicode="&#x45d;" 
d="M284 199l578 883h120v-1082h-120v883l-6 2l-578 -885h-120v1082h120v-882zM435 1526l202 -266h-117l-241 261l2 5h154z" />
    <glyph glyph-name="uni045E" unicode="&#x45e;" horiz-adv-x="1002" 
d="M168 1082l297 -789l38 -129h6l327 918h134l-470 -1255q-43 -112 -109 -187q-68 -77 -196 -77q-18 0 -51 5q-31 5 -44 9l14 100q27 -3 38 -4q27 -3 39 -3q78 0 125 56q48 57 80 142l57 146l-418 1068h133zM701 1511h94l2 -6q4 -111 -73 -182q-76 -70 -210 -70t-211 70
q-77 71 -72 182l2 6h94q0 -80 46.5 -125.5t140.5 -45.5q91 0 139 46.5t48 124.5z" />
    <glyph glyph-name="uni045F" unicode="&#x45f;" 
d="M158 1082h120v-981h584v981h120v-1082h-349v-353h-119v353h-356v1082z" />
    <glyph glyph-name="uni0460" unicode="&#x460;" horiz-adv-x="1941" 
d="M1120 1325l-35 101q126 51 281 51q208 0 342 -170q133 -169 133 -440v-267q0 -277 -138 -449q-136 -172 -352 -172q-235 0 -374 124q-139 -124 -373 -124q-216 0 -354 173q-137 173 -137 448v267q0 271 133 440q134 170 343 170q153 0 281 -51l-35 -101q-103 50 -246 50
q-162 0 -259 -142t-97 -364v-269q0 -230 102 -375q103 -145 269 -145q116 0 196.5 36.5t116.5 92.5v397h-256v102h632v-102h-256v-395q29 -51 109 -92q80 -39 205 -39q163 0 267 146t104 374v269q0 221 -99 364q-97 142 -257 142q-144 0 -246 -50z" />
    <glyph glyph-name="uni0461" unicode="&#x461;" horiz-adv-x="1386" 
d="M168 1082l298 -811l35 -127h6l38 127l152 403l-134 408h123l244 -811l42 -149h6l28 69q95 170 144 401q51 233 63 490h119q-26 -606 -316 -1082h-96l-168 509h-6l-194 -509h-96l-412 1082h124z" />
    <glyph glyph-name="uni0462" unicode="&#x462;" horiz-adv-x="1254" 
d="M609 1229v-102h-310v-285h364q230 0 355 -116q126 -116 126 -303q0 -189 -127 -306q-126 -117 -354 -117h-484v1127h-182v102h182v227h120v-227h310zM663 740h-364v-639h364q180 0 270 93t90 231q0 133 -90 224t-270 91z" />
    <glyph glyph-name="uni0463" unicode="&#x463;" horiz-adv-x="1095" 
d="M613 1204v-102h-325v-453h309q187 0 291 -90q105 -90 105 -233q0 -144 -105 -235q-103 -91 -291 -91h-429v1102h-197v102h197v358h120v-358h325zM597 547h-309v-446h309q139 0 207 63q69 65 69 160q0 92 -69 157q-69 66 -207 66z" />
    <glyph glyph-name="uni0464" unicode="&#x464;" horiz-adv-x="1830" 
d="M1202 772v-101h-484v-61q0 -234 115 -382q115 -147 307 -147q191 0 297.5 97t106.5 278h112l2 -6q4 -214 -140 -342q-145 -128 -378 -128q-244 0 -392 175q-149 176 -149 455v61h-261v-671h-120v1456h120v-684h261v75q0 278 149 454q148 177 392 177q236 0 379 -125
t139 -344l-2 -6h-112q0 177 -108 274q-106 99 -296 99q-192 0 -307 -148t-115 -379v-77h484z" />
    <glyph glyph-name="uni0465" unicode="&#x465;" horiz-adv-x="1523" 
d="M989 601v-102h-339l-3 -5q0 -178 83 -297q82 -117 250 -117q114 0 203 68t89 189h107l2 -6q4 -150 -118 -251t-283 -101q-211 0 -331 145q-120 146 -126 375h-237v-499h-120v1082h120v-481h238q11 222 129 361q120 140 326 140q175 0 290 -105q116 -106 112 -276l-2 -6
h-107q0 131 -85 207q-85 78 -208 78q-160 0 -243 -113t-87 -281l2 -5h338z" />
    <glyph glyph-name="uni0466" unicode="&#x466;" horiz-adv-x="1229" 
d="M1093 0l-170 475h-242v-475h-119v475h-228l-172 -475h-124l535 1456h113l531 -1456h-124zM627 1285l-255 -704h513l-252 704h-6z" />
    <glyph glyph-name="uni0467" unicode="&#x467;" horiz-adv-x="1080" 
d="M911 0l-147 347h-171v-347h-120v347h-178l-146 -347h-124l452 1082h105l453 -1082h-124zM489 809l-151 -360h382l-152 360l-36 120h-6z" />
    <glyph glyph-name="uni0468" unicode="&#x468;" horiz-adv-x="1798" 
d="M356 1456v-875h424l322 875h113l531 -1456h-124l-170 475h-242v-475h-119v475h-228l-172 -475h-124l174 475h-385v-475h-120v1456h120zM1156 1285l-255 -704h513l-252 704h-6z" />
    <glyph glyph-name="uni0469" unicode="&#x469;" horiz-adv-x="1542" 
d="M321 1082v-633h338l265 633h105l453 -1082h-124l-147 347h-171v-347h-120v347h-178l-146 -347h-124l145 347h-296v-347h-120v1082h120zM936 809l-151 -360h382l-152 360l-36 120h-6z" />
    <glyph glyph-name="uni046A" unicode="&#x46a;" horiz-adv-x="1669" 
d="M279 0h-121v380q0 206 111.5 303t332.5 97h101l-432 676h1132l-433 -676h96q221 0 332.5 -96.5t111.5 -303.5v-380h-120v380q0 165 -77 231q-76 67 -247 67h-161l-10 -16v-662h-120v667l-7 11h-166q-171 0 -247 -67t-76 -231v-380zM473 1354l354 -574h19l355 574h-728z
" />
    <glyph glyph-name="uni046B" unicode="&#x46b;" horiz-adv-x="1447" 
d="M1099 1083v-1h90l-326 -488q211 -1 318 -97.5t107 -301.5v-195h-120v195q0 164 -73 230q-73 67 -233 67h-67l-10 -16v-476h-119v482l-7 10h-74q-163 0 -234 -67q-72 -66 -72 -230v-195h-121v195q0 206 107 302.5t320 96.5h6l-326 488h108v1h726zM468 980l249 -386h20
l250 386h-519z" />
    <glyph glyph-name="uni046C" unicode="&#x46c;" horiz-adv-x="2214" 
d="M1633 780q221 0 332.5 -96.5t111.5 -303.5v-380h-120v380q0 165 -77 231q-76 67 -247 67h-161l-10 -16v-662h-120v667l-7 11l-206 -1q-139 -7 -207 -66q-76 -67 -76 -231v-380h-121v380q0 200 105 297h-493v-677h-120v1456h120v-677l933 1l-432 676h1132l-433 -676h96z
M1413 780l355 574h-728l354 -574h19z" />
    <glyph glyph-name="uni046D" unicode="&#x46d;" horiz-adv-x="1899" 
d="M1369 594q211 -1 318 -97.5t107 -301.5v-195h-120v195q0 164 -73 230q-73 67 -233 67h-67l-10 -16v-476h-119v482l-7 10h-55h-19q-163 0 -234 -67q-72 -66 -72 -230v-195h-121v195q0 198 101 297h-477v-492h-120v1082h120v-488h803h6l-326 488h924zM1243 594l250 386
h-519l249 -386h20z" />
    <glyph glyph-name="uni046E" unicode="&#x46e;" horiz-adv-x="1054" 
d="M155 1456h321q215 0 345 -101q130 -100 130 -282q0 -111 -70 -197t-195 -128q142 -38 215 -127.5t73 -224.5q0 -189 -143 -297t-361 -108h-67q-89 0 -130.5 -32t-41.5 -96q0 -65 54 -113q54 -50 117 -72l-45 -87q-93 34 -166 108q-74 74 -74 168q0 109 73.5 167t215.5 58
h64q176 0 279 81q105 83 105 219q0 302 -400 302h-132v103h132q190 0 283.5 71.5t93.5 208.5q0 123 -90 200q-89 77 -265 77h-321v102zM332 1885l167 -169l166 169h115v-17l-233 -225h-97l-232 225v17h114z" />
    <glyph glyph-name="uni046F" unicode="&#x46f;" horiz-adv-x="992" 
d="M277 601h131q326 0 326 197q0 83 -78.5 132t-224.5 49h-292v103h292q191 0 307 -77t116 -211q0 -79 -55.5 -143t-154.5 -99q232 -61 232 -248q0 -144 -129 -229q-127 -84 -322 -84h-45q-89 0 -130 -32t-41 -96q0 -65 54 -113q54 -50 117 -72l-46 -87q-91 33 -166 108
q-74 74 -74 168q0 109 74 167t216 58h41q150 0 241 56q90 57 90 152q0 101 -86.5 149.5t-261.5 48.5h-131v103zM260 1541l167 -169l166 169h115v-17l-233 -225h-97l-232 225v17h114z" />
    <glyph glyph-name="uni0470" unicode="&#x470;" horiz-adv-x="1422" 
d="M762 1456v-997l6 -2q180 9 290 127q111 118 111 312v560h120v-560q0 -246 -146 -390q-146 -145 -381 -158v-348h-121v349q-233 15 -375 159q-142 143 -142 388v560h120v-560q0 -192 108 -311q109 -118 283 -128l6 2v997h121z" />
    <glyph glyph-name="uni0471" unicode="&#x471;" horiz-adv-x="1400" 
d="M632 1081h119v-990l6 -2q218 12 315 151q99 140 99 338q-4 240 -140 504h131q59 -116 93 -232q35 -117 35 -271q0 -258 -131 -421q-131 -162 -408 -177v-424h-119v425q-244 18 -377 168q-134 151 -134 443v489h120v-491q0 -243 103 -367q104 -124 282 -134l6 2v989z" />
    <glyph glyph-name="uni0472" unicode="&#x472;" horiz-adv-x="1379" 
d="M1254 846v-237q0 -281 -155 -456q-155 -174 -414 -174q-256 0 -409 174q-152 175 -152 456v237q0 280 152 456q151 175 408 175q261 0 415 -175q155 -176 155 -456zM936 666q68 0 121.5 31t77.5 82v69q0 236 -120 380q-119 144 -331 144q-208 0 -324 -144
q-116 -145 -116 -380v-104q79 84 203 84q115 0 256 -81q142 -81 233 -81zM1135 609v33q-80 -75 -199 -75q-127 0 -262 81q-133 81 -227 81q-74 0 -128 -34.5t-75 -90.5q0 -236 116 -379q117 -142 325 -142q212 0 331 143q119 145 119 383z" />
    <glyph glyph-name="uni0473" unicode="&#x473;" horiz-adv-x="1158" 
d="M91 524v33q0 238 131 392q130 153 347 153t348 -153q131 -154 131 -392v-33q0 -239 -131 -393q-131 -152 -346 -152q-218 0 -349 152q-131 154 -131 393zM752 510q60 0 111 30q51 32 63 78q-17 165 -110 273q-94 109 -247 109q-165 0 -260 -125q-94 -124 -90 -298l3 -5
q23 30 69 47.5t100 17.5q86 0 189 -64q105 -63 172 -63zM382 547q-60 0 -106.5 -25.5t-61.5 -66.5q16 -163 110 -270q93 -105 247 -105q159 0 252 116q94 115 97 285l-4 5q-25 -31 -71.5 -48.5t-101.5 -17.5q-93 0 -194 63q-98 64 -167 64z" />
    <glyph glyph-name="uni0474" unicode="&#x474;" horiz-adv-x="1261" 
d="M159 1456l393 -1201l29 -101h6l29 101l293 953q81 268 295 268q57 0 106 -27l-23 -94q-28 15 -64 15q-67 0 -116 -37q-50 -38 -84 -149l-383 -1184h-113l-498 1456h130z" />
    <glyph glyph-name="uni0475" unicode="&#x475;" horiz-adv-x="1009" 
d="M168 1082l266 -811l35 -127h6l38 127l186 593q41 124 103 180.5t150 56.5q62 0 106 -27l-23 -93q-28 15 -63 15q-52 0 -91.5 -34.5t-67.5 -117.5l-293 -844h-96l-380 1082h124z" />
    <glyph glyph-name="uni0476" unicode="&#x476;" horiz-adv-x="1261" 
d="M159 1456l393 -1201l29 -101h6l29 101l293 953q81 268 295 268q57 0 106 -27l-23 -94q-28 15 -64 15q-67 0 -116 -37q-50 -38 -84 -149l-383 -1184h-113l-498 1456h130zM251 1853l264 -260l-2 -6h-113l-296 260l2 6h145zM546 1853l214 -261l-3 -5h-102l-245 260l3 6h133z
" />
    <glyph glyph-name="uni0477" unicode="&#x477;" horiz-adv-x="1009" 
d="M168 1082l266 -811l35 -127h6l38 127l186 593q41 124 103 180.5t150 56.5q62 0 106 -27l-23 -93q-28 15 -63 15q-52 0 -91.5 -34.5t-67.5 -117.5l-293 -844h-96l-380 1082h124zM152 1557l264 -260l-2 -6h-113l-296 260l2 6h145zM447 1557l214 -261l-3 -5h-102l-245 260
l3 6h133z" />
    <glyph glyph-name="uni0478" unicode="&#x478;" horiz-adv-x="2380" 
d="M1254 846v-237q0 -327 -147 -479q-147 -151 -422 -151q-277 0 -419 151t-142 479v237q0 310 144 470.5t416 160.5q275 0 422.5 -161t147.5 -470zM1135 609v239q0 277 -120 400q-118 124 -331 124q-209 0 -324 -124q-116 -124 -116 -400v-239q0 -290 116 -409
q117 -117 325 -117q213 0 331 117q119 119 119 409zM1546 1082l297 -789l38 -129h6l327 918h134l-470 -1255q-43 -112 -109 -187q-68 -77 -196 -77q-18 0 -51 5q-31 5 -44 9l14 100q27 -3 38 -4q27 -3 39 -3q78 0 125 56q48 57 80 142l57 146l-418 1068h133z" />
    <glyph glyph-name="uni0479" unicode="&#x479;" horiz-adv-x="2142" 
d="M91 524v33q0 268 131 407q130 138 347 138t348 -137t131 -408v-33q0 -268 -131 -407q-131 -138 -346 -138q-219 0 -349 144q-131 145 -131 401zM211 557v-33q0 -213 95 -329q94 -115 265 -115q168 0 262 115q96 116 96 329v33q0 211 -96 327t-264 116q-169 0 -263 -118
q-95 -118 -95 -325zM1308 1082l297 -789l38 -129h6l327 918h134l-470 -1255q-43 -112 -109 -187q-68 -77 -196 -77q-18 0 -51 5q-31 5 -44 9l14 100q27 -3 38 -4q27 -3 39 -3q78 0 125 56q48 57 80 142l57 146l-418 1068h133z" />
    <glyph glyph-name="uni047A" unicode="&#x47a;" horiz-adv-x="1379" 
d="M1094 1301q155 -176 155 -456v-237q0 -281 -155 -456q-135 -153 -350 -171v-125h-119v124q-217 16 -354 172q-152 175 -152 456v237q0 280 152 456q134 155 354 173v119h119v-120q217 -20 350 -172zM1130 608v239q0 236 -120 380q-99 120 -266 140v-120h-119v121
q-169 -16 -270 -141q-116 -145 -116 -380v-239q0 -237 116 -382q102 -124 270 -142v123h119v-122q168 19 267 140q119 145 119 383z" />
    <glyph glyph-name="uni047B" unicode="&#x47b;" horiz-adv-x="1141" 
d="M922 954q131 -154 131 -392v-33q0 -239 -131 -393q-113 -130 -286 -149v-115h-120v115q-177 20 -289 149q-131 154 -131 393v33q0 238 131 392q112 132 289 150v113h120v-113q175 -19 286 -150zM934 529v33q0 185 -96 314q-78 105 -202 124v-120h-120v121
q-128 -20 -205 -125q-95 -130 -95 -314v-33q0 -188 95 -316q77 -104 205 -124v120h120v-119q126 20 202 123q96 127 96 316z" />
    <glyph glyph-name="uni047C" unicode="&#x47c;" horiz-adv-x="1934" 
d="M1153 1325l-35 101q113 51 249 51q208 0 342 -170q133 -169 133 -440v-267q0 -277 -138 -449t-353 -172q-236 0 -374 124q-139 -124 -373 -124q-216 0 -354 173q-137 173 -137 448v267q0 271 133 440q134 170 343 170q133 0 248 -51l-35 -101q-87 50 -213 50
q-162 0 -259 -142t-97 -364v-269q0 -230 102 -375q103 -145 269 -145q124 0 203 39q80 41 111 92v36h119v-36q31 -52 110 -92q79 -39 204 -39q163 0 267 146t104 374v269q0 221 -98 364q-97 142 -257 142q-128 0 -214 -50zM1437 1827h28v-84h-30q-128 0 -263 78
q-133 79 -193 79q-71 0 -110 -40t-39 -107v-18h-91v31q0 103 63 163t173 60q79 0 216 -81t246 -81zM1103 1648l-144 -173l-56 46l61 121v139h139v-133z" />
    <glyph glyph-name="uni047D" unicode="&#x47d;" horiz-adv-x="1636" 
d="M971 957l-35 99q93 42 209 42q173 0 284 -151q111 -150 111 -387v-50q0 -234 -116 -383q-115 -148 -295 -148q-186 0 -303 124q-117 -124 -302 -124q-181 0 -296 148t-115 383v50q0 237 111 387q111 151 285 151q113 0 208 -42l-35 -99q-76 39 -173 39q-124 0 -201 -122
q-75 -122 -75 -312v-52q0 -187 80 -309q81 -121 211 -121q97 0 157 39q61 41 86 92v36h119v-36q25 -52 85 -92q60 -39 158 -39q129 0 210 121t81 309v52q0 191 -76 312q-77 122 -199 122q-101 0 -174 -39zM1297 1483h28v-85h-30q-128 0 -263 78q-133 79 -193 79
q-71 0 -110 -40t-39 -107v-18h-91v31q0 103 63 163t173 60q79 0 216 -81q137 -80 246 -80zM963 1304l-144 -174l-56 46l61 121v140h139v-133z" />
    <glyph glyph-name="uni047E" unicode="&#x47e;" horiz-adv-x="1941" 
d="M910 1697h-204v-114l-110 1v194h755v-195h-111v114h-219v-114h-111v114zM1120 1325l-35 101q126 51 281 51q208 0 342 -170q133 -169 133 -440v-267q0 -277 -138 -449q-136 -172 -352 -172q-235 0 -374 124q-139 -124 -373 -124q-216 0 -354 173q-137 173 -137 448v267
q0 271 133 440q134 170 343 170q153 0 281 -51l-35 -101q-103 50 -246 50q-162 0 -259 -142t-97 -364v-269q0 -230 102 -375q103 -145 269 -145q116 0 196.5 36.5t116.5 92.5v397h-256v102h632v-102h-256v-395q29 -51 109 -92q80 -39 205 -39q163 0 267 146t104 374v269
q0 221 -99 364q-97 142 -257 142q-144 0 -246 -50z" />
    <glyph glyph-name="uni047F" unicode="&#x47f;" horiz-adv-x="1387" 
d="M631 1425h-204v-131l-110 1l1 211h755v-212h-110v131h-221v-131h-111v131zM168 1082l298 -811l35 -127h6l38 127l152 403l-134 408h123l244 -811l42 -149h6l28 69q95 170 144 401q51 233 63 490h119q-26 -606 -316 -1082h-96l-168 509h-6l-194 -509h-96l-412 1082h124z
" />
    <glyph glyph-name="uni0480" unicode="&#x480;" horiz-adv-x="1296" 
d="M751 80v-446h-120v347q-227 17 -363 189t-136 439v237q0 278 149 454q149 177 392 177q236 0 379 -125t139 -344l-2 -6h-112q0 176 -108 274q-107 99 -296 99q-192 0 -307 -148t-115 -379v-239q0 -234 115 -382q116 -147 307 -147h78z" />
    <glyph glyph-name="uni0481" unicode="&#x481;" horiz-adv-x="1071" 
d="M647 80v-446h-119v348q-193 16 -306 166q-111 150 -111 372v42q0 234 124 386q124 154 338 154q173 0 288 -105q116 -106 112 -276l-2 -6h-107q0 131 -84 207q-84 78 -207 78q-166 0 -254 -127t-88 -311v-42q0 -188 87 -314q88 -126 256 -126h73z" />
    <glyph glyph-name="uni0482" unicode="&#x482;" horiz-adv-x="1249" 
d="M799 825l-222 -393l289 -172l-54 -95l-291 170l-186 -335h-135l225 398l-289 171l53 94l293 -171l220 394l-290 171l55 96l291 -171l203 360h132l-241 -422l293 -171l-58 -94z" />
    <glyph glyph-name="uni0483" unicode="&#x483;" horiz-adv-x="893" 
d="M754 1339h-508v-123h-112v202h510v108h110v-187z" />
    <glyph glyph-name="uni0484" unicode="&#x484;" horiz-adv-x="973" 
d="M146 1395h28q110 0 245 81q137 81 216 81q111 0 173 -61q64 -61 64 -163v-30h-91v18q0 66 -39.5 106t-110.5 40q-60 0 -193 -79q-133 -78 -262 -78h-30v85z" />
    <glyph glyph-name="uni0485" unicode="&#x485;" horiz-adv-x="507" 
d="M299 1326l-143 174v133h138v-140l62 -121z" />
    <glyph glyph-name="uni0486" unicode="&#x486;" horiz-adv-x="528" 
d="M371 1500l-144 -174l-56 46l61 121v140h139v-133z" />
    <glyph glyph-name="uni048A" unicode="&#x48a;" horiz-adv-x="1444" 
d="M313 212l828 1244h119v-1456h-119v1245l-6 1l-828 -1246h-120v1456h120v-1243zM918 1854h94l2 -6q4 -111 -73 -182q-76 -70 -210 -70t-211 70q-77 71 -72 182l2 6h94q0 -80 46.5 -125.5t140.5 -45.5q91 0 139 46.5t48 124.5zM1363 157v-170l-106 -276h-82l69 279v167h119
z" />
    <glyph glyph-name="uni048B" unicode="&#x48b;" 
d="M284 199l578 883h120v-1082h-120v883l-6 2l-578 -885h-120v1082h120v-882zM754 1511h94l2 -6q4 -111 -73 -182q-76 -70 -210 -70t-211 70q-77 71 -72 182l2 6h94q0 -80 46.5 -125.5t140.5 -45.5q91 0 139 46.5t48 124.5zM1084 157v-170l-106 -276h-82l69 279v167h119z
" />
    <glyph glyph-name="uni048C" unicode="&#x48c;" horiz-adv-x="1254" 
d="M609 1229v-102h-310v-285h364q230 0 355 -116q126 -116 126 -303q0 -189 -127 -306q-126 -117 -354 -117h-484v1127h-182v102h182v227h120v-227h310zM663 740h-364v-639h364q180 0 270 93t90 231q0 133 -90 224t-270 91z" />
    <glyph glyph-name="uni048D" unicode="&#x48d;" horiz-adv-x="1095" 
d="M575 927v-102h-287v-176h309q187 0 291 -90q105 -90 105 -233q0 -144 -105 -235q-103 -91 -291 -91h-429v825h-205v102h205v155h120v-155h287zM597 547h-309v-446h309q139 0 207 63q69 65 69 160q0 92 -69 157q-69 66 -207 66z" />
    <glyph glyph-name="uni048E" unicode="&#x48e;" horiz-adv-x="1286" 
d="M1161 1031q0 -195 -126 -310q-43 -40 -96 -65l107 -179l-89 -50l-116 195q-68 -17 -160 -17h-382v-605h-120v1456h502q229 0 354 -117q126 -117 126 -308zM884 749q40 21 67 49q90 92 90 231q0 141 -90 232q-90 93 -270 93h-382v-647h382q56 0 104 9l-85 144l88 50z" />
    <glyph glyph-name="uni048F" unicode="&#x48f;" horiz-adv-x="1156" 
d="M919 946q110 -153 110 -414v-21q0 -244 -110 -388q-52 -69 -121 -104l59 -170l-97 -35l-58 172q-38 -7 -85 -7q-226 0 -339 165v-560h-120v1498h93l21 -169q115 189 342 189q197 0 305 -156zM909 511v21q0 209 -82 336q-81 130 -240 130q-221 0 -309 -205v-524
q92 -189 311 -189q40 0 78 8l-56 164l96 34l54 -157q37 27 66 69q82 116 82 313z" />
    <glyph glyph-name="uni0490" unicode="&#x490;" horiz-adv-x="1123" 
d="M1057 1810v-457h-119v1h-639v-1354h-120v1456h759v354h119z" />
    <glyph glyph-name="uni0491" unicode="&#x491;" horiz-adv-x="897" 
d="M829 1427v-448h-551v-979h-120v1082h552v345h119z" />
    <glyph glyph-name="uni0492" unicode="&#x492;" horiz-adv-x="1122" 
d="M647 809v-102h-348v-707h-120v707h-144v102h144v647h876v-102h-756v-545h348z" />
    <glyph glyph-name="uni0493" unicode="&#x493;" horiz-adv-x="858" 
d="M608 604v-102h-330v-502h-120v502h-162v102h162v478h668v-103h-548v-375h330z" />
    <glyph glyph-name="uni0494" unicode="&#x494;" horiz-adv-x="1174" 
d="M1055 1456v-102h-756v-1354h-120v1456h876zM298 748v106h291q236 0 380 -117q145 -115 145 -343q0 -133 -91 -266q-90 -133 -283 -167l-32 91q153 35 218 128q66 93 68 214q2 175 -110 264q-113 90 -295 90h-291z" />
    <glyph glyph-name="uni0495" unicode="&#x495;" horiz-adv-x="1040" 
d="M151 546v106h7v430h668v-103h-548v-327h135q236 0 380 -117q145 -115 145 -343q0 -134 -91 -265q-90 -134 -283 -168l-32 91q152 35 218 129q66 92 68 213q2 175 -110 264q-112 90 -295 90h-135v-546h-120v546h-7z" />
    <glyph glyph-name="uni0496" unicode="&#x496;" horiz-adv-x="1648" 
d="M1469 0l-504 695h-80v-695h-119v695h-86l-501 -695h-152l546 752l-508 704h144l464 -659h93v659h119v-659h89l465 659h143l-508 -703l546 -753h-151zM1659 124v-479h-120v479h120z" />
    <glyph glyph-name="uni0497" unicode="&#x497;" horiz-adv-x="1492" 
d="M1304 0l-409 500h-91v-500h-120v500h-89l-409 -500h-145l-3 5l456 555l-410 522h145l364 -475h91v475h120v-475h93l364 475h147l-412 -522l457 -555l-3 -5h-146zM1472 124v-479h-120v479h120z" />
    <glyph glyph-name="uni0498" unicode="&#x498;" horiz-adv-x="1352" 
d="M1104 395q0 -173 -96 -274.5t-260 -130.5q111 -100 111 -213q0 -81 -52 -124q-51 -45 -130 -45q-91 0 -161 44l23 83q61 -32 114 -32q55 0 77 27q22 26 22 58q0 48 -27.5 91t-88.5 100h-21q-104 0 -229.5 29t-191.5 80l51 94q75 -54 176 -78t194 -24q169 0 269.5 76.5
t100.5 234.5q0 152 -90.5 228.5t-260.5 76.5h-134v102h134q143 -5 233 71.5t90 211.5q0 144 -86 219t-237 75q-91 0 -183.5 -23.5t-143.5 -81.5l-45 94q60 54 164.5 83.5t207.5 29.5q203 0 323 -101.5t120 -298.5q0 -109 -64.5 -198.5t-169.5 -128.5q126 -40 193.5 -131.5
t67.5 -223.5z" />
    <glyph glyph-name="uni0499" unicode="&#x499;" horiz-adv-x="1113" 
d="M913 290q0 -132 -80 -208.5t-210 -95.5q104 -98 104 -208q0 -80 -52 -123q-52 -46 -130 -46q-91 0 -161 44l23 83q64 -32 114 -32q55 0 77 28q22 26 22 57q0 49 -28 92t-88 99q-77 4 -158 25t-125 55l38 97q56 -40 132 -57.5t144 -17.5q126 0 188.5 46.5t62.5 158.5
q0 110 -63.5 162t-173.5 52h-100v102h100q101 0 158.5 49.5t57.5 149.5q0 199 -216 199q-176 0 -244 -78l-33 90q44 39 122.5 61.5t154.5 22.5q153 0 248.5 -76.5t95.5 -221.5q0 -79 -53.5 -146.5t-134.5 -97.5q96 -32 152 -100.5t56 -164.5z" />
    <glyph glyph-name="uni049A" unicode="&#x49a;" horiz-adv-x="1261" 
d="M1086 0l-623 691l-157 11v-702h-120v1456h120v-673l156 9l572 664h136v-8l-602 -697l662 -742v-9h-144zM1271 124v-479h-120v479h120z" />
    <glyph glyph-name="uni049B" unicode="&#x49b;" horiz-adv-x="1080" 
d="M887 0l-467 496l-137 18v-514h-121v1082h121v-493l134 13l427 480h144l2 -5l-466 -520l515 -551l-3 -6h-149zM1064 124v-479h-120v479h120z" />
    <glyph glyph-name="uni049C" unicode="&#x49c;" horiz-adv-x="1256" 
d="M1028 1456h144l-435 -704l495 -752h-151l-442 691h-92v-286h-102v286h-145v-691h-119v1456h119v-664h145v282h102v-282h99z" />
    <glyph glyph-name="uni049D" unicode="&#x49d;" horiz-adv-x="1083" 
d="M857 1082h151l-346 -522l396 -560h-158l-333 496h-55v-238h-102v238h-127v-496h-121v1082h121v-480h127v241h102v-241h56z" />
    <glyph glyph-name="uni049E" unicode="&#x49e;" horiz-adv-x="1261" 
d="M1086 0l-623 691h-157v-691h-120v1180h-219v102h219v174h120v-174h273v-102h-273v-388h156l572 664h136l2 -5l-604 -700l664 -746l-2 -5h-144z" />
    <glyph glyph-name="uni049F" unicode="&#x49f;" horiz-adv-x="1006" 
d="M846 0l-441 527h-126v-527h-120v1240h-168v102h168v218h120v-218h324v-102h-324v-610h114l415 452h140l2 -5l-444 -491l480 -581l-3 -5h-137z" />
    <glyph glyph-name="uni04A0" unicode="&#x4a0;" horiz-adv-x="1710" 
d="M1525 0l-623 691h-157v-691h-120v1354h-537v102h657v-664h156l572 664h136l2 -5l-604 -700l664 -746l-2 -5h-144z" />
    <glyph glyph-name="uni04A1" unicode="&#x4a1;" horiz-adv-x="1449" 
d="M1267 0l-467 496h-137v-496h-121v979h-477v103h598v-480h134l427 480h144l2 -5l-466 -520l515 -551l-3 -6h-149z" />
    <glyph glyph-name="uni04A2" unicode="&#x4a2;" horiz-adv-x="1439" 
d="M1253 1456v-1456h-120v670h-827v-670h-120v1456h120v-684h827v684h120zM1349 124v-479h-120v479h120z" />
    <glyph glyph-name="uni04A3" unicode="&#x4a3;" 
d="M981 1082v-1082h-120v496h-583v-496h-120v1082h120v-485h583v485h120zM1076 124v-479h-120v479h120z" />
    <glyph glyph-name="uni04A4" unicode="&#x4a4;" horiz-adv-x="2059" 
d="M305 1456v-684h827v684h847v-102h-727v-1354h-120v670h-827v-670h-120v1456h120z" />
    <glyph glyph-name="uni04A5" unicode="&#x4a5;" horiz-adv-x="1483" 
d="M278 1082v-485h583v485h549v-103h-429v-979h-120v496h-583v-496h-120v1082h120z" />
    <glyph glyph-name="uni04A6" unicode="&#x4a6;" horiz-adv-x="2060" 
d="M1253 1456v-597h206q236 0 380 -117q145 -115 145 -343q0 -132 -91 -265t-284 -169l-32 93q153 33 219 127q67 95 68 214q2 176 -110 264q-112 90 -295 90h-206v-753h-120v1354h-828v-1354h-120v1456h1068z" />
    <glyph glyph-name="uni04A7" unicode="&#x4a7;" horiz-adv-x="1774" 
d="M982 1082v-427h187q236 0 380 -117q145 -115 145 -343q0 -134 -91 -265q-90 -134 -283 -168l-32 91q152 35 218 129q66 92 68 213q2 175 -110 264q-112 90 -295 90h-187v-549h-120v979h-584v-979h-120v1082h824z" />
    <glyph glyph-name="uni04A8" unicode="&#x4a8;" horiz-adv-x="1378" 
d="M563 625v124q0 162 94 268t249 106t251 -106q97 -104 97 -268v-135q0 -274 -160 -455q-160 -180 -418 -180q-244 0 -399 176q-153 175 -153 442v262q0 264 152 440q154 176 395 172l5 -2l2 -97q-195 0 -315 -149q-119 -149 -119 -362v-264q0 -223 117 -369
q118 -145 315 -145q175 0 293 106q-186 25 -296 145q-110 121 -110 291zM1135 614v137q0 118 -62 192q-61 75 -167 75q-104 0 -164 -76q-59 -77 -59 -191v-128q0 -142 97 -236q99 -96 271 -100q84 136 84 327z" />
    <glyph glyph-name="uni04A9" unicode="&#x4a9;" 
d="M482 435v91q0 134 79 219q79 87 203 87t204 -93q80 -94 80 -234v-33q0 -213 -134 -353t-341 -140q-214 0 -348 146t-134 368v54q0 239 133 396t343 153l6 -3v-96q-154 0 -258 -128t-104 -320v-56q0 -180 97 -295t265 -115q84 0 153 32q-113 29 -179 114q-65 86 -65 206z
M929 472v36q0 90 -47 155q-46 64 -118 64q-75 0 -119 -56q-43 -55 -43 -143v-95q0 -102 61 -163q62 -62 167 -62v1l6 -1q43 40 68 110.5t25 153.5z" />
    <glyph glyph-name="uni04AA" unicode="&#x4aa;" horiz-adv-x="1313" 
d="M1184 144q-114 -155 -429 -164q99 -96 99 -203q0 -81 -52 -124q-51 -45 -130 -45q-91 0 -161 44l23 83q61 -32 114 -32q54 0 77 27q22 26 22 58q0 49 -28.5 92.5t-92.5 102.5q-161 18 -273.5 103.5t-166.5 218.5t-54 304v237q0 135 37.5 249t108 199.5t181.5 134
t251 48.5q144 0 249 -26t196 -86l-71 -92q-142 102 -374 102q-120 0 -209.5 -40.5t-142 -114t-79 -166t-28.5 -206.5v-239q0 -154 49.5 -271t154.5 -187.5t255 -70.5q140 0 236.5 28.5t175.5 111.5z" />
    <glyph glyph-name="uni04AB" unicode="&#x4ab;" horiz-adv-x="1054" 
d="M624 -21q99 -94 99 -202q0 -81 -52 -124q-51 -45 -130 -45q-91 0 -161 44l23 83q61 -32 114 -32q55 0 77 27q22 26 22 58q0 50 -30 95t-96 105q-190 34 -291.5 177.5t-101.5 354.5v42q0 243 135.5 391.5t365.5 148.5q222 0 338 -105l-52 -89q-106 92 -286 92
q-96 2 -170.5 -33t-119.5 -96.5t-67.5 -139.5t-23.5 -169v-42q-1 -119 44.5 -218.5t134 -160.5t203.5 -61q74 0 157 20.5t137 66.5l44 -87q-102 -95 -313 -101z" />
    <glyph glyph-name="uni04AC" unicode="&#x4ac;" horiz-adv-x="1224" 
d="M1176 1456v-102h-496v-1354h-119v1354h-513v102h1128zM776 124v-479h-120v479h120z" />
    <glyph glyph-name="uni04AD" unicode="&#x4ad;" horiz-adv-x="1037" 
d="M965 1082v-102h-394v-980h-120v980h-379v102h893zM668 124v-479h-120v479h120z" />
    <glyph glyph-name="uni04AE" unicode="&#x4ae;" horiz-adv-x="1256" 
d="M177 1456l448 -809l451 809h139l-531 -924v-532h-119v537l-527 919h139z" />
    <glyph glyph-name="uni04AF" unicode="&#x4af;" horiz-adv-x="1002" 
d="M545 271l294 811h124l-399 -1051v-447h-120v447l-400 1051h124l298 -811l36 -127h6z" />
    <glyph glyph-name="uni04B0" unicode="&#x4b0;" horiz-adv-x="1256" 
d="M177 1456l448 -809l451 809h139l-467 -811h174v-102h-232l-6 -11v-532h-119v537l-3 6h-252v102h193l-465 811h139z" />
    <glyph glyph-name="uni04B1" unicode="&#x4b1;" horiz-adv-x="1002" 
d="M811 99v-102h-247v-413h-120v413h-245v102h219l-374 983h124l298 -811l36 -127h6l37 127l294 811h124l-374 -983h222z" />
    <glyph glyph-name="uni04B2" unicode="&#x4b2;" horiz-adv-x="1256" 
d="M219 1456l409 -622l411 622h145l-484 -718l500 -738h-143l-427 642l-426 -642h-145l500 738l-485 718h145zM1215 124v-479h-120v479h120z" />
    <glyph glyph-name="uni04B3" unicode="&#x4b3;" horiz-adv-x="1002" 
d="M207 1082l291 -442l293 442h142l-367 -531l382 -551h-140l-308 461l-308 -461h-142l383 551l-367 531h141zM986 124v-479h-120v479h120z" />
    <glyph glyph-name="uni04B4" unicode="&#x4b4;" horiz-adv-x="1778" 
d="M438 0v1353h-403v102h403v1h120v-1h426v-102h-426v-1251h828v1354h120v-1456h-1068zM1626 128v-479h-120v479h120z" />
    <glyph glyph-name="uni04B5" unicode="&#x4b5;" horiz-adv-x="1361" 
d="M315 0v982h-286v102h708v-102h-302v-881h584v981h120v-981h90v-452h-119v351h-795z" />
    <glyph glyph-name="uni04B6" unicode="&#x4b6;" horiz-adv-x="1358" 
d="M1055 1456h120v-1456h-120v664q-201 -58 -399 -58q-244 0 -363.5 107t-119.5 340v403h120v-403q0 -186 89 -266q88 -79 274 -79q201 0 399 58v690zM1270 124v-479h-120v479h120z" />
    <glyph glyph-name="uni04B7" unicode="&#x4b7;" horiz-adv-x="1126" 
d="M967 1082v-1082h-120v455q-151 -54 -282 -54q-210 0 -312 93q-102 94 -102 314v274h120v-274q0 -170 69 -237q70 -67 225 -67q145 2 282 52v526h120zM1062 124v-479h-120v479h120z" />
    <glyph glyph-name="uni04B8" unicode="&#x4b8;" horiz-adv-x="1358" 
d="M750 1052v-691h-102v691h102zM1055 1456h120v-1456h-120v664q-201 -58 -399 -58q-244 0 -363.5 107t-119.5 340v403h120v-403q0 -186 89 -266q88 -79 274 -79q201 0 399 58v690z" />
    <glyph glyph-name="uni04B9" unicode="&#x4b9;" horiz-adv-x="1126" 
d="M644 797v-561h-103v561h103zM967 1082v-1082h-120v455q-151 -54 -282 -54q-210 0 -312 93q-102 94 -102 314v274h120v-274q0 -170 69 -237q70 -67 225 -67q145 2 282 52v526h120z" />
    <glyph glyph-name="uni04BA" unicode="&#x4ba;" horiz-adv-x="1358" 
d="M311 0h-120v1456h120v-664q208 58 399 58q243 0 363 -107t120 -340v-403h-120v403q0 183 -88 264t-275 81q-191 0 -399 -58v-690z" />
    <glyph glyph-name="uni04BB" unicode="&#x4bb;" horiz-adv-x="1126" 
d="M169 2v1082h120v-455q151 54 282 54q211 0 312 -94q102 -93 102 -313v-274h-120v274q0 170 -70 237q-68 67 -224 67q-145 -2 -282 -52v-526h-120z" />
    <glyph glyph-name="uni04BC" unicode="&#x4bc;" horiz-adv-x="1728" 
d="M1003 -23q-310 0 -482 184t-172 486v99q-149 15 -228.5 103.5t-75.5 233.5l2 5h95q0 -218 210 -247q23 282 189 457q167 177 405 177q272 0 425 -171q154 -170 154 -465v-95h-1056v-97q0 -253 133 -411q134 -158 401 -158q230 0 401 121l39 -89q-72 -58 -175 -95
q-105 -38 -265 -38zM946 1372q-202 0 -329 -151t-140 -379l2 -5h927v31q0 223 -118 363q-117 141 -342 141z" />
    <glyph glyph-name="uni04BD" unicode="&#x4bd;" horiz-adv-x="1208" 
d="M680 -21q-211 0 -341 148q-131 149 -131 382v52q-105 24 -160.5 100.5t-55.5 197.5h102q0 -157 120 -201q26 198 153 321t302 123q198 0 304 -127q108 -126 108 -340v-93h-753v-33q0 -185 93 -307q95 -122 259 -122q97 0 180.5 32t139.5 88l51 -82q-132 -139 -371 -139z
M669 1000q-139 0 -227 -99q-89 -100 -104 -251l3 -6h620v25q0 145 -76 237q-75 94 -216 94z" />
    <glyph glyph-name="uni04BE" unicode="&#x4be;" horiz-adv-x="1728" 
d="M1003 -23q-310 0 -482 184t-172 486v99q-149 15 -228.5 103.5t-75.5 233.5l2 5h95q0 -218 210 -247q23 282 189 457q167 177 405 177q272 0 425 -171q154 -170 154 -465v-95h-1056v-97q0 -253 133 -411q134 -158 401 -158q230 0 401 121l39 -89q-72 -58 -175 -95
q-105 -38 -265 -38zM946 1372q-202 0 -329 -151t-140 -379l2 -5h927v31q0 223 -118 363q-117 141 -342 141zM896 37l61 -37q-78 -65 -113 -112t-35 -100q0 -32 19 -58q20 -27 70 -27q51 0 105 32l24 -83q-70 -44 -152 -44q-77 0 -125.5 45t-48.5 124q0 71 51 139t144 121z
" />
    <glyph glyph-name="uni04BF" unicode="&#x4bf;" horiz-adv-x="1208" 
d="M680 -21q-211 0 -341 148q-131 149 -131 382v52q-105 24 -160.5 100.5t-55.5 197.5h102q0 -157 120 -201q26 198 153 321t302 123q198 0 304 -127q108 -126 108 -340v-93h-753v-33q0 -185 93 -307q95 -122 259 -122q97 0 180.5 32t139.5 88l51 -82q-132 -139 -371 -139z
M669 1000q-139 0 -227 -99q-89 -100 -104 -251l3 -6h620v25q0 145 -76 237q-75 94 -216 94zM636 37l61 -37q-78 -65 -113 -112t-35 -100q0 -32 19 -58q20 -27 70 -27q51 0 105 32l24 -83q-70 -44 -152 -44q-77 0 -125.5 45t-48.5 124q0 71 51 139t144 121z" />
    <glyph glyph-name="uni04C0" unicode="&#x4c0;" horiz-adv-x="554" 
d="M337 1456v-1456h-120v1456h120z" />
    <glyph glyph-name="uni04C1" unicode="&#x4c1;" horiz-adv-x="1648" 
d="M1469 0l-504 695h-80v-695h-119v695h-86l-501 -695h-152l546 752l-508 704h144l464 -659h93v659h119v-659h89l465 659h143l-508 -703l546 -753h-151zM1031 1854h94l2 -6q4 -111 -73 -182q-76 -70 -210 -70t-211 70q-77 71 -72 182l2 6h94q0 -80 46.5 -125.5t140.5 -45.5
q91 0 139 46.5t48 124.5z" />
    <glyph glyph-name="uni04C2" unicode="&#x4c2;" horiz-adv-x="1492" 
d="M1304 0l-409 500h-91v-500h-120v500h-89l-409 -500h-145l-3 5l456 555l-410 522h145l364 -475h91v475h120v-475h93l364 475h147l-412 -522l457 -555l-3 -5h-146zM923 1511h94l2 -6q4 -111 -73 -182q-76 -70 -210 -70t-211 70q-77 71 -72 182l2 6h94q0 -80 46.5 -125.5
t140.5 -45.5q91 0 139 46.5t48 124.5z" />
    <glyph glyph-name="uni04C3" unicode="&#x4c3;" horiz-adv-x="1256" 
d="M1167 1451l-543 -654l2 -5h19q239 0 381 -121q144 -121 144 -368q0 -142 -103 -284q-103 -141 -322 -182l-31 93q177 37 256 140q79 104 80 233q2 194 -109 288q-112 95 -296 95h-345v-686h-119v1456h119v-664h177l551 664h137z" />
    <glyph glyph-name="uni04C4" unicode="&#x4c4;" horiz-adv-x="1080" 
d="M990 1077l-430 -479q201 -20 319 -130q119 -110 119 -313q0 -131 -91 -259q-92 -129 -283 -165l-33 93q152 35 219 125t69 206q2 173 -109 257t-297 84h-190v-496h-121v1082h121v-480h134l427 480h144z" />
    <glyph glyph-name="uni04C5" unicode="&#x4c5;" horiz-adv-x="1433" 
d="M388 1456h862v-1456h-120v1354h-626l-19 -557q-13 -433 -100 -617q-85 -180 -303 -180h-41v101h37q150 0 211 148q62 147 76 548zM1353 157v-170l-106 -276h-82l69 279v167h119z" />
    <glyph glyph-name="uni04C6" unicode="&#x4c6;" horiz-adv-x="1127" 
d="M284 1082h698v-1082h-120v979h-459v-375q0 -319 -74 -462q-73 -142 -250 -142h-44l2 107l38 1q109 0 159 110q50 112 50 386v478zM1084 157v-170l-106 -276h-82l69 279v167h119z" />
    <glyph glyph-name="uni04C7" unicode="&#x4c7;" horiz-adv-x="1433" 
d="M183 1456h119v-684h828v684h120v-1545q0 -166 -80 -257t-224 -91q-50 0 -112 19l14 99q19 -6 45 -10q31 -6 53 -6q87 0 135.5 64.5t48.5 181.5v759h-828v-670h-119v1456z" />
    <glyph glyph-name="uni04C8" unicode="&#x4c8;" 
d="M158 1082h120v-485h583v485h120v-1171q0 -166 -80 -257t-224 -91q-50 0 -112 19l14 99q19 -6 45 -10q32 -6 53 -6q87 0 135.5 64.5t48.5 181.5v585h-583v-496h-120v1082z" />
    <glyph glyph-name="uni04C9" unicode="&#x4c9;" horiz-adv-x="1439" 
d="M1253 1456v-1456h-120v670h-827v-670h-120v1456h120v-684h827v684h120zM1356 157v-170l-106 -276h-82l69 279v167h119z" />
    <glyph glyph-name="uni04CA" unicode="&#x4ca;" 
d="M981 1082v-1082h-120v496h-583v-496h-120v1082h120v-485h583v485h120zM1083 157v-170l-106 -276h-82l69 279v167h119z" />
    <glyph glyph-name="uni04CB" unicode="&#x4cb;" horiz-adv-x="1358" 
d="M1055 1456h120v-1456h-120v664q-201 -58 -399 -58q-244 0 -363.5 107t-119.5 340v403h120v-403q0 -186 89 -266q88 -79 274 -79q201 0 399 58v690zM1078 124v-479h-120v479h120z" />
    <glyph glyph-name="uni04CC" unicode="&#x4cc;" horiz-adv-x="1126" 
d="M967 1082v-1082h-120v455q-151 -54 -282 -54q-210 0 -312 93q-102 94 -102 314v274h120v-274q0 -170 69 -237q70 -67 225 -67q145 2 282 52v526h120zM870 124v-479h-120v479h120z" />
    <glyph glyph-name="uni04CD" unicode="&#x4cd;" horiz-adv-x="1766" 
d="M346 1456l540 -1014h6l542 1014h146v-1456h-120v1251l-6 1l-522 -952h-86l-534 960l-6 -1v-1259h-120v1456h160zM1683 157v-170l-106 -276h-82l69 279v167h119z" />
    <glyph glyph-name="uni04CE" unicode="&#x4ce;" horiz-adv-x="1500" 
d="M325 1082l427 -666h6l426 666h148v-1082h-120v907l-6 1l-410 -632h-85l-417 629l-6 -1v-904h-120v1082h157zM1435 157v-170l-106 -276h-82l69 279v167h119z" />
    <glyph glyph-name="uni04CF" unicode="&#x4cf;" horiz-adv-x="554" 
d="M337 1456v-1456h-120v1456h120z" />
    <glyph glyph-name="uni04D0" unicode="&#x4d0;" horiz-adv-x="1256" 
d="M1093 0l-145 406h-639l-147 -406h-124l535 1456h113l531 -1456h-124zM627 1285l-280 -772h562l-276 772h-6zM815 1854h94l2 -6q4 -111 -73 -182q-76 -70 -210 -70t-211 70q-77 71 -72 182l2 6h94q0 -80 46.5 -125.5t140.5 -45.5q91 0 139 46.5t48 124.5z" />
    <glyph glyph-name="uni04D1" unicode="&#x4d1;" horiz-adv-x="1101" 
d="M940 218l1 -218h-95q-5 45 -11.5 87t-9.5 75q-58 -74 -169 -128.5t-224 -54.5q-154 0 -244 81.5t-90 231.5q0 69 26.5 125.5t70.5 94.5t103 63t124 35t133 8q79 -3 145.5 -18.5t93.5 -29.5l27 -14v196q0 116 -73.5 181.5t-207.5 65.5q-163 0 -353 -77l-25 101
q183 78 384 78q180 0 286 -90q108 -93 108 -261v-532zM821 250v213q-12 7 -35 17.5t-92.5 28t-139.5 17.5q-59 0 -116.5 -14t-107.5 -41.5t-81 -75t-31 -107.5q0 -96 63 -150t164 -54q100 0 202.5 48.5t173.5 117.5zM730 1533h94l2 -6q4 -111 -73 -182q-76 -70 -210 -70
t-211 70q-77 71 -72 182l2 6h94q0 -80 46.5 -125.5t140.5 -45.5q91 0 139 46.5t48 124.5z" />
    <glyph glyph-name="uni04D2" unicode="&#x4d2;" horiz-adv-x="1256" 
d="M1093 0l-145 406h-639l-147 -406h-124l535 1456h113l531 -1456h-124zM627 1285l-280 -772h562l-276 772h-6zM954 1798v-157h-173v157h173zM485 1798v-157h-174v157h174z" />
    <glyph glyph-name="uni04D3" unicode="&#x4d3;" horiz-adv-x="1101" 
d="M940 218l1 -218h-95q-5 45 -11.5 87t-9.5 75q-58 -74 -169 -128.5t-224 -54.5q-154 0 -244 81.5t-90 231.5q0 69 26.5 125.5t70.5 94.5t103 63t124 35t133 8q79 -3 145.5 -18.5t93.5 -29.5l27 -14v196q0 116 -73.5 181.5t-207.5 65.5q-163 0 -353 -77l-25 101
q183 78 384 78q180 0 286 -90q108 -93 108 -261v-532zM821 250v213q-12 7 -35 17.5t-92.5 28t-139.5 17.5q-59 0 -116.5 -14t-107.5 -41.5t-81 -75t-31 -107.5q0 -96 63 -150t164 -54q100 0 202.5 48.5t173.5 117.5zM869 1477v-157h-173v157h173zM400 1477v-157h-174v157
h174z" />
    <glyph glyph-name="uni04D4" unicode="&#x4d4;" horiz-adv-x="1900" 
d="M1839 101v-101h-817l-17 389h-597l-229 -389h-146l881 1456h864v-102h-694l23 -545h589v-102h-585l26 -606h702zM945 1298l-470 -796h526l-35 839l-6 1z" />
    <glyph glyph-name="uni04D5" unicode="&#x4d5;" horiz-adv-x="1796" 
d="M1676 538h-754v-30q0 -92 21 -168t63.5 -135.5t113 -92.5t163.5 -33q182 0 324 120l47 -87q-78 -70 -166.5 -101.5t-204.5 -31.5q-137 0 -240 55t-164 158q-64 -104 -177.5 -158.5t-251.5 -54.5q-161 0 -258 80t-97 233q0 149 114 233t325 84h262v110q0 134 -63 207
t-182 73q-81 0 -170.5 -23.5t-151.5 -76.5l-57 90q82 57 182 85t197 28q122 0 209.5 -54.5t126.5 -157.5q61 100 157 156t209 56q202 0 314 -128t109 -337v-99zM1253 999q-141 0 -224 -102.5t-99 -255.5l2 -6h625v32q1 148 -78.5 240t-225.5 92zM796 248v264h-260
q-83 2 -153.5 -19.5t-119 -74t-48.5 -129.5q0 -98 65.5 -154.5t186.5 -56.5q89 0 189 50t140 120z" />
    <glyph glyph-name="uni04D6" unicode="&#x4d6;" horiz-adv-x="1129" 
d="M959 807v-102h-653v-604h755v-101h-875v1456h870v-102h-750v-547h653zM806 1854h94l2 -6q4 -111 -73 -182q-76 -70 -210 -70t-211 70q-77 71 -72 182l2 6h94q0 -80 46.5 -125.5t140.5 -45.5q91 0 139 46.5t48 124.5z" />
    <glyph glyph-name="uni04D7" unicode="&#x4d7;" horiz-adv-x="1054" 
d="M569 -21q-211 0 -341 148q-131 149 -131 382v55q0 234 132 386q134 152 329 152q198 0 304 -127q108 -126 108 -340v-93h-753v-33q0 -185 93 -307q95 -122 259 -122q210 0 372 77l36 -96q-62 -38 -176 -60q-111 -22 -232 -22zM558 1000q-138 0 -227 -99
q-89 -100 -104 -251l3 -6h620v25q0 145 -76 237q-75 94 -216 94zM735 1533h94l2 -6q4 -111 -73 -182q-76 -70 -210 -70t-211 70q-77 71 -72 182l2 6h94q0 -80 46.5 -125.5t140.5 -45.5q91 0 139 46.5t48 124.5z" />
    <glyph glyph-name="uni04D8" unicode="&#x4d8;" horiz-adv-x="1442" 
d="M654 1477q319 0 498 -185t179 -486v-114q0 -313 -175 -513q-174 -200 -433 -200q-292 0 -456 170q-164 172 -164 465v95h1109v97q0 252 -140 410q-139 159 -418 159q-230 0 -400 -121l-39 89q72 56 174 95q103 39 265 39zM723 80q206 0 335 150q130 151 146 381l-2 5
h-979v-31q0 -224 126 -365q128 -140 374 -140z" />
    <glyph glyph-name="uni04D9" unicode="&#x4d9;" horiz-adv-x="1083" 
d="M554 1103q210 0 341 -149t131 -381v-55q0 -235 -133 -386q-132 -152 -328 -152q-197 0 -305 126q-107 128 -107 341v93h753v33q0 186 -94 307q-93 122 -258 122q-210 0 -372 -77l-36 96q59 36 175 59q118 23 233 23zM565 82q139 0 227 99q89 100 104 251l-3 6h-620v-25
q0 -143 75 -238q76 -93 217 -93z" />
    <glyph glyph-name="uni04DA" unicode="&#x4da;" horiz-adv-x="1442" 
d="M654 1477q319 0 498 -185t179 -486v-114q0 -313 -175 -513q-174 -200 -433 -200q-292 0 -456 170q-164 172 -164 465v95h1109v97q0 252 -140 410q-139 159 -418 159q-230 0 -400 -121l-39 89q72 56 174 95q103 39 265 39zM723 80q206 0 335 150q130 151 146 381l-2 5
h-979v-31q0 -224 126 -365q128 -140 374 -140zM989 1752v-157h-173v157h173zM520 1752v-157h-174v157h174z" />
    <glyph glyph-name="uni04DB" unicode="&#x4db;" horiz-adv-x="1083" 
d="M554 1103q210 0 341 -149t131 -381v-55q0 -235 -133 -386q-132 -152 -328 -152q-197 0 -305 126q-107 128 -107 341v93h753v33q0 186 -94 307q-93 122 -258 122q-210 0 -372 -77l-36 96q59 36 175 59q118 23 233 23zM565 82q139 0 227 99q89 100 104 251l-3 6h-620v-25
q0 -143 75 -238q76 -93 217 -93zM894 1476v-157h-173v157h173zM425 1476v-157h-174v157h174z" />
    <glyph glyph-name="uni04DC" unicode="&#x4dc;" horiz-adv-x="1648" 
d="M1469 0l-504 695h-80v-695h-119v695h-86l-501 -695h-152l546 752l-508 704h144l464 -659h93v659h119v-659h89l465 659h143l-508 -703l546 -753h-151zM1170 1798v-157h-173v157h173zM701 1798v-157h-174v157h174z" />
    <glyph glyph-name="uni04DD" unicode="&#x4dd;" horiz-adv-x="1492" 
d="M1304 0l-409 500h-91v-500h-120v500h-89l-409 -500h-145l-3 5l456 555l-410 522h145l364 -475h91v475h120v-475h93l364 475h147l-412 -522l457 -555l-3 -5h-146zM1062 1456v-157h-173v157h173zM593 1456v-157h-174v157h174z" />
    <glyph glyph-name="uni04DE" unicode="&#x4de;" horiz-adv-x="1352" 
d="M843 750q126 -40 193.5 -131.5t67.5 -223.5q0 -105 -37.5 -186t-104.5 -130.5t-154.5 -74.5t-192.5 -25q-104 0 -229.5 29t-191.5 80l51 94q75 -54 176 -78t194 -24q169 0 269.5 76.5t100.5 234.5q0 152 -90.5 228.5t-260.5 76.5h-134v102h134q143 -5 233 71.5t90 211.5
q0 144 -86 219t-237 75q-91 0 -183.5 -23.5t-143.5 -81.5l-45 94q60 54 164.5 83.5t207.5 29.5q203 0 323 -101.5t120 -298.5q0 -109 -64.5 -198.5t-169.5 -128.5zM1009 1819v-157h-173v157h173zM540 1819v-157h-174v157h174z" />
    <glyph glyph-name="uni04DF" unicode="&#x4df;" horiz-adv-x="1113" 
d="M705 554q96 -31 152 -99.5t56 -165.5q0 -103 -53 -175t-136 -103.5t-189 -31.5q-78 0 -171.5 21.5t-142.5 59.5l38 97q56 -40 132 -58t144 -18q125 0 188 46.5t63 158.5q0 110 -63.5 162t-173.5 52h-100v102h100q101 0 158.5 49.5t57.5 149.5q0 200 -216 200
q-68 0 -137 -17.5t-107 -60.5l-33 89q44 40 122.5 62t154.5 22q153 0 248.5 -76.5t95.5 -221.5q0 -80 -53.5 -147t-134.5 -97zM877 1475v-157h-173v157h173zM408 1475v-157h-174v157h174z" />
    <glyph glyph-name="uni04E0" unicode="&#x4e0;" horiz-adv-x="1179" 
d="M439 842l433 507l-2 5h-725v102h869l2 -93l-446 -527q227 -2 346 -115t119 -326q0 -194 -129 -305q-128 -111 -333 -111q-187 0 -323 108q-136 107 -131 311l2 6h113q0 -141 94 -232q95 -92 245 -92q161 0 252 84t91 227q0 179 -88.5 264t-267.5 85h-121v102z" />
    <glyph glyph-name="uni04E1" unicode="&#x4e1;" horiz-adv-x="1179" 
d="M438 468l424 506l-2 5h-715v103h869l2 -93l-439 -529q217 -7 338 -122q120 -114 120 -318q0 -192 -129 -303q-128 -112 -333 -112q-187 0 -323 109q-136 107 -131 309l2 6h113q0 -139 94 -230q95 -92 245 -92q161 0 252 84t91 225q0 349 -372 349h-106v103z" />
    <glyph glyph-name="uni04E2" unicode="&#x4e2;" horiz-adv-x="1444" 
d="M313 212l828 1244h119v-1456h-119v1245l-6 1l-828 -1246h-120v1456h120v-1243zM1064 1786v-97h-670v97h670z" />
    <glyph glyph-name="uni04E3" unicode="&#x4e3;" 
d="M284 199l578 883h120v-1082h-120v883l-6 2l-578 -885h-120v1082h120v-882zM900 1444v-97h-670v97h670z" />
    <glyph glyph-name="uni04E4" unicode="&#x4e4;" horiz-adv-x="1444" 
d="M313 212l828 1244h119v-1456h-119v1245l-6 1l-828 -1246h-120v1456h120v-1243zM1057 1798v-157h-173v157h173zM588 1798v-157h-174v157h174z" />
    <glyph glyph-name="uni04E5" unicode="&#x4e5;" 
d="M284 199l578 883h120v-1082h-120v883l-6 2l-578 -885h-120v1082h120v-882zM893 1456v-157h-173v157h173zM424 1456v-157h-174v157h174z" />
    <glyph glyph-name="uni04E6" unicode="&#x4e6;" horiz-adv-x="1378" 
d="M1254 846v-237q0 -327 -147 -479q-147 -151 -422 -151q-277 0 -419 151t-142 479v237q0 310 144 470.5t416 160.5q275 0 422.5 -161t147.5 -470zM1135 609v239q0 277 -120 400q-118 124 -331 124q-209 0 -324 -124q-116 -124 -116 -400v-239q0 -290 116 -409
q117 -117 325 -117q213 0 331 117q119 119 119 409zM1012 1819v-157h-173v157h173zM543 1819v-157h-174v157h174z" />
    <glyph glyph-name="uni04E7" unicode="&#x4e7;" 
d="M91 524v33q0 268 131 407q130 138 347 138t348 -137t131 -408v-33q0 -268 -131 -407q-131 -138 -346 -138q-219 0 -349 144q-131 145 -131 401zM211 557v-33q0 -213 95 -329q94 -115 265 -115q168 0 262 115q96 116 96 329v33q0 211 -96 327t-264 116q-169 0 -263 -118
q-95 -118 -95 -325zM908 1476v-157h-173v157h173zM439 1476v-157h-174v157h174z" />
    <glyph glyph-name="uni04E8" unicode="&#x4e8;" horiz-adv-x="1379" 
d="M1254 846v-237q0 -281 -155 -456q-155 -174 -414 -174q-256 0 -409 174q-152 175 -152 456v237q0 280 152 456q151 175 408 175q261 0 415 -175q155 -176 155 -456zM936 666q68 0 121.5 31t77.5 82v69q0 236 -120 380q-119 144 -331 144q-208 0 -324 -144
q-116 -145 -116 -380v-104q79 84 203 84q115 0 256 -81q142 -81 233 -81zM1135 609v33q-80 -75 -199 -75q-127 0 -262 81q-133 81 -227 81q-74 0 -128 -34.5t-75 -90.5q0 -236 116 -379q117 -142 325 -142q212 0 331 143q119 145 119 383z" />
    <glyph glyph-name="uni04E9" unicode="&#x4e9;" horiz-adv-x="1158" 
d="M91 524v33q0 238 131 392q130 153 347 153t348 -153q131 -154 131 -392v-33q0 -239 -131 -393q-131 -152 -346 -152q-218 0 -349 152q-131 154 -131 393zM752 510q60 0 111 30q51 32 63 78q-17 165 -110 273q-94 109 -247 109q-165 0 -260 -125q-94 -124 -90 -298l3 -5
q23 30 69 47.5t100 17.5q86 0 189 -64q105 -63 172 -63zM382 547q-60 0 -106.5 -25.5t-61.5 -66.5q16 -163 110 -270q93 -105 247 -105q159 0 252 116q94 115 97 285l-4 5q-25 -31 -71.5 -48.5t-101.5 -17.5q-93 0 -194 63q-98 64 -167 64z" />
    <glyph glyph-name="uni04EA" unicode="&#x4ea;" horiz-adv-x="1379" 
d="M1254 846v-237q0 -281 -155 -456q-155 -174 -414 -174q-256 0 -409 174q-152 175 -152 456v237q0 280 152 456q151 175 408 175q261 0 415 -175q155 -176 155 -456zM936 666q68 0 121.5 31t77.5 82v69q0 236 -120 380q-119 144 -331 144q-208 0 -324 -144
q-116 -145 -116 -380v-104q79 84 203 84q115 0 256 -81q142 -81 233 -81zM1135 609v33q-80 -75 -199 -75q-127 0 -262 81q-133 81 -227 81q-74 0 -128 -34.5t-75 -90.5q0 -236 116 -379q117 -142 325 -142q212 0 331 143q119 145 119 383zM1040 1793v-157h-173v157h173z
M571 1793v-157h-174v157h174z" />
    <glyph glyph-name="uni04EB" unicode="&#x4eb;" horiz-adv-x="1158" 
d="M91 524v33q0 238 131 392q130 153 347 153t348 -153q131 -154 131 -392v-33q0 -239 -131 -393q-131 -152 -346 -152q-218 0 -349 152q-131 154 -131 393zM752 510q60 0 111 30q51 32 63 78q-17 165 -110 273q-94 109 -247 109q-165 0 -260 -125q-94 -124 -90 -298l3 -5
q23 30 69 47.5t100 17.5q86 0 189 -64q105 -63 172 -63zM382 547q-60 0 -106.5 -25.5t-61.5 -66.5q16 -163 110 -270q93 -105 247 -105q159 0 252 116q94 115 97 285l-4 5q-25 -31 -71.5 -48.5t-101.5 -17.5q-93 0 -194 63q-98 64 -167 64zM885 1504v-157h-173v157h173z
M416 1504v-157h-174v157h174z" />
    <glyph glyph-name="uni04EC" unicode="&#x4ec;" horiz-adv-x="1352" 
d="M280 1001h-112l-2 6q-5 213 139 342t379 129q242 0 391 -177q150 -175 150 -454v-237q0 -280 -150 -455q-148 -175 -391 -175q-239 0 -381 124q-141 124 -137 344l2 6h112q0 -177 107 -275t297 -98t306 147q116 148 116 380v97h-579v102h579v40q0 232 -116 381
q-115 148 -306 148t-297 -97q-107 -96 -107 -278zM1018 1820v-157h-173v157h173zM549 1820v-157h-174v157h174z" />
    <glyph glyph-name="uni04ED" unicode="&#x4ed;" horiz-adv-x="1095" 
d="M517 1000q-115 0 -203 -68q-87 -68 -87 -188h-108l-2 6q-5 150 116 250q121 102 284 102q213 0 337 -153q125 -154 125 -387v-42q0 -234 -125 -388q-124 -153 -336 -153q-174 0 -290 104q-115 105 -111 277l2 6h108q0 -132 83 -209q85 -77 208 -77q161 0 246 118
q87 119 90 293l-3 5h-482v101h482l2 5q-4 169 -92 284q-85 114 -244 114zM873 1476v-157h-173v157h173zM404 1476v-157h-174v157h174z" />
    <glyph glyph-name="uni04EE" unicode="&#x4ee;" horiz-adv-x="1324" 
d="M191 1456l402 -796l64 -147h6l440 943h141l-583 -1208q-57 -118 -139 -194q-81 -75 -227 -75q-60 0 -119 13q-64 14 -90 32l19 95q32 -16 85 -28q55 -11 97 -11q89 0 150.5 50t108.5 145l53 107l-546 1074h138zM979 1786v-97h-670v97h670z" />
    <glyph glyph-name="uni04EF" unicode="&#x4ef;" horiz-adv-x="1002" 
d="M168 1082l297 -789l38 -129h6l327 918h134l-470 -1255q-43 -112 -109 -187q-68 -77 -196 -77q-18 0 -51 5q-31 5 -44 9l14 100q27 -3 38 -4q27 -3 39 -3q78 0 125 56q48 57 80 142l57 146l-418 1068h133zM847 1444v-97h-670v97h670z" />
    <glyph glyph-name="uni04F0" unicode="&#x4f0;" horiz-adv-x="1324" 
d="M191 1456l402 -796l64 -147h6l440 943h141l-583 -1208q-57 -118 -139 -194q-81 -75 -227 -75q-60 0 -119 13q-64 14 -90 32l19 95q32 -16 85 -28q55 -11 97 -11q89 0 150.5 50t108.5 145l53 107l-546 1074h138zM972 1798v-157h-173v157h173zM503 1798v-157h-174v157h174z
" />
    <glyph glyph-name="uni04F1" unicode="&#x4f1;" horiz-adv-x="1002" 
d="M168 1082l297 -789l38 -129h6l327 918h134l-470 -1255q-43 -112 -109 -187q-68 -77 -196 -77q-18 0 -51 5q-31 5 -44 9l14 100q27 -3 38 -4q27 -3 39 -3q78 0 125 56q48 57 80 142l57 146l-418 1068h133zM840 1456v-157h-173v157h173zM371 1456v-157h-174v157h174z" />
    <glyph glyph-name="uni04F2" unicode="&#x4f2;" horiz-adv-x="1324" 
d="M191 1456l402 -796l64 -147h6l440 943h141l-583 -1208q-57 -118 -139 -194q-81 -75 -227 -75q-60 0 -119 13q-64 14 -90 32l19 95q32 -16 85 -28q55 -11 97 -11q89 0 150.5 50t108.5 145l53 107l-546 1074h138zM689 1607l264 260h145l2 -6l-296 -260h-113zM444 1606
l214 261h133l3 -6l-245 -260h-102z" />
    <glyph glyph-name="uni04F3" unicode="&#x4f3;" horiz-adv-x="1002" 
d="M168 1082l297 -789l38 -129h6l327 918h134l-470 -1255q-43 -112 -109 -187q-68 -77 -196 -77q-18 0 -51 5q-31 5 -44 9l14 100q27 -3 38 -4q27 -3 39 -3q78 0 125 56q48 57 80 142l57 146l-418 1068h133zM557 1264l264 260h145l2 -6l-296 -260h-113zM312 1263l214 261
h133l3 -6l-245 -260h-102z" />
    <glyph glyph-name="uni04F4" unicode="&#x4f4;" horiz-adv-x="1358" 
d="M1055 1456h120v-1456h-120v664q-201 -58 -399 -58q-244 0 -363.5 107t-119.5 340v403h120v-403q0 -186 89 -266q88 -79 274 -79q201 0 399 58v690zM1014 1798v-157h-173v157h173zM545 1798v-157h-174v157h174z" />
    <glyph glyph-name="uni04F5" unicode="&#x4f5;" horiz-adv-x="1126" 
d="M967 1082v-1082h-120v455q-151 -54 -282 -54q-210 0 -312 93q-102 94 -102 314v274h120v-274q0 -170 69 -237q70 -67 225 -67q145 2 282 52v526h120zM878 1456v-157h-173v157h173zM409 1456v-157h-174v157h174z" />
    </font>
</defs>
</svg>
