<?xml version="1.0" standalone="no"?>
<!DOCTYPE svg PUBLIC "-//W3C//DTD SVG 1.1//EN" "http://www.w3.org/Graphics/SVG/1.1/DTD/svg11.dtd" >
<svg>
<metadata>
Created by FontForge 20090622 at Sun Jun 28 11:54:50 2015
 By deploy user
Copyright (c) 2014 by Jan-Christian Bruun, JC Design. All rights reserved.
</metadata>
<defs>
<font id="Centuma-Thin" horiz-adv-x="1121" >
  <font-face 
    font-family="Centuma"
    font-weight="100"
    font-stretch="normal"
    units-per-em="2048"
    panose-1="2 0 0 0 0 0 0 0 0 0"
    ascent="1536"
    descent="-512"
    x-height="1082"
    cap-height="1456"
    bbox="-963 -491 2308 2096"
    underline-thickness="100"
    underline-position="-100"
    unicode-range="U+0009-U+FEFF"
  />
<missing-glyph horiz-adv-x="490" 
 />
    <glyph glyph-name="fi" unicode="fi" horiz-adv-x="1067" 
d="M308 0h-54v1027h-188v55h188v158q0 162 85 251.5t238 89.5q144 0 268 -57l-8 -52q-65 28 -122 42q-53 13 -137 13q-126 0 -198 -76t-72 -211v-158h286v-55h-286v-1027zM884 1082v-1082h-54v1082h54z" />
    <glyph glyph-name=".notdef" horiz-adv-x="490" 
 />
    <glyph glyph-name=".null" horiz-adv-x="0" 
 />
    <glyph glyph-name="nonmarkingreturn" horiz-adv-x="682" 
 />
    <glyph glyph-name="uni0002" horiz-adv-x="0" 
 />
    <glyph glyph-name="uni0002" horiz-adv-x="0" 
 />
    <glyph glyph-name="uni0009" unicode="&#x9;" horiz-adv-x="0" 
 />
    <glyph glyph-name="CR" unicode="&#xd;" horiz-adv-x="490" 
 />
    <glyph glyph-name="space" unicode=" " horiz-adv-x="490" 
 />
    <glyph glyph-name="exclam" unicode="!" horiz-adv-x="397" 
d="M221 1456v-978h-54v978h54zM242 134v-134h-95v134h95z" />
    <glyph glyph-name="quotedbl" unicode="&#x22;" horiz-adv-x="610" 
d="M256 1456v-167l-50 -271h-50l45 268v170h55zM437 1456v-167l-50 -271h-50l46 268v170h54z" />
    <glyph glyph-name="numbersign" unicode="#" horiz-adv-x="1265" 
d="M681 0l75 410h-364l-74 -410h-56l74 410h-271v52h281l95 524h-300v54h310l75 416h56l-76 -416h365l76 416h56l-76 -416h254v-54h-264l-96 -524h285v-52h-294l-75 -410h-56zM496 986l-94 -524h363l96 524h-365z" />
    <glyph glyph-name="dollar" unicode="$" 
d="M1071 346q0 -71 -28.5 -131.5t-75.5 -102t-110 -71t-130.5 -44t-137.5 -16.5v-189h-55v189q-337 5 -492 139l40 37q113 -73 221.5 -98t264.5 -25q78 0 154.5 18.5t143 54.5t108 97.5t41.5 139.5q0 62 -24 112t-58.5 82t-95 62.5t-109.5 48t-127 42.5l-38 12
q-189 61 -254 92q-156 74 -202 190q-22 56 -23 126q-1 71 23.5 130.5t66.5 100.5t99 70.5t119.5 45t130.5 19.5v186h56v-185q129 -1 245 -43t188 -105l-24 -48q-64 61 -181 101.5t-240 40.5q-83 0 -157 -17.5t-136.5 -53t-99 -97.5t-36.5 -143q0 -150 124 -232
q73 -49 254 -106q12 -4 37 -11l28 -9l82.5 -26.5t78.5 -27t77 -31t67.5 -34.5t62.5 -41t49.5 -47.5t40 -57t23 -66.5t9.5 -78z" />
    <glyph glyph-name="percent" unicode="%" horiz-adv-x="1527" 
d="M114 1099v77q0 127 76 213q76 88 196 88q119 0 195 -88q76 -86 76 -213v-77q0 -127 -76 -213q-75 -86 -193 -86q-121 0 -198 86q-76 86 -76 213zM169 1176v-77q0 -99 56 -172q57 -72 163 -72q102 0 158 72q56 73 56 172v77q0 100 -57 173q-55 73 -159 73q-103 0 -160 -74
t-57 -172zM870 279v78q0 125 75 212q76 88 196 88q119 0 196 -87q76 -86 76 -213v-78q0 -127 -76 -213q-75 -87 -194 -87q-121 0 -197 87q-76 86 -76 213zM925 357v-78q0 -100 56 -173q55 -72 162 -72q103 0 159 72q56 73 56 173v78q0 105 -56 175q-55 70 -161 70
q-103 0 -160 -70q-56 -71 -56 -175zM1173 1269l-711 -1138l-45 31l711 1138z" />
    <glyph glyph-name="ampersand" unicode="&#x26;" horiz-adv-x="1247" 
d="M970 772l178 8v-62h-123v-637q-66 -48 -179.5 -75t-216.5 -27q-95 0 -186 28t-164.5 79t-118.5 129.5t-45 171.5q0 138 78.5 230.5t221.5 127.5q-117 35 -192.5 128t-75.5 210q0 93 42.5 169.5t112.5 124.5t156.5 74t179.5 26q100 0 203.5 -28t168.5 -81l-40 -42
q-56 46 -150.5 72.5t-181.5 26.5q-83 0 -160 -22.5t-139.5 -64t-100 -107t-37.5 -144.5q0 -92 53.5 -165t138 -111.5t179.5 -38.5v-57q-85 0 -156 -19t-127.5 -58t-88 -104t-31.5 -151q0 -109 68.5 -191t171.5 -121t220 -40q95 3 193.5 23.5t147.5 55.5v662z" />
    <glyph glyph-name="quotesingle" unicode="'" horiz-adv-x="406" 
d="M256 1456v-169l-50 -269h-50l45 267v171h55z" />
    <glyph glyph-name="parenleft" unicode="(" horiz-adv-x="607" 
d="M148 566v20q0 338 120 632q121 294 291 398h6l16 -36q-153 -101 -266 -388q-113 -288 -113 -602v-26q0 -315 113 -603q113 -287 266 -388l-16 -36h-6q-172 105 -292 391q-119 286 -119 638z" />
    <glyph glyph-name="parenright" unicode=")" horiz-adv-x="623" 
d="M461 586v-20q0 -353 -120 -638q-120 -286 -291 -391h-6l-16 36q152 101 265 388q114 287 114 603v26q0 316 -114 602q-113 287 -265 388l16 36h6q169 -103 290 -398q121 -293 121 -632z" />
    <glyph glyph-name="asterisk" unicode="*" horiz-adv-x="856" 
d="M209 451l184 264l-303 84l18 54l302 -93l-7 324l56 -2l1 -325l292 105l20 -53l-300 -97l189 -257l-47 -33l-182 262l-178 -265z" />
    <glyph glyph-name="plus" unicode="+" horiz-adv-x="1151" 
d="M590 1206v-504h481v-53h-481v-503h-55v503h-462v53h462v504h55z" />
    <glyph glyph-name="comma" unicode="," horiz-adv-x="383" 
d="M235 159v-167l-70 -250h-51l67 246v171h54z" />
    <glyph glyph-name="hyphen" unicode="-" horiz-adv-x="807" 
d="M689 653v-54h-590v54h590z" />
    <glyph glyph-name="period" unicode="." horiz-adv-x="439" 
d="M259 130v-130h-86v130h86z" />
    <glyph glyph-name="slash" unicode="/" horiz-adv-x="782" 
d="M709 1456l-608 -1581h-59l608 1581h59z" />
    <glyph glyph-name="zero" unicode="0" 
d="M1004 942v-428q0 -250 -116 -393q-115 -142 -326 -142q-209 0 -327 142t-118 393v428q0 249 116 392q117 143 327 143q209 0 326 -143q118 -142 118 -392zM950 516v426q0 219 -101 350t-289 131t-289 -131q-100 -130 -100 -350v-426q0 -216 101 -350q102 -133 290 -133
q186 0 287 132q101 134 101 351z" />
    <glyph glyph-name="one" unicode="1" horiz-adv-x="742" 
d="M499 1466v-1466h-54v1400l-368 -64v58z" />
    <glyph glyph-name="two" unicode="2" 
d="M234 54h793v-54h-871v54l497 572q134 155 187 257q54 104 54 203q0 163 -86.5 251t-248.5 88q-288 0 -381 -167l-27 58q68 89 168 125t240 36q184 0 287 -100.5t103 -290.5q0 -122 -79 -247q-78 -126 -221 -293l-417 -487z" />
    <glyph glyph-name="three" unicode="3" 
d="M672 745q146 -27 222.5 -121.5t76.5 -237.5q0 -193 -114 -300t-320 -107q-246 0 -386 101l26 53q133 -104 360 -104q174 2 277.5 94t103.5 259q0 73 -22 130t-60 95t-92.5 63t-116.5 35.5t-134 10.5h-82v53h82q169 0 281 85t112 232q0 159 -95.5 249t-262.5 90
q-88 0 -174 -25.5t-147 -78.5l-26 46q58 52 155 81t192 29q198 0 305 -104.5t107 -290.5q0 -118 -74.5 -211.5t-193.5 -125.5z" />
    <glyph glyph-name="four" unicode="4" horiz-adv-x="1087" 
d="M798 770h41v-770h-55v397h-706v30l695 1029h59l-670 -1006h622z" />
    <glyph glyph-name="five" unicode="5" 
d="M620 916q187 0 293.5 -129t106.5 -323q0 -90 -13.5 -162.5t-45 -133.5t-80.5 -102t-122.5 -64t-168.5 -23q-265 0 -412 147l35 45q139 -138 377 -138q190 0 282.5 106.5t92.5 322.5q0 108 -37.5 197.5t-117 147t-189.5 57.5q-113 0 -204 -22t-181 -76l-39 25l78 665h690
v-53h-641l-70 -570q65 36 161 59.5t205 23.5z" />
    <glyph glyph-name="six" unicode="6" 
d="M603 1423q-175 0 -277 -113q-103 -113 -110 -312v-238q68 42 173 80q108 40 223 40q214 0 321 -120q107 -119 107 -292q0 -206 -123 -348q-121 -141 -313 -141q-196 0 -319 133q-123 134 -123 381v503q0 225 121 352q121 129 320 129q116 0 194 -21q76 -19 151 -53
l-19 -55q-95 44 -161 59q-65 16 -165 16zM612 827q-127 0 -238 -46q-108 -45 -158 -72v-215q7 -229 112 -346q105 -115 272 -115q168 0 273 122q105 123 105 313q0 139 -86 249t-280 110z" />
    <glyph glyph-name="seven" unicode="7" 
d="M1017 1456v-54q-220 -247 -365 -561q-146 -316 -146 -710v-131h-54v131q0 361 134 683q134 321 366 588h-865v54h930z" />
    <glyph glyph-name="eight" unicode="8" 
d="M768 735q120 -47 189 -129t69 -217q0 -95 -35.5 -173.5t-97.5 -129.5t-144 -79t-176 -28q-98 0 -183 26.5t-150.5 76t-103.5 129t-38 178.5q0 201 245 394q-96 45 -150 125t-54 188q0 174 121.5 277.5t310.5 103.5q180 0 296.5 -102t116.5 -279q0 -67 -40 -144
t-86 -129.5t-90 -87.5zM193 1101q0 -63 18 -112.5t53.5 -82.5t76 -57t97 -40t104.5 -25.5t110 -20.5q44 -7 65 -11h1q82 67 147 162t65 187q0 141 -105.5 231.5t-253.5 90.5q-75 0 -141 -20t-118.5 -59t-84.5 -101.5t-34 -141.5zM573 33q104 0 193 39.5t147 121t58 190.5
q0 158 -117 243q-65 48 -138 69t-166.5 35t-156.5 34q-56 -40 -107.5 -94.5t-92.5 -133.5t-41 -153q0 -84 35 -152t94 -111t134 -65.5t158 -22.5z" />
    <glyph glyph-name="nine" unicode="9" 
d="M532 33q175 0 277 113q103 113 110 312v244q-65 -40 -174 -81q-109 -39 -222 -39q-204 0 -317 125q-111 125 -111 281q0 205 122 347q123 142 314 142q196 0 319 -133q123 -134 123 -381v-503q0 -225 -121 -353q-122 -128 -320 -128q-116 0 -195 21q-72 18 -186 67l19 55
q124 -56 197 -74q67 -15 165 -15zM523 635q127 0 238 46q108 45 158 72v209q-7 229 -113 345q-104 116 -271 116q-168 0 -273 -123q-105 -122 -105 -312q0 -139 91 -246q92 -107 275 -107z" />
    <glyph glyph-name="colon" unicode=":" horiz-adv-x="364" 
d="M232 130v-130h-86v130h86zM232 1079v-130h-86v130h86z" />
    <glyph glyph-name="semicolon" unicode=";" horiz-adv-x="364" 
d="M239 1082v-130h-86v130h86zM236 159v-167l-70 -250h-51l67 246v171h54z" />
    <glyph glyph-name="less" unicode="&#x3c;" horiz-adv-x="1053" 
d="M919 885l-661 -308l-119 -37v-6l119 -36l661 -303v-59l-837 379v50l837 378v-58z" />
    <glyph glyph-name="equal" unicode="=" horiz-adv-x="1142" 
d="M981 897v-54h-834v54h834zM981 490v-54h-834v54h834z" />
    <glyph glyph-name="greater" unicode="&#x3e;" horiz-adv-x="1053" 
d="M774 582l-660 304v58l836 -378v-50l-836 -379v59l660 307l118 36v6z" />
    <glyph glyph-name="question" unicode="?" horiz-adv-x="893" 
d="M473 0v106h-82v-106h82zM448 1477q160 0 256.5 -97.5t96.5 -269.5q0 -135 -63 -239t-190 -221q-61 -53 -79 -104t-20 -146h-54q1 77 8.5 117.5t33.5 81.5t83 93q48 46 75 74t60.5 70.5t50.5 79.5t29 88t12 108q0 147 -78.5 229.5t-220.5 82.5q-202 0 -317 -126l-34 45
q62 57 151.5 95.5t199.5 38.5z" />
    <glyph glyph-name="at" unicode="@" horiz-adv-x="1902" 
d="M1767 523q-10 -218 -114 -382q-103 -162 -296 -162q-83 0 -135 61t-61 169q-110 -230 -332 -230q-135 0 -203 119q-68 118 -48 318q22 249 144 401q121 151 293 151q83 0 135 -28q53 -27 115 -82l-49 -565q-11 -152 36 -206q48 -53 108 -53q158 0 248 134q92 135 102 355
q20 396 -154 613q-174 218 -559 218q-335 0 -565 -240q-229 -239 -248 -636q-20 -383 174 -629q195 -247 552 -247q89 0 177 22q93 23 153 58l24 -46q-60 -40 -164 -64q-100 -25 -194 -25q-380 0 -588 250q-208 249 -189 681q18 426 255 680q238 253 617 253q401 0 592 -234
t174 -654zM632 416q-19 -165 31 -275q51 -108 164 -108q109 0 194 66q85 67 144 246l42 486q-71 82 -195 82q-142 0 -248 -127q-107 -126 -132 -370z" />
    <glyph glyph-name="A" unicode="A" horiz-adv-x="1223" 
d="M1130 0l-163 435h-711l-163 -435h-59l544 1456h66l545 -1456h-59zM581 1304l-305 -815h671l-305 815l-28 85h-6z" />
    <glyph glyph-name="B" unicode="B" horiz-adv-x="1230" 
d="M685 0h-485v1456h383q229 0 352.5 -94.5t123.5 -278.5q0 -123 -60 -208.5t-168 -114.5l-1 -6q128 -16 217 -119q88 -100 88 -234q0 -191 -124 -296q-123 -105 -326 -105zM685 719h-431v-665h431q184 0 290 91t106 254q0 143 -107 232q-106 88 -289 88zM254 1402v-629h368
q382 6 382 314q0 156 -106.5 235.5t-314.5 79.5h-329z" />
    <glyph glyph-name="C" unicode="C" horiz-adv-x="1269" 
d="M1133 119l27 -42q-65 -48 -187.5 -73t-261.5 -25q-140 0 -251.5 49t-182 136t-107.5 203t-36 252v218q0 143 34.5 258.5t103.5 201.5t180.5 133t258.5 47q118 0 248.5 -27t199.5 -75l-24 -42q-78 45 -196.5 71t-227.5 26q-247 0 -385 -150.5t-138 -440.5v-220
q0 -124 33 -230t97 -186.5t164.5 -127t228.5 -48.5q256 0 422 92z" />
    <glyph glyph-name="D" unicode="D" horiz-adv-x="1370" 
d="M633 0h-433v1456h433q271 0 435 -163q166 -162 166 -476v-178q0 -313 -156 -476q-154 -163 -445 -163zM633 1402h-379v-1348h379q267 0 406.5 151t139.5 434v181q2 284 -154 433q-155 149 -392 149z" />
    <glyph glyph-name="E" unicode="E" horiz-adv-x="1129" 
d="M954 786v-54h-700v-678h765v-54h-819v1456h819v-54h-765v-616h700z" />
    <glyph glyph-name="F" unicode="F" horiz-adv-x="1127" 
d="M970 772v-56h-716v-716h-54v1456h872v-54h-818v-630h716z" />
    <glyph glyph-name="G" unicode="G" horiz-adv-x="1429" 
d="M727 690h499v-494q-74 -107 -207.5 -162t-289.5 -55q-171 0 -302 88t-197.5 233.5t-61.5 319.5v238q-5 168 60 308.5t192.5 225.5t291.5 85q259 0 469 -166l-33 -41q-85 69 -187 113t-249 44q-150 0 -264.5 -78.5t-172 -207t-53.5 -281.5v-240q-3 -119 31 -225.5t98 -187
t162 -127.5t216 -47q315 0 443 188v414h-445v55z" />
    <glyph glyph-name="H" unicode="H" horiz-adv-x="1438" 
d="M1238 1456v-1456h-54v695h-930v-695h-54v1456h54v-707h930v707h54z" />
    <glyph glyph-name="I" unicode="I" horiz-adv-x="534" 
d="M294 1456v-1456h-54v1456h54z" />
    <glyph glyph-name="J" unicode="J" horiz-adv-x="1122" 
d="M873 1456h54v-1034q0 -194 -112 -318.5t-296 -124.5q-112 0 -218.5 25.5t-167.5 74.5l19 59q63 -53 164 -79t203 -26q158 0 256 110.5t98 278.5v1034z" />
    <glyph glyph-name="K" unicode="K" horiz-adv-x="1227" 
d="M1126 0l-689 721l-183 7v-728h-54v1456h54v-689l198 7l598 682h62v-8l-617 -708l694 -731v-9h-63z" />
    <glyph glyph-name="L" unicode="L" horiz-adv-x="1130" 
d="M255 1456v-1402h787v-54h-842v1456h55z" />
    <glyph glyph-name="M" unicode="M" horiz-adv-x="1756" 
d="M272 1456l608 -1080h8l607 1080h61v-1456h-54v1345l-6 1l-588 -1046h-47l-601 1053l-6 -1v-1352h-54v1456h72z" />
    <glyph glyph-name="N" unicode="N" horiz-adv-x="1449" 
d="M1249 1456v-1456h-54l-934 1356l-6 -2v-1354h-55v1456h55l934 -1353l6 2v1351h54z" />
    <glyph glyph-name="O" unicode="O" horiz-adv-x="1364" 
d="M1231 837v-218q0 -344 -146 -493q-145 -147 -402 -147t-404 147q-146 149 -146 493v218q0 359 156 499q156 141 392 141q243 0 397 -140q153 -139 153 -500zM1177 619v220q0 317 -129 450q-129 134 -367 137q-238 -3 -365 -139q-128 -136 -128 -448v-220q0 -314 128 -451
q129 -135 367 -139q239 5 366 138q128 134 128 452z" />
    <glyph glyph-name="P" unicode="P" horiz-adv-x="1230" 
d="M655 625h-401v-625h-54v1456h455q227 0 348 -114q122 -113 122 -301q0 -190 -122 -303t-348 -113zM254 1402v-723h401q208 0 311 103q105 104 105 257q0 158 -104 260q-103 103 -312 103h-401z" />
    <glyph glyph-name="Q" unicode="Q" horiz-adv-x="1364" 
d="M1231 837v-218q0 -305 -154 -477l246 -240l-39 -35l-246 236q-142 -124 -355 -124q-257 0 -404 172q-146 173 -146 468v218q0 295 145 467q146 173 403 173q256 0 403 -173q147 -172 147 -467zM1177 619v220q0 269 -129 426q-129 158 -367 158q-237 0 -365 -158
t-128 -426v-220q0 -270 128 -428q129 -158 367 -158q239 0 366 157q128 158 128 429z" />
    <glyph glyph-name="R" unicode="R" horiz-adv-x="1257" 
d="M1121 1041q0 -150 -80.5 -254.5t-231.5 -143.5l297 -626v-17h-58l-297 631q-43 -4 -104 -4h-397v-627h-54v1456h455q212 0 341 -108.5t129 -306.5zM250 679h399q198 0 308 94t110 266q0 173 -113 268.5t-303 95.5h-401v-724z" />
    <glyph glyph-name="S" unicode="S" horiz-adv-x="1223" 
d="M625 754l83 -26.5t78.5 -27t77 -31t67.5 -34.5t62 -41t49.5 -47.5t40 -57t23 -66.5t9.5 -78q0 -91 -45 -163.5t-119 -115.5t-160.5 -65t-177.5 -22q-365 0 -526 140l40 37q113 -73 221.5 -98t264.5 -25q78 0 154.5 18.5t143 54.5t108 97.5t41.5 139.5q0 62 -24 112
t-58.5 82t-95 62.5t-109.5 48t-127 42.5l-38 12q-189 61 -254 92q-156 74 -202 190q-22 56 -23 126q-1 76 27 138t74.5 104t109.5 70.5t131.5 41.5t140.5 13q133 0 252 -42t193 -106l-25 -48q-64 61 -180.5 101.5t-239.5 40.5q-83 0 -157 -17.5t-136.5 -53t-99 -97.5
t-36.5 -143q0 -46 12 -85t29 -67.5t50.5 -55t62 -43.5t78.5 -36.5t85 -31l96 -30.5z" />
    <glyph glyph-name="T" unicode="T" horiz-adv-x="1224" 
d="M1167 1456v-54h-510v-1402h-54v1402h-546v54h1110z" />
    <glyph glyph-name="U" unicode="U" horiz-adv-x="1365" 
d="M1126 1456h54v-967q0 -240 -139 -375t-358 -135t-359 135q-139 136 -139 375v967h54v-967q0 -207 125 -332q125 -124 319 -124q193 0 317 124q126 125 126 332v967z" />
    <glyph glyph-name="V" unicode="V" horiz-adv-x="1223" 
d="M94 1456l489 -1314l26 -79h6l26 79l489 1314h59l-544 -1456h-66l-544 1456h59z" />
    <glyph glyph-name="W" unicode="W" horiz-adv-x="1855" 
d="M121 1456l302 -1116l63 -242h6l407 1056h60l404 -1055h6l65 241l300 1116h59l-392 -1456h-59l-411 1082h-6l-412 -1082h-59l-393 1456h60z" />
    <glyph glyph-name="X" unicode="X" horiz-adv-x="1223" 
d="M141 1456l469 -671l471 671h67l-503 -713l524 -743h-67l-492 701l-491 -701h-66l524 743l-504 713h68z" />
    <glyph glyph-name="Y" unicode="Y" horiz-adv-x="1223" 
d="M102 1456l481 -809l26 -50l27 50l483 809h66l-547 -903v-553h-55v553l-547 903h66z" />
    <glyph glyph-name="Z" unicode="Z" horiz-adv-x="1224" 
d="M1098 1418l-930 -1364h962v-54h-1036v44l929 1359h-889v53h964v-38z" />
    <glyph glyph-name="bracketleft" unicode="[" horiz-adv-x="439" 
d="M464 1664v-54h-229v-1868h229v-54h-283v1976h283z" />
    <glyph glyph-name="backslash" unicode="\" horiz-adv-x="774" 
d="M665 -125l-608 1581h58l608 -1581h-58z" />
    <glyph glyph-name="bracketright" unicode="]" horiz-adv-x="439" 
d="M-8 1610v54h283v-1976h-283v54h228v1868h-228z" />
    <glyph glyph-name="asciicircum" unicode="^" horiz-adv-x="849" 
d="M369 1272l-219 -543h-59l299 727h52l299 -727h-61l-222 543l-40 114h-6z" />
    <glyph glyph-name="underscore" unicode="_" horiz-adv-x="845" 
d="M845 0v-54h-846v54h846z" />
    <glyph glyph-name="grave" unicode="`" horiz-adv-x="537" 
d="M194 1518l220 -261l-2 -5h-75l-234 261l2 5h89z" />
    <glyph glyph-name="a" unicode="a" horiz-adv-x="1081" 
d="M520 1102q109 0 193 -36t136 -114.5t55 -191.5l-1 -760h-42l-9 178q-76 -97 -189.5 -148t-248.5 -51q-147 0 -235 81t-88 224q0 79 41.5 142.5t108.5 101t144 57t156 19.5q97 0 174 -13t106 -25l29 -13v209q0 135 -86.5 210.5t-243.5 75.5q-203 0 -354 -83l-21 53
q170 84 375 84zM850 234v269q-10 6 -31 14t-100 22t-175 14q-67 0 -134.5 -17t-128 -48.5t-98.5 -86t-38 -121.5q0 -114 75.5 -181t193.5 -67q280 0 436 202z" />
    <glyph glyph-name="b" unicode="b" 
d="M999 542v-21q0 -251 -108 -396q-108 -146 -298 -146q-122 0 -218 49t-153 131l-5 -159h-45v1560h54v-648q54 78 146 134t219 56q191 0 299 -152q109 -151 109 -408zM943 521v21q0 225 -90 365q-90 141 -261 141q-141 0 -235 -77q-93 -78 -131 -123v-640q59 -74 143 -125
q85 -50 225 -50q172 0 260 132q89 133 89 356z" />
    <glyph glyph-name="c" unicode="c" horiz-adv-x="1039" 
d="M871 93l30 -45q-106 -69 -347 -69q-115 0 -203.5 41.5t-143 116t-82.5 171.5t-28 212v42q0 122 26 218.5t79.5 169.5t142 112.5t207.5 39.5q91 0 188 -23t158 -63l-27 -49q-65 43 -151.5 63.5t-167.5 20.5q-191 -3 -296 -129t-105 -360v-42q-1 -77 14 -148t47.5 -134
t79.5 -109.5t114.5 -74t147.5 -27.5q112 0 195 18.5t122 47.5z" />
    <glyph glyph-name="d" unicode="d" 
d="M122 521v21q0 256 108 408t300 152q255 0 366 -223v681h54v-811q0 -4 1 -4v-441q-1 -3 -1 -5v-299h-52l-2 167q-55 -89 -149.5 -138.5t-218.5 -49.5q-191 0 -299 146q-107 146 -107 396zM178 542v-21q0 -225 88 -356q88 -132 261 -132q141 0 234 66q94 66 135 146v533
q-41 116 -127 192q-85 78 -240 78q-172 0 -262 -141q-89 -140 -89 -365z" />
    <glyph glyph-name="e" unicode="e" horiz-adv-x="1039" 
d="M551 -21q-191 0 -323 148q-131 149 -131 373v64q0 235 130 386q131 152 329 152q180 0 287 -119t107 -323v-83h-799v-13v-64q0 -199 112 -333q113 -134 288 -134q186 0 348 84l32 -47q-162 -91 -380 -91zM556 1048q-168 0 -276 -117t-121 -294l3 -6h734v33q0 168 -91 275
q-91 109 -249 109z" />
    <glyph glyph-name="f" unicode="f" horiz-adv-x="645" 
d="M308 0h-54v1032h-188v50h188v178q0 153 73 235t210 86q79 0 118 -5l-2 -49q-36 4 -115 4q-108 -5 -168 -66q-59 -62 -62 -205v-178h286v-50h-286v-1032z" />
    <glyph glyph-name="g" unicode="g" horiz-adv-x="1109" 
d="M921 728q0 140 -113 234.5t-263 94.5q-171 0 -275 -85t-104 -243v-30q12 -172 102 -249.5t279 -77.5q175 0 274.5 78.5t99.5 247.5v30zM385 344q-141 29 -202.5 117t-64.5 238v30q0 185 116 280.5t311 95.5q100 0 184 -30l292 4v-54l-223 5q83 -50 125.5 -129t47.5 -173
v-30q0 -99 -31.5 -172.5t-90 -117.5t-134 -65t-169.5 -21q-125 0 -190.5 -31t-65.5 -85q0 -68 61 -97t218 -29q278 0 385.5 -51.5t107.5 -188.5q0 -66 -38 -115t-103.5 -77t-143 -41.5t-167.5 -13.5q-78 0 -134.5 3t-116.5 11.5t-100.5 26t-74.5 44t-50 67t-16 94.5
q0 102 83 160.5t193 58.5q-53 9 -86.5 23.5t-49 36t-20 40.5t-4.5 48q0 53 32 86.5t119 51.5zM610 -357q172 0 284 49.5t112 142.5q0 116 -92 156t-345 40q-204 0 -299.5 -47.5t-95.5 -144.5q0 -110 101.5 -153t334.5 -43z" />
    <glyph glyph-name="h" unicode="h" 
d="M226 1560v-703q46 115 146.5 180t237.5 65q171 0 257.5 -108.5t86.5 -335.5v-658h-55v660q0 214 -79 300q-78 88 -209 88q-172 0 -271 -105t-114 -174v-769h-54v554h-2q0 50 2 63v943h54z" />
    <glyph glyph-name="i" unicode="i" horiz-adv-x="422" 
d="M239 1082v-1082h-54v1082h54zM239 1560v-138h-54v138h54z" />
    <glyph glyph-name="j" unicode="j" horiz-adv-x="445" 
d="M186 1082h54v-1171q-3 -172 -76 -260t-209 -88h-40h-39l7 54h72q225 0 231 294v1171zM234 1560v-134h-54v134h54z" />
    <glyph glyph-name="k" unicode="k" horiz-adv-x="969" 
d="M883 0l-512 557l-145 2v-559h-54v1560h54v-959l134 11l485 470h68v-8l-499 -485l536 -582v-7h-67z" />
    <glyph glyph-name="l" unicode="l" horiz-adv-x="422" 
d="M239 1560v-1560h-54v1560h54z" />
    <glyph glyph-name="m" unicode="m" horiz-adv-x="1836" 
d="M163 1082h47l7 -218q106 238 363 238q280 0 346 -285q46 137 143 211.5t239 74.5q182 0 273.5 -118.5t91.5 -366.5v-617h-55v619q0 234 -84 332q-84 97 -224 97q-166 0 -255 -98q-86 -97 -112 -254q1 -19 3 -697h-55v629q-3 229 -86 324t-223 95q-165 0 -252 -96
t-112 -247v-705h-55v1082z" />
    <glyph glyph-name="n" unicode="n" 
d="M172 1082h46l7 -184q49 80 144 141q95 63 231 63q179 0 266.5 -112.5t87.5 -352.5v-637h-54v639q0 225 -81 317q-80 92 -218 92q-170 0 -271 -101q-100 -99 -104 -122v-825h-54v1082z" />
    <glyph glyph-name="o" unicode="o" 
d="M87 520v42q0 256 131 398q132 142 342 142q212 0 342 -144q132 -142 132 -396v-42q0 -256 -132 -398q-131 -143 -340 -143q-211 0 -343 143q-132 142 -132 398zM141 562v-42q0 -224 114 -356q114 -131 307 -131q190 0 304 131q114 132 114 356v42q0 213 -115 349
q-116 137 -305 137q-191 0 -305 -137t-114 -349z" />
    <glyph glyph-name="p" unicode="p" 
d="M999 542v-21q0 -251 -108 -396q-108 -146 -298 -146q-124 0 -218 49t-149 137v-581h-54v1498h42l11 -191q55 100 148.5 155.5t217.5 55.5q191 0 299 -152q109 -151 109 -408zM944 521v21q0 226 -91 365q-90 141 -261 141q-153 0 -241 -77q-86 -77 -125 -162v-567
q39 -74 134 -143q93 -66 234 -66q172 0 260 132q90 132 90 356z" />
    <glyph glyph-name="q" unicode="q" 
d="M122 521v21q0 256 108 408t300 152q124 0 217 -55.5t149 -156.5l5 192h49v-333q0 -4 1 -4v-441q-1 -3 -1 -5v-715h-54v582q-56 -88 -150.5 -137.5t-217.5 -49.5q-191 0 -299 146q-107 146 -107 396zM178 542v-21q0 -225 88 -356q88 -132 261 -132q137 0 231.5 62
t137.5 171v512q-41 116 -127 192q-85 78 -240 78q-172 0 -262 -141q-89 -140 -89 -365z" />
    <glyph glyph-name="r" unicode="r" horiz-adv-x="685" 
d="M655 1091l-6 -48q-186 25 -290 -65q-101 -87 -133 -128v-850h-54v1082h44l9 -180q47 70 135 135q89 65 219 62q33 0 76 -8z" />
    <glyph glyph-name="s" unicode="s" horiz-adv-x="1019" 
d="M521 581q368 -86 368 -317q0 -72 -32.5 -128.5t-87 -89.5t-121 -50t-139.5 -17q-125 0 -225.5 29.5t-163.5 74.5l28 48q180 -103 361 -103q77 0 149.5 25.5t124.5 81.5t52 130q0 191 -330 267q-53 12 -85 20t-75.5 22.5t-69.5 28.5t-55 36.5t-44.5 48.5t-26 62t-10.5 79
q0 89 54.5 153t134.5 92t173 28q113 0 205.5 -35t147.5 -85l-19 -48q-47 48 -139.5 83.5t-194.5 35.5q-125 0 -216.5 -57.5t-91.5 -164.5q0 -34 8.5 -62t21 -49t36 -38.5t45.5 -29.5t58.5 -24.5t65 -21t74.5 -20.5q13 -3 19 -5z" />
    <glyph glyph-name="t" unicode="t" horiz-adv-x="576" 
d="M170 1348l55 26v-292h266v-53h-266v-750q0 -246 164 -246q43 0 106 9l10 -49q-42 -14 -113 -14q-111 0 -166.5 72.5t-55.5 227.5v1069z" />
    <glyph glyph-name="u" unicode="u" 
d="M905 0l-8 174q-65 -89 -152 -142q-88 -53 -221 -53q-171 0 -263.5 121t-92.5 365v617h54v-619q0 -214 79 -322t221 -108q164 0 255 80q87 77 118 108v861h55v-1082h-45z" />
    <glyph glyph-name="v" unicode="v" horiz-adv-x="978" 
d="M101 1082l334 -853l51 -146h6l52 146l333 853h58l-421 -1081l1 -1h-52l-420 1082h58z" />
    <glyph glyph-name="w" unicode="w" horiz-adv-x="1550" 
d="M145 1082l221 -769l56 -222l6 -1l314 780h55l312 -780l6 1l58 222l220 769h63l-315 -1082h-54l-312 794h-11l-313 -794h-54l-314 1082h62z" />
    <glyph glyph-name="x" unicode="x" horiz-adv-x="978" 
d="M143 1082l346 -480l345 480h68l-380 -527l400 -555h-67l-367 508l-366 -508h-67l400 555l-380 527h68z" />
    <glyph glyph-name="y" unicode="y" horiz-adv-x="978" 
d="M102 1082l356 -886l40 -108h6l6 16l374 978h60l-481 -1262q-71 -158 -123 -207q-53 -50 -166 -50h-87l5 53h82q93 0 134 37q42 36 101 177l65 176l-431 1076h59z" />
    <glyph glyph-name="z" unicode="z" horiz-adv-x="978" 
d="M871 1039l-711 -985h770v-54h-843v44l717 989h-686v49h753v-43z" />
    <glyph glyph-name="braceleft" unicode="{" horiz-adv-x="660" 
d="M662 -395l-20 -46q-173 56 -246 173q-73 118 -73 288v245q0 135 -62 206.5t-188 71.5v66q250 0 250 276v247q0 172 73 290q73 119 246 175l15 -45q-140 -45 -210 -153t-70 -267v-247q0 -123 -53 -204t-158 -105q105 -26 158 -107.5t53 -203.5v-245q0 -156 71.5 -261.5
t213.5 -153.5z" />
    <glyph glyph-name="bar" unicode="|" horiz-adv-x="406" 
d="M235 1456v-1726h-54v1726h54z" />
    <glyph glyph-name="braceright" unicode="}" horiz-adv-x="660" 
d="M19 -441l-19 46q284 97 284 415v245q0 123 53 204t158 107q-105 24 -158 105t-53 204v247q0 158 -70 266.5t-209 153.5l14 45q172 -55 245 -175q74 -119 74 -290v-247q0 -276 250 -276v-66q-126 0 -188 -72t-62 -206v-245q0 -172 -73 -288q-73 -117 -246 -173z" />
    <glyph glyph-name="asciitilde" unicode="~" horiz-adv-x="1412" 
d="M1190 753l61 -13q0 -121 -76 -209q-75 -88 -188 -88q-86 0 -159 38q-68 36 -162 121q-136 118 -248 118q-89 0 -146 -68t-57 -190l-59 12q0 129 73 214q74 86 189 86q87 0 158 -40q74 -39 165 -120q67 -62 125 -90t121 -28q86 0 144 70q59 71 59 187z" />
    <glyph glyph-name="nbspace" unicode="&#xa0;" horiz-adv-x="490" 
 />
    <glyph glyph-name="exclamdown" unicode="&#xa1;" horiz-adv-x="406" 
d="M221 604v-978h-54v978h54zM242 1082v-164h-95v164h95z" />
    <glyph glyph-name="cent" unicode="&#xa2;" horiz-adv-x="1110" 
d="M946 52q-101 -66 -316 -70v-224h-55v225q-109 4 -192.5 47.5t-135.5 117t-78.5 168.5t-26.5 208v42q0 119 25 214t76 167.5t135 113t197 44.5v216h55v-216q86 -4 172 -27t142 -59l-28 -48q-65 42 -151.5 63t-167.5 21q-195 0 -298 -124t-103 -365v-42q-1 -97 23.5 -183.5
t73 -156t127.5 -110.5t179 -41q234 0 317 64z" />
    <glyph glyph-name="sterling" unicode="&#xa3;" horiz-adv-x="1150" 
d="M139 54q52 11 89.5 58t55 114.5t24.5 125t8 114.5l-7 201h-244v54h242l-12 319q-3 190 95 313.5t276 123.5q184 0 265 -102l-19 -64q-29 51 -100 81.5t-146 30.5q-156 0 -237.5 -107t-78.5 -276l10 -319h479v-54h-477l9 -201q0 -265 -139 -412h808l1 -54h-912v54h10z" />
    <glyph glyph-name="currency" unicode="&#xa4;" horiz-adv-x="1502" 
d="M1339 -27l-180 183q-82 -85 -189 -130.5t-225 -45.5q-119 0 -226 45t-189 129l-176 -180l-40 39l179 182q-144 175 -144 413q0 248 154 424l-189 193l40 39l188 -192q168 162 403 162q231 0 403 -164l191 195l41 -40l-193 -196q152 -179 152 -421q0 -233 -141 -409
l182 -186zM204 608q0 -238 159 -407q159 -168 382 -168q221 0 380 168q160 169 160 407t-160 405q-159 168 -380 168q-223 0 -382 -168t-159 -405z" />
    <glyph glyph-name="yen" unicode="&#xa5;" horiz-adv-x="1207" 
d="M628 738l451 718h66l-489 -780h424v-55h-452v-240h452v-55h-452v-326h-54v326h-450v55h450v240h-450v55h421l-487 780h65l452 -718l24 -51h5z" />
    <glyph glyph-name="brokenbar" unicode="&#xa6;" horiz-adv-x="398" 
d="M226 -270h-54v752h54v-752zM226 1456v-758h-54v758h54z" />
    <glyph glyph-name="section" unicode="&#xa7;" horiz-adv-x="1223" 
d="M791 168q135 -52 197.5 -124t62.5 -188q0 -89 -37 -157t-101.5 -108.5t-143 -61t-168.5 -20.5q-116 0 -226 43t-193 104l41 41q75 -53 178 -93t200 -40q77 0 145.5 16.5t125.5 49.5t90.5 91t33.5 133q0 158 -164 240q-67 33 -224 76q-205 56 -278 88q-142 63 -185 167
q-23 56 -23 130q0 108 76 179.5t211 91.5q-124 49 -183 122t-59 187q0 87 38 155.5t102.5 109.5t143.5 61.5t168 20.5q117 0 214.5 -37t161.5 -97l-40 -51q-57 59 -143.5 94.5t-192.5 35.5q-64 0 -120.5 -9.5t-108 -31.5t-88.5 -54.5t-59 -82t-22 -111.5q0 -43 12.5 -80.5
t32 -66t52 -53.5t63 -42.5t75.5 -35t78.5 -28t82.5 -24.5q196 -50 268 -81q153 -66 193 -183q17 -48 17 -108q0 -106 -82 -176q-81 -71 -222 -92zM625 220l69 -19q162 2 254 67q93 66 93 165q0 66 -26 116.5t-65 81t-101 56.5t-116.5 40l-131 35t-125.5 39q-148 -7 -224 -72
t-76 -171q0 -54 16.5 -97.5t47 -74t65 -53t80.5 -39.5t84 -28l84 -23.5t72 -22.5z" />
    <glyph glyph-name="dieresis" unicode="&#xa8;" horiz-adv-x="906" 
d="M761 1456v-118h-136v118h136zM292 1456v-118h-137v118h137z" />
    <glyph glyph-name="copyright" unicode="&#xa9;" horiz-adv-x="1666" 
d="M179 729q0 -290 191 -493q192 -202 463 -202q269 0 461 202q193 202 193 493q0 289 -192 490q-192 202 -462 202q-271 0 -463 -202q-191 -202 -191 -490zM123 729q0 315 207 531t503 216q295 0 502 -216q208 -215 208 -531t-208 -533q-207 -217 -502 -217t-503 217
q-207 218 -207 533zM1066 386l17 -41q-39 -28 -112 -43.5t-155 -15.5q-168 0 -256 100.5t-88 280.5v130q0 381 344 381q69 0 147 -16t119 -45l-15 -40q-90 53 -251 53q-148 0 -221.5 -79.5t-73.5 -252.5v-131q-1 -153 72 -242t223 -92q155 0 250 53z" />
    <glyph glyph-name="ordfeminine" unicode="&#xaa;" horiz-adv-x="811" 
d="M695 857l1 -153h-67q-3 33 -8 62.5t-7 51.5q-41 -52 -118.5 -90t-157.5 -38q-108 0 -171 57t-63 162q0 79 49 134t119.5 76.5t152.5 18.5q56 -2 102.5 -13t64.5 -21l19 -9v137q0 81 -51.5 127t-145.5 46q-114 0 -248 -54l-17 71q128 55 269 55q128 0 201 -63
q76 -66 76 -183v-374zM611 880v149q-9 5 -24.5 12.5t-64.5 19.5t-98 12q-91 0 -163.5 -43t-72.5 -124q0 -67 44.5 -105t115.5 -38q70 0 141.5 34t121.5 83z" />
    <glyph glyph-name="guillemotleft" unicode="&#xab;" horiz-adv-x="905" 
d="M510 905l-294 -380l294 -379h-70l-295 370v19l295 370h70zM797 905l-294 -380l294 -379h-70l-295 370v19l295 370h70z" />
    <glyph glyph-name="logicalnot" unicode="&#xac;" horiz-adv-x="1101" 
d="M915 753v-357h-54v304h-739v53h793z" />
    <glyph glyph-name="uni00AD" unicode="&#xad;" horiz-adv-x="807" 
d="M689 653v-54h-590v54h590z" />
    <glyph glyph-name="registered" unicode="&#xae;" horiz-adv-x="1674" 
d="M115 729q0 315 207 531t503 216q295 0 502 -216q208 -215 208 -531t-208 -533q-207 -217 -502 -217q-296 0 -503 217q-207 218 -207 533zM170 729q0 -291 192 -493t463 -202q269 0 461 202q193 202 193 493q0 289 -192 490q-192 202 -462 202q-271 0 -463 -202
q-192 -201 -192 -490zM865 688h-217v-372h-55v850h239q143 0 216 -61t73 -179q0 -74 -43 -136t-154 -92q101 -179 140 -258q46 -90 53 -108v-16h-59l-72 144q-65 130 -121 228zM648 1111v-367h205q91 0 152 48t61 135q0 97 -53.5 140.5t-180.5 43.5h-184z" />
    <glyph glyph-name="macron" unicode="&#xaf;" horiz-adv-x="811" 
d="M719 1456v-53h-627v53h627z" />
    <glyph glyph-name="macron" unicode="&#x2c9;" horiz-adv-x="811" 
d="M719 1456v-53h-627v53h627z" />
    <glyph glyph-name="degree" unicode="&#xb0;" horiz-adv-x="783" 
d="M156 1237q0 99 69 169q69 71 167 71q95 0 163 -71q69 -70 69 -169q0 -100 -69 -169q-68 -68 -163 -68q-97 0 -167 68q-69 69 -69 169zM211 1237q0 -79 51 -130q52 -51 130 -51q76 0 126 51q50 52 50 130q0 79 -50 132t-126 53q-77 0 -130 -53q-51 -53 -51 -132z" />
    <glyph glyph-name="plusminus" unicode="&#xb1;" horiz-adv-x="1077" 
d="M569 1267v-462h419v-54h-419v-462h-54v462h-443v54h443v462h54zM1075 142v-54h-835v54h835z" />
    <glyph glyph-name="twosuperior" unicode="&#xb2;" horiz-adv-x="807" 
d="M238 715h406v-56h-491v51l265 310l32.5 43t32 42.5t23.5 35.5t21 40t10.5 37t5.5 44q0 75 -40 117t-116 42q-111 0 -189 -61l-32 48q87 69 221 69q102 0 162.5 -57.5t60.5 -157.5q0 -30 -8 -59t-26 -59t-34 -53t-43.5 -59.5t-43.5 -59.5l-218 -254z" />
    <glyph glyph-name="threesuperior" unicode="&#xb3;" horiz-adv-x="761" 
d="M467 1076q70 -22 107 -72.5t37 -123.5q0 -114 -75 -171.5t-195 -57.5q-58 0 -127 16t-105 44l28 52q77 -57 204 -57q94 0 149 42t55 130q0 84 -49.5 126t-143.5 42h-74v56h74q79 -2 128.5 40.5t49.5 116.5q0 79 -47.5 120.5t-130.5 41.5q-129 0 -181 -58l-24 52
q33 29 90.5 45.5t114.5 16.5q112 0 178 -56.5t66 -164.5q0 -60 -35.5 -109t-93.5 -71z" />
    <glyph glyph-name="acute" unicode="&#xb4;" horiz-adv-x="511" 
d="M119 1257l220 261h78l2 -5l-231 -261h-67z" />
    <glyph glyph-name="mu" unicode="&#xb5;" 
d="M171 1082h52v-642q0 -224 85 -315q86 -92 221 -92q184 0 268 93t102 263v693h54v-577h2q0 -9 -2 -67v-438h-41l-11 205q-100 -226 -363 -226q-226 0 -315 192v-587h-52v1498z" />
    <glyph glyph-name="paragraph" unicode="&#xb6;" horiz-adv-x="946" 
d="M770 0h-54v520h-125q-234 0 -363 129q-129 131 -129 339q0 206 129 337q131 131 363 131h179v-1456z" />
    <glyph glyph-name="periodcentered" unicode="&#xb7;" horiz-adv-x="472" 
d="M289 776v-152h-118v152h118z" />
    <glyph glyph-name="cedilla" unicode="&#xb8;" horiz-adv-x="490" 
d="M154 0h53l-11 -76q197 -15 197 -169q0 -88 -80 -139t-225 -51l-7 49q103 0 180 36t77 105q0 64 -46 89q-43 24 -163 35z" />
    <glyph glyph-name="onesuperior" unicode="&#xb9;" horiz-adv-x="471" 
d="M299 1477v-812h-54v750l-166 -17v56z" />
    <glyph glyph-name="ordmasculine" unicode="&#xba;" horiz-adv-x="914" 
d="M148 1025v117q0 149 82 241q82 94 222 94t222 -94q83 -94 83 -241v-117q0 -150 -82 -242q-83 -92 -221 -92q-141 0 -224 92q-82 92 -82 242zM202 1142v-117q0 -125 63 -203q63 -77 189 -77q120 0 185 78q65 80 65 202v117q0 121 -65 201t-187 80q-121 0 -186 -80
q-64 -79 -64 -201z" />
    <glyph glyph-name="guillemotright" unicode="&#xbb;" horiz-adv-x="897" 
d="M128 171l293 379l-293 390h70l294 -380v-19l-294 -370h-70zM418 171l293 379l-293 390h70l294 -380v-19l-294 -370h-70z" />
    <glyph glyph-name="questiondown" unicode="&#xbf;" horiz-adv-x="912" 
d="M432 977v106h82v-106h-82zM457 -394q-160 0 -256.5 97.5t-96.5 269.5q0 135 63 239t190 221q61 53 79 104t20 146h54q-1 -77 -8.5 -117.5t-33.5 -81.5t-83 -93q-48 -46 -75 -74t-60.5 -70.5t-50.5 -79.5t-29 -88t-12 -108q0 -147 78 -229.5t221 -82.5q202 0 317 126
l34 -45q-62 -57 -151.5 -95.5t-199.5 -38.5z" />
    <glyph glyph-name="Agrave" unicode="&#xc0;" horiz-adv-x="1223" 
d="M1130 0l-163 435h-711l-163 -435h-59l544 1456h66l545 -1456h-59zM581 1304l-305 -815h671l-305 815l-28 85h-6zM446 1870l220 -261l-2 -5h-75l-234 261l2 5h89z" />
    <glyph glyph-name="Aacute" unicode="&#xc1;" horiz-adv-x="1223" 
d="M1130 0l-163 435h-711l-163 -435h-59l544 1456h66l545 -1456h-59zM581 1304l-305 -815h671l-305 815l-28 85h-6zM565 1601l220 261h78l2 -5l-231 -261h-67z" />
    <glyph glyph-name="Acircumflex" unicode="&#xc2;" horiz-adv-x="1223" 
d="M1130 0l-163 435h-711l-163 -435h-59l544 1456h66l545 -1456h-59zM581 1304l-305 -815h671l-305 815l-28 85h-6zM652 1824l214 -210v-13h-70l-185 186l-183 -186h-66v17l210 206h80z" />
    <glyph glyph-name="Atilde" unicode="&#xc3;" horiz-adv-x="1223" 
d="M1130 0l-163 435h-711l-163 -435h-59l544 1456h66l545 -1456h-59zM581 1304l-305 -815h671l-305 815l-28 85h-6zM854 1811l55 -10q0 -81 -51 -134q-51 -52 -125 -52q-75 0 -154 62q-78 63 -133 63q-52 0 -86.5 -37.5t-34.5 -97.5l-55 10q0 79 50 129t126 50q71 0 153 -62
t134 -62q51 0 85 39q36 41 36 102z" />
    <glyph glyph-name="Adieresis" unicode="&#xc4;" horiz-adv-x="1223" 
d="M1130 0l-163 435h-711l-163 -435h-59l544 1456h66l545 -1456h-59zM581 1304l-305 -815h671l-305 815l-28 85h-6zM923 1791v-118h-136v118h136zM454 1791v-118h-137v118h137z" />
    <glyph glyph-name="Aring" unicode="&#xc5;" horiz-adv-x="1223" 
d="M1130 0l-163 435h-711l-163 -435h-59l544 1456h66l545 -1456h-59zM581 1304l-305 -815h671l-305 815l-28 85h-6zM474 1726q0 57 40 97q40 42 96 42q54 0 93 -41q40 -40 40 -98q0 -57 -39 -96t-94 -39q-56 0 -96 39t-40 96zM531 1726q0 -34 23 -56.5t56 -22.5t54.5 22
t21.5 57t-22 58.5t-54 23.5q-33 0 -56 -23.5t-23 -58.5z" />
    <glyph glyph-name="AE" unicode="&#xc6;" horiz-adv-x="1816" 
d="M1768 54v-54h-752l-18 425h-628l-255 -425h-65l881 1456h776v-54h-696l26 -616h588v-54h-586l28 -678h701zM895 1298l-493 -820h594l-39 924l-5 1z" />
    <glyph glyph-name="Ccedilla" unicode="&#xc7;" horiz-adv-x="1327" 
d="M1133 119l27 -42q-65 -48 -187.5 -73t-261.5 -25q-140 0 -251.5 49t-182 136t-107.5 203t-36 252v218q0 143 34.5 258.5t103.5 201.5t180.5 133t258.5 47q118 0 248.5 -27t199.5 -75l-24 -42q-78 45 -196.5 71t-227.5 26q-247 0 -385 -150.5t-138 -440.5v-220
q0 -124 33 -230t97 -186.5t164.5 -127t228.5 -48.5q256 0 422 92zM679 -9h-53l-25 -121q120 -11 163 -35q46 -25 46 -89q0 -69 -77 -105t-180 -36l7 -49q145 0 225 51t80 139q0 154 -197 169z" />
    <glyph glyph-name="Egrave" unicode="&#xc8;" horiz-adv-x="1129" 
d="M954 786v-54h-700v-678h765v-54h-819v1456h819v-54h-765v-616h700zM453 1870l220 -261l-2 -5h-75l-234 261l2 5h89z" />
    <glyph glyph-name="Eacute" unicode="&#xc9;" horiz-adv-x="1129" 
d="M954 786v-54h-700v-678h765v-54h-819v1456h819v-54h-765v-616h700zM572 1601l220 261h78l2 -5l-231 -261h-67z" />
    <glyph glyph-name="Ecircumflex" unicode="&#xca;" horiz-adv-x="1129" 
d="M954 786v-54h-700v-678h765v-54h-819v1456h819v-54h-765v-616h700zM659 1824l214 -210v-13h-70l-185 186l-183 -186h-66v17l210 206h80z" />
    <glyph glyph-name="Edieresis" unicode="&#xcb;" horiz-adv-x="1129" 
d="M954 786v-54h-700v-678h765v-54h-819v1456h819v-54h-765v-616h700zM930 1791v-118h-136v118h136zM461 1791v-118h-137v118h137z" />
    <glyph glyph-name="Igrave" unicode="&#xcc;" horiz-adv-x="534" 
d="M294 1456v-1456h-54v1456h54zM103 1870l220 -261l-2 -5h-75l-234 261l2 5h89z" />
    <glyph glyph-name="Iacute" unicode="&#xcd;" horiz-adv-x="534" 
d="M294 1456v-1456h-54v1456h54zM221 1601l220 261h78l2 -5l-231 -261h-67z" />
    <glyph glyph-name="Icircumflex" unicode="&#xce;" horiz-adv-x="534" 
d="M294 1456v-1456h-54v1456h54zM309 1824l214 -210v-13h-70l-185 186l-183 -186h-66v17l210 206h80z" />
    <glyph glyph-name="Idieresis" unicode="&#xcf;" horiz-adv-x="534" 
d="M294 1456v-1456h-54v1456h54zM580 1791v-118h-136v118h136zM111 1791v-118h-137v118h137z" />
    <glyph glyph-name="Eth" unicode="&#xd0;" horiz-adv-x="1370" 
d="M633 0h-433v713h-140v54h140v689h433q251 0 426 -180q175 -179 175 -459v-178q0 -281 -175 -460q-176 -179 -426 -179zM647 767v-54h-393v-659h379q227 0 387 166t160 419v181q0 250 -160 416t-387 166h-379v-635h393z" />
    <glyph glyph-name="Ntilde" unicode="&#xd1;" horiz-adv-x="1449" 
d="M1249 1456v-1456h-54l-934 1356l-6 -2v-1354h-55v1456h55l934 -1353l6 2v1351h54zM968 1811l55 -10q0 -81 -51 -134q-51 -52 -125 -52q-75 0 -154 62q-78 63 -133 63q-52 0 -86.5 -37.5t-34.5 -97.5l-55 10q0 79 50 129t126 50q71 0 153 -62t134 -62q51 0 85 39
q36 41 36 102z" />
    <glyph glyph-name="Ograve" unicode="&#xd2;" horiz-adv-x="1364" 
d="M1231 837v-218q0 -344 -146 -493q-145 -147 -402 -147t-404 147q-146 149 -146 493v218q0 359 156 499q156 141 392 141q243 0 397 -140q153 -139 153 -500zM1177 619v220q0 317 -129 450q-129 134 -367 137q-238 -3 -365 -139q-128 -136 -128 -448v-220q0 -314 128 -451
q129 -135 367 -139q239 5 366 138q128 134 128 452zM510 1891l220 -261l-2 -5h-75l-234 261l2 5h89z" />
    <glyph glyph-name="Oacute" unicode="&#xd3;" horiz-adv-x="1364" 
d="M1231 837v-218q0 -344 -146 -493q-145 -147 -402 -147t-404 147q-146 149 -146 493v218q0 359 156 499q156 141 392 141q243 0 397 -140q153 -139 153 -500zM1177 619v220q0 317 -129 450q-129 134 -367 137q-238 -3 -365 -139q-128 -136 -128 -448v-220q0 -314 128 -451
q129 -135 367 -139q239 5 366 138q128 134 128 452zM629 1622l220 261h78l2 -5l-231 -261h-67z" />
    <glyph glyph-name="Ocircumflex" unicode="&#xd4;" horiz-adv-x="1364" 
d="M1231 837v-218q0 -344 -146 -493q-145 -147 -402 -147t-404 147q-146 149 -146 493v218q0 359 156 499q156 141 392 141q243 0 397 -140q153 -139 153 -500zM1177 619v220q0 317 -129 450q-129 134 -367 137q-238 -3 -365 -139q-128 -136 -128 -448v-220q0 -314 128 -451
q129 -135 367 -139q239 5 366 138q128 134 128 452zM716 1845l214 -210v-13h-70l-185 186l-183 -186h-66v17l210 206h80z" />
    <glyph glyph-name="Otilde" unicode="&#xd5;" horiz-adv-x="1364" 
d="M1231 837v-218q0 -344 -146 -493q-145 -147 -402 -147t-404 147q-146 149 -146 493v218q0 359 156 499q156 141 392 141q243 0 397 -140q153 -139 153 -500zM1177 619v220q0 317 -129 450q-129 134 -367 137q-238 -3 -365 -139q-128 -136 -128 -448v-220q0 -314 128 -451
q129 -135 367 -139q239 5 366 138q128 134 128 452zM918 1832l55 -10q0 -82 -51 -134t-125 -52q-75 0 -154 62q-78 63 -133 63q-52 0 -86.5 -37.5t-34.5 -97.5l-55 10q0 79 50 129t126 50q71 0 153 -62t134 -62q51 0 85 39q36 40 36 102z" />
    <glyph glyph-name="Odieresis" unicode="&#xd6;" horiz-adv-x="1364" 
d="M1231 837v-218q0 -344 -146 -493q-145 -147 -402 -147t-404 147q-146 149 -146 493v218q0 359 156 499q156 141 392 141q243 0 397 -140q153 -139 153 -500zM1177 619v220q0 317 -129 450q-129 134 -367 137q-238 -3 -365 -139q-128 -136 -128 -448v-220q0 -314 128 -451
q129 -135 367 -139q239 5 366 138q128 134 128 452zM987 1812v-118h-136v118h136zM518 1812v-118h-137v118h137z" />
    <glyph glyph-name="multiply" unicode="&#xd7;" horiz-adv-x="1052" 
d="M137 252l-39 37l384 393l-357 364l39 39l356 -364l357 364l39 -39l-357 -364l385 -393l-39 -37l-384 391z" />
    <glyph glyph-name="Oslash" unicode="&#xd8;" horiz-adv-x="1364" 
d="M1231 837v-218q0 -295 -146 -468q-145 -172 -402 -172q-197 0 -330 103l-42 36q-178 172 -178 501v218q0 295 145 467q146 173 403 173q242 0 391 -160l37 -45q122 -171 122 -435zM188 839v-220q0 -303 150 -447l6 -1l699 1100q-136 152 -362 152q-237 0 -365 -158
t-128 -426zM1177 619v220q0 238 -96 378l-6 1l-693 -1091q118 -94 301 -94q239 0 366 157q128 158 128 429z" />
    <glyph glyph-name="Ugrave" unicode="&#xd9;" horiz-adv-x="1365" 
d="M1126 1456h54v-967q0 -240 -139 -375t-358 -135t-359 135q-139 136 -139 375v967h54v-967q0 -207 125 -332q125 -124 319 -124q193 0 317 124q126 125 126 332v967zM531 1870l220 -261l-2 -5h-75l-234 261l2 5h89z" />
    <glyph glyph-name="Uacute" unicode="&#xda;" horiz-adv-x="1365" 
d="M1126 1456h54v-967q0 -240 -139 -375t-358 -135t-359 135q-139 136 -139 375v967h54v-967q0 -207 125 -332q125 -124 319 -124q193 0 317 124q126 125 126 332v967zM650 1601l220 261h78l2 -5l-231 -261h-67z" />
    <glyph glyph-name="Ucircumflex" unicode="&#xdb;" horiz-adv-x="1365" 
d="M1126 1456h54v-967q0 -240 -139 -375t-358 -135t-359 135q-139 136 -139 375v967h54v-967q0 -207 125 -332q125 -124 319 -124q193 0 317 124q126 125 126 332v967zM737 1824l214 -210v-13h-70l-185 186l-183 -186h-66v17l210 206h80z" />
    <glyph glyph-name="Udieresis" unicode="&#xdc;" horiz-adv-x="1365" 
d="M1126 1456h54v-967q0 -240 -139 -375t-358 -135t-359 135q-139 136 -139 375v967h54v-967q0 -207 125 -332q125 -124 319 -124q193 0 317 124q126 125 126 332v967zM1008 1791v-118h-136v118h136zM539 1791v-118h-137v118h137z" />
    <glyph glyph-name="Yacute" unicode="&#xdd;" horiz-adv-x="1223" 
d="M102 1456l481 -809l26 -50l27 50l483 809h66l-547 -903v-553h-55v553l-547 903h66zM561 1590l220 261h78l2 -5l-231 -261h-67z" />
    <glyph glyph-name="Thorn" unicode="&#xde;" horiz-adv-x="1219" 
d="M200 1456h54v-313h371q212 0 331 -113t119 -292t-119 -292q-118 -112 -331 -112h-371v-334h-54v1456zM625 1089h-371v-701h371q194 0 295 104t101 244q0 145 -100 248q-101 105 -296 105z" />
    <glyph glyph-name="germandbls" unicode="&#xdf;" horiz-adv-x="1183" 
d="M218 1082v-1082h-54v1082q0 188 88.5 290t250.5 102q124 0 207 -73q85 -73 85 -195q0 -102 -60 -205q-59 -104 -59 -201q0 -90 193 -232q193 -141 193 -291q0 -141 -114 -220q-114 -78 -253 -78q-85 0 -180 26q-91 25 -132 63l25 49q42 -34 122 -60q79 -25 157 -25
q139 0 230 71q91 72 91 183q0 113 -193 252t-193 264q0 105 56 212q57 106 57 194q0 89 -68 151q-67 61 -154 61q-134 0 -215 -88q-80 -88 -80 -250z" />
    <glyph glyph-name="agrave" unicode="&#xe0;" horiz-adv-x="1081" 
d="M520 1102q109 0 193 -36t136 -114.5t55 -191.5l-1 -760h-42l-9 178q-76 -97 -189.5 -148t-248.5 -51q-147 0 -235 81t-88 224q0 79 41.5 142.5t108.5 101t144 57t156 19.5q97 0 174 -13t106 -25l29 -13v209q0 135 -86.5 210.5t-243.5 75.5q-203 0 -354 -83l-21 53
q170 84 375 84zM850 234v269q-10 6 -31 14t-100 22t-175 14q-67 0 -134.5 -17t-128 -48.5t-98.5 -86t-38 -121.5q0 -114 75.5 -181t193.5 -67q280 0 436 202zM368 1550l220 -261l-2 -5h-75l-234 261l2 5h89z" />
    <glyph glyph-name="aacute" unicode="&#xe1;" horiz-adv-x="1081" 
d="M520 1102q109 0 193 -36t136 -114.5t55 -191.5l-1 -760h-42l-9 178q-76 -97 -189.5 -148t-248.5 -51q-147 0 -235 81t-88 224q0 79 41.5 142.5t108.5 101t144 57t156 19.5q97 0 174 -13t106 -25l29 -13v209q0 135 -86.5 210.5t-243.5 75.5q-203 0 -354 -83l-21 53
q170 84 375 84zM850 234v269q-10 6 -31 14t-100 22t-175 14q-67 0 -134.5 -17t-128 -48.5t-98.5 -86t-38 -121.5q0 -114 75.5 -181t193.5 -67q280 0 436 202zM487 1281l220 261h78l2 -5l-231 -261h-67z" />
    <glyph glyph-name="acircumflex" unicode="&#xe2;" horiz-adv-x="1081" 
d="M520 1102q109 0 193 -36t136 -114.5t55 -191.5l-1 -760h-42l-9 178q-76 -97 -189.5 -148t-248.5 -51q-147 0 -235 81t-88 224q0 79 41.5 142.5t108.5 101t144 57t156 19.5q97 0 174 -13t106 -25l29 -13v209q0 135 -86.5 210.5t-243.5 75.5q-203 0 -354 -83l-21 53
q170 84 375 84zM850 234v269q-10 6 -31 14t-100 22t-175 14q-67 0 -134.5 -17t-128 -48.5t-98.5 -86t-38 -121.5q0 -114 75.5 -181t193.5 -67q280 0 436 202zM574 1504l214 -210v-13h-70l-185 186l-183 -186h-66v17l210 206h80z" />
    <glyph glyph-name="atilde" unicode="&#xe3;" horiz-adv-x="1081" 
d="M520 1102q109 0 193 -36t136 -114.5t55 -191.5l-1 -760h-42l-9 178q-76 -97 -189.5 -148t-248.5 -51q-147 0 -235 81t-88 224q0 79 41.5 142.5t108.5 101t144 57t156 19.5q97 0 174 -13t106 -25l29 -13v209q0 135 -86.5 210.5t-243.5 75.5q-203 0 -354 -83l-21 53
q170 84 375 84zM850 234v269q-10 6 -31 14t-100 22t-175 14q-67 0 -134.5 -17t-128 -48.5t-98.5 -86t-38 -121.5q0 -114 75.5 -181t193.5 -67q280 0 436 202zM776 1491l55 -10q0 -81 -51 -134q-51 -52 -125 -52q-75 0 -154 62q-78 63 -133 63q-52 0 -86.5 -37.5t-34.5 -97.5
l-55 10q0 79 50 129t126 50q71 0 153 -62t134 -62q51 0 85 39q36 41 36 102z" />
    <glyph glyph-name="adieresis" unicode="&#xe4;" horiz-adv-x="1081" 
d="M520 1102q109 0 193 -36t136 -114.5t55 -191.5l-1 -760h-42l-9 178q-76 -97 -189.5 -148t-248.5 -51q-147 0 -235 81t-88 224q0 79 41.5 142.5t108.5 101t144 57t156 19.5q97 0 174 -13t106 -25l29 -13v209q0 135 -86.5 210.5t-243.5 75.5q-203 0 -354 -83l-21 53
q170 84 375 84zM850 234v269q-10 6 -31 14t-100 22t-175 14q-67 0 -134.5 -17t-128 -48.5t-98.5 -86t-38 -121.5q0 -114 75.5 -181t193.5 -67q280 0 436 202zM845 1471v-118h-136v118h136zM376 1471v-118h-137v118h137z" />
    <glyph glyph-name="aring" unicode="&#xe5;" horiz-adv-x="1081" 
d="M520 1102q109 0 193 -36t136 -114.5t55 -191.5l-1 -760h-42l-9 178q-76 -97 -189.5 -148t-248.5 -51q-147 0 -235 81t-88 224q0 79 41.5 142.5t108.5 101t144 57t156 19.5q97 0 174 -13t106 -25l29 -13v209q0 135 -86.5 210.5t-243.5 75.5q-203 0 -354 -83l-21 53
q170 84 375 84zM850 234v269q-10 6 -31 14t-100 22t-175 14q-67 0 -134.5 -17t-128 -48.5t-98.5 -86t-38 -121.5q0 -114 75.5 -181t193.5 -67q280 0 436 202zM396 1406q0 57 40 97q40 42 96 42q54 0 93 -41q40 -40 40 -98q0 -57 -39 -96t-94 -39q-56 0 -96 39t-40 96z
M453 1406q0 -34 23 -56.5t56 -22.5t54.5 22t21.5 57t-22 58.5t-54 23.5q-33 0 -56 -23.5t-23 -58.5z" />
    <glyph glyph-name="ae" unicode="&#xe6;" horiz-adv-x="1802" 
d="M1651 124l18 -57q-116 -50 -197 -69t-203 -19q-142 0 -244 65t-156 185l-16 39q-26 -145 -136 -217t-268 -72q-160 0 -257.5 77.5t-97.5 227.5q0 92 30 156.5t88.5 101t134 52.5t177.5 16h290v109q0 158 -72.5 243.5t-209.5 87.5q-85 -1 -172.5 -28.5t-156.5 -85.5
l-36 41q73 65 170.5 95t194.5 30q132 0 219 -75t110 -213q50 130 155 209t238 79q191 0 299.5 -123t104.5 -319v-95h-787v-14v-51q0 -136 40.5 -238.5t131.5 -166t226 -66.5q115 0 196 20.5t186 74.5zM880 615v-4h724v53q2 166 -92.5 276.5t-257.5 110.5
q-170 -7 -268.5 -129t-105.5 -307zM814 315v248h-288q-90 -2 -152 -13.5t-116.5 -41t-81.5 -86t-27 -142.5q0 -118 77.5 -183.5t221.5 -67.5q68 1 129 18.5t112 51t84.5 89.5t40.5 127z" />
    <glyph glyph-name="ccedilla" unicode="&#xe7;" horiz-adv-x="1039" 
d="M871 93l30 -45q-106 -69 -347 -69q-115 0 -203.5 41.5t-143 116t-82.5 171.5t-28 212v42q0 122 26 218.5t79.5 169.5t142 112.5t207.5 39.5q91 0 188 -23t158 -63l-27 -49q-65 43 -151.5 63.5t-167.5 20.5q-191 -3 -296 -129t-105 -360v-42q-1 -77 14 -148t47.5 -134
t79.5 -109.5t114.5 -74t147.5 -27.5q112 0 195 18.5t122 47.5zM548 -9h-53l-25 -121q120 -11 163 -35q46 -25 46 -89q0 -69 -77 -105q-76 -36 -180 -36l7 -49q145 0 225 51t80 139q0 154 -197 169z" />
    <glyph glyph-name="egrave" unicode="&#xe8;" horiz-adv-x="1039" 
d="M551 -21q-191 0 -323 148q-131 149 -131 373v64q0 235 130 386q131 152 329 152q180 0 287 -119t107 -323v-83h-799v-13v-64q0 -199 112 -333q113 -134 288 -134q186 0 348 84l32 -47q-162 -91 -380 -91zM556 1048q-168 0 -276 -117t-121 -294l3 -6h734v33q0 168 -91 275
q-91 109 -249 109zM391 1549l220 -261l-2 -5h-75l-234 261l2 5h89z" />
    <glyph glyph-name="eacute" unicode="&#xe9;" horiz-adv-x="1039" 
d="M551 -21q-191 0 -323 148q-131 149 -131 373v64q0 235 130 386q131 152 329 152q180 0 287 -119t107 -323v-83h-799v-13v-64q0 -199 112 -333q113 -134 288 -134q186 0 348 84l32 -47q-162 -91 -380 -91zM556 1048q-168 0 -276 -117t-121 -294l3 -6h734v33q0 168 -91 275
q-91 109 -249 109zM510 1280l220 261h78l2 -5l-231 -261h-67z" />
    <glyph glyph-name="ecircumflex" unicode="&#xea;" horiz-adv-x="1039" 
d="M551 -21q-191 0 -323 148q-131 149 -131 373v64q0 235 130 386q131 152 329 152q180 0 287 -119t107 -323v-83h-799v-13v-64q0 -199 112 -333q113 -134 288 -134q186 0 348 84l32 -47q-162 -91 -380 -91zM556 1048q-168 0 -276 -117t-121 -294l3 -6h734v33q0 168 -91 275
q-91 109 -249 109zM597 1503l214 -210v-13h-70l-185 186l-183 -186h-66v17l210 206h80z" />
    <glyph glyph-name="edieresis" unicode="&#xeb;" horiz-adv-x="1039" 
d="M551 -21q-191 0 -323 148q-131 149 -131 373v64q0 235 130 386q131 152 329 152q180 0 287 -119t107 -323v-83h-799v-13v-64q0 -199 112 -333q113 -134 288 -134q186 0 348 84l32 -47q-162 -91 -380 -91zM556 1048q-168 0 -276 -117t-121 -294l3 -6h734v33q0 168 -91 275
q-91 109 -249 109zM868 1470v-118h-136v118h136zM399 1470v-118h-137v118h137z" />
    <glyph glyph-name="igrave" unicode="&#xec;" horiz-adv-x="406" 
d="M235 1082v-1082h-54v1082h54zM44 1527l220 -261l-2 -5h-75l-234 261l2 5h89z" />
    <glyph glyph-name="iacute" unicode="&#xed;" horiz-adv-x="406" 
d="M235 1082v-1082h-54v1082h54zM162 1258l220 261h78l2 -5l-231 -261h-67z" />
    <glyph glyph-name="icircumflex" unicode="&#xee;" horiz-adv-x="406" 
d="M235 1082v-1082h-54v1082h54zM250 1481l214 -210v-13h-70l-185 186l-183 -186h-66v17l210 206h80z" />
    <glyph glyph-name="idieresis" unicode="&#xef;" horiz-adv-x="406" 
d="M235 1082v-1082h-54v1082h54zM521 1449v-118h-136v118h136zM52 1449v-118h-137v118h137z" />
    <glyph glyph-name="eth" unicode="&#xf0;" horiz-adv-x="1183" 
d="M1071 1463l-244 -140q214 -202 214 -568v-220q0 -245 -132 -401q-131 -155 -330 -155t-328 134q-128 136 -128 333q0 241 118 374t330 133q137 0 246 -51q111 -52 163 -141l4 5q1 339 -207 529l-360 -206l-28 48l341 195q-101 74 -252 135l20 50q170 -68 284 -155
l260 149zM583 37q179 0 291 139q113 140 113 359v128q-44 96 -151 163q-107 69 -265 69q-198 0 -296 -125q-97 -124 -97 -324q0 -165 109 -287q110 -122 296 -122z" />
    <glyph glyph-name="ntilde" unicode="&#xf1;" 
d="M172 1082h46l7 -184q49 80 144 141q95 63 231 63q179 0 266.5 -112.5t87.5 -352.5v-637h-54v639q0 225 -81 317q-80 92 -218 92q-170 0 -271 -101q-100 -99 -104 -122v-825h-54v1082zM820 1489l55 -10q0 -81 -51 -134q-51 -52 -125 -52q-75 0 -154 62q-78 63 -133 63
q-52 0 -86.5 -37.5t-34.5 -97.5l-55 10q0 79 50 129t126 50q71 0 153 -62t134 -62q51 0 85 39q36 41 36 102z" />
    <glyph glyph-name="ograve" unicode="&#xf2;" 
d="M87 520v42q0 256 131 398q132 142 342 142q212 0 342 -144q132 -142 132 -396v-42q0 -256 -132 -398q-131 -143 -340 -143q-211 0 -343 143q-132 142 -132 398zM141 562v-42q0 -224 114 -356q114 -131 307 -131q190 0 304 131q114 132 114 356v42q0 213 -115 349
q-116 137 -305 137q-191 0 -305 -137t-114 -349zM416 1548l220 -261l-2 -5h-75l-234 261l2 5h89z" />
    <glyph glyph-name="oacute" unicode="&#xf3;" 
d="M87 520v42q0 256 131 398q132 142 342 142q212 0 342 -144q132 -142 132 -396v-42q0 -256 -132 -398q-131 -143 -340 -143q-211 0 -343 143q-132 142 -132 398zM141 562v-42q0 -224 114 -356q114 -131 307 -131q190 0 304 131q114 132 114 356v42q0 213 -115 349
q-116 137 -305 137q-191 0 -305 -137t-114 -349zM535 1279l220 261h78l2 -5l-231 -261h-67z" />
    <glyph glyph-name="ocircumflex" unicode="&#xf4;" 
d="M87 520v42q0 256 131 398q132 142 342 142q212 0 342 -144q132 -142 132 -396v-42q0 -256 -132 -398q-131 -143 -340 -143q-211 0 -343 143q-132 142 -132 398zM141 562v-42q0 -224 114 -356q114 -131 307 -131q190 0 304 131q114 132 114 356v42q0 213 -115 349
q-116 137 -305 137q-191 0 -305 -137t-114 -349zM622 1502l214 -210v-13h-70l-185 186l-183 -186h-66v17l210 206h80z" />
    <glyph glyph-name="otilde" unicode="&#xf5;" 
d="M87 520v42q0 256 131 398q132 142 342 142q212 0 342 -144q132 -142 132 -396v-42q0 -256 -132 -398q-131 -143 -340 -143q-211 0 -343 143q-132 142 -132 398zM141 562v-42q0 -224 114 -356q114 -131 307 -131q190 0 304 131q114 132 114 356v42q0 213 -115 349
q-116 137 -305 137q-191 0 -305 -137t-114 -349zM824 1489l55 -10q0 -81 -51 -134q-51 -52 -125 -52q-75 0 -154 62q-78 63 -133 63q-52 0 -86.5 -37.5t-34.5 -97.5l-55 10q0 79 50 129t126 50q71 0 153 -62t134 -62q51 0 85 39q36 41 36 102z" />
    <glyph glyph-name="odieresis" unicode="&#xf6;" 
d="M87 520v42q0 256 131 398q132 142 342 142q212 0 342 -144q132 -142 132 -396v-42q0 -256 -132 -398q-131 -143 -340 -143q-211 0 -343 143q-132 142 -132 398zM141 562v-42q0 -224 114 -356q114 -131 307 -131q190 0 304 131q114 132 114 356v42q0 213 -115 349
q-116 137 -305 137q-191 0 -305 -137t-114 -349zM893 1469v-118h-136v118h136zM424 1469v-118h-137v118h137z" />
    <glyph glyph-name="divide" unicode="&#xf7;" horiz-adv-x="1159" 
d="M1071 738v-52h-998v52h998zM631 1142v-122h-96v122h96zM631 363v-122h-96v122h96z" />
    <glyph glyph-name="oslash" unicode="&#xf8;" 
d="M556 1103q151 0 259 -72.5t160.5 -192.5t55.5 -275v-43q4 -152 -50.5 -274t-164.5 -194t-257 -72q-148 0 -258.5 71.5t-165.5 193.5t-51 275v43q-7 236 121.5 388t350.5 152zM137 563v-43q0 -158 59 -273l684 641l-18 24q-116 137 -306 137q-129 0 -227 -68
t-146.5 -177.5t-45.5 -240.5zM977 520v43q0 161 -66 278l-686 -642q11 -16 27 -34q115 -132 307 -132q132 0 229.5 66.5t144.5 176t44 244.5z" />
    <glyph glyph-name="ugrave" unicode="&#xf9;" 
d="M905 0l-8 174q-65 -89 -152 -142q-88 -53 -221 -53q-171 0 -263.5 121t-92.5 365v617h54v-619q0 -214 79 -322t221 -108q164 0 255 80q87 77 118 108v861h55v-1082h-45zM414 1527l220 -261l-2 -5h-75l-234 261l2 5h89z" />
    <glyph glyph-name="uacute" unicode="&#xfa;" 
d="M905 0l-8 174q-65 -89 -152 -142q-88 -53 -221 -53q-171 0 -263.5 121t-92.5 365v617h54v-619q0 -214 79 -322t221 -108q164 0 255 80q87 77 118 108v861h55v-1082h-45zM533 1258l220 261h78l2 -5l-231 -261h-67z" />
    <glyph glyph-name="ucircumflex" unicode="&#xfb;" 
d="M905 0l-8 174q-65 -89 -152 -142q-88 -53 -221 -53q-171 0 -263.5 121t-92.5 365v617h54v-619q0 -214 79 -322t221 -108q164 0 255 80q87 77 118 108v861h55v-1082h-45zM620 1481l214 -210v-13h-70l-185 186l-183 -186h-66v17l210 206h80z" />
    <glyph glyph-name="udieresis" unicode="&#xfc;" 
d="M905 0l-8 174q-65 -89 -152 -142q-88 -53 -221 -53q-171 0 -263.5 121t-92.5 365v617h54v-619q0 -214 79 -322t221 -108q164 0 255 80q87 77 118 108v861h55v-1082h-45zM891 1449v-118h-136v118h136zM422 1449v-118h-137v118h137z" />
    <glyph glyph-name="yacute" unicode="&#xfd;" horiz-adv-x="978" 
d="M102 1082l356 -886l40 -108h6l6 16l374 978h60l-481 -1262q-71 -158 -123 -207q-53 -50 -166 -50h-87l5 53h82q93 0 134 37q42 36 101 177l65 176l-431 1076h59zM467 1258l220 261h78l2 -5l-231 -261h-67z" />
    <glyph glyph-name="thorn" unicode="&#xfe;" 
d="M999 542v-21q0 -251 -108 -396q-108 -146 -298 -146q-123 0 -217 48.5t-149 135.5v-163h-1v-416h-54v712q-2 8 -2 9v440q0 3 2 8v329h1v478h54v-666q55 99 148 153.5t216 54.5q191 0 299 -152q109 -151 109 -408zM944 521v21q0 226 -91 365q-90 141 -261 141
q-154 0 -240 -76q-87 -78 -125 -188v-523q43 -108 136.5 -168t230.5 -60q172 0 260 132q90 132 90 356z" />
    <glyph glyph-name="ydieresis" unicode="&#xff;" horiz-adv-x="978" 
d="M102 1082l356 -886l40 -108h6l6 16l374 978h60l-481 -1262q-71 -158 -123 -207q-53 -50 -166 -50h-87l5 53h82q93 0 134 37q42 36 101 177l65 176l-431 1076h59zM825 1449v-118h-136v118h136zM356 1449v-118h-137v118h137z" />
    <glyph glyph-name="Amacron" unicode="&#x100;" horiz-adv-x="1223" 
d="M1130 0l-163 435h-711l-163 -435h-59l544 1456h66l545 -1456h-59zM581 1304l-305 -815h671l-305 815l-28 85h-6zM918 1786v-53h-627v53h627z" />
    <glyph glyph-name="amacron" unicode="&#x101;" horiz-adv-x="1081" 
d="M520 1102q109 0 193 -36t136 -114.5t55 -191.5l-1 -760h-42l-9 178q-76 -97 -189.5 -148t-248.5 -51q-147 0 -235 81t-88 224q0 79 41.5 142.5t108.5 101t144 57t156 19.5q97 0 174 -13t106 -25l29 -13v209q0 135 -86.5 210.5t-243.5 75.5q-203 0 -354 -83l-21 53
q170 84 375 84zM850 234v269q-10 6 -31 14t-100 22t-175 14q-67 0 -134.5 -17t-128 -48.5t-98.5 -86t-38 -121.5q0 -114 75.5 -181t193.5 -67q280 0 436 202zM840 1466v-53h-627v53h627z" />
    <glyph glyph-name="Abreve" unicode="&#x102;" horiz-adv-x="1223" 
d="M1130 0l-163 435h-711l-163 -435h-59l544 1456h66l545 -1456h-59zM581 1304l-305 -815h671l-305 815l-28 85h-6zM835 1839h46l2 -6q5 -107 -70 -175q-73 -67 -202 -67q-130 0 -204 67q-74 68 -69 175l2 6h46q0 -90 56 -141t169 -51q109 0 166.5 52.5t57.5 139.5z" />
    <glyph glyph-name="abreve" unicode="&#x103;" horiz-adv-x="1081" 
d="M520 1102q109 0 193 -36t136 -114.5t55 -191.5l-1 -760h-42l-9 178q-76 -97 -189.5 -148t-248.5 -51q-147 0 -235 81t-88 224q0 79 41.5 142.5t108.5 101t144 57t156 19.5q97 0 174 -13t106 -25l29 -13v209q0 135 -86.5 210.5t-243.5 75.5q-203 0 -354 -83l-21 53
q170 84 375 84zM850 234v269q-10 6 -31 14t-100 22t-175 14q-67 0 -134.5 -17t-128 -48.5t-98.5 -86t-38 -121.5q0 -114 75.5 -181t193.5 -67q280 0 436 202zM757 1519h46l2 -6q5 -107 -70 -175q-73 -67 -202 -67q-130 0 -204 67q-74 68 -69 175l2 6h46q0 -90 56 -141
t169 -51q109 0 166.5 52.5t57.5 139.5z" />
    <glyph glyph-name="Aogonek" unicode="&#x104;" horiz-adv-x="1223" 
d="M1130 0l-163 435h-711l-163 -435h-59l544 1456h66l545 -1456h-59zM581 1304l-305 -815h671l-305 815l-28 85h-6zM1127 20l52 -20q-74 -66 -112 -116q-36 -48 -36 -107q0 -23 16 -51q17 -29 68 -29q55 0 110 38l16 -48q-59 -44 -126 -44q-62 0 -100 36t-38 98
q0 113 150 243z" />
    <glyph glyph-name="aogonek" unicode="&#x105;" horiz-adv-x="1081" 
d="M850 234v269q-10 6 -31 14t-100 22t-175 14q-67 0 -134.5 -17t-128 -48.5t-98.5 -86t-38 -121.5q0 -114 75.5 -181t193.5 -67q280 0 436 202zM969 -265l16 -48q-59 -44 -126 -44q-62 0 -100 36t-38 98q0 109 140 234l-9 167q-76 -97 -189.5 -148t-248.5 -51
q-147 0 -235 81t-88 224q0 79 41.5 142.5t108.5 101t144 57t156 19.5q97 0 174 -13t106 -25l29 -13v209q0 135 -86.5 210.5t-243.5 75.5q-203 0 -354 -83l-21 53q170 84 375 84q109 0 193 -36t136 -114.5t55 -191.5l-1 -752v-8q-23 -21 -39.5 -41.5t-31 -43t-21.5 -31.5
q-36 -48 -36 -107q0 -23 16 -51q17 -29 68 -29q55 0 110 38z" />
    <glyph glyph-name="Cacute" unicode="&#x106;" horiz-adv-x="1327" 
d="M1133 119l27 -42q-65 -48 -187.5 -73t-261.5 -25q-140 0 -251.5 49t-182 136t-107.5 203t-36 252v218q0 143 34.5 258.5t103.5 201.5t180.5 133t258.5 47q118 0 248.5 -27t199.5 -75l-24 -42q-78 45 -196.5 71t-227.5 26q-247 0 -385 -150.5t-138 -440.5v-220
q0 -124 33 -230t97 -186.5t164.5 -127t228.5 -48.5q256 0 422 92zM631 1622l220 261h78l2 -5l-231 -261h-67z" />
    <glyph glyph-name="cacute" unicode="&#x107;" horiz-adv-x="1039" 
d="M871 93l30 -45q-106 -69 -347 -69q-115 0 -203.5 41.5t-143 116t-82.5 171.5t-28 212v42q0 122 26 218.5t79.5 169.5t142 112.5t207.5 39.5q91 0 188 -23t158 -63l-27 -49q-65 43 -151.5 63.5t-167.5 20.5q-191 -3 -296 -129t-105 -360v-42q-1 -77 14 -148t47.5 -134
t79.5 -109.5t114.5 -74t147.5 -27.5q112 0 195 18.5t122 47.5zM500 1279l220 261h78l2 -5l-231 -261h-67z" />
    <glyph glyph-name="Ccircumflex" unicode="&#x108;" horiz-adv-x="1327" 
d="M1133 119l27 -42q-65 -48 -187.5 -73t-261.5 -25q-140 0 -251.5 49t-182 136t-107.5 203t-36 252v218q0 143 34.5 258.5t103.5 201.5t180.5 133t258.5 47q118 0 248.5 -27t199.5 -75l-24 -42q-78 45 -196.5 71t-227.5 26q-247 0 -385 -150.5t-138 -440.5v-220
q0 -124 33 -230t97 -186.5t164.5 -127t228.5 -48.5q256 0 422 92zM718 1845l214 -210v-13h-70l-185 186l-183 -186h-66v17l210 206h80z" />
    <glyph glyph-name="ccircumflex" unicode="&#x109;" horiz-adv-x="1039" 
d="M871 93l30 -45q-106 -69 -347 -69q-115 0 -203.5 41.5t-143 116t-82.5 171.5t-28 212v42q0 122 26 218.5t79.5 169.5t142 112.5t207.5 39.5q91 0 188 -23t158 -63l-27 -49q-65 43 -151.5 63.5t-167.5 20.5q-191 -3 -296 -129t-105 -360v-42q-1 -77 14 -148t47.5 -134
t79.5 -109.5t114.5 -74t147.5 -27.5q112 0 195 18.5t122 47.5zM587 1502l214 -210v-13h-70l-185 186l-183 -186h-66v17l210 206h80z" />
    <glyph glyph-name="uni010A" unicode="&#x10a;" horiz-adv-x="1327" 
d="M1133 119l27 -42q-65 -48 -187.5 -73t-261.5 -25q-140 0 -251.5 49t-182 136t-107.5 203t-36 252v218q0 143 34.5 258.5t103.5 201.5t180.5 133t258.5 47q118 0 248.5 -27t199.5 -75l-24 -42q-78 45 -196.5 71t-227.5 26q-247 0 -385 -150.5t-138 -440.5v-220
q0 -124 33 -230t97 -186.5t164.5 -127t228.5 -48.5q256 0 422 92zM724 1826v-138h-95v138h95z" />
    <glyph glyph-name="uni010B" unicode="&#x10b;" horiz-adv-x="1039" 
d="M871 93l30 -45q-106 -69 -347 -69q-115 0 -203.5 41.5t-143 116t-82.5 171.5t-28 212v42q0 122 26 218.5t79.5 169.5t142 112.5t207.5 39.5q91 0 188 -23t158 -63l-27 -49q-65 43 -151.5 63.5t-167.5 20.5q-191 -3 -296 -129t-105 -360v-42q-1 -77 14 -148t47.5 -134
t79.5 -109.5t114.5 -74t147.5 -27.5q112 0 195 18.5t122 47.5zM593 1483v-138h-95v138h95z" />
    <glyph glyph-name="Ccaron" unicode="&#x10c;" horiz-adv-x="1327" 
d="M1133 119l27 -42q-65 -48 -187.5 -73t-261.5 -25q-140 0 -251.5 49t-182 136t-107.5 203t-36 252v218q0 143 34.5 258.5t103.5 201.5t180.5 133t258.5 47q118 0 248.5 -27t199.5 -75l-24 -42q-78 45 -196.5 71t-227.5 26q-247 0 -385 -150.5t-138 -440.5v-220
q0 -124 33 -230t97 -186.5t164.5 -127t228.5 -48.5q256 0 422 92zM494 1848l183 -187l184 187h67v-16l-212 -207h-79l-214 209v14h71z" />
    <glyph glyph-name="ccaron" unicode="&#x10d;" horiz-adv-x="1039" 
d="M871 93l30 -45q-106 -69 -347 -69q-115 0 -203.5 41.5t-143 116t-82.5 171.5t-28 212v42q0 122 26 218.5t79.5 169.5t142 112.5t207.5 39.5q91 0 188 -23t158 -63l-27 -49q-65 43 -151.5 63.5t-167.5 20.5q-191 -3 -296 -129t-105 -360v-42q-1 -77 14 -148t47.5 -134
t79.5 -109.5t114.5 -74t147.5 -27.5q112 0 195 18.5t122 47.5zM363 1505l183 -187l184 187h67v-16l-212 -207h-79l-214 209v14h71z" />
    <glyph glyph-name="Dcaron" unicode="&#x10e;" horiz-adv-x="1370" 
d="M633 0h-433v1456h433q271 0 435 -163q166 -162 166 -476v-178q0 -313 -156 -476q-154 -163 -445 -163zM633 1402h-379v-1348h379q267 0 406.5 151t139.5 434v181q2 284 -154 433q-155 149 -392 149zM431 1827l183 -187l184 187h67v-16l-212 -207h-79l-214 209v14h71z" />
    <glyph glyph-name="dcaron" unicode="&#x10f;" 
d="M122 521v21q0 256 108 408t300 152q255 0 366 -223v681h54v-811q0 -4 1 -4v-441q-1 -3 -1 -5v-299h-52l-2 167q-55 -89 -149.5 -138.5t-218.5 -49.5q-191 0 -299 146q-107 146 -107 396zM178 542v-21q0 -225 88 -356q88 -132 261 -132q141 0 234 66q94 66 135 146v533
q-41 116 -127 192q-85 78 -240 78q-172 0 -262 -141q-89 -140 -89 -365zM1219 1558v-105l-49 -186h-50l45 182v109h54z" />
    <glyph glyph-name="Dcroat" unicode="&#x110;" horiz-adv-x="1370" 
d="M633 0h-433v713h-140v54h140v689h433q251 0 426 -180q175 -179 175 -459v-178q0 -281 -175 -460q-176 -179 -426 -179zM647 767v-54h-393v-659h379q227 0 387 166t160 419v181q0 250 -160 416t-387 166h-379v-635h393z" />
    <glyph glyph-name="dcroat" unicode="&#x111;" 
d="M1111 1335v-54h-161v-532q0 -4 1 -4v-441q-1 -3 -1 -5v-299h-52l-2 167q-55 -89 -149.5 -138.5t-218.5 -49.5q-191 0 -299 146q-107 146 -107 396v21q0 256 108 408t300 152q124 0 217 -55.5t149 -155.5v390h-372v54h372v225h54v-225h161zM178 542v-21q0 -225 88 -356
q88 -132 261 -132q137 0 231.5 62t137.5 171v512q-41 116 -127 192q-85 78 -240 78q-172 0 -262 -141q-89 -140 -89 -365z" />
    <glyph glyph-name="Emacron" unicode="&#x112;" horiz-adv-x="1129" 
d="M954 786v-54h-700v-678h765v-54h-819v1456h819v-54h-765v-616h700zM925 1786v-53h-627v53h627z" />
    <glyph glyph-name="emacron" unicode="&#x113;" horiz-adv-x="1039" 
d="M551 -21q-191 0 -323 148q-131 149 -131 373v64q0 235 130 386q131 152 329 152q180 0 287 -119t107 -323v-83h-799v-13v-64q0 -199 112 -333q113 -134 288 -134q186 0 348 84l32 -47q-162 -91 -380 -91zM556 1048q-168 0 -276 -117t-121 -294l3 -6h734v33q0 168 -91 275
q-91 109 -249 109zM863 1465v-53h-627v53h627z" />
    <glyph glyph-name="Ebreve" unicode="&#x114;" horiz-adv-x="1129" 
d="M954 786v-54h-700v-678h765v-54h-819v1456h819v-54h-765v-616h700zM842 1839h46l2 -6q5 -107 -70 -175q-73 -67 -202 -67q-130 0 -204 67q-74 68 -69 175l2 6h46q0 -90 56 -141t169 -51q109 0 166.5 52.5t57.5 139.5z" />
    <glyph glyph-name="ebreve" unicode="&#x115;" horiz-adv-x="1039" 
d="M551 -21q-191 0 -323 148q-131 149 -131 373v64q0 235 130 386q131 152 329 152q180 0 287 -119t107 -323v-83h-799v-13v-64q0 -199 112 -333q113 -134 288 -134q186 0 348 84l32 -47q-162 -91 -380 -91zM556 1048q-168 0 -276 -117t-121 -294l3 -6h734v33q0 168 -91 275
q-91 109 -249 109zM780 1518h46l2 -6q5 -107 -70 -175q-73 -67 -202 -67q-130 0 -204 67q-74 68 -69 175l2 6h46q0 -90 56 -141t169 -51q109 0 166.5 52.5t57.5 139.5z" />
    <glyph glyph-name="Edotaccent" unicode="&#x116;" horiz-adv-x="1129" 
d="M954 786v-54h-700v-678h765v-54h-819v1456h819v-54h-765v-616h700zM665 1805v-138h-95v138h95z" />
    <glyph glyph-name="edotaccent" unicode="&#x117;" horiz-adv-x="1039" 
d="M551 -21q-191 0 -323 148q-131 149 -131 373v64q0 235 130 386q131 152 329 152q180 0 287 -119t107 -323v-83h-799v-13v-64q0 -199 112 -333q113 -134 288 -134q186 0 348 84l32 -47q-162 -91 -380 -91zM556 1048q-168 0 -276 -117t-121 -294l3 -6h734v33q0 168 -91 275
q-91 109 -249 109zM603 1484v-138h-95v138h95z" />
    <glyph glyph-name="Eogonek" unicode="&#x118;" horiz-adv-x="1129" 
d="M954 786v-54h-700v-678h765v-54h-819v1456h819v-54h-765v-616h700zM582 20l52 -20q-74 -66 -112 -116q-36 -48 -36 -107q0 -23 16 -51q17 -29 68 -29q55 0 110 38l16 -48q-59 -44 -126 -44q-62 0 -100 36t-38 98q0 113 150 243z" />
    <glyph glyph-name="eogonek" unicode="&#x119;" horiz-adv-x="1039" 
d="M551 -21q-191 0 -323 148q-131 149 -131 373v64q0 235 130 386q131 152 329 152q180 0 287 -119t107 -323v-83h-799v-13v-64q0 -199 112 -333q113 -134 288 -134q186 0 348 84l32 -47q-162 -91 -380 -91zM556 1048q-168 0 -276 -117t-121 -294l3 -6h734v33q0 168 -91 275
q-91 109 -249 109zM588 22l52 -20q-74 -66 -112 -116q-36 -48 -36 -107q0 -23 16 -51q17 -29 68 -29q55 0 110 38l16 -48q-59 -44 -126 -44q-62 0 -100 36t-38 98q0 113 150 243z" />
    <glyph glyph-name="Ecaron" unicode="&#x11a;" horiz-adv-x="1129" 
d="M954 786v-54h-700v-678h765v-54h-819v1456h819v-54h-765v-616h700zM435 1827l183 -187l184 187h67v-16l-212 -207h-79l-214 209v14h71z" />
    <glyph glyph-name="ecaron" unicode="&#x11b;" horiz-adv-x="1039" 
d="M551 -21q-191 0 -323 148q-131 149 -131 373v64q0 235 130 386q131 152 329 152q180 0 287 -119t107 -323v-83h-799v-13v-64q0 -199 112 -333q113 -134 288 -134q186 0 348 84l32 -47q-162 -91 -380 -91zM556 1048q-168 0 -276 -117t-121 -294l3 -6h734v33q0 168 -91 275
q-91 109 -249 109zM373 1506l183 -187l184 187h67v-16l-212 -207h-79l-214 209v14h71z" />
    <glyph glyph-name="Gcircumflex" unicode="&#x11c;" horiz-adv-x="1429" 
d="M727 690h499v-494q-74 -107 -207.5 -162t-289.5 -55q-171 0 -302 88t-197.5 233.5t-61.5 319.5v238q-5 168 60 308.5t192.5 225.5t291.5 85q259 0 469 -166l-33 -41q-85 69 -187 113t-249 44q-150 0 -264.5 -78.5t-172 -207t-53.5 -281.5v-240q-3 -119 31 -225.5t98 -187
t162 -127.5t216 -47q315 0 443 188v414h-445v55zM709 1845l214 -210v-13h-70l-185 186l-183 -186h-66v17l210 206h80z" />
    <glyph glyph-name="gcircumflex" unicode="&#x11d;" 
d="M921 728q0 140 -113 234.5t-263 94.5q-171 0 -275 -85t-104 -243v-30q12 -172 102 -249.5t279 -77.5q175 0 274.5 78.5t99.5 247.5v30zM385 344q-141 29 -202.5 117t-64.5 238v30q0 185 116 280.5t311 95.5q100 0 184 -30l292 4v-54l-223 5q83 -50 125.5 -129t47.5 -173
v-30q0 -99 -31.5 -172.5t-90 -117.5t-134 -65t-169.5 -21q-125 0 -190.5 -31t-65.5 -85q0 -68 61 -97t218 -29q278 0 385.5 -51.5t107.5 -188.5q0 -66 -38 -115t-103.5 -77t-143 -41.5t-167.5 -13.5q-78 0 -134.5 3t-116.5 11.5t-100.5 26t-74.5 44t-50 67t-16 94.5
q0 102 83 160.5t193 58.5q-53 9 -86.5 23.5t-49 36t-20 40.5t-4.5 48q0 53 32 86.5t119 51.5zM610 -357q172 0 284 49.5t112 142.5q0 116 -92 156t-345 40q-204 0 -299.5 -47.5t-95.5 -144.5q0 -110 101.5 -153t334.5 -43zM607 1502l214 -210v-13h-70l-185 186l-183 -186
h-66v17l210 206h80z" />
    <glyph glyph-name="Gbreve" unicode="&#x11e;" horiz-adv-x="1429" 
d="M727 690h499v-494q-74 -107 -207.5 -162t-289.5 -55q-171 0 -302 88t-197.5 233.5t-61.5 319.5v238q-5 168 60 308.5t192.5 225.5t291.5 85q259 0 469 -166l-33 -41q-85 69 -187 113t-249 44q-150 0 -264.5 -78.5t-172 -207t-53.5 -281.5v-240q-3 -119 31 -225.5t98 -187
t162 -127.5t216 -47q315 0 443 188v414h-445v55zM892 1860h46l2 -6q5 -107 -70 -175q-73 -67 -202 -67q-130 0 -204 67q-74 68 -69 175l2 6h46q0 -90 56 -141t169 -51q109 0 166.5 52.5t57.5 139.5z" />
    <glyph glyph-name="gbreve" unicode="&#x11f;" 
d="M921 728q0 140 -113 234.5t-263 94.5q-171 0 -275 -85t-104 -243v-30q12 -172 102 -249.5t279 -77.5q175 0 274.5 78.5t99.5 247.5v30zM385 344q-141 29 -202.5 117t-64.5 238v30q0 185 116 280.5t311 95.5q100 0 184 -30l292 4v-54l-223 5q83 -50 125.5 -129t47.5 -173
v-30q0 -99 -31.5 -172.5t-90 -117.5t-134 -65t-169.5 -21q-125 0 -190.5 -31t-65.5 -85q0 -68 61 -97t218 -29q278 0 385.5 -51.5t107.5 -188.5q0 -66 -38 -115t-103.5 -77t-143 -41.5t-167.5 -13.5q-78 0 -134.5 3t-116.5 11.5t-100.5 26t-74.5 44t-50 67t-16 94.5
q0 102 83 160.5t193 58.5q-53 9 -86.5 23.5t-49 36t-20 40.5t-4.5 48q0 53 32 86.5t119 51.5zM610 -357q172 0 284 49.5t112 142.5q0 116 -92 156t-345 40q-204 0 -299.5 -47.5t-95.5 -144.5q0 -110 101.5 -153t334.5 -43zM790 1517h46l2 -6q5 -107 -70 -175
q-73 -67 -202 -67q-130 0 -204 67q-74 68 -69 175l2 6h46q0 -90 56 -141t169 -51q109 0 166.5 52.5t57.5 139.5z" />
    <glyph glyph-name="uni0120" unicode="&#x120;" horiz-adv-x="1429" 
d="M727 690h499v-494q-74 -107 -207.5 -162t-289.5 -55q-171 0 -302 88t-197.5 233.5t-61.5 319.5v238q-5 168 60 308.5t192.5 225.5t291.5 85q259 0 469 -166l-33 -41q-85 69 -187 113t-249 44q-150 0 -264.5 -78.5t-172 -207t-53.5 -281.5v-240q-3 -119 31 -225.5t98 -187
t162 -127.5t216 -47q315 0 443 188v414h-445v55zM715 1826v-138h-95v138h95z" />
    <glyph glyph-name="uni0121" unicode="&#x121;" 
d="M921 728q0 140 -113 234.5t-263 94.5q-171 0 -275 -85t-104 -243v-30q12 -172 102 -249.5t279 -77.5q175 0 274.5 78.5t99.5 247.5v30zM385 344q-141 29 -202.5 117t-64.5 238v30q0 185 116 280.5t311 95.5q100 0 184 -30l292 4v-54l-223 5q83 -50 125.5 -129t47.5 -173
v-30q0 -99 -31.5 -172.5t-90 -117.5t-134 -65t-169.5 -21q-125 0 -190.5 -31t-65.5 -85q0 -68 61 -97t218 -29q278 0 385.5 -51.5t107.5 -188.5q0 -66 -38 -115t-103.5 -77t-143 -41.5t-167.5 -13.5q-78 0 -134.5 3t-116.5 11.5t-100.5 26t-74.5 44t-50 67t-16 94.5
q0 102 83 160.5t193 58.5q-53 9 -86.5 23.5t-49 36t-20 40.5t-4.5 48q0 53 32 86.5t119 51.5zM610 -357q172 0 284 49.5t112 142.5q0 116 -92 156t-345 40q-204 0 -299.5 -47.5t-95.5 -144.5q0 -110 101.5 -153t334.5 -43zM613 1483v-138h-95v138h95z" />
    <glyph glyph-name="Gcommaaccent" unicode="&#x122;" horiz-adv-x="1429" 
d="M727 690h499v-494q-74 -107 -207.5 -162t-289.5 -55q-171 0 -302 88t-197.5 233.5t-61.5 319.5v238q-5 168 60 308.5t192.5 225.5t291.5 85q259 0 469 -166l-33 -41q-85 69 -187 113t-249 44q-150 0 -264.5 -78.5t-172 -207t-53.5 -281.5v-240q-3 -119 31 -225.5t98 -187
t162 -127.5t216 -47q315 0 443 188v414h-445v55zM757 -260v105h-54v-109l-45 -182h50z" />
    <glyph glyph-name="gcommaaccent" unicode="&#x123;" 
d="M921 728q0 140 -113 234.5t-263 94.5q-171 0 -275 -85t-104 -243v-30q12 -172 102 -249.5t279 -77.5q175 0 274.5 78.5t99.5 247.5v30zM385 344q-141 29 -202.5 117t-64.5 238v30q0 185 116 280.5t311 95.5q100 0 184 -30l292 4v-54l-223 5q83 -50 125.5 -129t47.5 -173
v-30q0 -99 -31.5 -172.5t-90 -117.5t-134 -65t-169.5 -21q-125 0 -190.5 -31t-65.5 -85q0 -68 61 -97t218 -29q278 0 385.5 -51.5t107.5 -188.5q0 -66 -38 -115t-103.5 -77t-143 -41.5t-167.5 -13.5q-78 0 -134.5 3t-116.5 11.5t-100.5 26t-74.5 44t-50 67t-16 94.5
q0 102 83 160.5t193 58.5q-53 9 -86.5 23.5t-49 36t-20 40.5t-4.5 48q0 53 32 86.5t119 51.5zM610 -357q172 0 284 49.5t112 142.5q0 116 -92 156t-345 40q-204 0 -299.5 -47.5t-95.5 -144.5q0 -110 101.5 -153t334.5 -43zM539 1274v128l59 188h50l-55 -184v-132h-54z" />
    <glyph glyph-name="Hcircumflex" unicode="&#x124;" horiz-adv-x="1438" 
d="M1238 1456v-1456h-54v695h-930v-695h-54v1456h54v-707h930v707h54zM756 1824l214 -210v-13h-70l-185 186l-183 -186h-66v17l210 206h80z" />
    <glyph glyph-name="hcircumflex" unicode="&#x125;" 
d="M226 1560v-703q46 115 146.5 180t237.5 65q171 0 257.5 -108.5t86.5 -335.5v-658h-55v660q0 214 -79 300q-78 88 -209 88q-172 0 -271 -105t-114 -174v-769h-54v554h-2q0 50 2 63v943h54zM513 1823l214 -210v-13h-70l-185 186l-183 -186h-66v17l210 206h80z" />
    <glyph glyph-name="Hbar" unicode="&#x126;" horiz-adv-x="1389" 
d="M1197 1456v-375h155v-53h-155v-1028h-54v695h-930v-695h-54v1028h-139v53h139v375h54v-375h930v375h54zM213 1028v-279h930v279h-930z" />
    <glyph glyph-name="hbar" unicode="&#x127;" 
d="M652 1335v-54h-426v-424q52 118 149.5 181.5t234.5 63.5q171 0 257.5 -108.5t86.5 -335.5v-658h-55v660q0 214 -79 300q-78 88 -209 88q-171 0 -266 -101q-93 -101 -119 -259v-688h-54v554h-2q0 50 2 63v664h-107v54h107v225h54v-225h426z" />
    <glyph glyph-name="Itilde" unicode="&#x128;" horiz-adv-x="534" 
d="M294 1456v-1456h-54v1456h54zM511 1811l55 -10q0 -81 -51 -134q-51 -52 -125 -52q-75 0 -154 62q-78 63 -133 63q-52 0 -86.5 -37.5t-34.5 -97.5l-55 10q0 79 50 129t126 50q71 0 153 -62t134 -62q50 0 85 39q36 41 36 102z" />
    <glyph glyph-name="itilde" unicode="&#x129;" horiz-adv-x="406" 
d="M235 1082v-1082h-54v1082h54zM452 1469l55 -10q0 -81 -51 -134q-51 -52 -125 -52q-75 0 -154 62q-78 63 -133 63q-52 0 -86.5 -37.5t-34.5 -97.5l-55 10q0 79 50 129t126 50q71 0 153 -62t134 -62q51 0 85 39q36 41 36 102z" />
    <glyph glyph-name="Imacron" unicode="&#x12a;" horiz-adv-x="534" 
d="M294 1456v-1456h-54v1456h54zM575 1786v-53h-627v53h627z" />
    <glyph glyph-name="imacron" unicode="&#x12b;" horiz-adv-x="406" 
d="M235 1082v-1082h-54v1082h54zM516 1444v-53h-627v53h627z" />
    <glyph glyph-name="Ibreve" unicode="&#x12c;" horiz-adv-x="534" 
d="M294 1456v-1456h-54v1456h54zM492 1839h46l2 -6q5 -107 -70 -175q-73 -67 -202 -67q-130 0 -204 67q-74 68 -69 175l2 6h46q0 -90 56 -141t169 -51q109 0 166.5 52.5t57.5 139.5z" />
    <glyph glyph-name="ibreve" unicode="&#x12d;" horiz-adv-x="406" 
d="M235 1082v-1082h-54v1082h54zM433 1496h46l2 -6q5 -107 -70 -175q-73 -67 -202 -67q-130 0 -204 67q-74 68 -69 175l2 6h46q0 -90 56 -141t169 -51q109 0 166.5 52.5t57.5 139.5z" />
    <glyph glyph-name="Iogonek" unicode="&#x12e;" horiz-adv-x="534" 
d="M294 1456v-1456h-54v1456h54zM233 20l52 -20q-74 -66 -112 -116q-36 -48 -36 -107q0 -23 16 -51q17 -29 68 -29q55 0 110 38l16 -48q-59 -44 -126 -44q-62 0 -100 36t-38 98q0 113 150 243z" />
    <glyph glyph-name="iogonek" unicode="&#x12f;" horiz-adv-x="422" 
d="M239 1082v-1082h-54v1082h54zM239 1560v-138h-54v138h54zM177 20l52 -20q-74 -66 -112 -116q-36 -48 -36 -107q0 -23 16 -51q17 -29 68 -29q55 0 110 38l16 -48q-59 -44 -126 -44q-62 0 -100 36t-38 98q0 113 150 243z" />
    <glyph glyph-name="Idotaccent" unicode="&#x130;" horiz-adv-x="534" 
d="M294 1456v-1456h-54v1456h54zM314 1805v-138h-95v138h95z" />
    <glyph glyph-name="dotlessi" unicode="&#x131;" horiz-adv-x="406" 
d="M235 1082v-1082h-54v1082h54z" />
    <glyph glyph-name="IJ" unicode="&#x132;" horiz-adv-x="1656" 
d="M294 1456v-1456h-54v1456h54zM1407 1456h54v-1034q0 -194 -112 -318.5t-296 -124.5q-112 0 -218.5 25.5t-167.5 74.5l19 59q63 -53 164 -79t203 -26q158 0 256 110.5t98 278.5v1034z" />
    <glyph glyph-name="ij" unicode="&#x133;" horiz-adv-x="867" 
d="M239 1082v-1082h-54v1082h54zM239 1560v-138h-54v138h54zM608 1082h54v-1171q-3 -172 -76 -260t-209 -88h-40h-39l7 54h72q225 0 231 294v1171zM656 1560v-134h-54v134h54z" />
    <glyph glyph-name="Jcircumflex" unicode="&#x134;" horiz-adv-x="1122" 
d="M873 1456h54v-1034q0 -194 -112 -318.5t-296 -124.5q-112 0 -218.5 25.5t-167.5 74.5l19 59q63 -53 164 -79t203 -26q158 0 256 110.5t98 278.5v1034zM939 1794l214 -210v-13h-70l-185 186l-183 -186h-66v17l210 206h80z" />
    <glyph glyph-name="jcircumflex" unicode="&#x135;" horiz-adv-x="422" 
d="M186 1082h54v-1171q0 -167 -75 -257.5t-210 -90.5q-49 0 -112 20l13 52q56 -18 99 -18q110 0 170.5 76.5t60.5 217.5v1171zM250 1462l214 -210v-13h-70l-185 186l-183 -186h-66v17l210 206h80z" />
    <glyph glyph-name="Kcommaaccent" unicode="&#x136;" horiz-adv-x="1227" 
d="M1126 0l-689 721l-183 7v-728h-54v1456h54v-689l198 7l598 682h62v-8l-617 -708l694 -731v-9h-63zM651 -147v-105l-49 -186h-50l45 182v109h54z" />
    <glyph glyph-name="kcommaaccent" unicode="&#x137;" horiz-adv-x="969" 
d="M883 0l-512 557l-145 2v-559h-54v1560h54v-959l134 11l485 470h68v-8l-499 -485l536 -582v-7h-67zM564 -145v-105l-49 -186h-50l45 182v109h54z" />
    <glyph glyph-name="kgreenlandic" unicode="&#x138;" horiz-adv-x="1084" 
d="M954 0l-560 529l-168 9v-538h-55v1082h55v-510l178 10l489 500h61l3 -6l-503 -523l565 -547l-2 -6h-63z" />
    <glyph glyph-name="Lacute" unicode="&#x139;" horiz-adv-x="1130" 
d="M255 1456v-1402h787v-54h-842v1456h55zM185 1538l220 261h78l2 -5l-231 -261h-67z" />
    <glyph glyph-name="lacute" unicode="&#x13a;" horiz-adv-x="422" 
d="M239 1560v-1560h-54v1560h54zM167 1613l220 261h78l2 -5l-231 -261h-67z" />
    <glyph glyph-name="Lcommaaccent" unicode="&#x13b;" horiz-adv-x="1130" 
d="M255 1456v-1402h787v-54h-842v1456h55zM653 -145v-105l-49 -186h-50l45 182v109h54z" />
    <glyph glyph-name="lcommaaccent" unicode="&#x13c;" horiz-adv-x="422" 
d="M239 1560v-1560h-54v1560h54zM243 -145v-105l-49 -186h-50l45 182v109h54z" />
    <glyph glyph-name="Lcaron" unicode="&#x13d;" horiz-adv-x="1130" 
d="M255 1456v-1402h787v-54h-842v1456h55zM663 1455v-105l-49 -186h-50l45 182v109h54z" />
    <glyph glyph-name="lcaron" unicode="&#x13e;" horiz-adv-x="422" 
d="M239 1560v-1560h-54v1560h54zM497 1558v-105l-49 -186h-50l45 182v109h54z" />
    <glyph glyph-name="Ldot" unicode="&#x13f;" horiz-adv-x="1130" 
d="M255 1456v-1402h787v-54h-842v1456h55zM699 825v-138h-95v138h95z" />
    <glyph glyph-name="ldot" unicode="&#x140;" horiz-adv-x="422" 
d="M239 1560v-1560h-54v1560h54zM444 864v-138h-95v138h95z" />
    <glyph glyph-name="Lslash" unicode="&#x141;" horiz-adv-x="1061" 
d="M247 1456v-665l351 111v-57l-351 -111v-680h787v-54h-842v716l-184 -58v57l184 58v683h55z" />
    <glyph glyph-name="lslash" unicode="&#x142;" horiz-adv-x="505" 
d="M286 1560v-710l201 80v-59l-201 -80v-791h-54v769l-215 -85v59l215 85v732h54z" />
    <glyph glyph-name="Nacute" unicode="&#x143;" horiz-adv-x="1449" 
d="M1249 1456v-1456h-54l-934 1356l-6 -2v-1354h-55v1456h55l934 -1353l6 2v1351h54zM679 1601l220 261h78l2 -5l-231 -261h-67z" />
    <glyph glyph-name="nacute" unicode="&#x144;" 
d="M172 1082h46l7 -184q49 80 144 141q95 63 231 63q179 0 266.5 -112.5t87.5 -352.5v-637h-54v639q0 225 -81 317q-80 92 -218 92q-170 0 -271 -101q-100 -99 -104 -122v-825h-54v1082zM531 1279l220 261h78l2 -5l-231 -261h-67z" />
    <glyph glyph-name="Ncommaaccent" unicode="&#x145;" horiz-adv-x="1449" 
d="M1249 1456v-1456h-54l-934 1356l-6 -2v-1354h-55v1456h55l934 -1353l6 2v1351h54zM754 -145v-105l-49 -186h-50l45 182v109h54z" />
    <glyph glyph-name="ncommaaccent" unicode="&#x146;" 
d="M172 1082h46l7 -184q49 80 144 141q95 63 231 63q179 0 266.5 -112.5t87.5 -352.5v-637h-54v639q0 225 -81 317q-80 92 -218 92q-170 0 -271 -101q-100 -99 -104 -122v-825h-54v1082zM606 -145v-105l-49 -186h-50l45 182v109h54z" />
    <glyph glyph-name="Ncaron" unicode="&#x147;" horiz-adv-x="1449" 
d="M1249 1456v-1456h-54l-934 1356l-6 -2v-1354h-55v1456h55l934 -1353l6 2v1351h54zM542 1827l183 -187l184 187h67v-16l-212 -207h-79l-214 209v14h71z" />
    <glyph glyph-name="ncaron" unicode="&#x148;" 
d="M172 1082h46l7 -184q49 80 144 141q95 63 231 63q179 0 266.5 -112.5t87.5 -352.5v-637h-54v639q0 225 -81 317q-80 92 -218 92q-170 0 -271 -101q-100 -99 -104 -122v-825h-54v1082zM394 1505l183 -187l184 187h67v-16l-212 -207h-79l-214 209v14h71z" />
    <glyph glyph-name="napostrophe" unicode="&#x149;" 
d="M172 1082h46l7 -184q49 80 144 141q95 63 231 63q179 0 266.5 -112.5t87.5 -352.5v-637h-54v639q0 225 -81 317q-80 92 -218 92q-170 0 -271 -101q-100 -99 -104 -122v-825h-54v1082zM96 1555v-105l-49 -186h-50l45 182v109h54z" />
    <glyph glyph-name="Eng" unicode="&#x14a;" horiz-adv-x="1450" 
d="M1196 1456h54v-1545q0 -166 -75 -257t-210 -91q-50 0 -112 20l13 52q48 -18 99 -18q110 0 170.5 77t60.5 217v89l-936 1356l-6 -2v-1354h-54v1456h54l936 -1355l6 2v1353z" />
    <glyph glyph-name="eng" unicode="&#x14b;" 
d="M172 1082h46l7 -219q105 239 375 239q179 0 266.5 -112.5t87.5 -352.5v-726q0 -166 -75 -257t-210 -91q-61 0 -133 20l13 52q59 -19 120 -19q110 0 170.5 77.5t60.5 217.5v728q0 225 -80 317t-219 92q-170 0 -260 -99q-90 -100 -115 -255v-694h-54v554h-2q0 7 2 63v465z
" />
    <glyph glyph-name="Omacron" unicode="&#x14c;" horiz-adv-x="1364" 
d="M1231 837v-218q0 -344 -146 -493q-145 -147 -402 -147t-404 147q-146 149 -146 493v218q0 359 156 499q156 141 392 141q243 0 397 -140q153 -139 153 -500zM1177 619v220q0 317 -129 450q-129 134 -367 137q-238 -3 -365 -139q-128 -136 -128 -448v-220q0 -314 128 -451
q129 -135 367 -139q239 5 366 138q128 134 128 452zM982 1807v-53h-627v53h627z" />
    <glyph glyph-name="omacron" unicode="&#x14d;" 
d="M87 520v42q0 256 131 398q132 142 342 142q212 0 342 -144q132 -142 132 -396v-42q0 -256 -132 -398q-131 -143 -340 -143q-211 0 -343 143q-132 142 -132 398zM141 562v-42q0 -224 114 -356q114 -131 307 -131q190 0 304 131q114 132 114 356v42q0 213 -115 349
q-116 137 -305 137q-191 0 -305 -137t-114 -349zM888 1464v-53h-627v53h627z" />
    <glyph glyph-name="Obreve" unicode="&#x14e;" horiz-adv-x="1364" 
d="M1231 837v-218q0 -344 -146 -493q-145 -147 -402 -147t-404 147q-146 149 -146 493v218q0 359 156 499q156 141 392 141q243 0 397 -140q153 -139 153 -500zM1177 619v220q0 317 -129 450q-129 134 -367 137q-238 -3 -365 -139q-128 -136 -128 -448v-220q0 -314 128 -451
q129 -135 367 -139q239 5 366 138q128 134 128 452zM899 1860h46l2 -6q5 -107 -70 -175q-73 -67 -202 -67q-130 0 -204 67q-74 68 -69 175l2 6h46q0 -90 56 -141t169 -51q109 0 166.5 52.5t57.5 139.5z" />
    <glyph glyph-name="obreve" unicode="&#x14f;" 
d="M87 520v42q0 256 131 398q132 142 342 142q212 0 342 -144q132 -142 132 -396v-42q0 -256 -132 -398q-131 -143 -340 -143q-211 0 -343 143q-132 142 -132 398zM141 562v-42q0 -224 114 -356q114 -131 307 -131q190 0 304 131q114 132 114 356v42q0 213 -115 349
q-116 137 -305 137q-191 0 -305 -137t-114 -349zM805 1517h46l2 -6q5 -107 -70 -175q-73 -67 -202 -67q-130 0 -204 67q-74 68 -69 175l2 6h46q0 -90 56 -141t169 -51q109 0 166.5 52.5t57.5 139.5z" />
    <glyph glyph-name="Ohungarumlaut" unicode="&#x150;" horiz-adv-x="1364" 
d="M1231 837v-218q0 -344 -146 -493q-145 -147 -402 -147t-404 147q-146 149 -146 493v218q0 359 156 499q156 141 392 141q243 0 397 -140q153 -139 153 -500zM1177 619v220q0 317 -129 450q-129 134 -367 137q-238 -3 -365 -139q-128 -136 -128 -448v-220q0 -314 128 -451
q129 -135 367 -139q239 5 366 138q128 134 128 452zM727 1628l285 260h72l2 -6l-292 -260h-65zM501 1627l241 261h68l3 -6l-248 -260h-62z" />
    <glyph glyph-name="ohungarumlaut" unicode="&#x151;" 
d="M87 520v42q0 256 131 398q132 142 342 142q212 0 342 -144q132 -142 132 -396v-42q0 -256 -132 -398q-131 -143 -340 -143q-211 0 -343 143q-132 142 -132 398zM141 562v-42q0 -224 114 -356q114 -131 307 -131q190 0 304 131q114 132 114 356v42q0 213 -115 349
q-116 137 -305 137q-191 0 -305 -137t-114 -349zM633 1285l285 260h72l2 -6l-292 -260h-65zM407 1284l241 261h68l3 -6l-248 -260h-62z" />
    <glyph glyph-name="OE" unicode="&#x152;" horiz-adv-x="1873" 
d="M1759 54v-54h-798q-104 -11 -178 -15q-75 -6 -152 -6q-231 0 -375 166t-144 431v304q0 264 143 431q142 166 374 166q124 0 332 -21h798v-54h-802v-616h700v-54h-700v-678h802zM631 33q167 0 272 12v1366q-120 12 -274 12q-211 0 -337 -149q-126 -148 -126 -392v-306
q0 -241 127 -392t338 -151z" />
    <glyph glyph-name="oe" unicode="&#x153;" horiz-adv-x="1921" 
d="M1441 -21q-151 0 -267 94q-117 95 -162 251q-46 -159 -166 -253q-119 -92 -279 -92q-211 0 -343 151q-132 152 -132 390v42q0 237 131 389q132 151 342 151q164 0 282 -94q120 -96 166 -255q47 160 162 254q118 95 271 95q180 0 287 -119t107 -323v-83h-799v-13v-64
q0 -199 112 -333q113 -134 288 -134q97 0 186 36q91 36 146 96l29 -42q-130 -144 -361 -144zM146 562v-42q0 -204 114 -346q114 -141 307 -141q190 0 304 142q114 143 114 345v42q0 200 -115 342q-116 144 -305 144q-191 0 -305 -144q-114 -142 -114 -342zM1446 1048
q-168 0 -276 -117t-121 -294l3 -6h734v33q0 168 -91 275q-91 109 -249 109z" />
    <glyph glyph-name="Racute" unicode="&#x154;" horiz-adv-x="1364" 
d="M1121 1041q0 -150 -80.5 -254.5t-231.5 -143.5l297 -626v-17h-58l-297 631q-43 -4 -104 -4h-397v-627h-54v1456h455q212 0 341 -108.5t129 -306.5zM250 679h399q198 0 308 94t110 266q0 173 -113 268.5t-303 95.5h-401v-724zM559 1601l220 261h78l2 -5l-231 -261h-67z
" />
    <glyph glyph-name="racute" unicode="&#x155;" horiz-adv-x="685" 
d="M655 1091l-6 -48q-186 25 -290 -65q-101 -87 -133 -128v-850h-54v1082h44l9 -180q47 70 135 135q89 65 219 62q33 0 76 -8zM366 1279l220 261h78l2 -5l-231 -261h-67z" />
    <glyph glyph-name="Rcommaaccent" unicode="&#x156;" horiz-adv-x="1364" 
d="M1121 1041q0 -150 -80.5 -254.5t-231.5 -143.5l297 -626v-17h-58l-297 631q-43 -4 -104 -4h-397v-627h-54v1456h455q212 0 341 -108.5t129 -306.5zM250 679h399q198 0 308 94t110 266q0 173 -113 268.5t-303 95.5h-401v-724zM634 -250v105h-54v-109l-45 -182h50z" />
    <glyph glyph-name="rcommaaccent" unicode="&#x157;" horiz-adv-x="685" 
d="M655 1091l-6 -48q-186 25 -290 -65q-101 -87 -133 -128v-850h-54v1082h44l9 -180q47 70 135 135q89 65 219 62q33 0 76 -8zM228 -136v-105l-49 -186h-50l45 182v109h54z" />
    <glyph glyph-name="Rcaron" unicode="&#x158;" horiz-adv-x="1364" 
d="M1121 1041q0 -150 -80.5 -254.5t-231.5 -143.5l297 -626v-17h-58l-297 631q-43 -4 -104 -4h-397v-627h-54v1456h455q212 0 341 -108.5t129 -306.5zM250 679h399q198 0 308 94t110 266q0 173 -113 268.5t-303 95.5h-401v-724zM422 1827l183 -187l184 187h67v-16l-212 -207
h-79l-214 209v14h71z" />
    <glyph glyph-name="rcaron" unicode="&#x159;" horiz-adv-x="685" 
d="M655 1091l-6 -48q-186 25 -290 -65q-101 -87 -133 -128v-850h-54v1082h44l9 -180q47 70 135 135q89 65 219 62q33 0 76 -8zM229 1505l183 -187l184 187h67v-16l-212 -207h-79l-214 209v14h71z" />
    <glyph glyph-name="Sacute" unicode="&#x15a;" horiz-adv-x="1223" 
d="M625 754l83 -26.5t78.5 -27t77 -31t67.5 -34.5t62 -41t49.5 -47.5t40 -57t23 -66.5t9.5 -78q0 -91 -45 -163.5t-119 -115.5t-160.5 -65t-177.5 -22q-365 0 -526 140l40 37q113 -73 221.5 -98t264.5 -25q78 0 154.5 18.5t143 54.5t108 97.5t41.5 139.5q0 62 -24 112
t-58.5 82t-95 62.5t-109.5 48t-127 42.5l-38 12q-189 61 -254 92q-156 74 -202 190q-22 56 -23 126q-1 76 27 138t74.5 104t109.5 70.5t131.5 41.5t140.5 13q133 0 252 -42t193 -106l-25 -48q-64 61 -180.5 101.5t-239.5 40.5q-83 0 -157 -17.5t-136.5 -53t-99 -97.5
t-36.5 -143q0 -46 12 -85t29 -67.5t50.5 -55t62 -43.5t78.5 -36.5t85 -31l96 -30.5zM571 1622l220 261h78l2 -5l-231 -261h-67z" />
    <glyph glyph-name="sacute" unicode="&#x15b;" horiz-adv-x="1019" 
d="M521 581q368 -86 368 -317q0 -72 -32.5 -128.5t-87 -89.5t-121 -50t-139.5 -17q-125 0 -225.5 29.5t-163.5 74.5l28 48q180 -103 361 -103q77 0 149.5 25.5t124.5 81.5t52 130q0 191 -330 267q-53 12 -85 20t-75.5 22.5t-69.5 28.5t-55 36.5t-44.5 48.5t-26 62t-10.5 79
q0 89 54.5 153t134.5 92t173 28q113 0 205.5 -35t147.5 -85l-19 -48q-47 48 -139.5 83.5t-194.5 35.5q-125 0 -216.5 -57.5t-91.5 -164.5q0 -34 8.5 -62t21 -49t36 -38.5t45.5 -29.5t58.5 -24.5t65 -21t74.5 -20.5q13 -3 19 -5zM461 1279l220 261h78l2 -5l-231 -261h-67z
" />
    <glyph glyph-name="Scircumflex" unicode="&#x15c;" horiz-adv-x="1223" 
d="M625 754l83 -26.5t78.5 -27t77 -31t67.5 -34.5t62 -41t49.5 -47.5t40 -57t23 -66.5t9.5 -78q0 -91 -45 -163.5t-119 -115.5t-160.5 -65t-177.5 -22q-365 0 -526 140l40 37q113 -73 221.5 -98t264.5 -25q78 0 154.5 18.5t143 54.5t108 97.5t41.5 139.5q0 62 -24 112
t-58.5 82t-95 62.5t-109.5 48t-127 42.5l-38 12q-189 61 -254 92q-156 74 -202 190q-22 56 -23 126q-1 76 27 138t74.5 104t109.5 70.5t131.5 41.5t140.5 13q133 0 252 -42t193 -106l-25 -48q-64 61 -180.5 101.5t-239.5 40.5q-83 0 -157 -17.5t-136.5 -53t-99 -97.5
t-36.5 -143q0 -46 12 -85t29 -67.5t50.5 -55t62 -43.5t78.5 -36.5t85 -31l96 -30.5zM658 1845l214 -210v-13h-70l-185 186l-183 -186h-66v17l210 206h80z" />
    <glyph glyph-name="scircumflex" unicode="&#x15d;" horiz-adv-x="1019" 
d="M521 581q368 -86 368 -317q0 -72 -32.5 -128.5t-87 -89.5t-121 -50t-139.5 -17q-125 0 -225.5 29.5t-163.5 74.5l28 48q180 -103 361 -103q77 0 149.5 25.5t124.5 81.5t52 130q0 191 -330 267q-53 12 -85 20t-75.5 22.5t-69.5 28.5t-55 36.5t-44.5 48.5t-26 62t-10.5 79
q0 89 54.5 153t134.5 92t173 28q113 0 205.5 -35t147.5 -85l-19 -48q-47 48 -139.5 83.5t-194.5 35.5q-125 0 -216.5 -57.5t-91.5 -164.5q0 -34 8.5 -62t21 -49t36 -38.5t45.5 -29.5t58.5 -24.5t65 -21t74.5 -20.5q13 -3 19 -5zM548 1502l214 -210v-13h-70l-185 186
l-183 -186h-66v17l210 206h80z" />
    <glyph glyph-name="Scedilla" unicode="&#x15e;" horiz-adv-x="1223" 
d="M1115 345q0 -91 -44.5 -163t-118 -115t-159.5 -65.5t-176 -22.5l-9 -64q196 -15 196 -169q0 -88 -79.5 -139t-224.5 -51l-7 49q103 0 180 36t77 105q0 64 -46 89q-43 24 -163 35l22 110q-327 8 -476 139l40 37q113 -73 221 -98t265 -25q78 0 154 18.5t143 54.5t108 97.5
t41 139.5q0 52 -15 95t-45.5 75t-65.5 57t-86 47t-96 38t-105 35l-38 12q-189 62 -255 92q-155 74 -201 189q-23 56 -23 127q-1 94 41 167t112.5 115t154 63.5t175.5 21.5q133 0 252 -42t193 -106l-25 -48q-63 61 -180.5 101.5t-239.5 40.5q-83 0 -157 -17.5t-136.5 -53
t-99 -97.5t-36.5 -143q0 -46 11.5 -85t29.5 -67.5t50.5 -54.5t62 -43.5t78 -36.5t85 -31l95.5 -31l29 -9l83.5 -26.5t79 -27t77 -31t67.5 -34.5t62 -41t49.5 -47.5t40 -57t23 -66.5t9.5 -78z" />
    <glyph glyph-name="scedilla" unicode="&#x15f;" horiz-adv-x="1019" 
d="M509 -21h-3l-8 -59q96 -7 146.5 -47t50.5 -121q0 -88 -80 -139.5t-225 -51.5l-7 49q100 0 180 36q77 36 77 106q0 63 -46 88q-40 24 -163 35l22 106q-208 14 -333 103l28 47q183 -103 361 -103q77 0 149.5 26t124.5 82t52 130q0 90 -80 159t-250 107q-53 12 -84.5 20.5
t-75.5 23t-69.5 28.5t-55 36.5t-45 48.5t-26 62t-10.5 79q0 89 54.5 153t134.5 92t173 28q113 0 205.5 -35t147.5 -85l-19 -49q-47 48 -139.5 83.5t-194.5 35.5q-125 0 -216.5 -57.5t-91.5 -164.5q0 -34 8.5 -62t21 -48.5t36 -38.5t45.5 -29.5t58.5 -24t65 -21t74.5 -20.5
q13 -3 19 -5q368 -87 368 -317q0 -73 -32.5 -129.5t-87 -89.5t-121 -50t-139.5 -17z" />
    <glyph glyph-name="Scaron" unicode="&#x160;" horiz-adv-x="1223" 
d="M625 754l83 -26.5t78.5 -27t77 -31t67.5 -34.5t62 -41t49.5 -47.5t40 -57t23 -66.5t9.5 -78q0 -91 -45 -163.5t-119 -115.5t-160.5 -65t-177.5 -22q-365 0 -526 140l40 37q113 -73 221.5 -98t264.5 -25q78 0 154.5 18.5t143 54.5t108 97.5t41.5 139.5q0 62 -24 112
t-58.5 82t-95 62.5t-109.5 48t-127 42.5l-38 12q-189 61 -254 92q-156 74 -202 190q-22 56 -23 126q-1 76 27 138t74.5 104t109.5 70.5t131.5 41.5t140.5 13q133 0 252 -42t193 -106l-25 -48q-64 61 -180.5 101.5t-239.5 40.5q-83 0 -157 -17.5t-136.5 -53t-99 -97.5
t-36.5 -143q0 -46 12 -85t29 -67.5t50.5 -55t62 -43.5t78.5 -36.5t85 -31l96 -30.5zM434 1848l183 -187l184 187h67v-16l-212 -207h-79l-214 209v14h71z" />
    <glyph glyph-name="scaron" unicode="&#x161;" horiz-adv-x="1019" 
d="M521 581q368 -86 368 -317q0 -72 -32.5 -128.5t-87 -89.5t-121 -50t-139.5 -17q-125 0 -225.5 29.5t-163.5 74.5l28 48q180 -103 361 -103q77 0 149.5 25.5t124.5 81.5t52 130q0 191 -330 267q-53 12 -85 20t-75.5 22.5t-69.5 28.5t-55 36.5t-44.5 48.5t-26 62t-10.5 79
q0 89 54.5 153t134.5 92t173 28q113 0 205.5 -35t147.5 -85l-19 -48q-47 48 -139.5 83.5t-194.5 35.5q-125 0 -216.5 -57.5t-91.5 -164.5q0 -34 8.5 -62t21 -49t36 -38.5t45.5 -29.5t58.5 -24.5t65 -21t74.5 -20.5q13 -3 19 -5zM324 1505l183 -187l184 187h67v-16l-212 -207
h-79l-214 209v14h71z" />
    <glyph glyph-name="Tcommaaccent" unicode="&#x162;" horiz-adv-x="1224" 
d="M1167 1456v-54h-510v-1402h-54v1402h-546v54h1110zM656 -145v-105l-49 -186h-50l45 182v109h54z" />
    <glyph glyph-name="tcommaaccent" unicode="&#x163;" horiz-adv-x="633" 
d="M170 1348l55 26v-292h266v-53h-266v-750q0 -246 164 -246q43 0 106 9l10 -49q-42 -14 -113 -14q-111 0 -166.5 72.5t-55.5 227.5v1069zM476 -155v-105l-49 -186h-50l45 182v109h54z" />
    <glyph glyph-name="Tcaron" unicode="&#x164;" horiz-adv-x="1224" 
d="M1167 1456v-54h-510v-1402h-54v1402h-546v54h1110zM443 1819l183 -187l184 187h67v-16l-212 -207h-79l-214 209v14h71z" />
    <glyph glyph-name="tcaron" unicode="&#x165;" horiz-adv-x="633" 
d="M170 1348l55 26v-292h266v-53h-266v-750q0 -246 164 -246q43 0 106 9l10 -49q-42 -14 -113 -14q-111 0 -166.5 72.5t-55.5 227.5v1069zM536 1539v-105l-49 -186h-50l45 182v109h54z" />
    <glyph glyph-name="Tbar" unicode="&#x166;" horiz-adv-x="1224" 
d="M906 901v-54h-249v-847h-54v847h-284v54h284v501h-546v54h1110v-54h-510v-501h249z" />
    <glyph glyph-name="tbar" unicode="&#x167;" horiz-adv-x="633" 
d="M229 1374h55v-292h266v-55h-266v-339h335v-54h-335v-355q0 -246 164 -246q43 0 106 9l10 -49q-42 -14 -113 -14q-111 0 -166.5 72.5t-55.5 227.5v355h-197v54h197v339h-200v55h200v292z" />
    <glyph glyph-name="Utilde" unicode="&#x168;" horiz-adv-x="1365" 
d="M1126 1456h54v-967q0 -240 -139 -375t-358 -135t-359 135q-139 136 -139 375v967h54v-967q0 -207 125 -332q125 -124 319 -124q193 0 317 124q126 125 126 332v967zM939 1811l55 -10q0 -81 -51 -134q-51 -52 -125 -52q-75 0 -154 62q-78 63 -133 63q-52 0 -86.5 -37.5
t-34.5 -97.5l-55 10q0 79 50 129t126 50q71 0 153 -62t134 -62q50 0 85 39q36 41 36 102z" />
    <glyph glyph-name="utilde" unicode="&#x169;" 
d="M905 0l-8 174q-65 -89 -152 -142q-88 -53 -221 -53q-171 0 -263.5 121t-92.5 365v617h54v-619q0 -214 79 -322t221 -108q164 0 255 80q87 77 118 108v861h55v-1082h-45zM822 1469l55 -10q0 -81 -51 -134q-51 -52 -125 -52q-75 0 -154 62q-78 63 -133 63
q-52 0 -86.5 -37.5t-34.5 -97.5l-55 10q0 79 50 129t126 50q71 0 153 -62t134 -62q51 0 85 39q36 41 36 102z" />
    <glyph glyph-name="Umacron" unicode="&#x16a;" horiz-adv-x="1365" 
d="M1126 1456h54v-967q0 -240 -139 -375t-358 -135t-359 135q-139 136 -139 375v967h54v-967q0 -207 125 -332q125 -124 319 -124q193 0 317 124q126 125 126 332v967zM1003 1786v-53h-627v53h627z" />
    <glyph glyph-name="umacron" unicode="&#x16b;" 
d="M905 0l-8 174q-65 -89 -152 -142q-88 -53 -221 -53q-171 0 -263.5 121t-92.5 365v617h54v-619q0 -214 79 -322t221 -108q164 0 255 80q87 77 118 108v861h55v-1082h-45zM886 1444v-53h-627v53h627z" />
    <glyph glyph-name="Ubreve" unicode="&#x16c;" horiz-adv-x="1365" 
d="M1126 1456h54v-967q0 -240 -139 -375t-358 -135t-359 135q-139 136 -139 375v967h54v-967q0 -207 125 -332q125 -124 319 -124q193 0 317 124q126 125 126 332v967zM920 1839h46l2 -6q5 -107 -70 -175q-73 -67 -202 -67q-130 0 -204 67q-74 68 -69 175l2 6h46
q0 -90 56 -141t169 -51q109 0 166.5 52.5t57.5 139.5z" />
    <glyph glyph-name="ubreve" unicode="&#x16d;" 
d="M905 0l-8 174q-65 -89 -152 -142q-88 -53 -221 -53q-171 0 -263.5 121t-92.5 365v617h54v-619q0 -214 79 -322t221 -108q164 0 255 80q87 77 118 108v861h55v-1082h-45zM803 1496h46l2 -6q5 -107 -70 -175q-73 -67 -202 -67q-130 0 -204 67q-74 68 -69 175l2 6h46
q0 -90 56 -141t169 -51q109 0 166.5 52.5t57.5 139.5z" />
    <glyph glyph-name="Uring" unicode="&#x16e;" horiz-adv-x="1365" 
d="M1126 1456h54v-967q0 -240 -139 -375t-358 -135t-359 135q-139 136 -139 375v967h54v-967q0 -207 125 -332q125 -124 319 -124q193 0 317 124q126 125 126 332v967zM559 1726q0 57 40 97q41 42 96 42q54 0 93 -41q40 -40 40 -98q0 -57 -39 -96t-94 -39t-96 39
q-40 39 -40 96zM616 1726q0 -34 23 -56.5t56 -22.5t54.5 22t21.5 57t-22 58.5t-54 23.5q-33 0 -56 -23.5t-23 -58.5z" />
    <glyph glyph-name="uring" unicode="&#x16f;" 
d="M905 0l-8 174q-65 -89 -152 -142q-88 -53 -221 -53q-171 0 -263.5 121t-92.5 365v617h54v-619q0 -214 79 -322t221 -108q164 0 255 80q87 77 118 108v861h55v-1082h-45zM442 1383q0 57 40 97q40 42 96 42q54 0 93 -41q40 -40 40 -98q0 -57 -39 -96t-94 -39q-56 0 -96 39
t-40 96zM499 1383q0 -34 23 -56.5t56 -22.5t54.5 22t21.5 57t-22 58.5t-54 23.5q-33 0 -56 -23.5t-23 -58.5z" />
    <glyph glyph-name="Uhungarumlaut" unicode="&#x170;" horiz-adv-x="1365" 
d="M1126 1456h54v-967q0 -240 -139 -375t-358 -135t-359 135q-139 136 -139 375v967h54v-967q0 -207 125 -332q125 -124 319 -124q193 0 317 124q126 125 126 332v967zM748 1607l285 260h72l2 -6l-292 -260h-65zM522 1606l241 261h68l3 -6l-248 -260h-62z" />
    <glyph glyph-name="uhungarumlaut" unicode="&#x171;" 
d="M905 0l-8 174q-65 -89 -152 -142q-88 -53 -221 -53q-171 0 -263.5 121t-92.5 365v617h54v-619q0 -214 79 -322t221 -108q164 0 255 80q87 77 118 108v861h55v-1082h-45zM631 1264l285 260h72l2 -6l-292 -260h-65zM405 1263l241 261h68l3 -6l-248 -260h-62z" />
    <glyph glyph-name="Uogonek" unicode="&#x172;" horiz-adv-x="1365" 
d="M1126 1456h54v-967q0 -240 -139 -375t-358 -135t-359 135q-139 136 -139 375v967h54v-967q0 -207 125 -332q125 -124 319 -124q193 0 317 124q126 125 126 332v967zM700 20l52 -20q-74 -66 -112 -116q-36 -48 -36 -107q0 -23 16 -51q17 -29 68 -29q55 0 110 38l16 -48
q-59 -44 -126 -44q-62 0 -100 36t-38 98q0 113 150 243z" />
    <glyph glyph-name="uogonek" unicode="&#x173;" 
d="M905 0l-8 174q-65 -89 -152 -142q-88 -53 -221 -53q-171 0 -263.5 121t-92.5 365v617h54v-619q0 -214 79 -322t221 -108q164 0 255 80q87 77 118 108v861h55v-1082h-45zM889 20l52 -20q-74 -66 -112 -116q-36 -48 -36 -107q0 -23 16 -51q17 -29 68 -29q55 0 110 38
l16 -48q-59 -44 -126 -44q-62 0 -100 36t-38 98q0 113 150 243z" />
    <glyph glyph-name="Wcircumflex" unicode="&#x174;" horiz-adv-x="1855" 
d="M121 1456l302 -1116l63 -242h6l407 1056h60l404 -1055h6l65 241l300 1116h59l-392 -1456h-59l-411 1082h-6l-412 -1082h-59l-393 1456h60zM966 1824l214 -210v-13h-70l-185 186l-183 -186h-66v17l210 206h80z" />
    <glyph glyph-name="wcircumflex" unicode="&#x175;" horiz-adv-x="1550" 
d="M145 1082l221 -769l56 -222l6 -1l314 780h55l312 -780l6 1l58 222l220 769h63l-315 -1082h-54l-312 794h-11l-313 -794h-54l-314 1082h62zM813 1481l214 -210v-13h-70l-185 186l-183 -186h-66v17l210 206h80z" />
    <glyph glyph-name="Ycircumflex" unicode="&#x176;" horiz-adv-x="1223" 
d="M102 1456l481 -809l26 -50l27 50l483 809h66l-547 -903v-553h-55v553l-547 903h66zM648 1813l214 -210v-13h-70l-185 186l-183 -186h-66v17l210 206h80z" />
    <glyph glyph-name="ycircumflex" unicode="&#x177;" horiz-adv-x="978" 
d="M102 1082l356 -886l40 -108h6l6 16l374 978h60l-481 -1262q-71 -158 -123 -207q-53 -50 -166 -50h-87l5 53h82q93 0 134 37q42 36 101 177l65 176l-431 1076h59zM554 1481l214 -210v-13h-70l-185 186l-183 -186h-66v17l210 206h80z" />
    <glyph glyph-name="Ydieresis" unicode="&#x178;" horiz-adv-x="1223" 
d="M102 1456l481 -809l26 -50l27 50l483 809h66l-547 -903v-553h-55v553l-547 903h66zM919 1780v-118h-136v118h136zM450 1780v-118h-137v118h137z" />
    <glyph glyph-name="Zacute" unicode="&#x179;" horiz-adv-x="1224" 
d="M1098 1418l-930 -1364h962v-54h-1036v44l929 1359h-889v53h964v-38zM562 1601l220 261h78l2 -5l-231 -261h-67z" />
    <glyph glyph-name="zacute" unicode="&#x17a;" horiz-adv-x="978" 
d="M871 1039l-711 -985h770v-54h-843v44l717 989h-686v49h753v-43zM477 1258l220 261h78l2 -5l-231 -261h-67z" />
    <glyph glyph-name="Zdotaccent" unicode="&#x17b;" horiz-adv-x="1224" 
d="M1098 1418l-930 -1364h962v-54h-1036v44l929 1359h-889v53h964v-38zM655 1805v-138h-95v138h95z" />
    <glyph glyph-name="zdotaccent" unicode="&#x17c;" horiz-adv-x="978" 
d="M871 1039l-711 -985h770v-54h-843v44l717 989h-686v49h753v-43zM570 1462v-138h-95v138h95z" />
    <glyph glyph-name="Zcaron" unicode="&#x17d;" horiz-adv-x="1224" 
d="M1098 1418l-930 -1364h962v-54h-1036v44l929 1359h-889v53h964v-38zM425 1827l183 -187l184 187h67v-16l-212 -207h-79l-214 209v14h71z" />
    <glyph glyph-name="zcaron" unicode="&#x17e;" horiz-adv-x="978" 
d="M871 1039l-711 -985h770v-54h-843v44l717 989h-686v49h753v-43zM340 1484l183 -187l184 187h67v-16l-212 -207h-79l-214 209v14h71z" />
    <glyph glyph-name="longs" unicode="&#x17f;" horiz-adv-x="422" 
d="M228 0h-54v1260q0 154 74 237.5t208 83.5q73 0 128 -17l-8 -52q-55 15 -119 15q-108 0 -168.5 -70.5t-60.5 -196.5v-1260z" />
    <glyph glyph-name="florin" unicode="&#x192;" horiz-adv-x="644" 
d="M593 1082v-55h-286v-1116q0 -167 -75 -257.5t-210 -90.5q-49 0 -112 20l13 52q56 -18 99 -18q110 0 170.5 76.5t60.5 217.5v1116h-188v55h188v178q0 153 74.5 237t208.5 84q71 0 128 -17l-8 -52q-59 15 -119 15q-108 0 -169 -71t-61 -196v-178h286z" />
    <glyph glyph-name="Ohorn" unicode="&#x1a0;" horiz-adv-x="1451" 
d="M1262 837v-218q0 -295 -146 -468q-145 -172 -402 -172t-404 172q-146 173 -146 468v218q0 295 145 467q146 173 403 173q150 0 265.5 -61.5t185.5 -177.5q153 5 232.5 98t79.5 265h47l3 -5q2 -185 -85 -291.5t-249 -118.5q71 -156 71 -349zM1208 619v220q0 269 -129 426
q-129 158 -367 158q-237 0 -365 -158t-128 -426v-220q0 -270 128 -428q129 -158 367 -158q239 0 366 157q128 158 128 429z" />
    <glyph glyph-name="ohorn" unicode="&#x1a1;" horiz-adv-x="1122" 
d="M87 520v42q0 237 131 389q132 151 342 151q208 0 341 -149q137 1 209.5 79.5t72.5 223.5h48l2 -5q3 -155 -73.5 -246.5t-218.5 -103.5q93 -145 93 -339v-42q0 -238 -132 -390q-130 -151 -340 -151q-211 0 -343 151q-132 152 -132 390zM141 562v-42q0 -204 114 -346
q114 -141 307 -141q190 0 304 142q114 143 114 345v42q0 200 -115 342q-115 144 -305 144q-191 0 -305 -144q-114 -142 -114 -342z" />
    <glyph glyph-name="Uhorn" unicode="&#x1af;" horiz-adv-x="1365" 
d="M1534 1621h46l3 -6q3 -197 -101 -304q-103 -106 -292 -101l-6 2v46q171 0 260.5 93t89.5 270zM1126 1456h54v-967q0 -240 -139 -375t-358 -135t-359 135q-139 136 -139 375v967h54v-967q0 -207 125 -332q125 -124 319 -124q193 0 317 124q126 125 126 332v967z" />
    <glyph glyph-name="uhorn" unicode="&#x1b0;" 
d="M1222 1270h48l2 -5q3 -168 -81.5 -265t-240.5 -107v-448h2q0 -8 -1 -25t-1 -28v-392h-45l-8 190q-52 -102 -146.5 -156.5t-226.5 -54.5q-171 0 -263.5 121t-92.5 365v617h54v-619q0 -214 79 -322t221 -108q164 0 255 80t118 213v756h55v-126l6 -2q129 5 197.5 87
t68.5 229z" />
    <glyph glyph-name="uni01F0" unicode="&#x1f0;" horiz-adv-x="422" 
d="M186 1082h54v-1171q0 -167 -75 -257.5t-210 -90.5q-49 0 -112 20l13 52q56 -18 99 -18q110 0 170.5 76.5t60.5 217.5v1171zM26 1465l183 -187l184 187h67v-16l-212 -207h-79l-214 209v14h71z" />
    <glyph glyph-name="Aringacute" unicode="&#x1fa;" horiz-adv-x="1223" 
d="M1130 0l-163 435h-711l-163 -435h-59l544 1456h66l545 -1456h-59zM581 1304l-305 -815h671l-305 815l-28 85h-6zM587 1859l174 221h69l2 -5l-179 -216h-66zM473 1663q0 59 40 100q41 42 99 42q56 0 96 -42q41 -43 41 -100t-41 -98q-40 -40 -96 -40q-59 0 -99 40t-40 98z
M524 1663q0 -38 25.5 -63t62.5 -25q36 0 61 25t25 63q0 39 -25 65t-61 26q-37 0 -62.5 -26t-25.5 -65z" />
    <glyph glyph-name="aringacute" unicode="&#x1fb;" horiz-adv-x="1081" 
d="M520 1102q109 0 193 -36t136 -114.5t55 -191.5l-1 -760h-42l-9 178q-76 -97 -189.5 -148t-248.5 -51q-147 0 -235 81t-88 224q0 79 41.5 142.5t108.5 101t144 57t156 19.5q97 0 174 -13t106 -25l29 -13v209q0 135 -86.5 210.5t-243.5 75.5q-203 0 -354 -83l-21 53
q170 84 375 84zM850 234v269q-10 6 -31 14t-100 22t-175 14q-67 0 -134.5 -17t-128 -48.5t-98.5 -86t-38 -121.5q0 -114 75.5 -181t193.5 -67q280 0 436 202zM509 1539l174 221h69l2 -5l-179 -216h-66zM395 1343q0 59 40 100q41 42 99 42q56 0 96 -42q41 -43 41 -100
t-41 -98q-40 -40 -96 -40q-59 0 -99 40t-40 98zM446 1343q0 -38 25.5 -63t62.5 -25q36 0 61 25t25 63q0 39 -25 65t-61 26q-37 0 -62.5 -26t-25.5 -65z" />
    <glyph glyph-name="AEacute" unicode="&#x1fc;" horiz-adv-x="1816" 
d="M1768 54v-54h-752l-18 425h-628l-255 -425h-65l881 1456h776v-54h-696l26 -616h588v-54h-586l28 -678h701zM895 1298l-493 -820h594l-39 924l-5 1zM924 1601l220 261h78l2 -5l-231 -261h-67z" />
    <glyph glyph-name="aeacute" unicode="&#x1fd;" horiz-adv-x="1802" 
d="M1651 124l18 -57q-116 -50 -197 -69t-203 -19q-142 0 -244 65t-156 185l-16 39q-26 -145 -136 -217t-268 -72q-160 0 -257.5 77.5t-97.5 227.5q0 92 30 156.5t88.5 101t134 52.5t177.5 16h290v109q0 158 -72.5 243.5t-209.5 87.5q-85 -1 -172.5 -28.5t-156.5 -85.5
l-36 41q73 65 170.5 95t194.5 30q132 0 219 -75t110 -213q50 130 155 209t238 79q191 0 299.5 -123t104.5 -319v-95h-787v-14v-51q0 -136 40.5 -238.5t131.5 -166t226 -66.5q115 0 196 20.5t186 74.5zM880 615v-4h724v53q2 166 -92.5 276.5t-257.5 110.5
q-170 -7 -268.5 -129t-105.5 -307zM814 315v248h-288q-90 -2 -152 -13.5t-116.5 -41t-81.5 -86t-27 -142.5q0 -118 77.5 -183.5t221.5 -67.5q68 1 129 18.5t112 51t84.5 89.5t40.5 127zM842 1280l220 261h78l2 -5l-231 -261h-67z" />
    <glyph glyph-name="Oslashacute" unicode="&#x1fe;" horiz-adv-x="1364" 
d="M1231 837v-218q0 -295 -146 -468q-145 -172 -402 -172q-197 0 -330 103l-42 36q-178 172 -178 501v218q0 295 145 467q146 173 403 173q242 0 391 -160l37 -45q122 -171 122 -435zM188 839v-220q0 -303 150 -447l6 -1l699 1100q-136 152 -362 152q-237 0 -365 -158
t-128 -426zM1177 619v220q0 238 -96 378l-6 1l-693 -1091q118 -94 301 -94q239 0 366 157q128 158 128 429zM665 1663l220 261h78l2 -5l-231 -261h-67z" />
    <glyph glyph-name="oslashacute" unicode="&#x1ff;" 
d="M556 1103q151 0 259 -72.5t160.5 -192.5t55.5 -275v-43q4 -152 -50.5 -274t-164.5 -194t-257 -72q-148 0 -258.5 71.5t-165.5 193.5t-51 275v43q-7 236 121.5 388t350.5 152zM137 563v-43q0 -158 59 -273l684 641l-18 24q-116 137 -306 137q-129 0 -227 -68
t-146.5 -177.5t-45.5 -240.5zM977 520v43q0 161 -66 278l-686 -642q11 -16 27 -34q115 -132 307 -132q132 0 229.5 66.5t144.5 176t44 244.5zM463 1278l220 261h78l2 -5l-231 -261h-67z" />
    <glyph glyph-name="Scommaaccent" unicode="&#x218;" horiz-adv-x="1223" 
d="M625 754l83 -26.5t78.5 -27t77 -31t67.5 -34.5t62 -41t49.5 -47.5t40 -57t23 -66.5t9.5 -78q0 -91 -45 -163.5t-119 -115.5t-160.5 -65t-177.5 -22q-365 0 -526 140l40 37q113 -73 221.5 -98t264.5 -25q78 0 154.5 18.5t143 54.5t108 97.5t41.5 139.5q0 62 -24 112
t-58.5 82t-95 62.5t-109.5 48t-127 42.5l-38 12q-189 61 -254 92q-156 74 -202 190q-22 56 -23 126q-1 76 27 138t74.5 104t109.5 70.5t131.5 41.5t140.5 13q133 0 252 -42t193 -106l-25 -48q-64 61 -180.5 101.5t-239.5 40.5q-83 0 -157 -17.5t-136.5 -53t-99 -97.5
t-36.5 -143q0 -46 12 -85t29 -67.5t50.5 -55t62 -43.5t78.5 -36.5t85 -31l96 -30.5zM646 -270v105h-54v-109l-45 -182h50z" />
    <glyph glyph-name="scommaaccent" unicode="&#x219;" horiz-adv-x="1019" 
d="M521 581q368 -86 368 -317q0 -72 -32.5 -128.5t-87 -89.5t-121 -50t-139.5 -17q-125 0 -225.5 29.5t-163.5 74.5l28 48q180 -103 361 -103q77 0 149.5 25.5t124.5 81.5t52 130q0 191 -330 267q-53 12 -85 20t-75.5 22.5t-69.5 28.5t-55 36.5t-44.5 48.5t-26 62t-10.5 79
q0 89 54.5 153t134.5 92t173 28q113 0 205.5 -35t147.5 -85l-19 -48q-47 48 -139.5 83.5t-194.5 35.5q-125 0 -216.5 -57.5t-91.5 -164.5q0 -34 8.5 -62t21 -49t36 -38.5t45.5 -29.5t58.5 -24.5t65 -21t74.5 -20.5q13 -3 19 -5zM536 -265v105h-54v-109l-45 -182h50z" />
    <glyph glyph-name="uni0237" unicode="&#x237;" horiz-adv-x="422" 
d="M186 1082h54v-1171q0 -167 -75 -257.5t-210 -90.5q-49 0 -112 20l13 52q56 -18 99 -18q110 0 170.5 76.5t60.5 217.5v1171z" />
    <glyph glyph-name="uni02BC" unicode="&#x2bc;" horiz-adv-x="430" 
d="M255 1456v-166l-50 -271h-50l46 268v169h54z" />
    <glyph glyph-name="circumflex" unicode="&#x2c6;" horiz-adv-x="796" 
d="M442 1475l214 -210v-13h-70l-185 186l-183 -186h-66v17l210 206h80z" />
    <glyph glyph-name="caron" unicode="&#x2c7;" horiz-adv-x="764" 
d="M203 1475l183 -187l184 187h67v-16l-212 -207h-79l-214 209v14h71z" />
    <glyph glyph-name="breve" unicode="&#x2d8;" horiz-adv-x="857" 
d="M650 1456h46l2 -6q5 -107 -70 -175q-73 -67 -202 -67q-130 0 -204 67q-74 68 -69 175l2 6h46q0 -90 56 -141t169 -51q109 0 166.5 52.5t57.5 139.5z" />
    <glyph glyph-name="dotaccent" unicode="&#x2d9;" horiz-adv-x="429" 
d="M250 1456v-138h-95v138h95z" />
    <glyph glyph-name="ring" unicode="&#x2da;" horiz-adv-x="660" 
d="M204 1338q0 57 40 97q40 42 96 42q54 0 93 -41q40 -40 40 -98q0 -57 -39 -96t-94 -39q-56 0 -96 39t-40 96zM261 1338q0 -34 23 -56.5t56 -22.5t54.5 22t21.5 57t-22 58.5t-54 23.5q-33 0 -56 -23.5t-23 -58.5z" />
    <glyph glyph-name="ogonek" unicode="&#x2db;" horiz-adv-x="471" 
d="M261 20l52 -20q-74 -66 -112 -116q-36 -48 -36 -107q0 -23 16 -51q17 -29 68 -29q55 0 110 38l16 -48q-59 -44 -126 -44q-62 0 -100 36t-38 98q0 113 150 243z" />
    <glyph glyph-name="tilde" unicode="&#x2dc;" horiz-adv-x="818" 
d="M659 1482l55 -10q0 -82 -51 -134t-125 -52q-75 0 -154 62q-78 63 -133 63q-52 0 -86.5 -37.5t-34.5 -97.5l-55 10q0 79 50 129t126 50q71 0 153 -62t134 -62q50 0 85 39q36 40 36 102z" />
    <glyph glyph-name="hungarumlaut" unicode="&#x2dd;" horiz-adv-x="783" 
d="M387 1258l285 260h72l2 -6l-292 -260h-65zM161 1257l241 261h68l3 -6l-248 -260h-62z" />
    <glyph glyph-name="uni02F3" unicode="&#x2f3;" horiz-adv-x="642" 
d="M186 -219q0 49 40 85q41 35 97 35q53 0 93 -35q40 -36 40 -85q0 -47 -39 -82q-38 -34 -94 -34q-57 0 -97 34t-40 82zM244 -219q0 -25 23 -42.5t56 -17.5q32 0 54 17t22 43q0 27 -22 44.5t-54 17.5q-33 0 -56 -17.5t-23 -44.5z" />
    <glyph glyph-name="gravecomb" unicode="&#x300;" horiz-adv-x="0" 
d="M-637 1556l150 -286l-2 -5h-51l-158 285l1 6h60z" />
    <glyph glyph-name="acutecomb" unicode="&#x301;" horiz-adv-x="0" 
d="M-556 1270l149 286h52l2 -6l-157 -285h-45z" />
    <glyph glyph-name="tildecomb" unicode="&#x303;" horiz-adv-x="0" 
d="M-238 1482l55 -10q0 -82 -51 -134t-125 -52q-75 0 -154 62q-78 63 -133 63q-52 0 -86.5 -37.5t-34.5 -97.5l-55 10q0 79 50 129t126 50q71 0 153 -62t134 -62q50 0 86 39q35 41 35 102z" />
    <glyph glyph-name="hook" unicode="&#x309;" horiz-adv-x="0" 
d="M-550 1227h-48v99q102 8 145.5 34t43.5 80q0 58 -70 83q-70 27 -166 27l7 49q127 0 206 -43t79 -116q0 -74 -52 -113.5t-145 -45.5v-54z" />
    <glyph glyph-name="uni030F" unicode="&#x30f;" horiz-adv-x="0" 
d="M-889 1518l285 -260l-2 -6h-65l-292 260l2 6h72zM-619 1518l241 -261l-2 -5h-62l-248 260l3 6h68z" />
    <glyph glyph-name="dotbelow" unicode="&#x323;" horiz-adv-x="0" 
d="M-531 -157v-138h-95v138h95z" />
    <glyph glyph-name="tonos" unicode="&#x384;" horiz-adv-x="514" 
d="M229 1335l33 181h106l-106 -181h-33z" />
    <glyph glyph-name="dieresistonos" unicode="&#x385;" horiz-adv-x="928" 
d="M771 1456v-108h-126v108h126zM292 1456v-108h-127v108h127zM443 1477l23 180h137l-118 -180h-42z" />
    <glyph glyph-name="Alphatonos" unicode="&#x386;" horiz-adv-x="1223" 
d="M1130 0l-163 435h-711l-163 -435h-59l544 1456h66l545 -1456h-59zM581 1304l-305 -815h671l-305 815l-28 85h-6zM250 1334l33 181h106l-106 -181h-33z" />
    <glyph glyph-name="anoteleia" unicode="&#x387;" horiz-adv-x="472" 
d="M289 776v-152h-118v152h118z" />
    <glyph glyph-name="Epsilontonos" unicode="&#x388;" horiz-adv-x="1129" 
d="M954 786v-54h-700v-678h765v-54h-819v1456h819v-54h-765v-616h700zM-28 1336l33 181h106l-106 -181h-33z" />
    <glyph glyph-name="Etatonos" unicode="&#x389;" horiz-adv-x="1438" 
d="M1238 1456v-1456h-54v695h-930v-695h-54v1456h54v-707h930v707h54zM19 1336l33 181h106l-106 -181h-33z" />
    <glyph glyph-name="Iotatonos" unicode="&#x38a;" horiz-adv-x="534" 
d="M294 1456v-1456h-54v1456h54zM13 1331l33 181h106l-106 -181h-33z" />
    <glyph glyph-name="Omicrontonos" unicode="&#x38c;" horiz-adv-x="1364" 
d="M1231 837v-218q0 -344 -146 -493q-145 -147 -402 -147t-404 147q-146 149 -146 493v218q0 359 156 499q156 141 392 141q243 0 397 -140q153 -139 153 -500zM1177 619v220q0 317 -129 450q-129 134 -367 137q-238 -3 -365 -139q-128 -136 -128 -448v-220q0 -314 128 -451
q129 -135 367 -139q239 5 366 138q128 134 128 452zM163 1334l33 181h106l-106 -181h-33z" />
    <glyph glyph-name="Upsilontonos" unicode="&#x38e;" horiz-adv-x="1223" 
d="M102 1456l481 -809l26 -50l27 50l483 809h66l-547 -903v-553h-55v553l-547 903h66zM-131 1334l33 181h106l-106 -181h-33z" />
    <glyph glyph-name="Omegatonos" unicode="&#x38f;" horiz-adv-x="1321" 
d="M761 0v78q152 76 256 230q103 152 103 424v119q0 245 -129 408q-128 164 -336 164t-336 -164q-127 -163 -127 -408v-119q0 -270 104 -424q106 -154 261 -230v-78h-435v54h366q-152 87 -251 252q-99 166 -99 426v117q0 283 142 455q143 173 375 173q231 0 375 -173
q144 -172 144 -455v-117q0 -260 -99 -425q-98 -165 -248 -253h368v-54h-434zM130 1334l33 181h106l-106 -181h-33z" />
    <glyph glyph-name="iotadieresistonos" unicode="&#x390;" horiz-adv-x="565" 
d="M170 1081h55v-802q0 -131 46.5 -188.5t138.5 -57.5q41 0 107 9l9 -50q-46 -13 -113 -13q-127 0 -185 70t-58 230v802zM500 1383v-108h-126v108h126zM21 1383v-108h-127v108h127zM172 1404l23 180h137l-118 -180h-42z" />
    <glyph glyph-name="Alpha" unicode="&#x391;" horiz-adv-x="1223" 
d="M1130 0l-163 435h-711l-163 -435h-59l544 1456h66l545 -1456h-59zM581 1304l-305 -815h671l-305 815l-28 85h-6z" />
    <glyph glyph-name="Beta" unicode="&#x392;" horiz-adv-x="1230" 
d="M685 0h-485v1456h383q229 0 352.5 -94.5t123.5 -278.5q0 -123 -60 -208.5t-168 -114.5l-1 -6q128 -16 217 -119q88 -100 88 -234q0 -191 -124 -296q-123 -105 -326 -105zM685 719h-431v-665h431q184 0 290 91t106 254q0 143 -107 232q-106 88 -289 88zM254 1402v-629h368
q382 6 382 314q0 156 -106.5 235.5t-314.5 79.5h-329z" />
    <glyph glyph-name="Gamma" unicode="&#x393;" horiz-adv-x="1122" 
d="M1055 1456v-54h-808v-1402h-54v1456h862z" />
    <glyph glyph-name="Delta" unicode="&#x394;" horiz-adv-x="1411" 
d="M58 0l616 1456h65l617 -1456h-1298zM676 1325l-536 -1271h1133l-537 1271l-27 72h-6z" />
    <glyph glyph-name="Delta" unicode="&#x2206;" horiz-adv-x="1411" 
d="M58 0l616 1456h65l617 -1456h-1298zM676 1325l-536 -1271h1133l-537 1271l-27 72h-6z" />
    <glyph glyph-name="Epsilon" unicode="&#x395;" horiz-adv-x="1129" 
d="M954 786v-54h-700v-678h765v-54h-819v1456h819v-54h-765v-616h700z" />
    <glyph glyph-name="Zeta" unicode="&#x396;" horiz-adv-x="1224" 
d="M1098 1418l-930 -1364h962v-54h-1036v44l929 1359h-889v53h964v-38z" />
    <glyph glyph-name="Eta" unicode="&#x397;" horiz-adv-x="1438" 
d="M1238 1456v-1456h-54v695h-930v-695h-54v1456h54v-707h930v707h54z" />
    <glyph glyph-name="Theta" unicode="&#x398;" horiz-adv-x="1364" 
d="M971 744v-53h-591v53h591zM1231 837v-218q0 -295 -146 -468q-145 -172 -402 -172t-404 172q-146 173 -146 468v218q0 295 145 467q146 173 403 173q256 0 403 -173q147 -172 147 -467zM1177 619v220q0 269 -129 426q-129 158 -367 158q-237 0 -365 -158t-128 -426v-220
q0 -270 128 -428q129 -158 367 -158q239 0 366 157q128 158 128 429z" />
    <glyph glyph-name="Iota" unicode="&#x399;" horiz-adv-x="534" 
d="M294 1456v-1456h-54v1456h54z" />
    <glyph glyph-name="Kappa" unicode="&#x39a;" horiz-adv-x="1227" 
d="M1126 0l-689 721l-183 7v-728h-54v1456h54v-689l198 7l598 682h62v-8l-617 -708l694 -731v-9h-63z" />
    <glyph glyph-name="Lambda" unicode="&#x39b;" horiz-adv-x="1313" 
d="M623 1304l-477 -1304h-59l534 1456h65l535 -1456h-59l-479 1304l-27 84h-6z" />
    <glyph glyph-name="Mu" unicode="&#x39c;" horiz-adv-x="1756" 
d="M272 1456l608 -1080h8l607 1080h61v-1456h-54v1345l-6 1l-588 -1046h-47l-601 1053l-6 -1v-1352h-54v1456h72z" />
    <glyph glyph-name="Nu" unicode="&#x39d;" horiz-adv-x="1449" 
d="M1249 1456v-1456h-54l-934 1356l-6 -2v-1354h-55v1456h55l934 -1353l6 2v1351h54z" />
    <glyph glyph-name="Xi" unicode="&#x39e;" 
d="M112 0v54h905v-54h-905zM220 687v54h681v-54h-681zM133 1403v53h845v-53h-845z" />
    <glyph glyph-name="Omicron" unicode="&#x39f;" horiz-adv-x="1364" 
d="M1231 837v-218q0 -344 -146 -493q-145 -147 -402 -147t-404 147q-146 149 -146 493v218q0 359 156 499q156 141 392 141q243 0 397 -140q153 -139 153 -500zM1177 619v220q0 317 -129 450q-129 134 -367 137q-238 -3 -365 -139q-128 -136 -128 -448v-220q0 -314 128 -451
q129 -135 367 -139q239 5 366 138q128 134 128 452z" />
    <glyph glyph-name="Pi" unicode="&#x3a0;" horiz-adv-x="1438" 
d="M1238 1456v-1456h-54v1402h-930v-1402h-54v1456h1038z" />
    <glyph glyph-name="Rho" unicode="&#x3a1;" horiz-adv-x="1230" 
d="M655 625h-401v-625h-54v1456h455q227 0 348 -114q122 -113 122 -301q0 -190 -122 -303t-348 -113zM254 1402v-723h401q208 0 311 103q105 104 105 257q0 158 -104 260q-103 103 -312 103h-401z" />
    <glyph glyph-name="Sigma" unicode="&#x3a3;" 
d="M656 815v-47l-523 -714h916v-54h-992v44l547 743l-547 625v44h37l2 -3v3h893v-53h-842l-2 -5z" />
    <glyph glyph-name="Tau" unicode="&#x3a4;" horiz-adv-x="1224" 
d="M1167 1456v-54h-510v-1402h-54v1402h-546v54h1110z" />
    <glyph glyph-name="Upsilon" unicode="&#x3a5;" horiz-adv-x="1223" 
d="M102 1456l481 -809l26 -50l27 50l483 809h66l-547 -903v-553h-55v553l-547 903h66z" />
    <glyph glyph-name="Phi" unicode="&#x3a6;" horiz-adv-x="1428" 
d="M741 1456v-231q257 -8 411 -151q154 -144 154 -355q0 -214 -154 -359t-411 -151v-209h-55v209q-258 8 -410 151q-152 144 -152 357q0 209 152 355q153 145 410 153v231h55zM1251 719q0 192 -138 318q-136 126 -367 129l-5 -2v-894l5 -2q231 2 367 129q138 127 138 322z
M179 717q0 -194 136 -320q137 -126 366 -129l5 2v894l-5 2q-229 -4 -366 -132q-136 -127 -136 -317z" />
    <glyph glyph-name="Chi" unicode="&#x3a7;" horiz-adv-x="1223" 
d="M141 1456l469 -671l471 671h67l-503 -713l524 -743h-67l-492 701l-491 -701h-66l524 743l-504 713h68z" />
    <glyph glyph-name="Psi" unicode="&#x3a8;" horiz-adv-x="1428" 
d="M741 1456v-1017l6 -3q206 0 340 128q133 129 133 342v550h54v-550q0 -245 -148 -386q-147 -140 -385 -144v-376h-55v376q-238 6 -384 146t-146 384v550h55v-550q0 -211 131 -339q132 -129 338 -130l6 2v1017h55z" />
    <glyph glyph-name="Omega" unicode="&#x3a9;" horiz-adv-x="1321" 
d="M761 0v78q152 76 256 230q103 152 103 424v119q0 245 -129 408q-128 164 -336 164t-336 -164q-127 -163 -127 -408v-119q0 -270 104 -424q106 -154 261 -230v-78h-435v54h366q-152 87 -251 252q-99 166 -99 426v117q0 283 142 455q143 173 375 173q231 0 375 -173
q144 -172 144 -455v-117q0 -260 -99 -425q-98 -165 -248 -253h368v-54h-434z" />
    <glyph glyph-name="Omega" unicode="&#x2126;" horiz-adv-x="1321" 
d="M761 0v78q152 76 256 230q103 152 103 424v119q0 245 -129 408q-128 164 -336 164t-336 -164q-127 -163 -127 -408v-119q0 -270 104 -424q106 -154 261 -230v-78h-435v54h366q-152 87 -251 252q-99 166 -99 426v117q0 283 142 455q143 173 375 173q231 0 375 -173
q144 -172 144 -455v-117q0 -260 -99 -425q-98 -165 -248 -253h368v-54h-434z" />
    <glyph glyph-name="Iotadieresis" unicode="&#x3aa;" horiz-adv-x="534" 
d="M294 1456v-1456h-54v1456h54zM580 1791v-118h-136v118h136zM111 1791v-118h-137v118h137z" />
    <glyph glyph-name="Upsilondieresis" unicode="&#x3ab;" horiz-adv-x="1223" 
d="M102 1456l481 -809l26 -50l27 50l483 809h66l-547 -903v-553h-55v553l-547 903h66zM919 1780v-118h-136v118h136zM450 1780v-118h-137v118h137z" />
    <glyph glyph-name="alphatonos" unicode="&#x3ac;" horiz-adv-x="1149" 
d="M915 1081h35v-846q0 -108 31 -155.5t92 -47.5q21 0 65 10l11 -49q-29 -14 -73 -14q-83 0 -126 45t-52 146q-55 -90 -150.5 -140.5t-219.5 -50.5q-191 0 -299 146q-107 146 -107 396v21q0 256 108 408t300 152q124 0 218 -57t150 -160zM178 542v-21q0 -225 88 -356
q88 -132 261 -132q141 0 232 69q93 70 137 133v573q-41 86 -127 162q-85 78 -240 78q-172 0 -262 -141q-89 -140 -89 -365zM599 1253l33 181h106l-106 -181h-33z" />
    <glyph glyph-name="epsilontonos" unicode="&#x3ad;" horiz-adv-x="1122" 
d="M370 551q-88 25 -144 94.5t-56 157.5q0 139 80 217t228 78q71 0 143.5 -21.5t116.5 -59.5l-24 -53q-89 77 -240 77q-125 0 -184.5 -57.5t-59.5 -177.5q0 -110 75 -169t200 -59h61v-51h-61q-139 0 -219 -60t-80 -187q0 -244 266 -247q169 0 269 78l19 -56
q-104 -76 -288 -76q-154 0 -239.5 80t-85.5 224q0 107 57.5 177.5t165.5 90.5zM525 1252l33 181h106l-106 -181h-33z" />
    <glyph glyph-name="etatonos" unicode="&#x3ae;" 
d="M172 1082h46l7 -219q105 239 375 239q179 0 266.5 -112.5t87.5 -352.5v-1053h-54v1055q0 225 -80 317t-219 92q-170 0 -260 -99q-90 -100 -115 -255v-694h-54v554h-2q0 7 2 63v465zM552 1253l33 181h106l-106 -181h-33z" />
    <glyph glyph-name="iotatonos" unicode="&#x3af;" horiz-adv-x="565" 
d="M170 1081h55v-802q0 -131 46.5 -188.5t138.5 -57.5q41 0 107 9l9 -50q-46 -13 -113 -13q-127 0 -185 70t-58 230v802zM171 1232l33 181h106l-106 -181h-33z" />
    <glyph glyph-name="upsilondieresistonos" unicode="&#x3b0;" 
d="M168 1082h54v-597q0 -233 91 -342q92 -110 249 -110q189 0 272 131q82 131 82 336q0 291 -112 582h66q47 -143 73 -270q26 -125 26 -309q0 -242 -99 -383t-306 -141q-190 0 -293 126.5t-103 381.5v595zM848 1383v-108h-126v108h126zM369 1383v-108h-127v108h127z
M520 1404l23 180h137l-118 -180h-42z" />
    <glyph glyph-name="alpha" unicode="&#x3b1;" horiz-adv-x="1149" 
d="M915 1081h35v-846q0 -108 31 -155.5t92 -47.5q21 0 65 10l11 -49q-29 -14 -73 -14q-83 0 -126 45t-52 146q-55 -90 -150.5 -140.5t-219.5 -50.5q-191 0 -299 146q-107 146 -107 396v21q0 256 108 408t300 152q124 0 218 -57t150 -160zM178 542v-21q0 -225 88 -356
q88 -132 261 -132q141 0 232 69q93 70 137 133v573q-41 86 -127 162q-85 78 -240 78q-172 0 -262 -141q-89 -140 -89 -365z" />
    <glyph glyph-name="beta" unicode="&#x3b2;" horiz-adv-x="1213" 
d="M583 1477q177 0 283 -105q108 -104 108 -269q0 -114 -56.5 -202.5t-157.5 -130.5q156 -33 237 -137q82 -103 82 -248q0 -191 -122 -299q-122 -107 -323 -107q-110 0 -217 43q-108 44 -168 126v-561h-54v697q-2 30 -2 34l2 1v735q0 181 113 302q112 121 275 121zM476 791
h103q341 0 341 317q0 129 -87 222q-85 93 -250 93q-142 0 -238 -105t-96 -264v-810q39 -94 146 -153q106 -58 239 -58q188 0 289 91t101 257q0 165 -105 260q-104 94 -300 94h-143v56z" />
    <glyph glyph-name="gamma" unicode="&#x3b3;" horiz-adv-x="978" 
d="M544 229l333 853h58l-419 -1077v-420h-54v417l-419 1080h58l334 -853l51 -146h6z" />
    <glyph glyph-name="delta" unicode="&#x3b4;" 
d="M185 1456h763v-53h-666l-2 -6l550 -374q91 -61 147 -191q57 -128 57 -270v-42q0 -238 -132 -390q-130 -151 -340 -151q-211 0 -343 151q-132 152 -132 390v42q0 237 131 389q132 151 342 151q23 0 50 -3l2 5l-427 298v54zM560 1048q-191 0 -305 -144q-114 -142 -114 -342
v-42q0 -204 114 -346q114 -141 307 -141q190 0 304 142q114 143 114 345v42q0 200 -115 342q-115 144 -305 144z" />
    <glyph glyph-name="epsilon" unicode="&#x3b5;" horiz-adv-x="908" 
d="M370 551q-88 25 -144 94.5t-56 157.5q0 139 80 217t228 78q71 0 143.5 -21.5t116.5 -59.5l-24 -53q-89 77 -240 77q-125 0 -184.5 -57.5t-59.5 -177.5q0 -110 75 -169t200 -59h61v-51h-61q-139 0 -219 -60t-80 -187q0 -244 266 -247q169 0 269 78l19 -56
q-104 -76 -288 -76q-154 0 -239.5 80t-85.5 224q0 107 57.5 177.5t165.5 90.5z" />
    <glyph glyph-name="zeta" unicode="&#x3b6;" horiz-adv-x="977" 
d="M38 1456h849v-37l-442 -579q-123 -155 -172 -277q-47 -120 -47 -222q0 -117 89 -203q88 -85 262 -85h103q103 0 154 -46t51 -129q0 -86 -72 -160q-72 -75 -146 -97l-14 52q61 21 120 80t59 126q0 121 -151 121h-104q-198 0 -301 100t-103 241q0 113 51 240
q54 131 184 298l398 524h-768v53z" />
    <glyph glyph-name="eta" unicode="&#x3b7;" 
d="M172 1082h46l7 -219q105 239 375 239q179 0 266.5 -112.5t87.5 -352.5v-1053h-54v1055q0 225 -80 317t-219 92q-170 0 -260 -99q-90 -100 -115 -255v-694h-54v554h-2q0 7 2 63v465z" />
    <glyph glyph-name="theta" unicode="&#x3b8;" horiz-adv-x="1181" 
d="M1034 942v-428q0 -250 -116 -393q-115 -142 -326 -142q-209 0 -327 142t-118 393v428q0 249 116 392q117 143 327 143q209 0 326 -143q118 -142 118 -392zM201 942v-193h779v193q0 219 -101 350t-289 131t-289 -131q-100 -130 -100 -350zM980 516v179h-779v-179
q0 -216 101 -350q102 -133 290 -133q186 0 287 132q101 134 101 351z" />
    <glyph glyph-name="iota" unicode="&#x3b9;" horiz-adv-x="565" 
d="M170 1081h55v-802q0 -131 46.5 -188.5t138.5 -57.5q41 0 107 9l9 -50q-46 -13 -113 -13q-127 0 -185 70t-58 230v802z" />
    <glyph glyph-name="kappa" unicode="&#x3ba;" horiz-adv-x="1084" 
d="M954 0l-560 529l-168 9v-538h-55v1082h55v-510l178 10l489 500h61l3 -6l-503 -523l565 -547l-2 -6h-63z" />
    <glyph glyph-name="lambda" unicode="&#x3bb;" 
d="M467 887l-355 -887h-59l431 1075l-65 177q-34 111 -76.5 161.5t-116.5 50.5q-38 0 -68 -7l-9 51q30 10 76 10q111 0 160 -72q50 -71 88 -186l361 -982q42 -117 82.5 -173.5t94.5 -56.5q42 0 68 7l9 -51q-32 -10 -77 -10q-93 0 -139 70q-45 70 -88 188l-264 726l-6 15h-6z
" />
    <glyph glyph-name="uni03BC" unicode="&#x3bc;" 
d="M171 1082h52v-642q0 -224 85 -315q86 -92 221 -92q184 0 268 93t102 263v693h54v-577h2q0 -9 -2 -67v-438h-41l-11 205q-100 -226 -363 -226q-226 0 -315 192v-587h-52v1498z" />
    <glyph glyph-name="nu" unicode="&#x3bd;" horiz-adv-x="978" 
d="M101 1082l334 -853l51 -146h6l52 146l333 853h58l-421 -1081l1 -1h-52l-420 1082h58z" />
    <glyph glyph-name="xi" unicode="&#x3be;" horiz-adv-x="1049" 
d="M694 1460v-4h204v-54h-206q-205 0 -311.5 -73.5t-106.5 -200.5q0 -257 403 -257h122v-56h-122q-212 0 -349 -98q-136 -97 -136 -295q0 -170 139 -269t373 -99h43q123 0 184.5 -52t61.5 -144q0 -80 -72 -147q-73 -68 -146 -89l-15 52q62 18 120 72q60 52 60 113
q0 72 -46 107t-147 35h-43q-241 -1 -405 113q-162 116 -162 312q0 158 91 265.5t253 149.5q-125 33 -193.5 108.5t-68.5 174.5q0 192 177 278h-285v54h494q52 4 89 4z" />
    <glyph glyph-name="omicron" unicode="&#x3bf;" 
d="M87 520v42q0 256 131 398q132 142 342 142q212 0 342 -144q132 -142 132 -396v-42q0 -256 -132 -398q-131 -143 -340 -143q-211 0 -343 143q-132 142 -132 398zM141 562v-42q0 -224 114 -356q114 -131 307 -131q190 0 304 131q114 132 114 356v42q0 213 -115 349
q-116 137 -305 137q-191 0 -305 -137t-114 -349z" />
    <glyph glyph-name="pi" unicode="&#x3c0;" horiz-adv-x="1183" 
d="M1110 1082v-55h-185v-748q0 -131 46.5 -188.5t138.5 -57.5q41 0 107 9l9 -50q-46 -13 -113 -13q-127 0 -185 70t-58 230v748h-569v-1027h-54v1027h-165v55h1028z" />
    <glyph glyph-name="rho" unicode="&#x3c1;" 
d="M999 542v-21q0 -251 -108 -396q-108 -146 -298 -146q-124 0 -218.5 49.5t-148.5 137.5v-582h-54v716q-1 1 -1 5l1 315v16q0 222 117 343q119 123 303 123q190 0 298 -152q109 -151 109 -408zM944 521v21q0 226 -91 365q-90 141 -261 141q-188 0 -277 -128t-89 -305v-351
q42 -109 136 -170t232 -61q172 0 260 132q90 132 90 356z" />
    <glyph glyph-name="sigma1" unicode="&#x3c2;" horiz-adv-x="1089" 
d="M573 1102q165 0 278 -99q114 -98 109 -277l-2 -6h-46q0 159 -98 243q-97 85 -241 85q-191 0 -293 -137t-102 -349v-42q0 -210 111 -341t319 -147q127 -11 186 -59t59 -136q0 -79 -72 -147q-70 -66 -147 -89l-15 52q61 19 120 72q60 52 60 112q0 68 -45 100.5t-150 40.5
q-224 16 -354 160q-128 145 -128 382v42q0 239 122 390q122 150 329 150z" />
    <glyph glyph-name="sigma" unicode="&#x3c3;" 
d="M1117 1082v-55h-345q124 -63 193 -184t69 -279v-43q0 -239 -131 -391q-130 -151 -341 -151t-343 151q-132 152 -132 390v42q0 227 131 373q130 145 341 147h1h11h546zM141 562v-42q0 -204 114 -346q114 -141 307 -141q190 0 304 142q114 143 114 345v42q0 192 -115 328
q-114 137 -305 137h-1q-191 -2 -305 -138q-113 -137 -113 -327z" />
    <glyph glyph-name="tau" unicode="&#x3c4;" horiz-adv-x="1027" 
d="M954 1082v-55h-424v-1027h-54v1027h-403v55h881z" />
    <glyph glyph-name="upsilon" unicode="&#x3c5;" 
d="M168 1082h54v-597q0 -233 91 -342q92 -110 249 -110q189 0 272 131q82 131 82 336q0 291 -112 582h66q47 -143 73 -270q26 -125 26 -309q0 -242 -99 -383t-306 -141q-190 0 -293 126.5t-103 381.5v595z" />
    <glyph glyph-name="phi" unicode="&#x3c6;" horiz-adv-x="1365" 
d="M653 1082h54q232 0 379 -156q147 -154 147 -400q0 -225 -139 -382q-138 -157 -387 -164v-459h-54v459q-263 11 -388 161q-125 152 -125 405q0 171 41 286q39 112 119 250h66q-173 -265 -173 -538q0 -215 104 -357q103 -141 350 -147l6 2v1040zM1180 524q0 206 -133 354
t-334 144l-6 -2v-979l6 -2q221 2 344 144q123 143 123 341z" />
    <glyph glyph-name="chi" unicode="&#x3c7;" 
d="M122 1090q94 0 138 -59q47 -60 110 -183l192 -426l362 660h63l-397 -721l224 -497q84 -168 101 -194q23 -36 75 -36q32 0 69 7l9 -50q-32 -10 -78 -10q-72 0 -112 52q-41 53 -114 205l-208 462l-393 -714h-59l425 775l-214 477q-62 123 -91 161q-28 37 -101 37
q-42 0 -68 -8l-9 52q30 10 76 10z" />
    <glyph glyph-name="psi" unicode="&#x3c8;" horiz-adv-x="1366" 
d="M653 1081h54v-1039l6 -2q253 2 359 156q108 154 108 392q0 248 -152 494h67q66 -123 103 -231q36 -103 36 -261q0 -277 -130 -440q-128 -162 -397 -170v-395h-54v395q-238 11 -371 159q-134 151 -134 451v492h54v-494q0 -272 119 -409q120 -135 326 -138l6 2v1038z" />
    <glyph glyph-name="omega" unicode="&#x3c9;" horiz-adv-x="1772" 
d="M291 1082h66q-152 -288 -152 -582q0 -194 84 -331q85 -136 250 -136q142 0 228 104q87 105 91 324v26v283h56v-283q0 -4 -0.5 -14t-0.5 -12q5 -221 90 -324q86 -104 230 -104q164 0 249 136t85 331q0 286 -152 582h66q70 -155 103 -272q36 -122 36 -307q0 -233 -102 -379
q-102 -145 -284 -145q-132 0 -221 68.5t-127 206.5q-78 -275 -349 -275q-184 0 -284 145q-101 146 -101 379q0 184 35 309q35 120 104 270z" />
    <glyph glyph-name="iotadieresis" unicode="&#x3ca;" horiz-adv-x="565" 
d="M170 1081h55v-802q0 -131 46.5 -188.5t138.5 -57.5q41 0 107 9l9 -50q-46 -13 -113 -13q-127 0 -185 70t-58 230v802zM508 1449v-118h-136v118h136zM39 1449v-118h-137v118h137z" />
    <glyph glyph-name="upsilondieresis" unicode="&#x3cb;" 
d="M168 1082h54v-597q0 -233 91 -342q92 -110 249 -110q189 0 272 131q82 131 82 336q0 291 -112 582h66q47 -143 73 -270q26 -125 26 -309q0 -242 -99 -383t-306 -141q-190 0 -293 126.5t-103 381.5v595zM856 1449v-118h-136v118h136zM387 1449v-118h-137v118h137z" />
    <glyph glyph-name="omicrontonos" unicode="&#x3cc;" 
d="M87 520v42q0 256 131 398q132 142 342 142q212 0 342 -144q132 -142 132 -396v-42q0 -256 -132 -398q-131 -143 -340 -143q-211 0 -343 143q-132 142 -132 398zM141 562v-42q0 -224 114 -356q114 -131 307 -131q190 0 304 131q114 132 114 356v42q0 213 -115 349
q-116 137 -305 137q-191 0 -305 -137t-114 -349zM556 1253l33 181h106l-106 -181h-33z" />
    <glyph glyph-name="upsilontonos" unicode="&#x3cd;" 
d="M168 1082h54v-597q0 -233 91 -342q92 -110 249 -110q189 0 272 131q82 131 82 336q0 291 -112 582h66q47 -143 73 -270q26 -125 26 -309q0 -242 -99 -383t-306 -141q-190 0 -293 126.5t-103 381.5v595zM519 1232l33 181h106l-106 -181h-33z" />
    <glyph glyph-name="omegatonos" unicode="&#x3ce;" horiz-adv-x="1772" 
d="M291 1082h66q-152 -288 -152 -582q0 -194 84 -331q85 -136 250 -136q142 0 228 104q87 105 91 324v26v283h56v-283q0 -4 -0.5 -14t-0.5 -12q5 -221 90 -324q86 -104 230 -104q164 0 249 136t85 331q0 286 -152 582h66q70 -155 103 -272q36 -122 36 -307q0 -233 -102 -379
q-102 -145 -284 -145q-132 0 -221 68.5t-127 206.5q-78 -275 -349 -275q-184 0 -284 145q-101 146 -101 379q0 184 35 309q35 120 104 270zM844 1232l33 181h106l-106 -181h-33z" />
    <glyph glyph-name="uni03D1" unicode="&#x3d1;" horiz-adv-x="1254" 
d="M558 1036v62q0 171 77 275q78 104 200 104q130 0 204 -101q75 -100 75 -278v-587q0 -255 -134 -394q-134 -138 -359 -138q-213 0 -342 144t-129 388v741l54 2v-743q0 -223 112 -350q113 -128 305 -128q212 0 325.5 121.5t113.5 356.5v74q-225 7 -364 133
q-138 126 -138 318zM1060 647v451q0 159 -57.5 242t-167.5 83q-104 0 -163.5 -83.5t-59.5 -241.5v-64q0 -166 118 -275q119 -110 325 -114z" />
    <glyph glyph-name="uni03D2" unicode="&#x3d2;" horiz-adv-x="1106" 
d="M614 796l198 443q52 124 112 176q59 52 151 52q55 0 102 -28l-23 -41q-38 22 -83 22q-61 0 -111 -40t-104 -165l-266 -598v-617h-55v623l-271 592q-57 127 -106 165q-49 40 -108 40q-46 0 -84 -22l-23 41q50 28 103 28q91 0 150 -52q60 -52 112 -176l199 -443l50 -124h6z
" />
    <glyph glyph-name="uni03D6" unicode="&#x3d6;" horiz-adv-x="1612" 
d="M1584 1083v-55h-198q54 -123 83 -240q31 -117 31 -285q0 -235 -96 -380q-96 -144 -269 -144q-257 0 -329 270q-75 -270 -329 -270q-173 0 -269 145q-96 146 -96 379q0 165 30 284q31 121 84 241h-187v55h1545zM1447 500q0 257 -125 528h-1032q-125 -264 -125 -528
q0 -195 79 -331t235 -136q142 0 220.5 113t78.5 339v287h56v-285q0 -9 -0.5 -19.5t-0.5 -14.5q4 -214 86 -318q81 -102 214 -102q155 0 234 136q80 137 80 331z" />
    <glyph glyph-name="uni0400" unicode="&#x400;" horiz-adv-x="1129" 
d="M954 786v-54h-700v-678h765v-54h-819v1456h819v-54h-765v-616h700zM453 1870l220 -261l-2 -5h-75l-234 261l2 5h89z" />
    <glyph glyph-name="uni0401" unicode="&#x401;" horiz-adv-x="1129" 
d="M954 786v-54h-700v-678h765v-54h-819v1456h819v-54h-765v-616h700zM930 1791v-118h-136v118h136zM461 1791v-118h-137v118h137z" />
    <glyph glyph-name="uni0402" unicode="&#x402;" horiz-adv-x="1577" 
d="M1147 1456v-54h-510v-1402h-54v1402h-546v54h1110zM637 787v53h249q237 0 379 -107q141 -107 141 -338q3 -127 -84 -253q-85 -125 -280 -163l-16 42q174 35 247 141q74 107 79 233q6 199 -124 295q-130 97 -342 97h-249z" />
    <glyph glyph-name="uni0403" unicode="&#x403;" horiz-adv-x="1122" 
d="M1055 1456v-54h-808v-1402h-54v1456h862zM563 1601l220 261h78l2 -5l-231 -261h-67z" />
    <glyph glyph-name="uni0404" unicode="&#x404;" horiz-adv-x="1325" 
d="M1126 447h46l2 -6q5 -224 -136 -343q-139 -118 -367 -118q-239 0 -383 176q-144 177 -144 464v218q0 286 144 463t383 177q227 0 367 -119q141 -119 136 -340l-2 -6h-46q0 197 -123 304q-122 107 -332 107q-212 0 -343 -161q-130 -160 -130 -423v-74h584v-54h-584v-92
q0 -266 130 -426t343 -160q211 0 332 103q123 103 123 310z" />
    <glyph glyph-name="uni0405" unicode="&#x405;" horiz-adv-x="1223" 
d="M625 754l83 -26.5t78.5 -27t77 -31t67.5 -34.5t62 -41t49.5 -47.5t40 -57t23 -66.5t9.5 -78q0 -91 -45 -163.5t-119 -115.5t-160.5 -65t-177.5 -22q-365 0 -526 140l40 37q113 -73 221.5 -98t264.5 -25q78 0 154.5 18.5t143 54.5t108 97.5t41.5 139.5q0 62 -24 112
t-58.5 82t-95 62.5t-109.5 48t-127 42.5l-38 12q-189 61 -254 92q-156 74 -202 190q-22 56 -23 126q-1 76 27 138t74.5 104t109.5 70.5t131.5 41.5t140.5 13q133 0 252 -42t193 -106l-25 -48q-64 61 -180.5 101.5t-239.5 40.5q-83 0 -157 -17.5t-136.5 -53t-99 -97.5
t-36.5 -143q0 -46 12 -85t29 -67.5t50.5 -55t62 -43.5t78.5 -36.5t85 -31l96 -30.5z" />
    <glyph glyph-name="uni0406" unicode="&#x406;" horiz-adv-x="534" 
d="M294 1456v-1456h-54v1456h54z" />
    <glyph glyph-name="uni0407" unicode="&#x407;" horiz-adv-x="534" 
d="M294 1456v-1456h-54v1456h54zM580 1791v-118h-136v118h136zM111 1791v-118h-137v118h137z" />
    <glyph glyph-name="uni0408" unicode="&#x408;" horiz-adv-x="1122" 
d="M873 1456h54v-1034q0 -194 -112 -318.5t-296 -124.5q-112 0 -218.5 25.5t-167.5 74.5l19 59q63 -53 164 -79t203 -26q158 0 256 110.5t98 278.5v1034z" />
    <glyph glyph-name="uni0409" unicode="&#x409;" horiz-adv-x="2209" 
d="M520 1456h713v-648h369q228 0 349 -112q123 -113 123 -292q0 -180 -123 -293q-123 -111 -349 -111h-423v1402h-609l-38 -580q-31 -471 -117 -647q-85 -175 -329 -175h-32v54h35q199 0 278 153q81 153 111 615zM1602 754h-369v-700h369q209 0 313 100q105 100 105 252
q0 146 -106 246q-105 102 -312 102z" />
    <glyph glyph-name="uni040A" unicode="&#x40a;" horiz-adv-x="2209" 
d="M249 1456v-708h930v708h54v-646h369q228 0 349 -112q123 -112 123 -293t-123 -293q-122 -112 -349 -112h-423v694h-930v-694h-54v1456h54zM1602 756h-369v-703h369q207 0 313 101q105 100 105 253q0 145 -106 247q-105 102 -312 102z" />
    <glyph glyph-name="uni040B" unicode="&#x40b;" horiz-adv-x="1606" 
d="M1140 1456v-54h-510v-482h327q238 0 359 -115q121 -114 121 -373v-432h-54v432q0 223 -105.5 328t-320.5 105h-327v-865h-54v1402h-546v54h1110z" />
    <glyph glyph-name="uni040C" unicode="&#x40c;" horiz-adv-x="1227" 
d="M1126 0l-689 721l-183 7v-728h-54v1456h54v-689l198 7l598 682h62v-8l-617 -708l694 -731v-9h-63zM555 1513l220 261h78l2 -5l-231 -261h-67z" />
    <glyph glyph-name="uni040D" unicode="&#x40d;" horiz-adv-x="1449" 
d="M260 103l935 1353h54v-1456h-54v1354l-6 2l-935 -1356h-54v1456h54v-1351zM570 1870l220 -261l-2 -5h-75l-234 261l2 5h89z" />
    <glyph glyph-name="uni040E" unicode="&#x40e;" horiz-adv-x="1347" 
d="M110 1456l504 -899l55 -101l20 40l506 960h66l-629 -1199q-58 -113 -141 -196q-81 -82 -222 -82q-49 0 -114 15q-64 15 -93 38l15 51q36 -22 91 -36t106 -14q182 0 299 233l65 128l-595 1062h67zM869 1839h46l2 -6q5 -107 -70 -175q-73 -67 -202 -67q-130 0 -204 67
q-74 68 -69 175l2 6h46q0 -90 56 -141t169 -51q109 0 166.5 52.5t57.5 139.5z" />
    <glyph glyph-name="uni040F" unicode="&#x40f;" horiz-adv-x="1428" 
d="M195 0v1456h54v-1402h930v1402h54v-1456h-488v-349h-54v349h-496z" />
    <glyph glyph-name="uni0410" unicode="&#x410;" horiz-adv-x="1223" 
d="M1130 0l-163 435h-711l-163 -435h-59l544 1456h66l545 -1456h-59zM581 1304l-305 -815h671l-305 815l-28 85h-6z" />
    <glyph glyph-name="uni0411" unicode="&#x411;" horiz-adv-x="1280" 
d="M1055 1456v-54h-808v-594h369q227 0 348 -112q123 -113 123 -292q0 -180 -123 -293q-122 -111 -348 -111h-423v1456h862zM616 754h-369v-700h369q209 0 312 100q104 101 104 252q0 146 -105 246q-104 102 -311 102z" />
    <glyph glyph-name="uni0412" unicode="&#x412;" horiz-adv-x="1230" 
d="M685 0h-485v1456h383q229 0 352.5 -94.5t123.5 -278.5q0 -123 -60 -208.5t-168 -114.5l-1 -6q128 -16 217 -119q88 -100 88 -234q0 -191 -124 -296q-123 -105 -326 -105zM685 719h-431v-665h431q184 0 290 91t106 254q0 143 -107 232q-106 88 -289 88zM254 1402v-629h368
q382 6 382 314q0 156 -106.5 235.5t-314.5 79.5h-329z" />
    <glyph glyph-name="uni0413" unicode="&#x413;" horiz-adv-x="1122" 
d="M1055 1456v-54h-808v-1402h-54v1456h862z" />
    <glyph glyph-name="uni0414" unicode="&#x414;" horiz-adv-x="1425" 
d="M1232 1456v-1402h120v-403h-55v349h-1189v-349h-54v349h-1v54h35q146 0 249 240q104 243 134 697l41 465h720zM561 1402l-36 -411q-24 -356 -98 -601q-73 -243 -192 -336h943v1348h-617z" />
    <glyph glyph-name="uni0415" unicode="&#x415;" horiz-adv-x="1129" 
d="M954 786v-54h-700v-678h765v-54h-819v1456h819v-54h-765v-616h700z" />
    <glyph glyph-name="uni0416" unicode="&#x416;" horiz-adv-x="1615" 
d="M1514 0l-578 720h-101v-720h-54v720h-103l-577 -720h-65l-3 5l588 732l-557 719h71l529 -682h117v682h54v-682h116l529 682h70l-557 -719l589 -732l-3 -5h-65z" />
    <glyph glyph-name="uni0417" unicode="&#x417;" horiz-adv-x="1152" 
d="M719 745q146 -27 222.5 -121.5t76.5 -237.5q0 -193 -114 -300t-320 -107q-246 0 -386 101l26 53q133 -104 360 -104q174 2 277.5 94t103.5 259q0 73 -22 130t-60 95t-92.5 63t-116.5 35.5t-134 10.5h-82v53h82q169 0 281 85t112 232q0 159 -95.5 249t-262.5 90
q-88 0 -174 -25.5t-147 -78.5l-26 46q58 52 155 81t192 29q198 0 305 -104.5t107 -290.5q0 -118 -74.5 -211.5t-193.5 -125.5z" />
    <glyph glyph-name="uni0418" unicode="&#x418;" horiz-adv-x="1449" 
d="M260 103l935 1353h54v-1456h-54v1354l-6 2l-935 -1356h-54v1456h54v-1351z" />
    <glyph glyph-name="uni0419" unicode="&#x419;" horiz-adv-x="1449" 
d="M260 103l935 1353h54v-1456h-54v1354l-6 2l-935 -1356h-54v1456h54v-1351zM959 1839h46l2 -6q5 -107 -70 -175q-73 -67 -202 -67q-130 0 -204 67q-74 68 -69 175l2 6h46q0 -90 56 -141t169 -51q109 0 166.5 52.5t57.5 139.5z" />
    <glyph glyph-name="uni041A" unicode="&#x41a;" horiz-adv-x="1227" 
d="M1126 0l-689 721l-183 7v-728h-54v1456h54v-689l198 7l598 682h62v-8l-617 -708l694 -731v-9h-63z" />
    <glyph glyph-name="uni041B" unicode="&#x41b;" horiz-adv-x="1428" 
d="M420 1456h813v-1456h-54v1402h-709l-38 -580q-24 -470 -95 -647q-70 -175 -271 -175h-32v54h35q156 0 221 152q64 152 88 616z" />
    <glyph glyph-name="uni041C" unicode="&#x41c;" horiz-adv-x="1756" 
d="M272 1456l608 -1080h8l607 1080h61v-1456h-54v1345l-6 1l-588 -1046h-47l-601 1053l-6 -1v-1352h-54v1456h72z" />
    <glyph glyph-name="uni041D" unicode="&#x41d;" horiz-adv-x="1438" 
d="M1238 1456v-1456h-54v695h-930v-695h-54v1456h54v-707h930v707h54z" />
    <glyph glyph-name="uni041E" unicode="&#x41e;" horiz-adv-x="1364" 
d="M1231 837v-218q0 -344 -146 -493q-145 -147 -402 -147t-404 147q-146 149 -146 493v218q0 359 156 499q156 141 392 141q243 0 397 -140q153 -139 153 -500zM1177 619v220q0 317 -129 450q-129 134 -367 137q-238 -3 -365 -139q-128 -136 -128 -448v-220q0 -314 128 -451
q129 -135 367 -139q239 5 366 138q128 134 128 452z" />
    <glyph glyph-name="uni041F" unicode="&#x41f;" horiz-adv-x="1438" 
d="M1238 1456v-1456h-54v1402h-930v-1402h-54v1456h1038z" />
    <glyph glyph-name="uni0420" unicode="&#x420;" horiz-adv-x="1230" 
d="M655 625h-401v-625h-54v1456h455q227 0 348 -114q122 -113 122 -301q0 -190 -122 -303t-348 -113zM254 1402v-723h401q208 0 311 103q105 104 105 257q0 158 -104 260q-103 103 -312 103h-401z" />
    <glyph glyph-name="uni0421" unicode="&#x421;" horiz-adv-x="1327" 
d="M1133 119l27 -42q-65 -48 -187.5 -73t-261.5 -25q-140 0 -251.5 49t-182 136t-107.5 203t-36 252v218q0 143 34.5 258.5t103.5 201.5t180.5 133t258.5 47q118 0 248.5 -27t199.5 -75l-24 -42q-78 45 -196.5 71t-227.5 26q-247 0 -385 -150.5t-138 -440.5v-220
q0 -124 33 -230t97 -186.5t164.5 -127t228.5 -48.5q256 0 422 92z" />
    <glyph glyph-name="uni0422" unicode="&#x422;" horiz-adv-x="1224" 
d="M1167 1456v-54h-510v-1402h-54v1402h-546v54h1110z" />
    <glyph glyph-name="uni0423" unicode="&#x423;" horiz-adv-x="1347" 
d="M110 1456l504 -899l55 -101l20 40l506 960h66l-629 -1199q-58 -113 -141 -196q-81 -82 -222 -82q-49 0 -114 15q-64 15 -93 38l15 51q36 -22 91 -36t106 -14q182 0 299 233l65 128l-595 1062h67z" />
    <glyph glyph-name="uni0424" unicode="&#x424;" horiz-adv-x="1428" 
d="M741 1456v-231q257 -8 411 -151q154 -144 154 -355q0 -214 -154 -359t-411 -151v-209h-55v209q-258 8 -410 151q-152 144 -152 357q0 209 152 355q153 145 410 153v231h55zM1251 719q0 192 -138 318q-136 126 -367 129l-5 -2v-894l5 -2q231 2 367 129q138 127 138 322z
M179 717q0 -194 136 -320q137 -126 366 -129l5 2v894l-5 2q-229 -4 -366 -132q-136 -127 -136 -317z" />
    <glyph glyph-name="uni0425" unicode="&#x425;" horiz-adv-x="1223" 
d="M141 1456l469 -671l471 671h67l-503 -713l524 -743h-67l-492 701l-491 -701h-66l524 743l-504 713h68z" />
    <glyph glyph-name="uni0426" unicode="&#x426;" horiz-adv-x="1426" 
d="M1276 85v-436h-54v436h54zM184 0v1456h54v-1402h930v1402h54v-1456h-1038z" />
    <glyph glyph-name="uni0427" unicode="&#x427;" horiz-adv-x="1325" 
d="M1076 1456h54v-1456h-54v719q-217 -61 -402 -61q-238 0 -359 104q-120 105 -120 343v351h54v-351q0 -204 105 -298.5t320 -94.5q197 0 402 60v684z" />
    <glyph glyph-name="uni0428" unicode="&#x428;" horiz-adv-x="2039" 
d="M188 1456h55v-1402h733v1402h55v-1402h733v1402h54v-1456h-1630v1456z" />
    <glyph glyph-name="uni0429" unicode="&#x429;" horiz-adv-x="2038" 
d="M188 1456h55v-1402h733v1402h55v-1402h733v1402h54v-1371h53v-436h-54v351h-1629v1456z" />
    <glyph glyph-name="uni042A" unicode="&#x42a;" horiz-adv-x="1585" 
d="M-29 1402v54h581v-648h369q227 0 348 -112q123 -113 123 -292q0 -180 -123 -293q-121 -111 -348 -111h-423v1402h-527zM921 754h-369v-700h369q209 0 312 100q104 101 104 252q0 146 -105 246q-104 102 -311 102z" />
    <glyph glyph-name="uni042B" unicode="&#x42b;" horiz-adv-x="1648" 
d="M247 1456v-648h369q227 0 348 -112q123 -113 123 -292q0 -180 -123 -293q-122 -111 -348 -111h-423v1456h54zM616 754h-369v-700h369q209 0 312 100q104 101 104 252q0 146 -105 246q-104 102 -311 102zM1447 1456v-1456h-54v1456h54z" />
    <glyph glyph-name="uni042C" unicode="&#x42c;" horiz-adv-x="1223" 
d="M247 1456v-648h369q227 0 348 -112q123 -113 123 -292q0 -180 -123 -293q-122 -111 -348 -111h-423v1456h54zM616 754h-369v-700h369q209 0 312 100q104 101 104 252q0 146 -105 246q-104 102 -311 102z" />
    <glyph glyph-name="uni042D" unicode="&#x42d;" horiz-adv-x="1325" 
d="M198 1011h-46l-2 6q-5 224 134 342q140 119 370 119q238 0 382 -177q145 -176 145 -463v-218q0 -288 -145 -464q-144 -176 -382 -176q-230 0 -369 118q-140 119 -135 341l2 6h46q0 -197 122 -304q124 -107 334 -107q212 0 342 160q131 161 131 424v112h-582v54h582v54
q0 264 -131 425t-342 161q-212 0 -334 -104t-122 -309z" />
    <glyph glyph-name="uni042E" unicode="&#x42e;" horiz-adv-x="1896" 
d="M1735 837v-218q0 -295 -146 -468q-145 -172 -402 -172t-404 172q-146 173 -146 468v74h-367v-693h-54v1456h54v-709h367v90q0 295 145 467q146 173 403 173q256 0 403 -173q147 -172 147 -467zM1681 619v220q0 269 -129 426q-129 158 -367 158q-237 0 -365 -158
t-128 -426v-220q0 -270 128 -428q129 -158 367 -158q239 0 366 157q128 158 128 429z" />
    <glyph glyph-name="uni042F" unicode="&#x42f;" horiz-adv-x="1200" 
d="M492 659l-335 -659h-62l349 674l-7 10q-140 39 -214.5 130.5t-74.5 223.5q0 198 126 308q127 110 348 110h426v-1456h-55v659h-501zM993 714v688h-371q-205 0 -312.5 -94.5t-107.5 -267.5q0 -147 96 -237q97 -89 262 -89h433z" />
    <glyph glyph-name="uni0430" unicode="&#x430;" horiz-adv-x="1081" 
d="M520 1102q109 0 193 -36t136 -114.5t55 -191.5l-1 -760h-42l-9 178q-76 -97 -189.5 -148t-248.5 -51q-147 0 -235 81t-88 224q0 79 41.5 142.5t108.5 101t144 57t156 19.5q97 0 174 -13t106 -25l29 -13v209q0 135 -86.5 210.5t-243.5 75.5q-203 0 -354 -83l-21 53
q170 84 375 84zM850 234v269q-10 6 -31 14t-100 22t-175 14q-67 0 -134.5 -17t-128 -48.5t-98.5 -86t-38 -121.5q0 -114 75.5 -181t193.5 -67q280 0 436 202z" />
    <glyph glyph-name="uni0431" unicode="&#x431;" horiz-adv-x="1122" 
d="M570 1102q211 0 343 -151q132 -152 132 -389v-42q0 -238 -132 -390q-130 -151 -341 -151t-343 151q-132 152 -132 390v372q0 252 149 386t429 142q155 3 231.5 35t76.5 98h41l2 -6q7 -94 -77.5 -136.5t-267.5 -44.5q-256 -4 -393 -124.5t-137 -349.5v-62q57 127 166 199
q109 73 253 73zM570 1048q-191 0 -305 -144q-114 -142 -114 -342v-42q0 -204 114 -346q114 -141 307 -141q190 0 304 142q114 143 114 345v42q0 200 -115 342q-115 144 -305 144z" />
    <glyph glyph-name="uni0432" unicode="&#x432;" 
d="M622 0h-441v1082h372q195 0 300.5 -71t105.5 -209q0 -92 -57 -158.5t-157 -88.5h1q112 -12 185 -88q75 -75 75 -174q0 -141 -105 -218q-103 -75 -279 -75zM622 521h-387v-467h387q156 0 243.5 62t87.5 176q0 102 -90 165q-89 64 -241 64zM235 1027v-452h338
q163 0 247.5 58t84.5 172q0 222 -352 222h-318z" />
    <glyph glyph-name="uni0433" unicode="&#x433;" horiz-adv-x="867" 
d="M822 1082v-55h-596v-1027h-54v1082h650z" />
    <glyph glyph-name="uni0434" unicode="&#x434;" horiz-adv-x="1118" 
d="M55 54h82q80 0 134 170q54 169 66 482l20 376h591v-1028h66v-402h-54v348h-861v-348h-44v402zM408 1028l-17 -322q-20 -505 -150 -652h653v974h-486z" />
    <glyph glyph-name="uni0435" unicode="&#x435;" horiz-adv-x="1039" 
d="M551 -21q-191 0 -323 148q-131 149 -131 373v64q0 235 130 386q131 152 329 152q180 0 287 -119t107 -323v-83h-799v-13v-64q0 -199 112 -333q113 -134 288 -134q186 0 348 84l32 -47q-162 -91 -380 -91zM556 1048q-168 0 -276 -117t-121 -294l3 -6h734v33q0 168 -91 275
q-91 109 -249 109z" />
    <glyph glyph-name="uni0436" unicode="&#x436;" horiz-adv-x="1508" 
d="M1395 0l-500 528h-116v-528h-54v528h-115l-498 -528h-64l-2 5l506 547l-443 525l2 5h60l430 -500h124v500h54v-500h127l429 500h62l2 -5l-446 -525l508 -546l-3 -6h-63z" />
    <glyph glyph-name="uni0437" unicode="&#x437;" horiz-adv-x="937" 
d="M537 551q108 -20 165.5 -90.5t57.5 -177.5q0 -144 -85.5 -224t-239.5 -80q-184 0 -288 76l19 56q100 -78 269 -78q266 3 266 247q0 127 -80 187t-219 60h-61v51h61q125 0 200 59t75 169q0 120 -59.5 177.5t-184.5 57.5q-151 0 -240 -77l-24 53q44 38 116.5 59.5
t143.5 21.5q148 0 228 -78t80 -217q0 -88 -56 -157.5t-144 -94.5z" />
    <glyph glyph-name="uni0438" unicode="&#x438;" 
d="M232 104l663 978h55v-1082h-55v976l-6 2l-663 -978h-54v1082h54v-976z" />
    <glyph glyph-name="uni0439" unicode="&#x439;" 
d="M232 104l663 978h55v-1082h-55v976l-6 2l-663 -978h-54v1082h54v-976zM778 1496h46l2 -6q5 -107 -70 -175q-73 -67 -202 -67q-130 0 -204 67q-74 68 -69 175l2 6h46q0 -90 56 -141t169 -51q109 0 166.5 52.5t57.5 139.5z" />
    <glyph glyph-name="uni043A" unicode="&#x43a;" horiz-adv-x="1046" 
d="M923 0l-529 529l-168 10v-539h-55v1082h55v-511l178 11l459 500h71l2 -5l-483 -524l545 -547l-2 -6h-73z" />
    <glyph glyph-name="uni043B" unicode="&#x43b;" horiz-adv-x="1122" 
d="M305 1082h645v-1082h-55v1027h-536v-437q0 -316 -65 -454q-64 -136 -218 -136h-32v53h35q114 0 170 117q56 118 56 420v492z" />
    <glyph glyph-name="uni043C" unicode="&#x43c;" horiz-adv-x="1476" 
d="M255 1082l492 -731l492 731h65v-1082h-55v989l-6 1l-473 -717h-42l-487 717l-6 -1v-989h-54v1082h74z" />
    <glyph glyph-name="uni043D" unicode="&#x43d;" 
d="M950 1082v-1082h-55v529h-669v-529h-54v1082h54v-499h669v499h55z" />
    <glyph glyph-name="uni043E" unicode="&#x43e;" 
d="M87 520v42q0 256 131 398q132 142 342 142q212 0 342 -144q132 -142 132 -396v-42q0 -256 -132 -398q-131 -143 -340 -143q-211 0 -343 143q-132 142 -132 398zM141 562v-42q0 -224 114 -356q114 -131 307 -131q190 0 304 131q114 132 114 356v42q0 213 -115 349
q-116 137 -305 137q-191 0 -305 -137t-114 -349z" />
    <glyph glyph-name="uni043F" unicode="&#x43f;" 
d="M950 1082v-1082h-55v1027h-669v-1027h-54v1082h778z" />
    <glyph glyph-name="uni0440" unicode="&#x440;" 
d="M999 542v-21q0 -251 -108 -396q-108 -146 -298 -146q-124 0 -218 49t-149 137v-581h-54v1498h42l11 -191q55 100 148.5 155.5t217.5 55.5q191 0 299 -152q109 -151 109 -408zM944 521v21q0 226 -91 365q-90 141 -261 141q-153 0 -241 -77q-86 -77 -125 -162v-567
q39 -74 134 -143q93 -66 234 -66q172 0 260 132q90 132 90 356z" />
    <glyph glyph-name="uni0441" unicode="&#x441;" horiz-adv-x="1039" 
d="M871 93l30 -45q-106 -69 -347 -69q-115 0 -203.5 41.5t-143 116t-82.5 171.5t-28 212v42q0 122 26 218.5t79.5 169.5t142 112.5t207.5 39.5q91 0 188 -23t158 -63l-27 -49q-65 43 -151.5 63.5t-167.5 20.5q-191 -3 -296 -129t-105 -360v-42q-1 -77 14 -148t47.5 -134
t79.5 -109.5t114.5 -74t147.5 -27.5q112 0 195 18.5t122 47.5z" />
    <glyph glyph-name="uni0442" unicode="&#x442;" horiz-adv-x="1028" 
d="M955 1082v-55h-425v-1027h-54v1027h-403v55h882z" />
    <glyph glyph-name="uni0443" unicode="&#x443;" horiz-adv-x="978" 
d="M102 1082l356 -886l40 -108h6l6 16l374 978h60l-481 -1262q-71 -158 -123 -207q-53 -50 -166 -50h-87l5 53h82q93 0 134 37q42 36 101 177l65 176l-431 1076h59z" />
    <glyph glyph-name="uni0444" unicode="&#x444;" horiz-adv-x="1844" 
d="M122 521v21q0 256 108 408t300 152q123 0 215.5 -55.5t150.5 -156.5v670h54v-668q54 100 147 155t217 55q191 0 299 -152q109 -151 109 -408v-21q0 -251 -108 -396q-108 -146 -298 -146q-123 0 -217.5 49.5t-148.5 137.5v-582h-54v582q-56 -88 -150.5 -137.5
t-217.5 -49.5q-191 0 -299 146q-107 146 -107 396zM1668 521v21q0 226 -91 365q-91 141 -262 141q-154 0 -240 -77t-125 -190v-32q0 -4 1 -4v-441q-1 -3 -1 -5v-36q42 -109 135.5 -169.5t231.5 -60.5q171 0 261 132t90 356zM178 542v-21q0 -225 88 -356q88 -132 261 -132
q137 0 231.5 62t137.5 171v34q-1 0 -1 5v440q0 3 1 4v29q-41 116 -127 192q-85 78 -240 78q-172 0 -262 -141q-89 -140 -89 -365z" />
    <glyph glyph-name="uni0445" unicode="&#x445;" horiz-adv-x="978" 
d="M143 1082l346 -480l345 480h68l-380 -527l400 -555h-67l-367 508l-366 -508h-67l400 555l-380 527h68z" />
    <glyph glyph-name="uni0446" unicode="&#x446;" horiz-adv-x="1120" 
d="M172 0v1082h54v-1028h669v1028h55v-1082h-778zM1005 54v-402h-54v402h54z" />
    <glyph glyph-name="uni0447" unicode="&#x447;" horiz-adv-x="1122" 
d="M950 1082v-1082h-54v522q-66 -33 -156 -57q-92 -23 -159 -23q-221 0 -315 84q-94 85 -94 322v234h54v-234q0 -205 80 -279q79 -73 275 -73q81 3 169 25q86 21 146 52v509h54z" />
    <glyph glyph-name="uni0448" unicode="&#x448;" horiz-adv-x="1594" 
d="M172 1082h54v-1028h567v1028h55v-1028h558v1028h54v-1082h-1288v1082z" />
    <glyph glyph-name="uni0449" unicode="&#x449;" horiz-adv-x="1592" 
d="M172 1082h54v-1028h567v1028h55v-1028h558v1028h54v-1015h60v-417h-63v350h-1285v1082z" />
    <glyph glyph-name="uni044A" unicode="&#x44a;" horiz-adv-x="1315" 
d="M26 1028v54h443v-452h345q183 0 284 -88q103 -88 103 -227q0 -141 -103 -228q-102 -87 -284 -87h-399v1028h-389zM814 576h-345v-522h345q166 0 249 75q84 75 84 188q0 108 -84 183q-83 76 -249 76z" />
    <glyph glyph-name="uni044B" unicode="&#x44b;" horiz-adv-x="1486" 
d="M235 1082v-452h345q183 0 284 -88q103 -88 103 -227q0 -141 -103 -228q-102 -87 -284 -87h-399v1082h54zM580 576h-345v-522h345q166 0 249 75q84 75 84 188q0 108 -84 183q-83 76 -249 76zM1315 1082v-1082h-54v1082h54z" />
    <glyph glyph-name="uni044C" unicode="&#x44c;" horiz-adv-x="1080" 
d="M235 1082v-452h345q183 0 284 -88q103 -88 103 -227q0 -141 -103 -228q-102 -87 -284 -87h-399v1082h54zM580 576h-345v-522h345q166 0 249 75q84 75 84 188q0 108 -84 183q-83 76 -249 76z" />
    <glyph glyph-name="uni044D" unicode="&#x44d;" horiz-adv-x="1089" 
d="M514 1048q-136 0 -237 -75q-99 -73 -99 -224h-48l-2 6q-4 159 111 253t275 94q208 0 329 -150q123 -148 123 -390v-42q0 -241 -122 -392q-122 -149 -328 -149q-167 0 -280 98q-112 99 -108 279l2 6h48q0 -161 97 -245q98 -84 241 -84q188 0 290 135q103 136 102 343l-3 5
h-565v54h565l2 5q1 205 -102 339q-102 134 -291 134z" />
    <glyph glyph-name="uni044E" unicode="&#x44e;" horiz-adv-x="1659" 
d="M235 1082v-525h358v5q0 237 131 389q132 151 342 151q212 0 342 -151q132 -152 132 -389v-42q0 -238 -132 -390q-130 -151 -340 -151q-207 0 -339 146q-132 147 -136 378h-358v-503h-54v1082h54zM647 562v-42q0 -204 114 -346q114 -141 307 -141q190 0 304 142
q114 143 114 345v42q0 200 -115 342q-115 144 -305 144q-191 0 -305 -144q-114 -142 -114 -342z" />
    <glyph glyph-name="uni044F" unicode="&#x44f;" horiz-adv-x="1101" 
d="M524 1082h400v-1082h-54v450h-388h-8l-271 -450h-64l273 455q-119 19 -186 102.5t-67 208.5q0 140 96 228q95 88 269 88zM213 764q0 -111 67 -185q68 -74 202 -74h388v522h-346q-158 0 -234 -75q-77 -74 -77 -188z" />
    <glyph glyph-name="uni0450" unicode="&#x450;" horiz-adv-x="1039" 
d="M551 -21q-191 0 -323 148q-131 149 -131 373v64q0 235 130 386q131 152 329 152q180 0 287 -119t107 -323v-83h-799v-13v-64q0 -199 112 -333q113 -134 288 -134q186 0 348 84l32 -47q-162 -91 -380 -91zM556 1048q-168 0 -276 -117t-121 -294l3 -6h734v33q0 168 -91 275
q-91 109 -249 109zM391 1549l220 -261l-2 -5h-75l-234 261l2 5h89z" />
    <glyph glyph-name="uni0451" unicode="&#x451;" horiz-adv-x="1039" 
d="M551 -21q-191 0 -323 148q-131 149 -131 373v64q0 235 130 386q131 152 329 152q180 0 287 -119t107 -323v-83h-799v-13v-64q0 -199 112 -333q113 -134 288 -134q186 0 348 84l32 -47q-162 -91 -380 -91zM556 1048q-168 0 -276 -117t-121 -294l3 -6h734v33q0 168 -91 275
q-91 109 -249 109zM868 1470v-118h-136v118h136zM399 1470v-118h-137v118h137z" />
    <glyph glyph-name="uni0452" unicode="&#x452;" 
d="M601 1337v-54h-375v-426q52 118 149.5 181.5t234.5 63.5q171 0 257.5 -108.5t86.5 -335.5v-747q0 -167 -75 -257.5t-211 -90.5q-60 0 -132 20l13 52q61 -18 119 -18q110 0 170.5 76.5t60.5 217.5v749q0 214 -79 300q-78 88 -209 88q-171 0 -266 -101q-93 -101 -119 -259
v-688h-54v554h-2q0 50 2 63v666h-161v54h161v223h54v-223h375z" />
    <glyph glyph-name="uni0453" unicode="&#x453;" horiz-adv-x="867" 
d="M822 1082v-55h-596v-1027h-54v1082h650zM375 1258l220 261h78l2 -5l-231 -261h-67z" />
    <glyph glyph-name="uni0454" unicode="&#x454;" horiz-adv-x="1089" 
d="M554 33q137 0 242 75t105 225h46l2 -6q5 -159 -117 -254q-119 -94 -278 -94q-206 0 -325 149q-117 148 -117 392v42q0 242 117 391t323 149q168 0 284 -99q118 -98 113 -277l-2 -6h-46q0 159 -102 243q-101 85 -247 85q-189 0 -287 -134q-97 -132 -95 -339l3 -5h574v-54
h-574l-3 -5q-3 -210 95 -344t289 -134z" />
    <glyph glyph-name="uni0455" unicode="&#x455;" horiz-adv-x="1019" 
d="M521 581q368 -86 368 -317q0 -72 -32.5 -128.5t-87 -89.5t-121 -50t-139.5 -17q-125 0 -225.5 29.5t-163.5 74.5l28 48q180 -103 361 -103q77 0 149.5 25.5t124.5 81.5t52 130q0 191 -330 267q-53 12 -85 20t-75.5 22.5t-69.5 28.5t-55 36.5t-44.5 48.5t-26 62t-10.5 79
q0 89 54.5 153t134.5 92t173 28q113 0 205.5 -35t147.5 -85l-19 -48q-47 48 -139.5 83.5t-194.5 35.5q-125 0 -216.5 -57.5t-91.5 -164.5q0 -34 8.5 -62t21 -49t36 -38.5t45.5 -29.5t58.5 -24.5t65 -21t74.5 -20.5q13 -3 19 -5z" />
    <glyph glyph-name="uni0456" unicode="&#x456;" horiz-adv-x="422" 
d="M239 1082v-1082h-54v1082h54zM239 1560v-138h-54v138h54z" />
    <glyph glyph-name="uni0457" unicode="&#x457;" horiz-adv-x="406" 
d="M235 1082v-1082h-54v1082h54zM521 1449v-118h-136v118h136zM52 1449v-118h-137v118h137z" />
    <glyph glyph-name="uni0458" unicode="&#x458;" horiz-adv-x="445" 
d="M186 1082h54v-1171q-3 -172 -76 -260t-209 -88h-40h-39l7 54h72q225 0 231 294v1171zM234 1560v-134h-54v134h54z" />
    <glyph glyph-name="uni0459" unicode="&#x459;" horiz-adv-x="1764" 
d="M295 1082h655v-452h345q183 0 284 -88q103 -88 103 -227q0 -141 -103 -228q-102 -87 -284 -87h-400v1027h-546v-437q0 -316 -65 -454q-64 -136 -218 -136h-32v54h35q114 0 170 116q56 118 56 420v492zM1295 576h-345v-522h345q167 0 249 75q84 75 84 188q0 108 -84 183
q-83 76 -249 76z" />
    <glyph glyph-name="uni045A" unicode="&#x45a;" horiz-adv-x="1764" 
d="M226 1082v-450h669v450h55v-452h345q183 0 284 -88q103 -88 103 -227q0 -141 -103 -228q-102 -87 -284 -87h-400v578h-669v-578h-54v1082h54zM1295 576h-345v-522h345q167 0 249 75q84 75 84 188q0 108 -84 183q-83 76 -249 76z" />
    <glyph glyph-name="uni045B" unicode="&#x45b;" 
d="M558 1334v-54h-332v-423q52 118 149.5 181.5t234.5 63.5q171 0 257.5 -108.5t86.5 -335.5v-658h-55v660q0 214 -79 300q-78 88 -209 88q-171 0 -266 -101q-93 -101 -119 -259v-688h-54v554h-2q0 50 2 63v663h-201v54h201v226h54v-226h332z" />
    <glyph glyph-name="uni045C" unicode="&#x45c;" horiz-adv-x="1046" 
d="M923 0l-529 529l-168 10v-539h-55v1082h55v-511l178 11l459 500h71l2 -5l-483 -524l545 -547l-2 -6h-73zM492 1257l220 261h78l2 -5l-231 -261h-67z" />
    <glyph glyph-name="uni045D" unicode="&#x45d;" 
d="M232 104l663 978h55v-1082h-55v976l-6 2l-663 -978h-54v1082h54v-976zM389 1527l220 -261l-2 -5h-75l-234 261l2 5h89z" />
    <glyph glyph-name="uni045E" unicode="&#x45e;" horiz-adv-x="978" 
d="M102 1082l356 -886l40 -108h6l6 16l374 978h60l-481 -1262q-71 -158 -123 -207q-53 -50 -166 -50h-87l5 53h82q93 0 134 37q42 36 101 177l65 176l-431 1076h59zM737 1496h46l2 -6q5 -107 -70 -175q-73 -67 -202 -67q-130 0 -204 67q-74 68 -69 175l2 6h46q0 -90 56 -141
t169 -51q109 0 166.5 52.5t57.5 139.5z" />
    <glyph glyph-name="uni045F" unicode="&#x45f;" 
d="M172 1082h54v-1028h669v1028h55v-1082h-358v-350h-54v350h-366v1082z" />
    <glyph glyph-name="uni0460" unicode="&#x460;" horiz-adv-x="1947" 
d="M1087 1367l-15 52q132 58 314 58q205 0 334 -173q130 -172 130 -446v-238q0 -284 -134 -463q-133 -178 -347 -178q-131 0 -232 39.5t-158 101.5q-58 -62 -159.5 -101.5t-230.5 -39.5q-215 0 -348 178t-133 463v238q0 274 129 446q129 173 335 173q181 0 314 -58l-15 -52
q-123 56 -299 56q-185 0 -298 -158q-112 -157 -112 -405v-240q0 -260 116 -424q117 -163 311 -163q141 0 236 45q94 45 127 103v454h-305v55h664v-55h-305v-454q31 -58 126 -103q94 -45 237 -45q193 0 310 163t117 424v240q0 247 -113 405t-297 158q-177 0 -299 -56z" />
    <glyph glyph-name="uni0461" unicode="&#x461;" horiz-adv-x="1367" 
d="M101 1082l334 -853l51 -146h6l52 146l170 404h2l-153 449h58l149 -449h2l-1 -2l134 -402l56 -162h6l42 81q197 392 257 934h49q-59 -619 -331 -1081l1 -1h-52l-188 551h-6l-225 -550l1 -1h-52l-420 1082h58z" />
    <glyph glyph-name="uni0462" unicode="&#x462;" horiz-adv-x="1223" 
d="M625 1205v-54h-378v-343h369q227 0 348 -112q123 -113 123 -292q0 -180 -123 -293q-122 -111 -348 -111h-423v1151h-155v54h155v251h54v-251h378zM616 754h-369v-700h369q209 0 312 100q104 101 104 252q0 146 -105 246q-104 102 -311 102z" />
    <glyph glyph-name="uni0463" unicode="&#x463;" horiz-adv-x="1080" 
d="M564 1179v-54h-329v-495h345q183 0 284 -88q103 -88 103 -227q0 -141 -103 -228q-102 -87 -284 -87h-399v1125h-204v54h204v383h54v-383h329zM580 576h-345v-522h345q166 0 249 75q84 75 84 188q0 108 -84 183q-83 76 -249 76z" />
    <glyph glyph-name="uni0464" unicode="&#x464;" horiz-adv-x="1825" 
d="M1190 739v-54h-525v-65q0 -266 130 -426t343 -160q211 0 332 103q123 103 123 310h46l2 -6q5 -224 -136 -343q-139 -118 -367 -118q-239 0 -383 176q-144 177 -144 464v65h-320v-685h-54v1456h54v-717h320v99q0 286 144 463t383 177q227 0 367 -119q141 -119 136 -340
l-2 -6h-46q0 197 -123 304q-122 107 -332 107q-212 0 -343 -161q-130 -160 -130 -423v-101h525z" />
    <glyph glyph-name="uni0465" unicode="&#x465;" horiz-adv-x="1518" 
d="M904 588v-54h-311v-14q0 -215 98 -352q97 -135 290 -135q137 0 242 75t105 225h46l2 -6q5 -159 -117 -254q-119 -94 -278 -94q-206 0 -325 149q-117 149 -117 392v14h-306v-534h-54v1082h54v-494h306q6 231 122 373q117 141 318 141q169 0 284 -99q118 -98 113 -277
l-2 -6h-46q0 159 -102 243q-101 85 -247 85q-184 0 -282 -128q-97 -128 -99 -327l2 -5h304z" />
    <glyph glyph-name="uni0466" unicode="&#x466;" horiz-adv-x="1224" 
d="M1130 0l-191 508h-307v-508h-54v508h-295l-190 -508h-59l544 1456h66l545 -1456h-59zM581 1304l-278 -742h616l-277 742l-28 85h-6z" />
    <glyph glyph-name="uni0467" unicode="&#x467;" horiz-adv-x="1067" 
d="M952 0l-174 395h-224v-395h-54v395h-233l-172 -395h-59l461 1080v2h52l461 -1082h-58zM468 853l-177 -404h463l-177 404l-51 146h-6z" />
    <glyph glyph-name="uni0468" unicode="&#x468;" horiz-adv-x="1793" 
d="M309 1456v-894h464l334 894h66l545 -1456h-59l-191 508h-307v-508h-54v508h-295l-190 -508h-59l190 508h-444v-508h-54v1456h54zM1110 1304l-278 -742h616l-277 742l-28 85h-6z" />
    <glyph glyph-name="uni0469" unicode="&#x469;" horiz-adv-x="1537" 
d="M268 1082v-633h406l270 631v2h52l461 -1082h-58l-174 395h-224v-395h-54v395h-233l-172 -395h-59l168 395h-383v-395h-54v1082h54zM915 853l-177 -404h463l-177 404l-51 146h-6z" />
    <glyph glyph-name="uni046A" unicode="&#x46a;" horiz-adv-x="1593" 
d="M1271 1457v-1h57l-474 -707h165q202 0 304 -87.5t102 -272.5v-389h-54v389q0 165 -84 236q-83 70 -268 70h-197v-695h-54v695h-194q-185 0 -268 -70q-84 -71 -84 -236v-389h-55v389q0 185 102.5 272.5t304.5 87.5h161l-473 707h52v1h957zM821 783l406 620h-866l407 -620
l21 -34h11z" />
    <glyph glyph-name="uni046B" unicode="&#x46b;" horiz-adv-x="1389" 
d="M1080 1083v-1h61l-370 -497h44q202 0 304.5 -87.5t102.5 -272.5v-225h-54v225q0 165 -85 235q-83 70 -268 70h-85l-7 -10v-520h-54v521l-6 9h-88q-186 0 -269 -70q-84 -70 -84 -235v-225h-55v225q0 186 102.5 273t305.5 87h47l-370 497h64v1h764zM713 597l322 431h-678
l323 -432l5 -11h22z" />
    <glyph glyph-name="uni046C" unicode="&#x46c;" horiz-adv-x="2119" 
d="M1544 748q202 0 304 -87t102 -273v-388h-54v388q0 165 -84 237q-85 70 -268 70h-197v-695h-54v695l-254 -2q-137 -10 -208 -68q-84 -72 -84 -237v-388h-55v388q0 219 147 305h-549v-693h-54v1455h54v-709l970 2l-473 707h1066l-474 -707h165zM1346 782l406 621h-866
l407 -621l21 -34h11z" />
    <glyph glyph-name="uni046D" unicode="&#x46d;" horiz-adv-x="1796" 
d="M1221 585q202 0 304.5 -87.5t102.5 -272.5v-225h-54v225q0 165 -85 235q-83 70 -268 70h-85l-7 -10v-520h-54v521l-6 9h-88q-186 0 -269 -70q-84 -70 -84 -235v-225h-55v225q0 221 148 305h-486v-530h-54v1082h54v-497h793l-370 497h889l-370 -497h44zM1119 597l322 431
h-678l323 -432l5 -11h22z" />
    <glyph glyph-name="uni046E" unicode="&#x46e;" horiz-adv-x="1049" 
d="M367 771h123q442 0 442 316q0 148 -106.5 231.5t-311.5 83.5h-336v54h336q221 0 346 -97q127 -96 127 -276q0 -117 -76 -208q-74 -91 -213 -130q312 -67 312 -359q0 -178 -152 -282q-153 -104 -376 -103h-82q-103 0 -148.5 -34.5t-45.5 -107.5q0 -61 59 -114t121 -71
l-15 -52q-74 21 -147 89q-71 68 -71 147q0 92 61.5 144t185.5 52h82q215 0 343 88q130 88 130 240q0 172 -115.5 252.5t-349.5 80.5h-123v56zM412 1866l183 -187l184 187h67v-16l-212 -207h-79l-214 209v14h71z" />
    <glyph glyph-name="uni046F" unicode="&#x46f;" horiz-adv-x="996" 
d="M285 585h122q381 0 381 232q0 98 -91 154t-266 56h-282v55h282q193 0 302 -70q111 -69 111 -199q0 -86 -60 -153.5t-168 -100.5q250 -56 250 -255q0 -140 -135 -222q-134 -83 -331 -81h-41q-103 0 -148.5 -34.5t-45.5 -107.5q0 -61 59 -114t122 -71l-16 -52
q-73 21 -146 89q-72 67 -72 147q0 92 62 144t185 52h41q186 0 298 66q113 66 113 180q0 119 -100 174t-304 55h-122v56zM251 1549l183 -187l184 187h67v-16l-212 -207h-79l-214 209v14h71z" />
    <glyph glyph-name="uni0470" unicode="&#x470;" horiz-adv-x="1428" 
d="M741 1456v-1017l6 -3q206 0 340 128q133 129 133 342v550h54v-550q0 -245 -148 -386q-147 -140 -385 -144v-376h-55v376q-238 6 -384 146t-146 384v550h55v-550q0 -211 131 -339q132 -129 338 -130l6 2v1017h55z" />
    <glyph glyph-name="uni0471" unicode="&#x471;" horiz-adv-x="1366" 
d="M653 1081h54v-1039l6 -2q253 2 359 156q108 154 108 392q0 248 -152 494h67q66 -123 103 -231q36 -103 36 -261q0 -277 -130 -440q-128 -162 -397 -170v-395h-54v395q-238 11 -371 159q-134 151 -134 451v492h54v-494q0 -272 119 -409q120 -135 326 -138l6 2v1038z" />
    <glyph glyph-name="uni0472" unicode="&#x472;" horiz-adv-x="1364" 
d="M1231 837v-218q0 -295 -146 -468q-145 -172 -402 -172t-404 172q-146 173 -146 468v218q0 295 145 467q146 173 403 173q256 0 403 -173q147 -172 147 -467zM960 620q84 0 142 46t75 116v57q0 269 -129 426q-129 158 -367 158q-237 0 -365 -158t-128 -426v-142
q36 52 96 81t133 29q140 0 291 -94q152 -93 252 -93zM1177 619v50q-76 -97 -217 -97q-142 0 -291 93q-148 94 -252 94q-101 0 -160 -53q-58 -52 -68 -131q10 -251 138 -397q127 -145 356 -145q239 0 366 157q128 158 128 429z" />
    <glyph glyph-name="uni0473" unicode="&#x473;" horiz-adv-x="1153" 
d="M87 520v42q0 237 131 389q132 151 342 151q212 0 342 -151q132 -152 132 -389v-42q0 -238 -132 -390q-130 -151 -340 -151q-211 0 -343 151q-132 152 -132 390zM141 562v-9q70 76 210 76q106 0 222 -80t192 -80q73 0 135 35q62 34 79 90q-10 188 -124 321
q-112 133 -295 133q-191 0 -305 -144q-114 -142 -114 -342zM352 579q-79 0 -136 -30t-73 -80q13 -187 126 -312q112 -124 293 -124q182 0 295 132q112 132 114 320l-3 5q-28 -33 -82.5 -52t-120.5 -19q-109 0 -222 80t-191 80z" />
    <glyph glyph-name="uni0474" unicode="&#x474;" horiz-adv-x="1233" 
d="M94 1456l417 -1314l25 -77h6l26 77l352 1086q40 132 111 190t182 58q45 0 103 -28l-24 -42q-33 23 -83 23q-79 0 -141 -42q-60 -40 -104 -183l-392 -1204h-65l-472 1456h59z" />
    <glyph glyph-name="uni0475" unicode="&#x475;" horiz-adv-x="991" 
d="M101 1082l292 -853l51 -147l6 -1l53 148l217 645q42 123 101 175q58 52 151 52q53 0 103 -28l-23 -41q-38 22 -84 22q-63 0 -113 -38q-47 -37 -91 -167l-291 -849h-52v1l-378 1081h58z" />
    <glyph glyph-name="uni0476" unicode="&#x476;" horiz-adv-x="1233" 
d="M94 1456l417 -1314l25 -77h6l26 77l352 1086q40 132 111 190t182 58q45 0 103 -28l-24 -42q-33 23 -83 23q-79 0 -141 -42q-60 -40 -104 -183l-392 -1204h-65l-472 1456h59zM182 1843l285 -260l-2 -6h-65l-292 260l2 6h72zM452 1843l241 -261l-2 -5h-62l-248 260l3 6h68z
" />
    <glyph glyph-name="uni0477" unicode="&#x477;" horiz-adv-x="991" 
d="M101 1082l292 -853l51 -147l6 -1l53 148l217 645q42 123 101 175q58 52 151 52q53 0 103 -28l-23 -41q-38 22 -84 22q-63 0 -113 -38q-47 -37 -91 -167l-291 -849h-52v1l-378 1081h58zM86 1547l285 -260l-2 -6h-65l-292 260l2 6h72zM356 1547l241 -261l-2 -5h-62
l-248 260l3 6h68z" />
    <glyph glyph-name="uni0478" unicode="&#x478;" horiz-adv-x="2342" 
d="M1231 837v-218q0 -344 -146 -493q-145 -147 -402 -147t-404 147q-146 149 -146 493v218q0 359 156 499q156 141 392 141q243 0 397 -140q153 -139 153 -500zM1177 619v220q0 317 -129 450q-129 134 -367 137q-238 -3 -365 -139q-128 -136 -128 -448v-220q0 -314 128 -451
q129 -135 367 -139q239 5 366 138q128 134 128 452zM1466 1082l356 -886l40 -108h6l6 16l374 978h60l-481 -1262q-71 -158 -123 -207q-53 -50 -166 -50h-87l5 53h82q93 0 134 37q42 36 101 177l65 176l-431 1076h59z" />
    <glyph glyph-name="uni0479" unicode="&#x479;" horiz-adv-x="2099" 
d="M87 520v42q0 256 131 398q132 142 342 142q212 0 342 -144q132 -142 132 -396v-42q0 -256 -132 -398q-131 -143 -340 -143q-211 0 -343 143q-132 142 -132 398zM141 562v-42q0 -224 114 -356q114 -131 307 -131q190 0 304 131q114 132 114 356v42q0 213 -115 349
q-116 137 -305 137q-191 0 -305 -137t-114 -349zM1223 1082l356 -886l40 -108h6l6 16l374 978h60l-481 -1262q-70 -158 -123 -207q-53 -50 -166 -50h-87l5 53h82q93 0 134 37q42 36 101 177l65 176l-431 1076h59z" />
    <glyph glyph-name="uni047A" unicode="&#x47a;" horiz-adv-x="1364" 
d="M1084 1304q147 -172 147 -467v-218q0 -295 -146 -468q-138 -163 -376 -172v-123h-54v123q-238 9 -376 172q-146 173 -146 468v218q0 295 145 467q139 165 377 172v122h54v-122q236 -9 375 -172zM1177 619v220q0 269 -129 426q-121 148 -339 157v-131h-54v132
q-219 -9 -339 -158q-128 -158 -128 -426v-220q0 -270 128 -428q122 -150 339 -157v129h54v-129q218 7 340 156q128 158 128 429z" />
    <glyph glyph-name="uni047B" unicode="&#x47b;" 
d="M895 952q132 -153 132 -390v-42q0 -239 -132 -389q-121 -142 -314 -151v-126h-54v126q-191 9 -315 151q-131 151 -131 389v42q0 236 131 390q123 141 315 150v115h54v-115q192 -9 314 -150zM973 520v42q0 201 -114 342q-108 134 -278 144v-138h-54v138q-173 -9 -279 -144
q-113 -141 -113 -342v-42q0 -205 113 -345q105 -130 279 -141v127h54v-127q173 9 279 142q113 140 113 344z" />
    <glyph glyph-name="uni047C" unicode="&#x47c;" horiz-adv-x="1934" 
d="M1147 1367l-15 52q107 58 254 58q205 0 334 -173q130 -172 130 -446v-238q0 -284 -134 -463q-133 -178 -347 -178q-131 0 -232 39.5t-158 101.5q-58 -62 -159.5 -101.5t-230.5 -39.5q-215 0 -348 178t-133 463v238q0 274 129 446q129 173 335 173q146 0 254 -58l-15 -52
q-95 56 -239 56q-185 0 -298 -158q-112 -157 -112 -405v-240q0 -260 116 -424q117 -163 311 -163q141 0 236 45q94 45 127 103v40h54v-40q31 -58 126 -103q94 -45 237 -45q193 0 310 163t117 424v240q0 247 -113 405t-297 158q-146 0 -239 -56zM1450 1757h14v-44h-17
q-127 0 -248 93q-121 94 -193 94q-92 0 -138 -54q-47 -53 -47 -129v-18h-55v26q0 97 64 162q64 66 172 66q86 0 213 -98q128 -98 235 -98zM1066 1633l-125 -151l-36 28l64 126v139h97v-142z" />
    <glyph glyph-name="uni047D" unicode="&#x47d;" horiz-adv-x="1621" 
d="M947 1010l-15 48q106 42 214 42q170 0 276 -151q108 -150 108 -388v-38q0 -241 -113 -393q-112 -151 -288 -151q-103 0 -183 37.5t-127 97.5q-49 -60 -129 -97.5t-181 -37.5q-177 0 -289 151t-112 393v38q0 237 107 388q106 151 277 151q106 0 214 -42l-15 -48
q-81 36 -199 36q-150 0 -240 -136q-90 -135 -90 -347v-40q0 -216 95 -353t252 -137q109 0 183 45q75 46 100 103v40h54v-40q26 -59 98 -103q73 -45 185 -45q156 0 251 137q96 136 96 353v40q0 213 -91 347q-90 136 -239 136q-119 0 -199 -36zM1310 1417h14v-44h-17
q-127 0 -248 93q-121 94 -193 94q-92 0 -138 -54q-47 -53 -47 -129v-18h-55v26q0 97 64 162q64 66 172 66q86 0 213 -98q128 -98 235 -98zM926 1293l-125 -151l-36 28l64 126v139h97v-142z" />
    <glyph glyph-name="uni047E" unicode="&#x47e;" horiz-adv-x="1947" 
d="M954 1705h-260v-103h-54l-1 159h699v-159h-55v103h-275v-103h-54v103zM1087 1367l-15 52q132 58 314 58q205 0 334 -173q130 -172 130 -446v-238q0 -284 -134 -463q-133 -178 -347 -178q-131 0 -232 39.5t-158 101.5q-58 -62 -159.5 -101.5t-230.5 -39.5q-215 0 -348 178
t-133 463v238q0 274 129 446q129 173 335 173q181 0 314 -58l-15 -52q-123 56 -299 56q-185 0 -298 -158q-112 -157 -112 -405v-240q0 -260 116 -424q117 -163 311 -163q141 0 236 45q94 45 127 103v454h-305v55h664v-55h-305v-454q31 -58 126 -103q94 -45 237 -45
q193 0 310 163t117 424v240q0 247 -113 405t-297 158q-177 0 -299 -56z" />
    <glyph glyph-name="uni047F" unicode="&#x47f;" horiz-adv-x="1367" 
d="M639 1490h-260v-133h-54v189h699v-189h-54v133h-277v-133h-54v133zM101 1082l334 -853l51 -146h6l52 146l170 404h2l-153 449h58l149 -449h2l-1 -2l134 -402l56 -162h6l42 81q197 392 257 934h49q-59 -619 -331 -1081l1 -1h-52l-188 551h-6l-225 -550l1 -1h-52l-420 1082
h58z" />
    <glyph glyph-name="uni0480" unicode="&#x480;" horiz-adv-x="1262" 
d="M717 33v-384h-55v330q-237 5 -377 179q-141 176 -141 461v218q0 286 144 463t383 177q227 0 367 -119q141 -119 136 -340l-2 -6h-46q0 198 -123 304q-122 107 -332 107q-212 0 -343 -161q-130 -160 -130 -423v-220q0 -266 130 -426t343 -160h46z" />
    <glyph glyph-name="uni0481" unicode="&#x481;" horiz-adv-x="1048" 
d="M621 33v-384h-54v330q-205 3 -325 152q-120 150 -120 389v42q0 239 122 390q122 150 329 150q165 0 278 -99q114 -98 109 -277l-2 -6h-46q0 159 -98 243q-97 85 -241 85q-191 0 -293 -137t-102 -349v-42q0 -213 100 -349q101 -137 289 -138h54z" />
    <glyph glyph-name="uni0482" unicode="&#x482;" horiz-adv-x="1221" 
d="M791 839l-237 -420l289 -172l-39 -68l-291 170l-191 -349h-102l225 398l-289 171l38 68l293 -171l235 420l-290 171l40 70l291 -171l218 386h99l-251 -435l293 -171l-43 -67z" />
    <glyph glyph-name="uni0483" unicode="&#x483;" horiz-adv-x="662" 
d="M604 1362h-478v-121h-58v173h481v108h55v-160z" />
    <glyph glyph-name="uni0484" unicode="&#x484;" horiz-adv-x="773" 
d="M57 1361h14q106 0 233 98q128 98 215 98q107 0 171 -66q65 -67 65 -162v-26h-55v18q0 77 -48 129q-47 54 -137 54q-74 0 -195 -94q-122 -93 -246 -93h-17v44z" />
    <glyph glyph-name="uni0485" unicode="&#x485;" horiz-adv-x="269" 
d="M197 1349l-125 151v142h97v-139l64 -126z" />
    <glyph glyph-name="uni0486" unicode="&#x486;" horiz-adv-x="258" 
d="M223 1500l-125 -151l-36 28l64 126v139h97v-142z" />
    <glyph glyph-name="uni048A" unicode="&#x48a;" horiz-adv-x="1449" 
d="M260 103l935 1353h54v-1456h-54v1354l-6 2l-935 -1356h-54v1456h54v-1351zM959 1839h46l2 -6q5 -107 -70 -175q-73 -67 -202 -67q-130 0 -204 67q-74 68 -69 175l2 6h46q0 -90 56 -141t169 -51q109 0 166.5 52.5t57.5 139.5zM1302 135v-167l-70 -250h-51l67 246v171h54z
" />
    <glyph glyph-name="uni048B" unicode="&#x48b;" 
d="M232 104l663 978h55v-1082h-55v976l-6 2l-663 -978h-54v1082h54v-976zM778 1496h46l2 -6q5 -107 -70 -175q-73 -67 -202 -67q-130 0 -204 67q-74 68 -69 175l2 6h46q0 -90 56 -141t169 -51q109 0 166.5 52.5t57.5 139.5zM1002 135v-167l-70 -250h-51l67 246v171h54z" />
    <glyph glyph-name="uni048C" unicode="&#x48c;" horiz-adv-x="1223" 
d="M625 1205v-54h-378v-343h369q227 0 348 -112q123 -113 123 -292q0 -180 -123 -293q-122 -111 -348 -111h-423v1151h-155v54h155v251h54v-251h378zM616 754h-369v-700h369q209 0 312 100q104 101 104 252q0 146 -105 246q-104 102 -311 102z" />
    <glyph glyph-name="uni048D" unicode="&#x48d;" horiz-adv-x="1080" 
d="M578 903v-54h-343v-219h345q183 0 284 -88q103 -88 103 -227q0 -141 -103 -228q-102 -87 -284 -87h-399v849h-190v54h190v179h54v-179h343zM580 576h-345v-522h345q166 0 249 75q84 75 84 188q0 108 -84 183q-83 76 -249 76z" />
    <glyph glyph-name="uni048E" unicode="&#x48e;" horiz-adv-x="1281" 
d="M996 738q-40 -38 -93 -63l126 -185l-45 -31l-133 195q-89 -29 -203 -29h-401v-625h-54v1456h455q226 0 348 -114q122 -113 122 -301q0 -190 -122 -303zM648 679q99 0 171 22l-96 141l45 31l104 -152q53 26 87 61q105 104 105 257q0 158 -104 260q-103 103 -312 103h-401
v-723h401z" />
    <glyph glyph-name="uni048F" unicode="&#x48f;" horiz-adv-x="1151" 
d="M891 950q109 -151 109 -408v-21q0 -251 -108 -396q-53 -72 -124 -107l58 -182l-52 -18l-57 179q-57 -18 -123 -18q-124 0 -218 49t-149 137v-581h-54v712q-2 8 -2 9v440q0 3 2 8v329h42l11 -191q55 100 148.5 155.5t217.5 55.5q191 0 299 -152zM945 521v21q0 226 -91 365
q-90 141 -261 141q-153 0 -241 -77q-86 -77 -125 -190v-517q42 -109 136 -170t232 -61q58 0 106 15l-56 177l53 16l54 -172q61 33 103 96q90 132 90 356z" />
    <glyph glyph-name="uni0490" unicode="&#x490;" horiz-adv-x="1122" 
d="M1055 1828v-427h-54v1h-754v-1402h-54v1456h808v372h54z" />
    <glyph glyph-name="uni0491" unicode="&#x491;" horiz-adv-x="881" 
d="M824 1454v-427h-598v-1027h-54v1082h598v372h54z" />
    <glyph glyph-name="uni0492" unicode="&#x492;" horiz-adv-x="1122" 
d="M670 785v-54h-423v-731h-54v731h-110v54h110v671h862v-54h-808v-617h423z" />
    <glyph glyph-name="uni0493" unicode="&#x493;" horiz-adv-x="867" 
d="M591 580v-54h-365v-526h-54v526h-168v54h168v502h650v-55h-596v-447h365z" />
    <glyph glyph-name="uni0494" unicode="&#x494;" horiz-adv-x="1120" 
d="M1055 1456v-54h-808v-567h225q237 0 379 -107q141 -106 141 -338q3 -127 -84 -253q-85 -125 -280 -163l-16 42q174 35 247 141q74 107 79 233q6 199 -124 295q-130 97 -342 97h-225v-782h-54v1456h862z" />
    <glyph glyph-name="uni0495" unicode="&#x495;" horiz-adv-x="1047" 
d="M822 1082v-55h-596v-394h212q237 0 379 -107q141 -107 141 -338q3 -128 -84 -252q-86 -126 -280 -164l-16 42q173 35 247 142q74 106 79 232q6 199 -124 295q-130 97 -342 97h-212v-580h-54v1082h650z" />
    <glyph glyph-name="uni0496" unicode="&#x496;" horiz-adv-x="1615" 
d="M1514 0l-578 720h-101v-720h-54v720h-103l-577 -720h-65l-3 5l588 732l-557 719h71l529 -682h117v682h54v-682h116l529 682h70l-557 -719l589 -732l-3 -5h-65zM1598 95v-447h-54v447h54z" />
    <glyph glyph-name="uni0497" unicode="&#x497;" horiz-adv-x="1508" 
d="M1395 0l-500 528h-116v-528h-54v528h-115l-498 -528h-64l-2 5l506 547l-443 525l2 5h60l430 -500h124v500h54v-500h127l429 500h62l2 -5l-446 -525l508 -546l-3 -6h-63zM1464 95v-447h-54v447h54z" />
    <glyph glyph-name="uni0498" unicode="&#x498;" horiz-adv-x="1223" 
d="M1018 386q0 -157 -76.5 -258.5t-218.5 -133.5q113 -122 113 -226q0 -62 -38.5 -98t-99.5 -36q-69 0 -126 44l16 48q55 -38 110 -38q50 0 67 29t17 51q0 58 -32 107q-29 43 -89 108q-32 -4 -77 -4q-246 0 -386 101l26 53q133 -104 360 -104q174 2 277.5 94t103.5 259
q0 73 -22 130t-60 95t-92.5 63t-116.5 35.5t-134 10.5h-82v53h82q169 0 281 85t112 232q0 159 -95.5 249t-262.5 90q-88 0 -174 -25.5t-147 -78.5l-26 46q58 52 155 81t192 29q198 0 305 -104.5t107 -290.5q0 -118 -74.5 -211.5t-193.5 -125.5q146 -27 222.5 -121.5
t76.5 -237.5z" />
    <glyph glyph-name="uni0499" unicode="&#x499;" horiz-adv-x="944" 
d="M760 283q0 -104 -46 -176t-132 -104q122 -125 122 -234q0 -62 -38.5 -98t-99.5 -36q-69 0 -126 44l16 48q55 -38 110 -38q50 0 67 29t17 51q0 58 -32 107q-38 55 -92 111q-37 -8 -91 -8q-184 0 -288 76l19 56q100 -78 269 -78q266 3 266 247q0 127 -80 187t-219 60h-61
v51h61q125 0 200 59t75 169q0 120 -59.5 177.5t-184.5 57.5q-151 0 -240 -77l-24 53q44 38 116.5 59.5t143.5 21.5q148 0 228 -78t80 -217q0 -88 -56 -157.5t-144 -94.5q108 -20 165.5 -90.5t57.5 -177.5z" />
    <glyph glyph-name="uni049A" unicode="&#x49a;" horiz-adv-x="1227" 
d="M1126 0l-689 721l-183 7v-728h-54v1456h54v-689l198 7l598 682h62v-8l-617 -708l694 -731v-9h-63zM1208 95v-447h-54v447h54z" />
    <glyph glyph-name="uni049B" unicode="&#x49b;" horiz-adv-x="1046" 
d="M923 0l-529 529l-168 10v-539h-55v1082h55v-511l178 11l459 500h71l2 -5l-483 -524l545 -547l-2 -6h-73zM1001 95v-447h-54v447h54z" />
    <glyph glyph-name="uni049C" unicode="&#x49c;" horiz-adv-x="1223" 
d="M1046 1456h71l-470 -717l546 -739h-71l-530 721h-102v-324h-55v324h-185v-721h-54v1456h54v-682h185v307h55v-307h118z" />
    <glyph glyph-name="uni049D" unicode="&#x49d;" horiz-adv-x="1045" 
d="M862 1082h78l-353 -530l417 -552h-82l-388 529h-81v-279h-55v279h-172v-529h-55v1082h55v-500h172v268h55v-268h91z" />
    <glyph glyph-name="uni049E" unicode="&#x49e;" horiz-adv-x="1227" 
d="M1126 0l-689 721h-183v-721h-54v1204h-226v54h226v198h54v-198h307v-54h-307v-430h198l598 682h64l2 -5l-619 -711l695 -734l-3 -6h-63z" />
    <glyph glyph-name="uni049F" unicode="&#x49f;" horiz-adv-x="969" 
d="M883 0l-509 553h-148v-553h-54v1264h-129v54h129v242h54v-242h404v-54h-404v-657h127l492 475h63l2 -6l-496 -487l534 -584l-2 -5h-63z" />
    <glyph glyph-name="uni04A0" unicode="&#x4a0;" horiz-adv-x="1679" 
d="M1568 0l-689 721h-183v-721h-54v1402h-541v54h595v-682h198l598 682h64l2 -5l-619 -711l695 -734l-3 -6h-63z" />
    <glyph glyph-name="uni04A1" unicode="&#x4a1;" horiz-adv-x="1425" 
d="M1301 0l-529 529h-168v-529h-55v1027h-471v55h526v-500h178l459 500h71l2 -5l-483 -524l545 -547l-2 -6h-73z" />
    <glyph glyph-name="uni04A2" unicode="&#x4a2;" horiz-adv-x="1438" 
d="M1238 1456v-1456h-54v695h-930v-695h-54v1456h54v-707h930v707h54zM1292 95v-447h-54v447h54z" />
    <glyph glyph-name="uni04A3" unicode="&#x4a3;" 
d="M950 1082v-1082h-55v529h-669v-529h-54v1082h54v-499h669v499h55zM1002 95v-447h-54v447h54z" />
    <glyph glyph-name="uni04A4" unicode="&#x4a4;" horiz-adv-x="2128" 
d="M249 1456v-707h930v707h864v-54h-810v-1402h-54v695h-930v-695h-54v1456h54z" />
    <glyph glyph-name="uni04A5" unicode="&#x4a5;" horiz-adv-x="1505" 
d="M226 1082v-499h669v499h540v-55h-485v-1027h-55v529h-669v-529h-54v1082h54z" />
    <glyph glyph-name="uni04A6" unicode="&#x4a6;" horiz-adv-x="2038" 
d="M1217 1456v-616h217q237 0 379 -107q141 -107 141 -338q3 -127 -84 -253q-85 -125 -280 -163l-16 42q174 35 247 141q74 107 79 233q6 199 -124 295q-130 97 -342 97h-217v-787h-54v1402h-930v-1402h-54v1456h1038z" />
    <glyph glyph-name="uni04A7" unicode="&#x4a7;" horiz-adv-x="1763" 
d="M950 1082v-446h203q237 0 379 -107q141 -106 141 -338q3 -127 -84 -252q-86 -126 -280 -164l-16 42q173 35 247 142q74 106 79 232q6 199 -124 295q-130 97 -342 97h-203v-583h-55v1027h-669v-1027h-54v1082h778z" />
    <glyph glyph-name="uni04A8" unicode="&#x4a8;" horiz-adv-x="1364" 
d="M582 597v182q0 150 86 247q87 97 234 97q145 0 237 -98t92 -246v-184q0 -265 -156 -441q-154 -175 -408 -175q-237 0 -386 176q-148 175 -148 442v262q0 265 147 440q149 176 382 172l6 -2l3 -46q-215 0 -349 -167t-134 -395v-264q0 -245 130 -405q130 -159 349 -159
q225 0 362 146q-205 11 -326 126q-121 117 -121 292zM1177 595v185q0 126 -74 208q-73 81 -201 81q-125 0 -195 -82t-70 -207v-185q0 -157 112 -260q113 -104 316 -104v-9q112 151 112 373z" />
    <glyph glyph-name="uni04A9" unicode="&#x4a9;" 
d="M496 387v139q0 134 74 220t194 86q119 0 194 -93q76 -92 76 -234v-33q0 -214 -132 -354q-132 -139 -343 -139q-210 0 -341 146t-131 368v54q0 239 130 396t336 152l6 -2v-45q-169 0 -294 -144q-124 -142 -124 -355v-56q0 -200 112 -330t306 -130q111 0 194 41
q-117 21 -188 105q-69 86 -69 208zM980 472v36q0 114 -61 191q-61 79 -155 79q-103 0 -158 -70q-56 -71 -56 -180v-143q0 -119 74 -191q75 -72 201 -72v-3q74 58 114.5 150t40.5 203z" />
    <glyph glyph-name="uni04AA" unicode="&#x4aa;" horiz-adv-x="1327" 
d="M1160 77q-63 -46 -179 -71t-250 -27q100 -114 100 -211q0 -62 -38.5 -98t-99.5 -36q-69 0 -126 44l16 48q55 -38 110 -38q50 0 67 29t17 51q0 58 -32 107q-33 47 -87 106q-128 9 -228.5 61.5t-165 138t-98 197t-32.5 241.5v218q0 143 34.5 258.5t103.5 201.5t180.5 133
t258.5 47q118 0 248.5 -27t199.5 -75l-24 -42q-78 45 -196.5 71t-227.5 26q-247 0 -385 -150.5t-138 -440.5v-220q0 -124 33 -230t97 -186.5t164.5 -127t228.5 -48.5q256 0 422 92z" />
    <glyph glyph-name="uni04AB" unicode="&#x4ab;" horiz-adv-x="1039" 
d="M901 48q-95 -62 -302 -69q101 -113 101 -211q0 -62 -38.5 -98t-99.5 -36q-69 0 -126 44l16 48q55 -38 110 -38q50 0 67 29t17 51q0 58 -32 107q-34 49 -86 104q-108 5 -191.5 48.5t-135.5 117t-78 168.5t-26 207v42q0 122 26 218.5t79.5 169.5t142 112.5t207.5 39.5
q91 0 188 -23t158 -63l-27 -49q-65 43 -151.5 63.5t-167.5 20.5q-191 -3 -296 -129t-105 -360v-42q-1 -77 14 -148t47.5 -134t79.5 -109.5t114.5 -74t147.5 -27.5q112 0 195 18.5t122 47.5z" />
    <glyph glyph-name="uni04AC" unicode="&#x4ac;" horiz-adv-x="1224" 
d="M1167 1456v-54h-510v-1402h-54v1402h-546v54h1110zM711 95v-447h-54v447h54z" />
    <glyph glyph-name="uni04AD" unicode="&#x4ad;" horiz-adv-x="1028" 
d="M955 1082v-55h-425v-1027h-54v1027h-403v55h882zM586 95v-447h-54v447h54z" />
    <glyph glyph-name="uni04AE" unicode="&#x4ae;" horiz-adv-x="1223" 
d="M102 1456l481 -809l26 -50l27 50l483 809h66l-547 -903v-553h-55v553l-547 903h66z" />
    <glyph glyph-name="uni04AF" unicode="&#x4af;" horiz-adv-x="978" 
d="M544 229l333 853h58l-419 -1077v-420h-54v417l-419 1080h58l334 -853l51 -146h6z" />
    <glyph glyph-name="uni04B0" unicode="&#x4b0;" horiz-adv-x="1223" 
d="M102 1456l481 -809l19 -35h15l19 35l483 809h66l-512 -844h224v-54h-257l-2 -5v-553h-55v553l-3 5h-270v54h238l-512 844h66z" />
    <glyph glyph-name="uni04B1" unicode="&#x4b1;" horiz-adv-x="978" 
d="M778 60v-54h-262v-1v-420h-54v417l-2 4h-269v54h248l-396 1022h58l334 -853l51 -146h6l52 146l333 853h58l-398 -1022h241z" />
    <glyph glyph-name="uni04B2" unicode="&#x4b2;" horiz-adv-x="1223" 
d="M141 1456l469 -671l471 671h67l-503 -713l524 -743h-67l-492 701l-491 -701h-66l524 743l-504 713h68zM1173 95v-447h-54v447h54z" />
    <glyph glyph-name="uni04B3" unicode="&#x4b3;" horiz-adv-x="978" 
d="M143 1082l346 -480l345 480h68l-380 -527l400 -555h-67l-367 508l-366 -508h-67l400 555l-380 527h68zM944 95v-447h-54v447h54z" />
    <glyph glyph-name="uni04B4" unicode="&#x4b4;" horiz-adv-x="1720" 
d="M448 0v1401h-430v54h430v1h54v-1h460v-54h-460v-1347h930v1402h54v-1456h-1038zM1540 95v-447h-54v447h54z" />
    <glyph glyph-name="uni04B5" unicode="&#x4b5;" horiz-adv-x="1305" 
d="M353 0v1031h-327v54h708v-54h-327v-977h669v1028h55v-1082h-778zM1186 54v-402h-54v402h54z" />
    <glyph glyph-name="uni04B6" unicode="&#x4b6;" horiz-adv-x="1325" 
d="M1076 1456h54v-1456h-54v719q-217 -61 -402 -61q-238 0 -359 104q-120 105 -120 343v351h54v-351q0 -204 105 -298.5t320 -94.5q197 0 402 60v684zM1183 95v-447h-54v447h54z" />
    <glyph glyph-name="uni04B7" unicode="&#x4b7;" horiz-adv-x="1122" 
d="M950 1082v-1082h-54v522q-66 -33 -156 -57q-92 -23 -159 -23q-221 0 -315 84q-94 85 -94 322v234h54v-234q0 -205 80 -279q79 -73 275 -73q81 3 169 25q86 21 146 52v509h54zM1003 95v-447h-54v447h54z" />
    <glyph glyph-name="uni04B8" unicode="&#x4b8;" horiz-adv-x="1325" 
d="M1076 1456h54v-1456h-54v719q-201 -56 -366 -60v-258h-55v257q-224 5 -340 104q-120 105 -120 343v351h54v-351q0 -199 100.5 -294t305.5 -99v371h55v-371q180 6 366 60v684z" />
    <glyph glyph-name="uni04B9" unicode="&#x4b9;" horiz-adv-x="1122" 
d="M895 1082h55v-1082h-55v522q-66 -33 -156 -57q-49 -12 -99 -19v-203h-56v199h-4q-220 0 -315 84q-94 85 -94 322v234h55v-234q0 -206 79 -279t275 -73q3 0 4 1v302h56v-298q51 6 109 20q86 21 146 52v509z" />
    <glyph glyph-name="uni04BA" unicode="&#x4ba;" horiz-adv-x="1325" 
d="M249 0h-54v1456h54v-719q226 61 402 61q242 0 360.5 -107t118.5 -340v-351h-54v351q0 202 -106 297.5t-319 95.5q-193 0 -402 -60v-684z" />
    <glyph glyph-name="uni04BB" unicode="&#x4bb;" horiz-adv-x="1122" 
d="M182 0v1082h54v-522q68 34 156 56q90 24 159 24q221 0 315 -85q94 -84 94 -321v-234h-54v234q0 204 -80 278t-275 74q-76 -3 -170 -26q-89 -22 -145 -51v-509h-54z" />
    <glyph glyph-name="uni04BC" unicode="&#x4bc;" horiz-adv-x="1720" 
d="M926 -23q-293 0 -455 170q-162 171 -162 452v172v12q-144 10 -221 89t-73 216l3 6h47q0 -116 62.5 -182t183.5 -75q19 283 183 460q165 178 407 178q263 0 420 -165q158 -166 158 -444v-83h-1116v-12v-172q0 -253 141 -410q141 -158 422 -158q273 0 456 154l30 -43
q-88 -76 -200 -121q-112 -44 -286 -44zM901 1420q-230 0 -374 -164q-144 -165 -157 -413l2 -5h1053v31q0 238 -140 395q-139 156 -384 156z" />
    <glyph glyph-name="uni04BD" unicode="&#x4bd;" horiz-adv-x="1203" 
d="M701 -21q-191 0 -323 148q-131 149 -131 373v64v20q-112 12 -172 80.5t-56 182.5l2 5h48q0 -192 182 -215q19 206 146 336q127 129 309 129q180 0 287 -119t107 -323v-83h-799v-13v-64q0 -199 112 -333q113 -134 288 -134q97 0 186 36q91 36 146 96l29 -42
q-130 -144 -361 -144zM706 1048q-168 0 -276 -117t-121 -294l3 -6h734v33q0 168 -91 275q-91 109 -249 109z" />
    <glyph glyph-name="uni04BE" unicode="&#x4be;" horiz-adv-x="1720" 
d="M926 -23q-293 0 -455 170q-162 171 -162 452v172v12q-144 10 -221 89t-73 216l3 6h47q0 -116 62.5 -182t183.5 -75q19 283 183 460q165 178 407 178q263 0 420 -165q158 -166 158 -444v-83h-1116v-12v-172q0 -253 141 -410q141 -158 422 -158q273 0 456 154l30 -43
q-88 -76 -200 -121q-112 -44 -286 -44zM901 1420q-230 0 -374 -164q-144 -165 -157 -413l2 -5h1053v31q0 238 -140 395q-139 156 -384 156zM878 20l52 -20q-74 -66 -112 -116q-36 -48 -36 -107q0 -23 16 -51q17 -29 68 -29q55 0 110 38l16 -48q-59 -44 -126 -44
q-62 0 -100 36t-38 98q0 113 150 243z" />
    <glyph glyph-name="uni04BF" unicode="&#x4bf;" horiz-adv-x="1203" 
d="M701 -21q-191 0 -323 148q-131 149 -131 373v64v20q-112 12 -172 80.5t-56 182.5l2 5h48q0 -192 182 -215q19 206 146 336q127 129 309 129q180 0 287 -119t107 -323v-83h-799v-13v-64q0 -199 112 -333q113 -134 288 -134q97 0 186 36q91 36 146 96l29 -42
q-130 -144 -361 -144zM706 1048q-168 0 -276 -117t-121 -294l3 -6h734v33q0 168 -91 275q-91 109 -249 109zM619 20l52 -20q-74 -66 -112 -116q-36 -48 -36 -107q0 -23 16 -51q17 -29 68 -29q55 0 110 38l16 -48q-59 -44 -126 -44q-62 0 -100 36t-38 98q0 113 150 243z" />
    <glyph glyph-name="uni04C0" unicode="&#x4c0;" horiz-adv-x="534" 
d="M294 1456v-1456h-54v1456h54z" />
    <glyph glyph-name="uni04C1" unicode="&#x4c1;" horiz-adv-x="1615" 
d="M1514 0l-578 720h-101v-720h-54v720h-103l-577 -720h-65l-3 5l588 732l-557 719h71l529 -682h117v682h54v-682h116l529 682h70l-557 -719l589 -732l-3 -5h-65zM1067 1839h46l2 -6q5 -107 -70 -175q-73 -67 -202 -67q-130 0 -204 67q-74 68 -69 175l2 6h46q0 -90 56 -141
t169 -51q109 0 166.5 52.5t57.5 139.5z" />
    <glyph glyph-name="uni04C2" unicode="&#x4c2;" horiz-adv-x="1508" 
d="M1395 0l-500 528h-116v-528h-54v528h-115l-498 -528h-64l-2 5l506 547l-443 525l2 5h60l430 -500h124v500h54v-500h127l429 500h62l2 -5l-446 -525l508 -546l-3 -6h-63zM959 1496h46l2 -6q5 -107 -70 -175q-73 -67 -202 -67q-130 0 -204 67q-74 68 -69 175l2 6h46
q0 -90 56 -141t169 -51q109 0 166.5 52.5t57.5 139.5z" />
    <glyph glyph-name="uni04C3" unicode="&#x4c3;" horiz-adv-x="1223" 
d="M1112 1451l-566 -672l2 -5h60q238 0 379 -117t141 -372q3 -139 -93 -277q-96 -137 -312 -181l-15 42q194 39 278 158q83 118 88 258q6 222 -124 328q-130 108 -342 108h-358v-721h-54v1456h54v-682h218l578 682h64z" />
    <glyph glyph-name="uni04C4" unicode="&#x4c4;" horiz-adv-x="1046" 
d="M936 1077l-455 -494q219 -11 346 -118q129 -108 129 -329q3 -126 -84 -252q-86 -126 -280 -164l-17 42q172 34 248 142q74 106 79 232q6 200 -124 297t-342 97h-4l-1 -1h-205v-529h-55v1082h55v-498h180l457 498h71z" />
    <glyph glyph-name="uni04C5" unicode="&#x4c5;" horiz-adv-x="1428" 
d="M420 1456h813v-1456h-54v1402h-709l-38 -580q-24 -470 -95 -647q-70 -175 -271 -175h-32v54h35q156 0 221 152q64 152 88 616zM1286 135v-167l-70 -250h-51l67 246v171h54z" />
    <glyph glyph-name="uni04C6" unicode="&#x4c6;" horiz-adv-x="1122" 
d="M305 1082h645v-1082h-55v1027h-536v-437q0 -316 -65 -454q-64 -136 -218 -136h-32v53h35q114 0 170 117q56 118 56 420v492zM1002 135v-167l-70 -250h-51l67 246v171h54z" />
    <glyph glyph-name="uni04C7" unicode="&#x4c7;" horiz-adv-x="1428" 
d="M195 1456h54v-707h930v707h54v-1545q0 -167 -74.5 -257.5t-209.5 -90.5q-51 0 -113 20l14 52q52 -18 99 -18q109 0 169.5 77t60.5 217v784h-930v-695h-54v1456z" />
    <glyph glyph-name="uni04C8" unicode="&#x4c8;" 
d="M172 1082h54v-499h669v499h55v-1171q0 -167 -75 -257.5t-211 -90.5q-50 0 -112 20l13 52q52 -18 99 -18q110 0 170.5 76.5t60.5 217.5v618h-669v-529h-54v1082z" />
    <glyph glyph-name="uni04C9" unicode="&#x4c9;" horiz-adv-x="1438" 
d="M1238 1456v-1456h-54v695h-930v-695h-54v1456h54v-707h930v707h54zM1291 135v-167l-70 -250h-51l67 246v171h54z" />
    <glyph glyph-name="uni04CA" unicode="&#x4ca;" 
d="M950 1082v-1082h-55v529h-669v-529h-54v1082h54v-499h669v499h55zM1001 135v-167l-70 -250h-51l67 246v171h54z" />
    <glyph glyph-name="uni04CB" unicode="&#x4cb;" horiz-adv-x="1325" 
d="M1076 1456h54v-1456h-54v719q-217 -61 -402 -61q-238 0 -359 104q-120 105 -120 343v351h54v-351q0 -204 105 -298.5t320 -94.5q197 0 402 60v684zM1074 95v-447h-54v447h54z" />
    <glyph glyph-name="uni04CC" unicode="&#x4cc;" horiz-adv-x="1122" 
d="M950 1082v-1082h-54v522q-66 -33 -156 -57q-92 -23 -159 -23q-221 0 -315 84q-94 85 -94 322v234h54v-234q0 -205 80 -279q79 -73 275 -73q81 3 169 25q86 21 146 52v509h54zM896 95v-447h-54v447h54z" />
    <glyph glyph-name="uni04CD" unicode="&#x4cd;" horiz-adv-x="1756" 
d="M272 1456l608 -1080h8l607 1080h61v-1456h-54v1345l-6 1l-588 -1046h-47l-601 1053l-6 -1v-1352h-54v1456h72zM1609 135v-167l-70 -250h-51l67 246v171h54z" />
    <glyph glyph-name="uni04CE" unicode="&#x4ce;" horiz-adv-x="1476" 
d="M255 1082l492 -731l492 731h65v-1082h-55v989l-6 1l-473 -717h-42l-487 717l-6 -1v-989h-54v1082h74zM1358 135v-167l-70 -250h-51l67 246v171h54z" />
    <glyph glyph-name="uni04CF" unicode="&#x4cf;" horiz-adv-x="534" 
d="M294 1456v-1456h-54v1456h54z" />
    <glyph glyph-name="uni04D0" unicode="&#x4d0;" horiz-adv-x="1223" 
d="M1130 0l-163 435h-711l-163 -435h-59l544 1456h66l545 -1456h-59zM581 1304l-305 -815h671l-305 815l-28 85h-6zM835 1839h46l2 -6q5 -107 -70 -175q-73 -67 -202 -67q-130 0 -204 67q-74 68 -69 175l2 6h46q0 -90 56 -141t169 -51q109 0 166.5 52.5t57.5 139.5z" />
    <glyph glyph-name="uni04D1" unicode="&#x4d1;" horiz-adv-x="1081" 
d="M520 1102q109 0 193 -36t136 -114.5t55 -191.5l-1 -760h-42l-9 178q-76 -97 -189.5 -148t-248.5 -51q-147 0 -235 81t-88 224q0 79 41.5 142.5t108.5 101t144 57t156 19.5q97 0 174 -13t106 -25l29 -13v209q0 135 -86.5 210.5t-243.5 75.5q-203 0 -354 -83l-21 53
q170 84 375 84zM850 234v269q-10 6 -31 14t-100 22t-175 14q-67 0 -134.5 -17t-128 -48.5t-98.5 -86t-38 -121.5q0 -114 75.5 -181t193.5 -67q280 0 436 202zM757 1519h46l2 -6q5 -107 -70 -175q-73 -67 -202 -67q-130 0 -204 67q-74 68 -69 175l2 6h46q0 -90 56 -141
t169 -51q109 0 166.5 52.5t57.5 139.5z" />
    <glyph glyph-name="uni04D2" unicode="&#x4d2;" horiz-adv-x="1223" 
d="M1130 0l-163 435h-711l-163 -435h-59l544 1456h66l545 -1456h-59zM581 1304l-305 -815h671l-305 815l-28 85h-6zM923 1791v-118h-136v118h136zM454 1791v-118h-137v118h137z" />
    <glyph glyph-name="uni04D3" unicode="&#x4d3;" horiz-adv-x="1081" 
d="M520 1102q109 0 193 -36t136 -114.5t55 -191.5l-1 -760h-42l-9 178q-76 -97 -189.5 -148t-248.5 -51q-147 0 -235 81t-88 224q0 79 41.5 142.5t108.5 101t144 57t156 19.5q97 0 174 -13t106 -25l29 -13v209q0 135 -86.5 210.5t-243.5 75.5q-203 0 -354 -83l-21 53
q170 84 375 84zM850 234v269q-10 6 -31 14t-100 22t-175 14q-67 0 -134.5 -17t-128 -48.5t-98.5 -86t-38 -121.5q0 -114 75.5 -181t193.5 -67q280 0 436 202zM845 1471v-118h-136v118h136zM376 1471v-118h-137v118h137z" />
    <glyph glyph-name="uni04D4" unicode="&#x4d4;" horiz-adv-x="1816" 
d="M1768 54v-54h-752l-18 425h-628l-255 -425h-65l881 1456h776v-54h-696l26 -616h588v-54h-586l28 -678h701zM895 1298l-493 -820h594l-39 924l-5 1z" />
    <glyph glyph-name="uni04D5" unicode="&#x4d5;" horiz-adv-x="1802" 
d="M1651 124l18 -57q-116 -50 -197 -69t-203 -19q-142 0 -244 65t-156 185l-16 39q-26 -145 -136 -217t-268 -72q-160 0 -257.5 77.5t-97.5 227.5q0 92 30 156.5t88.5 101t134 52.5t177.5 16h290v109q0 158 -72.5 243.5t-209.5 87.5q-85 -1 -172.5 -28.5t-156.5 -85.5
l-36 41q73 65 170.5 95t194.5 30q132 0 219 -75t110 -213q50 130 155 209t238 79q191 0 299.5 -123t104.5 -319v-95h-787v-14v-51q0 -136 40.5 -238.5t131.5 -166t226 -66.5q115 0 196 20.5t186 74.5zM880 615v-4h724v53q2 166 -92.5 276.5t-257.5 110.5
q-170 -7 -268.5 -129t-105.5 -307zM814 315v248h-288q-90 -2 -152 -13.5t-116.5 -41t-81.5 -86t-27 -142.5q0 -118 77.5 -183.5t221.5 -67.5q68 1 129 18.5t112 51t84.5 89.5t40.5 127z" />
    <glyph glyph-name="uni04D6" unicode="&#x4d6;" horiz-adv-x="1129" 
d="M954 786v-54h-700v-678h765v-54h-819v1456h819v-54h-765v-616h700zM842 1839h46l2 -6q5 -107 -70 -175q-73 -67 -202 -67q-130 0 -204 67q-74 68 -69 175l2 6h46q0 -90 56 -141t169 -51q109 0 166.5 52.5t57.5 139.5z" />
    <glyph glyph-name="uni04D7" unicode="&#x4d7;" horiz-adv-x="1039" 
d="M551 -21q-191 0 -323 148q-131 149 -131 373v64q0 235 130 386q131 152 329 152q180 0 287 -119t107 -323v-83h-799v-13v-64q0 -199 112 -333q113 -134 288 -134q186 0 348 84l32 -47q-162 -91 -380 -91zM556 1048q-168 0 -276 -117t-121 -294l3 -6h734v33q0 168 -91 275
q-91 109 -249 109zM780 1518h46l2 -6q5 -107 -70 -175q-73 -67 -202 -67q-130 0 -204 67q-74 68 -69 175l2 6h46q0 -90 56 -141t169 -51q109 0 166.5 52.5t57.5 139.5z" />
    <glyph glyph-name="uni04D8" unicode="&#x4d8;" horiz-adv-x="1457" 
d="M688 1477q313 0 485 -171q174 -171 174 -451v-172q0 -311 -174 -507q-174 -197 -439 -197q-281 0 -450 164q-168 165 -168 445v83h1177v12v172q0 251 -152 409q-151 159 -453 159q-274 0 -455 -154l-30 43q89 75 198 120q111 45 287 45zM734 33q239 0 387 163
q149 164 164 414l-3 6h-1112v-32q0 -239 150 -395t414 -156z" />
    <glyph glyph-name="uni04D9" unicode="&#x4d9;" horiz-adv-x="1078" 
d="M563 1103q192 0 322 -148q132 -149 132 -373v-64q0 -235 -131 -387q-130 -151 -328 -151q-181 0 -287 118q-107 119 -107 324v83h799v13v64q0 199 -112 332q-113 135 -288 135q-186 0 -348 -84l-32 47q162 91 380 91zM558 34q168 0 275 116q109 118 122 295l-3 6h-734
v-33q0 -167 91 -276q91 -108 249 -108z" />
    <glyph glyph-name="uni04DA" unicode="&#x4da;" horiz-adv-x="1457" 
d="M688 1477q313 0 485 -171q174 -171 174 -451v-172q0 -311 -174 -507q-174 -197 -439 -197q-281 0 -450 164q-168 165 -168 445v83h1177v12v172q0 251 -152 409q-151 159 -453 159q-274 0 -455 -154l-30 43q89 75 198 120q111 45 287 45zM734 33q239 0 387 163
q149 164 164 414l-3 6h-1112v-32q0 -239 150 -395t414 -156zM1004 1745v-118h-136v118h136zM535 1745v-118h-137v118h137z" />
    <glyph glyph-name="uni04DB" unicode="&#x4db;" horiz-adv-x="1078" 
d="M563 1103q192 0 322 -148q132 -149 132 -373v-64q0 -235 -131 -387q-130 -151 -328 -151q-181 0 -287 118q-107 119 -107 324v83h799v13v64q0 199 -112 332q-113 135 -288 135q-186 0 -348 -84l-32 47q162 91 380 91zM558 34q168 0 275 116q109 118 122 295l-3 6h-734
v-33q0 -167 91 -276q91 -108 249 -108zM879 1469v-118h-136v118h136zM410 1469v-118h-137v118h137z" />
    <glyph glyph-name="uni04DC" unicode="&#x4dc;" horiz-adv-x="1615" 
d="M1514 0l-578 720h-101v-720h-54v720h-103l-577 -720h-65l-3 5l588 732l-557 719h71l529 -682h117v682h54v-682h116l529 682h70l-557 -719l589 -732l-3 -5h-65zM1155 1791v-118h-136v118h136zM686 1791v-118h-137v118h137z" />
    <glyph glyph-name="uni04DD" unicode="&#x4dd;" horiz-adv-x="1508" 
d="M1395 0l-500 528h-116v-528h-54v528h-115l-498 -528h-64l-2 5l506 547l-443 525l2 5h60l430 -500h124v500h54v-500h127l429 500h62l2 -5l-446 -525l508 -546l-3 -6h-63zM1047 1449v-118h-136v118h136zM578 1449v-118h-137v118h137z" />
    <glyph glyph-name="uni04DE" unicode="&#x4de;" horiz-adv-x="1196" 
d="M719 745q146 -27 222.5 -121.5t76.5 -237.5q0 -193 -114 -300t-320 -107q-246 0 -386 101l26 53q133 -104 360 -104q174 2 277.5 94t103.5 259q0 73 -22 130t-60 95t-92.5 63t-116.5 35.5t-134 10.5h-82v53h82q169 0 281 85t112 232q0 159 -95.5 249t-262.5 90
q-88 0 -174 -25.5t-147 -78.5l-26 46q58 52 155 81t192 29q198 0 305 -104.5t107 -290.5q0 -118 -74.5 -211.5t-193.5 -125.5zM891 1812v-118h-136v118h136zM422 1812v-118h-137v118h137z" />
    <glyph glyph-name="uni04DF" unicode="&#x4df;" horiz-adv-x="922" 
d="M537 551q108 -20 165.5 -90.5t57.5 -177.5q0 -144 -85.5 -224t-239.5 -80q-184 0 -288 76l19 56q100 -78 269 -78q266 3 266 247q0 127 -80 187t-219 60h-61v51h61q125 0 200 59t75 169q0 120 -59.5 177.5t-184.5 57.5q-151 0 -240 -77l-24 53q44 38 116.5 59.5
t143.5 21.5q148 0 228 -78t80 -217q0 -88 -56 -157.5t-144 -94.5zM739 1468v-118h-136v118h136zM270 1468v-118h-137v118h137z" />
    <glyph glyph-name="uni04E0" unicode="&#x4e0;" horiz-adv-x="1166" 
d="M143 1456h869l3 -68l-476 -556l2 -5h32q216 0 325 -112.5t109 -328.5q0 -190 -121 -299q-122 -108 -313 -108q-184 0 -317 109t-128 310l2 6h48q0 -165 109 -268t286 -103q179 0 280 92q100 93 100 257q0 204 -95.5 300.5t-288.5 96.5h-101v55l481 563l-2 5h-804v54z" />
    <glyph glyph-name="uni04E1" unicode="&#x4e1;" horiz-adv-x="1166" 
d="M468 460l482 562l-2 5h-805v55h869l3 -68l-482 -562h10q221 0 342 -115q122 -116 122 -326q0 -188 -121 -297t-313 -109q-183 0 -316 109q-133 110 -129 309l2 6h48q0 -163 109 -266q110 -104 286 -104q179 0 280 93q100 91 100 255q0 202 -110 300q-109 97 -304 97h-71
v56z" />
    <glyph glyph-name="uni04E2" unicode="&#x4e2;" horiz-adv-x="1449" 
d="M260 103l935 1353h54v-1456h-54v1354l-6 2l-935 -1356h-54v1456h54v-1351zM1042 1786v-53h-627v53h627z" />
    <glyph glyph-name="uni04E3" unicode="&#x4e3;" 
d="M232 104l663 978h55v-1082h-55v976l-6 2l-663 -978h-54v1082h54v-976zM861 1444v-53h-627v53h627z" />
    <glyph glyph-name="uni04E4" unicode="&#x4e4;" horiz-adv-x="1449" 
d="M260 103l935 1353h54v-1456h-54v1354l-6 2l-935 -1356h-54v1456h54v-1351zM1047 1791v-118h-136v118h136zM578 1791v-118h-137v118h137z" />
    <glyph glyph-name="uni04E5" unicode="&#x4e5;" 
d="M232 104l663 978h55v-1082h-55v976l-6 2l-663 -978h-54v1082h54v-976zM866 1449v-118h-136v118h136zM397 1449v-118h-137v118h137z" />
    <glyph glyph-name="uni04E6" unicode="&#x4e6;" horiz-adv-x="1364" 
d="M1231 837v-218q0 -344 -146 -493q-145 -147 -402 -147t-404 147q-146 149 -146 493v218q0 359 156 499q156 141 392 141q243 0 397 -140q153 -139 153 -500zM1177 619v220q0 317 -129 450q-129 134 -367 137q-238 -3 -365 -139q-128 -136 -128 -448v-220q0 -314 128 -451
q129 -135 367 -139q239 5 366 138q128 134 128 452zM987 1812v-118h-136v118h136zM518 1812v-118h-137v118h137z" />
    <glyph glyph-name="uni04E7" unicode="&#x4e7;" 
d="M87 520v42q0 256 131 398q132 142 342 142q212 0 342 -144q132 -142 132 -396v-42q0 -256 -132 -398q-131 -143 -340 -143q-211 0 -343 143q-132 142 -132 398zM141 562v-42q0 -224 114 -356q114 -131 307 -131q190 0 304 131q114 132 114 356v42q0 213 -115 349
q-116 137 -305 137q-191 0 -305 -137t-114 -349zM893 1469v-118h-136v118h136zM424 1469v-118h-137v118h137z" />
    <glyph glyph-name="uni04E8" unicode="&#x4e8;" horiz-adv-x="1364" 
d="M1231 837v-218q0 -295 -146 -468q-145 -172 -402 -172t-404 172q-146 173 -146 468v218q0 295 145 467q146 173 403 173q256 0 403 -173q147 -172 147 -467zM960 620q84 0 142 46t75 116v57q0 269 -129 426q-129 158 -367 158q-237 0 -365 -158t-128 -426v-142
q36 52 96 81t133 29q140 0 291 -94q152 -93 252 -93zM1177 619v50q-76 -97 -217 -97q-142 0 -291 93q-148 94 -252 94q-101 0 -160 -53q-58 -52 -68 -131q10 -251 138 -397q127 -145 356 -145q239 0 366 157q128 158 128 429z" />
    <glyph glyph-name="uni04E9" unicode="&#x4e9;" horiz-adv-x="1153" 
d="M87 520v42q0 237 131 389q132 151 342 151q212 0 342 -151q132 -152 132 -389v-42q0 -238 -132 -390q-130 -151 -340 -151q-211 0 -343 151q-132 152 -132 390zM141 562v-9q70 76 210 76q106 0 222 -80t192 -80q73 0 135 35q62 34 79 90q-10 188 -124 321
q-112 133 -295 133q-191 0 -305 -144q-114 -142 -114 -342zM352 579q-79 0 -136 -30t-73 -80q13 -187 126 -312q112 -124 293 -124q182 0 295 132q112 132 114 320l-3 5q-28 -33 -82.5 -52t-120.5 -19q-109 0 -222 80t-191 80z" />
    <glyph glyph-name="uni04EA" unicode="&#x4ea;" horiz-adv-x="1364" 
d="M1231 837v-218q0 -295 -146 -468q-145 -172 -402 -172t-404 172q-146 173 -146 468v218q0 295 145 467q146 173 403 173q256 0 403 -173q147 -172 147 -467zM960 620q84 0 142 46t75 116v57q0 269 -129 426q-129 158 -367 158q-237 0 -365 -158t-128 -426v-142
q36 52 96 81t133 29q140 0 291 -94q152 -93 252 -93zM1177 619v50q-76 -97 -217 -97q-142 0 -291 93q-148 94 -252 94q-101 0 -160 -53q-58 -52 -68 -131q10 -251 138 -397q127 -145 356 -145q239 0 366 157q128 158 128 429zM1021 1786v-118h-136v118h136zM552 1786v-118
h-137v118h137z" />
    <glyph glyph-name="uni04EB" unicode="&#x4eb;" horiz-adv-x="1153" 
d="M87 520v42q0 237 131 389q132 151 342 151q212 0 342 -151q132 -152 132 -389v-42q0 -238 -132 -390q-130 -151 -340 -151q-211 0 -343 151q-132 152 -132 390zM141 562v-9q70 76 210 76q106 0 222 -80t192 -80q73 0 135 35q62 34 79 90q-10 188 -124 321
q-112 133 -295 133q-191 0 -305 -144q-114 -142 -114 -342zM352 579q-79 0 -136 -30t-73 -80q13 -187 126 -312q112 -124 293 -124q182 0 295 132q112 132 114 320l-3 5q-28 -33 -82.5 -52t-120.5 -19q-109 0 -222 80t-191 80zM870 1497v-118h-136v118h136zM401 1497v-118
h-137v118h137z" />
    <glyph glyph-name="uni04EC" unicode="&#x4ec;" horiz-adv-x="1325" 
d="M198 1011h-46l-2 6q-5 224 134 342q140 119 370 119q238 0 382 -177q145 -176 145 -463v-218q0 -288 -145 -464q-144 -176 -382 -176q-230 0 -369 118q-140 119 -135 341l2 6h46q0 -197 122 -304q124 -107 334 -107q212 0 342 160q131 161 131 424v112h-582v54h582v54
q0 264 -131 425t-342 161q-212 0 -334 -104t-122 -309zM1003 1813v-118h-136v118h136zM534 1813v-118h-137v118h137z" />
    <glyph glyph-name="uni04ED" unicode="&#x4ed;" horiz-adv-x="1089" 
d="M514 1048q-136 0 -237 -75q-99 -73 -99 -224h-48l-2 6q-4 159 111 253t275 94q208 0 329 -150q123 -148 123 -390v-42q0 -241 -122 -392q-122 -149 -328 -149q-167 0 -280 98q-112 99 -108 279l2 6h48q0 -161 97 -245q98 -84 241 -84q188 0 290 135q103 136 102 343l-3 5
h-565v54h565l2 5q1 205 -102 339q-102 134 -291 134zM858 1469v-118h-136v118h136zM389 1469v-118h-137v118h137z" />
    <glyph glyph-name="uni04EE" unicode="&#x4ee;" horiz-adv-x="1347" 
d="M110 1456l504 -899l55 -101l20 40l506 960h66l-629 -1199q-58 -113 -141 -196q-81 -82 -222 -82q-49 0 -114 15q-64 15 -93 38l15 51q36 -22 91 -36t106 -14q182 0 299 233l65 128l-595 1062h67zM952 1786v-53h-627v53h627z" />
    <glyph glyph-name="uni04EF" unicode="&#x4ef;" horiz-adv-x="978" 
d="M102 1082l356 -886l40 -108h6l6 16l374 978h60l-481 -1262q-71 -158 -123 -207q-53 -50 -166 -50h-87l5 53h82q93 0 134 37q42 36 101 177l65 176l-431 1076h59zM820 1444v-53h-627v53h627z" />
    <glyph glyph-name="uni04F0" unicode="&#x4f0;" horiz-adv-x="1347" 
d="M110 1456l504 -899l55 -101l20 40l506 960h66l-629 -1199q-58 -113 -141 -196q-81 -82 -222 -82q-49 0 -114 15q-64 15 -93 38l15 51q36 -22 91 -36t106 -14q182 0 299 233l65 128l-595 1062h67zM957 1791v-118h-136v118h136zM488 1791v-118h-137v118h137z" />
    <glyph glyph-name="uni04F1" unicode="&#x4f1;" horiz-adv-x="978" 
d="M102 1082l356 -886l40 -108h6l6 16l374 978h60l-481 -1262q-71 -158 -123 -207q-53 -50 -166 -50h-87l5 53h82q93 0 134 37q42 36 101 177l65 176l-431 1076h59zM825 1449v-118h-136v118h136zM356 1449v-118h-137v118h137z" />
    <glyph glyph-name="uni04F2" unicode="&#x4f2;" horiz-adv-x="1347" 
d="M110 1456l504 -899l55 -101l20 40l506 960h66l-629 -1199q-58 -113 -141 -196q-81 -82 -222 -82q-49 0 -114 15q-64 15 -93 38l15 51q36 -22 91 -36t106 -14q182 0 299 233l65 128l-595 1062h67zM697 1607l285 260h72l2 -6l-292 -260h-65zM471 1606l241 261h68l3 -6
l-248 -260h-62z" />
    <glyph glyph-name="uni04F3" unicode="&#x4f3;" horiz-adv-x="978" 
d="M102 1082l356 -886l40 -108h6l6 16l374 978h60l-481 -1262q-71 -158 -123 -207q-53 -50 -166 -50h-87l5 53h82q93 0 134 37q42 36 101 177l65 176l-431 1076h59zM565 1264l285 260h72l2 -6l-292 -260h-65zM339 1263l241 261h68l3 -6l-248 -260h-62z" />
    <glyph glyph-name="uni04F4" unicode="&#x4f4;" horiz-adv-x="1325" 
d="M1076 1456h54v-1456h-54v719q-217 -61 -402 -61q-238 0 -359 104q-120 105 -120 343v351h54v-351q0 -204 105 -298.5t320 -94.5q197 0 402 60v684zM999 1791v-118h-136v118h136zM530 1791v-118h-137v118h137z" />
    </font>
</defs>
</svg>
